<?xml version="1.0" standalone="no"?>
<!DOCTYPE svg PUBLIC "-//W3C//DTD SVG 20010904//RU"
 "http://www.w3.org/TR/2001/REC-SVG-20010904/DTD/svg10.dtd">
<svg version="1.0" xmlns="http://www.w3.org/2000/svg"
 width="258.000000pt" height="76.000000pt" viewBox="0 0 258.000000 76.000000"
 preserveAspectRatio="xMidYMid meet">

<g transform="translate(0.000000,76.000000) scale(0.100000,-0.100000)"
fill="#000000" stroke="none" >
<path d="M244 525 l-79 -175 -53 0 c-49 0 -53 -2 -47 -21 4 -11 20 -42 35 -67
15 -26 47 -80 69 -120 l42 -72 74 0 c50 0 75 4 75 11 0 7 -18 43 -39 80 l-40
69 980 0 c538 0 979 -2 979 -5 0 -6 -29 -74 -46 -107 -23 -44 -18 -48 50 -48
61 0 64 1 76 30 7 16 12 33 13 37 0 4 5 13 9 18 11 13 98 182 98 189 0 4 -431
6 -957 6 -527 0 -961 0 -964 0 -4 0 15 57 41 128 39 102 52 128 69 130 18 3
21 10 21 48 l0 44 -164 0 -163 0 -79 -175z m376 131 c0 -8 -7 -16 -16 -18 -8
-2 -24 -25 -34 -53 -10 -27 -36 -98 -58 -157 l-40 -108 960 0 959 0 -7 -22
c-3 -13 -27 -62 -52 -110 -43 -84 -47 -88 -79 -88 -18 0 -33 4 -33 8 0 5 14
36 30 70 17 34 30 67 30 72 0 7 -358 10 -1020 10 -561 0 -1020 -3 -1020 -8 0
-4 6 -16 14 -27 17 -26 66 -114 66 -120 0 -3 -23 -5 -50 -5 -39 0 -52 4 -57
18 -4 9 -29 53 -55 97 -26 44 -48 85 -48 92 0 6 16 13 36 15 35 3 37 6 77 94
23 50 58 128 77 172 l35 82 143 0 c116 0 142 -3 142 -14z"/>
<path d="M387 613 c-5 -8 -117 -283 -117 -287 0 -8 132 2 141 11 11 11 109
258 109 276 0 9 -127 9 -133 0z m86 -30 c2 -5 -14 -56 -36 -115 l-39 -106 -40
-4 c-22 -2 -41 -1 -43 2 -2 4 6 29 19 56 12 27 33 77 45 112 22 59 25 62 57
62 18 0 35 -3 37 -7z"/>
<path d="M715 619 l-35 -31 0 -89 0 -89 80 0 80 0 0 30 c0 29 -1 30 -50 30
-38 0 -50 4 -50 15 0 11 12 15 50 15 49 0 50 0 50 31 0 31 0 31 -50 27 -42 -2
-50 0 -50 15 0 14 9 17 48 17 41 0 53 5 77 30 l29 30 -72 0 c-66 0 -74 -3
-107 -31z"/>
<path d="M1406 599 c-60 -55 -60 -55 -59 19 0 29 -8 28 -40 -6 -25 -26 -27
-35 -27 -110 0 -45 3 -82 8 -82 4 0 41 30 82 67 l75 67 3 -72 3 -72 29 0 30 0
0 120 0 120 -24 0 c-15 0 -45 -19 -80 -51z"/>
<path d="M1565 620 l-29 -30 32 0 32 0 0 -90 0 -90 30 0 30 0 0 88 c0 85 1 88
30 111 17 13 30 27 30 32 0 5 -28 9 -63 9 -57 0 -66 -3 -92 -30z"/>
<path d="M1800 568 c-84 -76 -90 -84 -90 -120 l0 -39 24 23 c41 39 138 123
147 126 5 2 9 -10 9 -27 0 -27 -4 -31 -26 -31 -14 0 -39 -13 -57 -30 l-32 -30
58 0 c44 0 57 -3 57 -15 0 -10 10 -15 30 -15 l30 0 0 120 0 120 -30 0 c-23 0
-49 -18 -120 -82z"/>
<path d="M2100 593 c-35 -32 -76 -70 -92 -85 -21 -19 -28 -35 -28 -63 l0 -37
84 76 c46 42 86 76 90 76 3 0 6 -34 6 -76 l0 -75 28 3 27 3 0 115 0 115 -26 3
c-21 2 -41 -10 -89 -55z"/>
<path d="M897 622 c-16 -17 -15 -20 18 -52 19 -19 35 -38 35 -43 0 -5 -11 -18
-25 -29 -19 -15 -25 -29 -25 -58 l0 -39 47 43 c54 51 83 49 83 -4 0 -26 3 -30
29 -30 26 0 30 4 33 33 4 45 34 46 80 2 20 -19 39 -35 42 -35 3 0 6 15 6 34 0
25 -7 40 -25 54 -14 11 -25 24 -25 30 0 5 23 30 50 56 28 26 50 49 50 51 0 3
-17 5 -37 5 -32 0 -46 -8 -88 -51 l-50 -50 -3 51 c-3 48 -4 50 -33 50 -28 0
-29 -1 -29 -51 l0 -52 -54 52 c-30 28 -57 51 -59 51 -2 0 -11 -8 -20 -18z"/>
<path d="M2270 603 c-18 -23 -20 -38 -18 -107 l3 -81 61 -3 c55 -3 63 0 92 28
43 40 43 79 1 120 -41 38 -79 41 -79 5 0 -18 7 -28 25 -35 26 -10 35 -47 13
-55 -51 -17 -53 -14 -55 65 -1 41 -2 78 -2 83 -2 15 -20 6 -41 -20z"/>
</g>
</svg>
