<svg version="1.0" xmlns="http://www.w3.org/2000/svg" width="344" height="101.333" viewBox="0 0 258 76"><path d="M24.4 23.5L16.5 41h-5.3c-4.9 0-5.3.2-4.7 2.1.4 1.1 2 4.2 3.5 6.7 1.5 2.6 4.7 8 6.9 12l4.2 7.2h7.4c5 0 7.5-.4 7.5-1.1 0-.7-1.8-4.3-3.9-8l-4-6.9h98c53.8 0 97.9.2 97.9.5 0 .6-2.9 7.4-4.6 10.7-2.3 4.4-1.8 4.8 5 4.8 6.1 0 6.4-.1 7.6-3 .7-1.6 1.2-3.3 1.3-3.7 0-.4.5-1.3.9-1.8 1.1-1.3 9.8-18.2 9.8-18.9 0-.4-43.1-.6-95.7-.6H51.9c-.4 0 1.5-5.7 4.1-12.8 3.9-10.2 5.2-12.8 6.9-13 1.8-.3 2.1-1 2.1-4.8V6H32.3l-7.9 17.5zM62 10.4c0 .8-.7 1.6-1.6 1.8-.8.2-2.4 2.5-3.4 5.3-1 2.7-3.6 9.8-5.8 15.7l-4 10.8h191.9l-.7 2.2c-.3 1.3-2.7 6.2-5.2 11-4.3 8.4-4.7 8.8-7.9 8.8-1.8 0-3.3-.4-3.3-.8 0-.5 1.4-3.6 3-7 1.7-3.4 3-6.7 3-7.2 0-.7-35.8-1-102-1-56.1 0-102 .3-102 .8 0 .4.6 1.6 1.4 2.7 1.7 2.6 6.6 11.4 6.6 12 0 .3-2.3.5-5 .5-3.9 0-5.2-.4-5.7-1.8-.4-.9-2.9-5.3-5.5-9.7-2.6-4.4-4.8-8.5-4.8-9.2 0-.6 1.6-1.3 3.6-1.5 3.5-.3 3.7-.6 7.7-9.4 2.3-5 5.8-12.8 7.7-17.2L33.5 9h14.3C59.4 9 62 9.3 62 10.4z"/><path d="M38.7 14.7C38.2 15.5 27 43 27 43.4c0 .8 13.2-.2 14.1-1.1C42.2 41.2 52 16.5 52 14.7c0-.9-12.7-.9-13.3 0zm8.6 3c.2.5-1.4 5.6-3.6 11.5l-3.9 10.6-4 .4c-2.2.2-4.1.1-4.3-.2-.2-.4.6-2.9 1.9-5.6 1.2-2.7 3.3-7.7 4.5-11.2 2.2-5.9 2.5-6.2 5.7-6.2 1.8 0 3.5.3 3.7.7zm24.2-3.6L68 17.2V35h16v-3c0-2.9-.1-3-5-3-3.8 0-5-.4-5-1.5s1.2-1.5 5-1.5c4.9 0 5 0 5-3.1s0-3.1-5-2.7c-4.2.2-5 0-5-1.5 0-1.4.9-1.7 4.8-1.7 4.1 0 5.3-.5 7.7-3l2.9-3h-7.2c-6.6 0-7.4.3-10.7 3.1zm69.1 2c-6 5.5-6 5.5-5.9-1.9 0-2.9-.8-2.8-4 .6-2.5 2.6-2.7 3.5-2.7 11 0 4.5.3 8.2.8 8.2.4 0 4.1-3 8.2-6.7l7.5-6.7.3 7.2.3 7.2h5.9V11h-2.4c-1.5 0-4.5 1.9-8 5.1zm15.9-2.1l-2.9 3h6.4v18h6v-8.8c0-8.5.1-8.8 3-11.1 1.7-1.3 3-2.7 3-3.2s-2.8-.9-6.3-.9c-5.7 0-6.6.3-9.2 3zm23.5 5.2c-8.4 7.6-9 8.4-9 12v3.9l2.4-2.3c4.1-3.9 13.8-12.3 14.7-12.6.5-.2.9 1 .9 2.7 0 2.7-.4 3.1-2.6 3.1-1.4 0-3.9 1.3-5.7 3l-3.2 3h5.8c4.4 0 5.7.3 5.7 1.5 0 1 1 1.5 3 1.5h3V11h-3c-2.3 0-4.9 1.8-12 8.2zm30-2.5c-3.5 3.2-7.6 7-9.2 8.5-2.1 1.9-2.8 3.5-2.8 6.3v3.7l8.4-7.6c4.6-4.2 8.6-7.6 9-7.6.3 0 .6 3.4.6 7.6v7.5l2.8-.3 2.7-.3v-23l-2.6-.3c-2.1-.2-4.1 1-8.9 5.5z"/><path d="M89.7 13.8c-1.6 1.7-1.5 2 1.8 5.2 1.9 1.9 3.5 3.8 3.5 4.3s-1.1 1.8-2.5 2.9C90.6 27.7 90 29.1 90 32v3.9l4.7-4.3c5.4-5.1 8.3-4.9 8.3.4 0 2.6.3 3 2.9 3s3-.4 3.3-3.3c.4-4.5 3.4-4.6 8-.2 2 1.9 3.9 3.5 4.2 3.5.3 0 .6-1.5.6-3.4 0-2.5-.7-4-2.5-5.4-1.4-1.1-2.5-2.4-2.5-3 0-.5 2.3-3 5-5.6 2.8-2.6 5-4.9 5-5.1 0-.3-1.7-.5-3.7-.5-3.2 0-4.6.8-8.8 5.1l-5 5-.3-5.1c-.3-4.8-.4-5-3.3-5-2.8 0-2.9.1-2.9 5.1v5.2l-5.4-5.2c-3-2.8-5.7-5.1-5.9-5.1-.2 0-1.1.8-2 1.8zM227 15.7c-1.8 2.3-2 3.8-1.8 10.7l.3 8.1 6.1.3c5.5.3 6.3 0 9.2-2.8 4.3-4 4.3-7.9.1-12-4.1-3.8-7.9-4.1-7.9-.5 0 1.8.7 2.8 2.5 3.5 2.6 1 3.5 4.7 1.3 5.5-5.1 1.7-5.3 1.4-5.5-6.5-.1-4.1-.2-7.8-.2-8.3-.2-1.5-2-.6-4.1 2z"/></svg>