<svg width="82" height="83" viewBox="0 0 82 83" fill="none" xmlns="http://www.w3.org/2000/svg">
<path d="M69.3072 31.8121V31.3391C69.3072 30.7125 68.7813 30.2026 68.135 30.2026H67.4127L67.4096 8.65291C67.4096 7.25539 66.2469 6.11578 64.8118 6.11578H30.623C29.1911 6.11578 28.0252 7.25531 28.0252 8.65291V30.1995H27.3029C26.6535 30.1995 26.1308 30.7094 26.1308 31.336V34.2693C26.1308 36.5054 28.0062 38.3237 30.3125 38.3237H65.1291C67.4354 38.3237 69.3108 36.5054 69.3108 34.2693V34.2355C70.1028 34.644 70.6476 35.4457 70.6476 36.3764V57.294C70.6476 58.627 69.5199 59.7113 68.1354 59.7113L30.2654 59.7082V55.2668C30.2654 54.0013 29.7743 52.8525 28.8493 51.9557C26.92 50.0728 24.7246 48.4572 22.3232 47.1334L23.9673 46.2088H26.0487C26.6981 46.2088 27.2209 45.6989 27.2209 45.0724C27.2209 44.4458 26.695 43.9359 26.0487 43.9359H23.6506C23.4446 43.9359 23.2387 43.9881 23.0613 44.0895L21.1035 45.189C19.8426 42.6489 18.6673 40.5387 17.5395 38.7972C16.7665 37.5808 15.5816 36.8345 14.1213 36.6348C9.84449 36.0236 5.48808 35.7133 1.17352 35.7133C0.527248 35.7103 0.00136589 36.2201 0.00136589 36.8498C0.00136589 37.4795 0.527256 37.9862 1.17352 37.9862C5.37429 37.9862 9.61286 38.2873 13.7887 38.8862C14.5617 38.9906 15.1352 39.3531 15.5502 39.9981C16.6811 41.7428 17.904 43.9604 19.2029 46.5988H1.17416C0.527896 46.5988 0.00201442 47.1087 0.00201442 47.7353C0.00201442 48.365 0.527904 48.8718 1.17416 48.8718H20.7267C23.1122 50.1372 25.2855 51.7068 27.1831 53.562C27.6773 54.0411 27.9149 54.6001 27.9149 55.2698V66.4441C27.9149 67.7771 26.7871 68.8614 25.4026 68.8614H12.094C11.2197 68.1303 10.114 67.731 8.92921 67.731H1.17712C0.527677 67.731 0.00180366 68.2409 0.00180366 68.8706C0.00180366 69.4972 0.527694 70.007 1.17395 70.007H8.92605C9.64519 70.007 10.282 70.2712 10.7635 70.7749C10.9852 71.0053 11.2957 71.1374 11.622 71.1374H14.5682V74.0615C14.5682 75.6188 15.8735 76.8842 17.4796 76.8842H24.5031C26.1188 76.8842 27.4303 75.6187 27.4303 74.0615V70.7043C29.0999 69.961 30.2625 68.3331 30.2625 66.4441V61.9872H68.1293C70.8094 61.9872 72.989 59.8832 72.989 57.2939V36.3763C72.9922 34.171 71.4203 32.322 69.3072 31.8121ZM30.3691 8.6528C30.3691 8.50844 30.4831 8.39172 30.6225 8.39172H64.8113C64.9507 8.39172 65.0648 8.50844 65.0648 8.6528V30.1994H55.6685C55.019 30.1994 54.4963 30.7093 54.4963 31.3359V32.027C54.4963 32.156 54.3791 32.2727 54.2429 32.2727H41.1873C41.0542 32.2727 40.9338 32.159 40.9338 32.027V31.3359C40.9338 30.7093 40.4079 30.1994 39.7617 30.1994H30.3686L30.3691 8.6528ZM66.9593 34.2694C66.9593 35.2492 66.1357 36.0478 65.1251 36.0478H30.3085C29.2979 36.0478 28.4742 35.2492 28.4742 34.2694V32.4756H38.6305C38.8491 33.652 39.9135 34.5489 41.187 34.5489H54.2426C55.5193 34.5489 56.5838 33.652 56.7992 32.4756H66.9554V34.2694H66.9593ZM25.0845 74.0608C25.0845 74.3526 24.8121 74.6075 24.5016 74.6075H17.4781C17.1709 74.6075 16.9142 74.3587 16.9142 74.0608V71.1367H25.0843L25.0845 74.0608ZM22.642 63.3842C23.2915 63.3842 23.8142 63.8941 23.8142 64.5207C23.8142 65.1504 23.2883 65.6572 22.642 65.6572H19.0622C18.4127 65.6572 17.89 65.1473 17.89 64.5207C17.89 63.891 18.4159 63.3842 19.0622 63.3842H22.642ZM25.791 56.4579C25.8195 54.8177 24.9198 53.6014 23.4942 53.3557C23.1775 53.3004 22.8385 53.2727 22.4805 53.2727C19.775 53.2727 15.9386 54.9006 13.9146 56.9125C13.2937 57.5483 13.1258 58.4482 13.4838 59.2745C13.8449 60.0823 14.6369 60.583 15.5525 60.583H15.562C17.9665 60.5677 20.5452 60.3864 23.2444 60.0486C24.857 59.8336 25.7594 58.0367 25.791 56.4579ZM22.9272 57.7971C20.434 58.1104 18.0358 58.2824 15.7992 58.3069C17.4307 56.8173 20.4751 55.5487 22.4805 55.5487C22.6991 55.5487 22.9018 55.5641 23.0824 55.5948C23.1616 55.6101 23.3707 55.6439 23.434 56.1538C23.5259 56.9401 23.1014 57.7173 22.9272 57.7971ZM0 59.0441C0 58.4144 0.52589 57.9076 1.17215 57.9076C3.45627 57.9076 5.7721 57.8585 8.05623 57.7571C8.71517 57.7418 9.25376 58.2148 9.28223 58.8414C9.31074 59.471 8.8102 60.0024 8.16393 60.03C5.84493 60.1314 3.49431 60.1836 1.17531 60.1836C0.525874 60.1805 0 59.6707 0 59.0441ZM40.4271 21.6053H35.9919C35.3424 21.6053 34.8197 21.0985 34.8197 20.4688C34.8197 19.8422 35.3456 19.3324 35.9919 19.3324H41.3268C41.859 19.3324 42.3247 19.6795 42.4609 20.177L43.066 22.3824L45.2487 14.4642C45.3881 13.9666 45.8506 13.6226 46.3797 13.6196C46.9087 13.6196 47.3744 13.9636 47.5138 14.4611L49.1041 20.1927H59.4347C60.0841 20.1927 60.6068 20.7026 60.6068 21.3291C60.6068 21.9588 60.0809 22.4656 59.4347 22.4656L48.2103 22.4625C47.6813 22.4625 47.2156 22.1185 47.0762 21.6209L46.3888 19.1422L44.1997 27.0824C44.0603 27.58 43.5978 27.9271 43.0656 27.9271C42.5334 27.9271 42.0676 27.58 41.9315 27.0824L40.4271 21.6053Z" fill="#42434B"/>
</svg>
