<svg width="74" height="72" viewBox="0 0 74 72" fill="none" xmlns="http://www.w3.org/2000/svg">
<path fill-rule="evenodd" clip-rule="evenodd" d="M34.6812 64.2185C34.6807 64.4427 34.5904 64.6576 34.4301 64.8161C34.2697 64.9746 34.0523 65.0637 33.8256 65.0639H6.95604C6.72891 65.0639 6.51107 64.9747 6.35047 64.8158C6.18986 64.657 6.09963 64.4415 6.09963 64.2169C6.09963 63.9922 6.18986 63.7768 6.35047 63.6179C6.51107 63.4591 6.72891 63.3698 6.95604 63.3698H33.8256C33.938 63.3698 34.0493 63.3917 34.1532 63.4343C34.257 63.4769 34.3514 63.5393 34.4309 63.618C34.5103 63.6966 34.5733 63.79 34.6163 63.8928C34.6592 63.9955 34.6813 64.1057 34.6812 64.2169V64.2185ZM34.6812 58.4795C34.6813 58.5907 34.6592 58.7008 34.6163 58.8036C34.5733 58.9063 34.5103 58.9997 34.4309 59.0784C34.3514 59.157 34.257 59.2194 34.1532 59.262C34.0493 59.3046 33.938 59.3265 33.8256 59.3265H6.95604C6.84141 59.33 6.72724 59.3107 6.6203 59.2697C6.51336 59.2287 6.41583 59.1669 6.3335 59.088C6.25116 59.009 6.1857 58.9145 6.141 58.81C6.0963 58.7056 6.07326 58.5933 6.07326 58.4799C6.07326 58.3664 6.0963 58.2542 6.141 58.1497C6.1857 58.0453 6.25116 57.9507 6.3335 57.8718C6.41583 57.7928 6.51336 57.731 6.6203 57.69C6.72724 57.6491 6.84141 57.6297 6.95604 57.6332H33.8256C33.938 57.6332 34.0493 57.6552 34.1532 57.6977C34.257 57.7403 34.3514 57.8027 34.4309 57.8814C34.5103 57.96 34.5733 58.0534 34.6163 58.1562C34.6592 58.259 34.6813 58.3683 34.6812 58.4795ZM34.6812 52.7413C34.6813 52.8525 34.6592 52.9626 34.6163 53.0654C34.5733 53.1681 34.5103 53.2615 34.4309 53.3402C34.3514 53.4188 34.257 53.4813 34.1532 53.5238C34.0493 53.5664 33.938 53.5883 33.8256 53.5883H6.95604C6.84141 53.5918 6.72724 53.5725 6.6203 53.5315C6.51336 53.4905 6.41583 53.4287 6.3335 53.3498C6.25116 53.2708 6.1857 53.1763 6.141 53.0718C6.0963 52.9674 6.07326 52.8551 6.07326 52.7417C6.07326 52.6283 6.0963 52.516 6.141 52.4115C6.1857 52.3071 6.25116 52.2126 6.3335 52.1336C6.41583 52.0546 6.51336 51.9928 6.6203 51.9518C6.72724 51.9109 6.84141 51.8916 6.95604 51.895H33.8256C33.9379 51.895 34.0492 51.9169 34.153 51.9595C34.2568 52.002 34.3511 52.0643 34.4306 52.1429C34.51 52.2215 34.5731 52.3148 34.616 52.4174C34.659 52.5201 34.6812 52.6301 34.6812 52.7413ZM34.6812 47.0039C34.6812 47.115 34.659 47.225 34.616 47.3276C34.573 47.4302 34.51 47.5235 34.4305 47.602C34.3511 47.6805 34.2567 47.7428 34.1529 47.7852C34.0491 47.8276 33.9379 47.8494 33.8256 47.8493H6.95604C6.72912 47.8493 6.5115 47.7602 6.35104 47.6015C6.19058 47.4428 6.10044 47.2275 6.10044 47.0031C6.10044 46.7787 6.19058 46.5634 6.35104 46.4047C6.5115 46.246 6.72912 46.1569 6.95604 46.1569H33.8256C33.938 46.1569 34.0493 46.1788 34.1532 46.2213C34.257 46.2639 34.3514 46.3263 34.4309 46.405C34.5103 46.4837 34.5733 46.577 34.6163 46.6798C34.6592 46.7826 34.6813 46.8927 34.6812 47.0039ZM34.6812 41.2649C34.6813 41.3761 34.6592 41.4861 34.6163 41.5889C34.5733 41.6916 34.5103 41.7849 34.4308 41.8635C34.3513 41.9421 34.257 42.0044 34.1531 42.0469C34.0493 42.0894 33.938 42.1112 33.8256 42.1111H6.95604C6.84141 42.1146 6.72724 42.0953 6.6203 42.0543C6.51336 42.0134 6.41583 41.9516 6.3335 41.8726C6.25116 41.7936 6.1857 41.6991 6.141 41.5947C6.0963 41.4902 6.07326 41.3779 6.07326 41.2645C6.07326 41.1511 6.0963 41.0388 6.141 40.9343C6.1857 40.8299 6.25116 40.7354 6.3335 40.6564C6.41583 40.5774 6.51336 40.5156 6.6203 40.4747C6.72724 40.4337 6.84141 40.4144 6.95604 40.4179H33.8256C34.0526 40.4181 34.2702 40.5074 34.4306 40.6662C34.5911 40.8251 34.6812 41.0404 34.6812 41.2649ZM34.6812 35.5267C34.6813 35.6379 34.6592 35.748 34.6163 35.8508C34.5733 35.9536 34.5103 36.0469 34.4309 36.1256C34.3514 36.2043 34.257 36.2667 34.1532 36.3092C34.0493 36.3518 33.938 36.3737 33.8256 36.3737H6.95604C6.72891 36.3737 6.51107 36.2845 6.35047 36.1257C6.18986 35.9668 6.09963 35.7514 6.09963 35.5267C6.09963 35.3021 6.18986 35.0866 6.35047 34.9278C6.51107 34.7689 6.72891 34.6797 6.95604 34.6797H33.8256C34.0526 34.6799 34.2702 34.7692 34.4306 34.928C34.5911 35.0869 34.6812 35.3022 34.6812 35.5267ZM34.6812 29.7877C34.6813 29.8989 34.6592 30.009 34.6163 30.1118C34.5733 30.2146 34.5103 30.3079 34.4309 30.3866C34.3514 30.4653 34.257 30.5277 34.1532 30.5703C34.0493 30.6128 33.938 30.6347 33.8256 30.6347H6.95604C6.84141 30.6382 6.72724 30.6189 6.6203 30.5779C6.51336 30.537 6.41583 30.4752 6.3335 30.3962C6.25116 30.3172 6.1857 30.2227 6.141 30.1183C6.0963 30.0138 6.07326 29.9015 6.07326 29.7881C6.07326 29.6747 6.0963 29.5624 6.141 29.4579C6.1857 29.3535 6.25116 29.259 6.3335 29.18C6.41583 29.101 6.51336 29.0392 6.6203 28.9983C6.72724 28.9573 6.84141 28.938 6.95604 28.9415H33.8256C33.9379 28.9415 34.0492 28.9634 34.153 29.0059C34.2568 29.0484 34.3511 29.1107 34.4306 29.1893C34.51 29.2679 34.5731 29.3612 34.616 29.4639C34.659 29.5665 34.6812 29.6766 34.6812 29.7877ZM28.5742 9.19139H46.1003V19.2772H28.5742V9.19139ZM27.7178 20.9697H46.9567C47.1837 20.9697 47.4014 20.8805 47.562 20.7218C47.7226 20.5632 47.8129 20.3479 47.8132 20.1234V8.34515C47.8132 8.12043 47.7229 7.9049 47.5624 7.74592C47.4018 7.58694 47.1839 7.49752 46.9567 7.49731H27.7178C27.6054 7.49731 27.4941 7.51922 27.3902 7.5618C27.2864 7.60438 27.192 7.66678 27.1125 7.74545C27.0331 7.82411 26.9701 7.9175 26.9271 8.02026C26.8842 8.12302 26.8621 8.23315 26.8622 8.34435V20.1226C26.8621 20.2338 26.8842 20.3439 26.9271 20.4466C26.9701 20.5493 27.0331 20.6426 27.1126 20.7212C27.1921 20.7998 27.2864 20.8622 27.3903 20.9047C27.4941 20.9471 27.6054 20.969 27.7178 20.9689V20.9697ZM11.217 11.4957L18.0878 2.52827V20.732C18.0872 21.1559 17.9166 21.5623 17.6134 21.8619C17.3103 22.1616 16.8994 22.3301 16.4708 22.3305H2.76732L11.217 11.4916V11.4957ZM55.0127 3.29181C55.0125 2.86792 54.8422 2.46145 54.5391 2.16171C54.236 1.86197 53.8251 1.69349 53.3965 1.69328H19.8007V20.732C19.7994 21.6047 19.4483 22.4412 18.8244 23.0583C18.2005 23.6753 17.3547 24.0225 16.4724 24.0238H1.71202V68.7074C1.71223 69.1313 1.88258 69.5377 2.18564 69.8375C2.4887 70.1372 2.89966 70.3057 3.32825 70.3059H53.3965C53.8251 70.3057 54.236 70.1372 54.5391 69.8375C54.8422 69.5377 55.0125 69.1313 55.0127 68.7074V44.5407L52.6026 47.9192C52.5625 47.9769 52.5147 48.0291 52.4605 48.0741L40.215 58.4313C40.1911 58.4519 40.1659 58.4709 40.1395 58.4883C39.9824 58.5932 39.7968 58.6484 39.6072 58.6465C39.4177 58.6446 39.2332 58.5858 39.0783 58.4778C38.9234 58.3697 38.8053 58.2177 38.7398 58.0417C38.6743 57.8658 38.6645 57.6743 38.7116 57.4927C38.7197 57.4623 38.7295 57.4323 38.7408 57.4028L44.4938 42.5198C44.5198 42.4536 44.5539 42.3908 44.5953 42.3327L55.0127 27.7428V3.29181ZM66.1275 15.1199C66.1406 15.1013 66.1574 15.0854 66.1769 15.0733C66.1963 15.0611 66.2179 15.0529 66.2406 15.0491C66.2632 15.0453 66.2864 15.046 66.3088 15.0511C66.3312 15.0562 66.3523 15.0657 66.371 15.0789L71.2733 18.4968C71.31 18.5234 71.3348 18.5632 71.3423 18.6076C71.3466 18.6298 71.3463 18.6526 71.3414 18.6747C71.3365 18.6968 71.3271 18.7176 71.3138 18.736L67.4279 24.1836L62.2326 20.561L66.1226 15.1167L66.1275 15.1199ZM51.8135 35.1566L61.2504 21.9492L66.4457 25.5734L57.0194 38.7872L51.8135 35.1566ZM51.6967 46.25L46.4859 42.6161L50.8264 36.5399L56.0315 40.1746L51.6967 46.2532V46.25ZM45.7026 44.1392L50.5131 47.4945L41.4359 55.1668L45.7026 44.1392ZM3.32825 72H53.3965C54.2792 72 55.1258 71.6532 55.7499 71.0359C56.3741 70.4185 56.7247 69.5812 56.7247 68.7082V42.136L72.7166 19.7164C73.0045 19.3118 73.1184 18.8108 73.0333 18.3233C72.9482 17.8358 72.6711 17.4015 72.2628 17.1158L67.3581 13.6947C66.9494 13.4104 66.4434 13.2977 65.9509 13.3816C65.4584 13.4654 65.0195 13.7388 64.7304 14.142L56.7247 25.3454V3.29181C56.7247 2.41877 56.3741 1.58148 55.7499 0.96415C55.1258 0.346815 54.2792 0 53.3965 0H18.3021C18.1699 5.97207e-05 18.0394 0.0303868 17.921 0.0886084C17.8025 0.14683 17.6993 0.231367 17.6194 0.335604L9.85568 10.468L0.177777 22.8789C0.0625464 23.0266 2.97663e-05 23.2078 0 23.3944V68.7074C0.00085929 69.5802 0.351763 70.4171 0.975722 71.0344C1.59968 71.6517 2.44573 71.9989 3.32825 72Z" fill="#42434B"/>
</svg>
