<svg width="67" height="71" viewBox="0 0 67 71" fill="none" xmlns="http://www.w3.org/2000/svg">
<g clip-path="url(#clip0_1008_524)">
<path d="M12.6886 20.0693H22.7386C23.4783 20.0693 24.0786 19.4699 24.0786 18.7314V8.69672C24.0786 7.95817 23.4783 7.35876 22.7386 7.35876C21.999 7.35876 21.3986 7.95817 21.3986 8.69672V17.3934H12.6886C11.949 17.3934 11.3486 17.9928 11.3486 18.7314C11.3486 19.4699 11.949 20.0693 12.6886 20.0693Z" fill="#42434B"/>
<path d="M63.466 46.5782C63.466 40.1601 58.5804 34.8631 52.3266 34.1928V1.33796C52.3266 0.599404 51.7276 0 50.9866 0H19.6132C19.2581 0 18.9164 0.140485 18.6658 0.392021L3.92582 15.1095C3.6739 15.3597 3.5332 15.7009 3.5332 16.0555V65.5598C3.5332 66.2997 4.13352 66.8978 4.8732 66.8978H50.988C51.729 66.8978 52.328 66.2997 52.328 65.5598V58.9624C58.5804 58.292 63.466 52.9951 63.466 46.5782ZM6.2132 64.2219V16.6094L20.168 2.67591H49.648V34.1928C43.3955 34.8631 38.5085 40.1601 38.5085 46.5782C38.5085 52.9964 43.3942 58.2934 49.648 58.9637V64.2219H6.2132ZM50.988 56.3614C45.5851 56.3614 41.1885 51.9729 41.1885 46.5769C41.1885 41.1809 45.5837 36.7924 50.988 36.7924C56.3922 36.7924 60.7874 41.1809 60.7874 46.5769C60.7874 51.9729 56.3908 56.3614 50.988 56.3614Z" fill="#42434B"/>
<path d="M35.3011 32.111H12.6886C11.949 32.111 11.3486 32.7104 11.3486 33.4489C11.3486 34.1875 11.949 34.7869 12.6886 34.7869H35.3011C36.0422 34.7869 36.6411 34.1875 36.6411 33.4489C36.6411 32.7104 36.0408 32.111 35.3011 32.111Z" fill="#42434B"/>
<path d="M12.6886 42.8707H26.4236C27.1633 42.8707 27.7636 42.2727 27.7636 41.5328C27.7636 40.7929 27.1633 40.1948 26.4236 40.1948H12.6886C11.949 40.1948 11.3486 40.7929 11.3486 41.5328C11.3486 42.2727 11.949 42.8707 12.6886 42.8707Z" fill="#42434B"/>
<path d="M31.6161 48.2775H12.6886C11.949 48.2775 11.3486 48.8755 11.3486 49.6154C11.3486 50.3553 11.949 50.9534 12.6886 50.9534H31.6161C32.3558 50.9534 32.9561 50.3553 32.9561 49.6154C32.9561 48.8755 32.3558 48.2775 31.6161 48.2775Z" fill="#42434B"/>
<path d="M27.9311 56.3613H12.6886C11.949 56.3613 11.3486 56.9594 11.3486 57.6993C11.3486 58.4392 11.949 59.0372 12.6886 59.0372H27.9311C28.6708 59.0372 29.2711 58.4392 29.2711 57.6993C29.2711 56.9594 28.6708 56.3613 27.9311 56.3613Z" fill="#42434B"/>
</g>
<defs>
<clipPath id="clip0_1008_524">
<rect width="67" height="71" fill="white"/>
</clipPath>
</defs>
</svg>
