<svg width="93" height="86" viewBox="0 0 93 86" fill="none" xmlns="http://www.w3.org/2000/svg">
  <path d="M86.5136 37.7541C86.5037 37.7004 86.4872 37.6535 86.4707 37.5998C86.4542 37.536 86.4278 37.4722 86.3981 37.4185C86.3716 37.3749 86.3551 37.3279 86.3254 37.2843C86.3155 37.2675 86.3155 37.2474 86.299 37.2306C86.2825 37.2038 86.2461 37.187 86.2263 37.1668C86.1834 37.1131 86.1372 37.0662 86.0843 37.0225C86.0579 37.0057 86.048 36.9688 86.0216 36.9487L81.7844 33.8007L86.1735 29.3406C86.4146 29.0956 86.5467 28.7633 86.5467 28.4076C86.5467 28.0653 86.4146 27.7297 86.1735 27.4747L61.8168 2.72713C61.5757 2.48214 61.2488 2.3479 60.8987 2.3479C60.5619 2.3479 60.2316 2.48214 59.9806 2.72713L51.536 11.3185L47.2658 8.14376C46.8133 7.80816 46.1991 7.80816 45.7433 8.14376L6.97749 36.9482C6.95107 36.965 6.93455 37.0019 6.91474 37.022C6.8619 37.0656 6.81566 37.1126 6.77273 37.1663C6.75621 37.1932 6.71989 37.2032 6.70007 37.2301C6.69016 37.2469 6.68356 37.267 6.67365 37.2838C6.64723 37.3274 6.62081 37.3744 6.60099 37.418C6.57457 37.4818 6.54815 37.5355 6.52834 37.5993C6.51183 37.6529 6.49201 37.6999 6.4854 37.7536C6.4755 37.8073 6.4755 37.8543 6.4755 37.908C6.4755 37.9449 6.45898 37.9718 6.45898 38.0087V82.4323C6.45898 82.486 6.4854 82.5229 6.4854 82.5766C6.49531 82.6672 6.51183 82.7477 6.53825 82.8384C6.56467 82.929 6.60099 83.0028 6.64393 83.0834C6.67035 83.127 6.67035 83.174 6.70668 83.2176C6.7331 83.2545 6.76942 83.2914 6.80576 83.325C6.82227 83.3518 6.84869 83.3686 6.8685 83.3988C6.97419 83.4995 7.08978 83.5801 7.22518 83.6438C7.2516 83.6539 7.26812 83.6606 7.29784 83.6707C7.43985 83.7244 7.60168 83.7613 7.75029 83.7613H85.2649C85.4169 83.7613 85.5754 83.7244 85.7174 83.6707C85.7438 83.6606 85.7603 83.6539 85.7901 83.6438C85.9222 83.5901 86.0378 83.4995 86.1467 83.3988C86.1732 83.382 86.1897 83.3552 86.2095 83.325C86.2458 83.2881 86.2821 83.2612 86.3086 83.2176C86.335 83.1807 86.3449 83.127 86.3713 83.0834C86.4142 83.0028 86.4506 82.929 86.477 82.8384C86.5034 82.7477 86.5199 82.6672 86.5298 82.5766C86.5397 82.533 86.5563 82.486 86.5563 82.4323V38.0053C86.5563 37.9683 86.5397 37.9415 86.5397 37.9046C86.5199 37.8609 86.5203 37.8078 86.5136 37.7541ZM83.0691 38.0058L62.8475 53.0374L79.935 35.6733L83.0691 38.0058ZM60.8987 5.51314L83.4318 28.411L49.2568 63.1391L46.5058 65.183L40.6405 60.8235C41.1491 60.5987 41.7006 60.4711 42.2686 60.4711C43.4509 60.4711 44.5903 60.9678 45.482 61.8639C45.7297 62.1156 46.06 62.2431 46.4001 62.2431C46.7304 62.2431 47.0573 62.1156 47.3182 61.8639L75.2808 33.459C75.5219 33.214 75.654 32.8817 75.654 32.526C75.654 32.1837 75.5219 31.8481 75.2808 31.5931C74.4452 30.744 73.9828 29.603 73.9828 28.3914C73.9828 27.1798 74.4452 26.0489 75.2808 25.1999C75.5219 24.9549 75.6639 24.6226 75.6639 24.2669C75.6639 23.9246 75.5318 23.589 75.2907 23.334L65.8715 13.8164C65.6304 13.5714 65.3034 13.4372 64.9534 13.4372C64.6165 13.4372 64.2863 13.5714 64.0353 13.8265C63.1998 14.6756 62.0868 15.1454 60.8946 15.1454C59.7024 15.1454 58.5795 14.6756 57.7439 13.8265C57.5028 13.5815 57.1759 13.4473 56.8259 13.4473C56.489 13.4473 56.1587 13.5815 55.9078 13.8265L27.9714 42.2288C27.4628 42.7457 27.4628 43.5679 27.9714 44.0813C28.9325 45.0579 29.3849 46.9742 29.0216 48.5482C28.8433 49.3335 28.381 50.3201 27.2878 50.9074L20.8973 46.1587L60.8987 5.51314ZM30.6044 43.2621L56.9192 16.511C58.0751 17.3265 59.4556 17.7594 60.8987 17.7594C62.3419 17.7594 63.7125 17.3265 64.8684 16.511L72.5931 24.3607C71.7906 25.5353 71.3645 26.9281 71.3645 28.3946C71.3645 29.8612 71.7906 31.2606 72.5931 32.4386L46.3113 59.1691C45.119 58.32 43.7221 57.8569 42.2723 57.8569C40.8588 57.8569 39.5048 58.31 38.3752 59.1423L29.5115 52.5577C30.5188 51.7154 31.2189 50.5575 31.5492 49.1581C32.0017 47.1579 31.6183 44.9066 30.6044 43.2621ZM46.4998 10.8226L49.6933 13.192L18.7945 44.5979L9.93077 38.0066L46.4998 10.8226ZM9.03264 40.5936L35.4362 60.2198L9.03264 79.8426V40.5936ZM11.6945 81.1175L37.6263 61.847L45.744 67.8777C45.9752 68.0489 46.2427 68.1294 46.5102 68.1294C46.7777 68.1294 47.0452 68.0489 47.2764 67.8777L55.3941 61.847L81.3056 81.1175H11.6945ZM83.9673 79.8422L57.5638 60.216L83.9673 40.5898V79.8422Z" fill="#D20A2E"/>
  <path d="M38.009 52.4402C38.3392 52.4402 38.6662 52.3127 38.9271 52.061L42.5764 48.3526C43.085 47.8358 43.085 47.0135 42.5764 46.5001C42.0678 45.9833 41.2587 45.9833 40.7534 46.5001L37.1041 50.2085C36.5955 50.7253 36.5955 51.5476 37.1041 52.061C37.3518 52.3127 37.682 52.4402 38.009 52.4402Z" fill="#D20A2E"/>
  <path d="M61.0344 29.045C61.3646 29.045 61.6916 28.9175 61.9525 28.6658L65.6018 24.9574C66.1104 24.4406 66.1104 23.6183 65.6018 23.1049C65.0932 22.5881 64.2841 22.5881 63.7788 23.1049L60.1295 26.8133C59.6209 27.3301 59.6209 28.1524 60.1295 28.6658C60.3739 28.9175 60.7041 29.045 61.0344 29.045Z" fill="#D20A2E"/>
  <path d="M51.6157 48.1075C54.2049 48.1075 56.7875 47.104 58.7624 45.1038C62.7057 41.0967 62.7057 34.5862 58.7624 30.5792C54.8191 26.5721 48.4124 26.5721 44.4692 30.5792C40.5259 34.5863 40.5259 41.0968 44.4692 45.1038C46.4375 47.104 49.0265 48.1075 51.6157 48.1075ZM46.2953 32.435C49.2313 29.4515 54.0035 29.4515 56.9294 32.435C59.8654 35.4186 59.8654 40.268 56.9294 43.2413C53.9934 46.2248 49.2212 46.2248 46.2953 43.2413C43.3593 40.2679 43.3593 35.4184 46.2953 32.435Z" fill="#D20A2E"/>
</svg>
