<svg width="74" height="67" viewBox="0 0 74 67" fill="none" xmlns="http://www.w3.org/2000/svg">
<path d="M36.9998 44.794C39.3274 44.794 41.583 43.9282 43.3822 42.3441C45.1815 40.7599 46.4131 38.5556 46.8672 36.1065C47.3213 33.6574 46.9698 31.1152 45.8726 28.913C44.7754 26.7108 43.0004 24.9848 40.85 24.0292C38.6997 23.0736 36.3069 22.9474 34.0796 23.6722C31.8522 24.397 29.928 25.9279 28.6348 28.0041C27.3416 30.0803 26.7595 32.5733 26.9875 35.0583C27.2156 37.5433 28.2397 39.8666 29.8855 41.6324C30.8176 42.6378 31.9263 43.435 33.1475 43.9777C34.3687 44.5204 35.6781 44.7978 36.9998 44.794ZM31.0574 27.625C32.4322 26.1504 34.241 25.2329 36.1757 25.0286C38.1104 24.8244 40.0512 25.3462 41.6675 26.505C43.2838 27.6638 44.4756 29.388 45.0398 31.3838C45.604 33.3796 45.5057 35.5235 44.7616 37.4503C44.0176 39.3771 42.6738 40.9675 40.9593 41.9505C39.2448 42.9336 37.2656 43.2485 35.359 42.8415C33.4523 42.4346 31.7362 41.331 30.5029 39.7188C29.2697 38.1067 28.5956 36.0856 28.5956 34.0001C28.5926 32.8156 28.8086 31.6422 29.2312 30.5479C29.6538 29.4536 30.2745 28.4601 31.0574 27.625ZM49.763 44.2258C49.4087 43.9583 48.9998 43.7857 48.5706 43.7224C48.1413 43.6592 47.7042 43.7072 47.2958 43.8624L36.6684 48.0374C36.011 47.397 35.22 46.9354 34.3617 46.6912L27.1367 44.3111C21.7232 42.3848 17.8893 43.792 14.0581 49.1687L13.9633 49.0685C13.7818 48.8776 13.5669 48.7271 13.331 48.6257C13.0951 48.5243 12.8428 48.4739 12.5887 48.4775C12.3346 48.481 12.0836 48.5385 11.8503 48.6465C11.6169 48.7545 11.4058 48.911 11.229 49.1069L8.54317 52.0857C8.18851 52.4822 7.99347 53.0125 8.00017 53.562C8.00686 54.1115 8.21476 54.6361 8.57896 55.0226L18.4302 65.4083C18.7894 65.7888 19.2743 66.0015 19.7791 66H19.8049C20.0592 65.9973 20.3104 65.9402 20.5439 65.832C20.7773 65.7238 20.9883 65.5667 21.1644 65.3699L23.8503 62.3876C24.205 61.9911 24.4002 61.4609 24.3936 60.9114C24.387 60.3619 24.1793 59.8372 23.8152 59.4507L23.6932 59.3227L24.9294 57.9645L33.1765 58.1728C33.293 58.1746 33.4086 58.1504 33.5159 58.1017L48.4525 51.4009C51.027 50.2454 51.4897 48.5287 51.4241 47.2914C51.3801 46.679 51.2075 46.0853 50.9193 45.5546C50.631 45.024 50.2346 44.5702 49.7596 44.2272L49.763 44.2258ZM22.6618 61.1502L19.9759 64.1326C19.9514 64.16 19.922 64.1819 19.8894 64.197C19.8569 64.212 19.8218 64.2198 19.7864 64.2201C19.715 64.2208 19.6462 64.1914 19.5948 64.1383L9.74027 53.7547C9.6873 53.6971 9.65716 53.6198 9.65617 53.5389C9.65518 53.4581 9.68342 53.3799 9.73496 53.3209L12.4208 50.3385C12.4454 50.3111 12.4748 50.2892 12.5074 50.2742C12.5399 50.2592 12.575 50.2513 12.6104 50.251C12.6816 50.2519 12.75 50.2813 12.802 50.3335L22.6532 60.7157C22.7069 60.7734 22.7376 60.8513 22.7386 60.9329C22.7396 61.0144 22.7108 61.0932 22.6585 61.1524L22.6618 61.1502ZM47.8129 49.7611L33.0393 56.3901L24.6073 56.1767C24.4936 56.1743 24.3806 56.1967 24.2753 56.2427C24.17 56.2887 24.0746 56.3572 23.9948 56.4441L22.5113 58.0797L15.2492 50.421C18.7006 45.4845 21.8233 44.287 26.623 45.9979L26.6402 46.0036L33.8732 48.3901C35.6695 48.9824 35.8849 49.7497 35.8909 50.2759C35.8943 50.7565 35.7259 51.2202 35.4204 51.5716C35.1149 51.9231 34.6955 52.1355 34.2484 52.1654L29.6906 51.1897C29.583 51.1642 29.4718 51.162 29.3633 51.1832C29.2549 51.2044 29.1515 51.2486 29.0592 51.3132C28.967 51.3778 28.8876 51.4615 28.8258 51.5594C28.7641 51.6574 28.7211 51.7675 28.6995 51.8834C28.6779 51.9994 28.6781 52.1188 28.7 52.2346C28.7219 52.3505 28.7652 52.4605 28.8273 52.5582C28.8893 52.6559 28.9689 52.7393 29.0614 52.8036C29.1539 52.8679 29.2574 52.9118 29.3658 52.9326L34.0177 53.9282C34.0712 53.9395 34.1256 53.9453 34.1801 53.9453H34.19C35.0911 53.9312 35.9502 53.5349 36.5795 52.8429C37.2088 52.151 37.5571 51.2199 37.548 50.2532C37.5451 50.0366 37.523 49.8209 37.4817 49.6089L47.8619 45.5321C48.028 45.4765 48.204 45.4638 48.3755 45.4951C48.547 45.5264 48.7092 45.6007 48.8489 45.712C49.109 45.901 49.3265 46.1499 49.4857 46.4404C49.6448 46.731 49.7416 47.056 49.7689 47.3917C49.7888 47.7522 49.8465 48.848 47.8129 49.7611ZM65.4214 12.9775L55.5695 2.59177C55.3881 2.40074 55.1732 2.25011 54.9373 2.14858C54.7014 2.04704 54.4491 1.99661 54.1949 2.00018C53.9408 2.00375 53.6898 2.06125 53.4564 2.16938C53.223 2.2775 53.0119 2.43411 52.8353 2.63017L50.1494 5.61256C49.7945 6.00892 49.5992 6.53918 49.6058 7.08873C49.6124 7.63829 49.8203 8.16299 50.1845 8.54945L50.3065 8.67745L49.0703 10.0357L40.8231 9.82731C40.7066 9.82449 40.5908 9.84874 40.4838 9.89842L25.5472 16.5992C22.9727 17.7548 22.51 19.4714 22.5756 20.7087C22.6196 21.3211 22.7922 21.9148 23.0804 22.4455C23.3687 22.9761 23.7651 23.4299 24.24 23.7729C24.7057 24.1135 25.2547 24.2993 25.8183 24.3069C26.1216 24.3066 26.4225 24.2491 26.7072 24.137L37.3313 19.9628C37.9888 20.6031 38.7798 21.0649 39.638 21.3096L46.863 23.6925C48.223 24.2075 49.6513 24.4846 51.0933 24.5131C54.4334 24.5131 57.1882 22.6984 59.941 18.8349L60.0358 18.9352C60.395 19.3157 60.8799 19.5284 61.3847 19.5268H61.4105C61.6647 19.5243 61.916 19.4673 62.1494 19.3592C62.3828 19.2512 62.5938 19.0942 62.77 18.8975L65.4559 15.9151C65.8109 15.5187 66.0063 14.9884 65.9998 14.4387C65.9934 13.8891 65.7856 13.3642 65.4214 12.9775ZM47.3767 22.0022L47.3595 21.9965L40.1265 19.61C38.3302 19.0177 38.1148 18.2504 38.1088 17.7242C38.1054 17.2436 38.2738 16.7799 38.5793 16.4285C38.8848 16.0771 39.3042 15.8646 39.7513 15.8348L44.3091 16.8104C44.4167 16.8359 44.5279 16.8381 44.6364 16.8169C44.7448 16.7957 44.8481 16.7515 44.9404 16.6869C45.0327 16.6223 45.1121 16.5386 45.1739 16.4407C45.2356 16.3428 45.2786 16.2326 45.3002 16.1167C45.3218 16.0007 45.3216 15.8814 45.2997 15.7655C45.2777 15.6496 45.2345 15.5396 45.1724 15.4419C45.1104 15.3442 45.0308 15.2608 44.9383 15.1965C44.8458 15.1322 44.7423 15.0883 44.6339 15.0675L39.982 14.0719C39.9253 14.0595 39.8675 14.0538 39.8097 14.0549C38.9086 14.0689 38.0495 14.4653 37.4202 15.1572C36.7909 15.8491 36.4426 16.7803 36.4517 17.7469C36.4544 17.9621 36.4766 18.1764 36.518 18.3869L26.1378 22.4644C25.9717 22.52 25.7957 22.5327 25.6242 22.5014C25.4526 22.4702 25.2904 22.3959 25.1508 22.2845C24.8907 22.0955 24.6732 21.8467 24.514 21.5561C24.3549 21.2656 24.2581 20.9406 24.2308 20.6049C24.2115 20.2451 24.1539 19.1492 26.1875 18.2362L40.961 11.6072L49.3924 11.8205C49.5062 11.8236 49.6193 11.8014 49.7247 11.7554C49.8301 11.7094 49.9255 11.6406 50.0049 11.5532L51.489 9.91762L58.7505 17.5791C55.2991 22.5156 52.179 23.7131 47.3767 22.0022ZM64.2647 14.6778L61.5789 17.6602C61.5542 17.6874 61.5247 17.7091 61.4922 17.7241C61.4596 17.7391 61.4247 17.7471 61.3893 17.7475C61.3539 17.748 61.3187 17.741 61.2858 17.7268C61.253 17.7127 61.223 17.6917 61.1977 17.6652L51.3465 7.28296C51.2935 7.22541 51.2634 7.14809 51.2624 7.06722C51.2614 6.98634 51.2896 6.9082 51.3412 6.84918L54.0271 3.86679C54.0516 3.83936 54.081 3.81748 54.1136 3.80246C54.1461 3.78743 54.1812 3.77957 54.2166 3.77932C54.2515 3.77901 54.286 3.78608 54.3183 3.80011C54.3506 3.81414 54.3801 3.83487 54.4049 3.8611L64.2561 14.2433C64.3101 14.3005 64.3412 14.378 64.3428 14.4594C64.3445 14.5408 64.3164 14.6196 64.2647 14.6792V14.6778Z" fill="#D20A2E"/>
</svg>
