<svg width="80" height="84" viewBox="0 0 80 84" fill="none" xmlns="http://www.w3.org/2000/svg">
<g clip-path="url(#clip0_757_305)">
<path d="M79.2658 19.4557C79.1713 19.2666 79.0406 19.098 78.8811 18.9596C78.7216 18.8212 78.5364 18.7156 78.3361 18.6491C78.1358 18.5825 77.9244 18.5561 77.714 18.5715C77.5036 18.5869 77.2982 18.6437 77.1097 18.7388L70.7836 21.9178C70.1368 22.2428 69.431 22.4332 68.7089 22.4775C67.9867 22.5218 67.2631 22.419 66.5816 22.1754C65.9001 21.9319 65.2749 21.5525 64.7436 21.0602C64.2123 20.5679 63.786 19.9729 63.4904 19.311L57.8253 6.62809C57.5331 5.97337 57.3746 5.26663 57.3592 4.54953C57.3438 3.83244 57.4719 3.11952 57.7358 2.45281C57.9996 1.7861 58.394 1.17909 58.8957 0.66759C59.3974 0.156085 59.9961 -0.249566 60.6567 -0.52544L66.9985 -3.17303C67.1934 -3.25415 67.3703 -3.37296 67.5193 -3.52268C67.6683 -3.67239 67.7864 -3.85006 67.8669 -4.04554C67.9474 -4.24103 67.9886 -4.45048 67.9882 -4.66195C67.9879 -4.87341 67.946 -5.08273 67.8649 -5.27795C67.7838 -5.47316 67.6651 -5.65044 67.5156 -5.79966C67.3661 -5.94887 67.1887 -6.0671 66.9936 -6.14758C66.7985 -6.22805 66.5895 -6.2692 66.3785 -6.26867C66.1676 -6.26814 65.9587 -6.22595 65.764 -6.14449L59.4222 -3.49697C57.9805 -2.91445 56.7298 -1.94002 55.8109 -0.683452C54.892 0.573115 54.3414 2.0619 54.2212 3.61519C53.4471 4.08803 52.5284 4.26412 51.6349 4.11094C46.0305 3.05226 40.3594 2.38614 34.6626 2.11743C33.2088 2.00338 31.7627 2.4187 30.5898 3.28717C24.8362 7.99905 17.8574 16.0047 17.1257 23.0639L16.699 27.2098C16.4441 29.694 16.1892 32.178 15.9672 34.2659C15.9092 34.8301 15.9678 35.4002 16.1395 35.9407C16.3111 36.4812 16.5921 36.9804 16.9649 37.4072C17.6764 38.2128 18.6683 38.7152 19.7375 38.8115C19.2903 40.1553 19.0622 41.5625 19.0621 42.979C19.0621 43.3503 19.0792 43.7144 19.1065 44.0737C18.6519 44.2896 18.2306 44.5701 17.8558 44.9066L17.259 45.4459C16.8566 45.8059 16.5201 46.1094 16.2465 46.4081C16.1186 46.548 15.9845 46.6737 15.8473 46.8059C15.465 47.1589 15.1117 47.5422 14.7908 47.952C14.3869 48.5321 14.101 49.1863 13.9495 49.8771C13.798 50.568 13.7838 51.2821 13.9077 51.9785L13.943 52.3101C14.0329 53.1958 14.2471 54.0643 14.5791 54.8901C15.2362 56.8004 16.2802 58.554 17.6457 60.0406C18.3303 60.7794 19.2098 61.3086 20.1822 61.567V62.9602C20.1822 63.264 20.2679 63.5615 20.4292 63.8186L21.31 65.2195L21.2974 66.4946C21.2949 66.7543 21.3551 67.0108 21.473 67.2421C21.5909 67.4735 21.7629 67.6728 21.9743 67.8231L22.6496 68.3042L22.1139 68.606C21.8662 68.7465 21.6601 68.9503 21.5167 69.1967C21.3733 69.4431 21.2976 69.7232 21.2974 70.0084V72.3856C21.2975 72.6463 21.3606 72.9031 21.4815 73.134C21.6024 73.3649 21.7775 73.5628 21.9915 73.711C21.7019 74.0113 21.5399 74.4127 21.5398 74.8304V76.3413C21.54 76.5906 21.5978 76.8364 21.7087 77.0595C21.8196 77.2827 21.9806 77.477 22.179 77.6273L22.3781 77.7783L22.1444 77.9638C21.9558 78.1148 21.8036 78.3064 21.6989 78.5244C21.5942 78.7424 21.5398 78.9812 21.5397 79.2231V80.2026C21.5399 80.6031 21.6886 80.9892 21.957 81.2859L24.004 83.5435C24.1548 83.7093 24.3384 83.8417 24.5431 83.9324C24.7479 84.0231 24.9692 84.07 25.193 84.0702H27.3703C27.7962 84.0701 28.2047 83.9004 28.5059 83.5985L29.7906 82.3109C29.9398 82.1615 30.0581 81.984 30.1389 81.7887C30.2197 81.5934 30.2612 81.3841 30.2612 81.1727L30.2643 65.2934L31.2792 63.9177C31.4839 63.6406 31.5945 63.305 31.5945 62.9602V61.4978C32.4823 61.2237 33.2829 60.7213 33.9168 60.0407C35.2818 58.5538 36.3256 56.8003 36.9826 54.8901C37.3147 54.0644 37.5288 53.1959 37.6187 52.3102L37.6541 51.9785C37.904 50.5721 37.5863 49.1238 36.7709 47.9521C36.45 47.5422 36.0967 47.159 35.7145 46.8059C35.5772 46.6739 35.4431 46.5481 35.3145 46.4082C35.0416 46.1094 34.7051 45.806 34.3028 45.446L33.7067 44.9082C33.3307 44.5703 32.9079 44.2887 32.4514 44.0721C32.4796 43.7097 32.4996 43.3454 32.4996 42.9791C32.4979 41.8451 32.3544 40.7157 32.0724 39.6175C34.9815 38.2834 37.8188 36.7973 40.5725 35.1653C42.112 34.391 43.7064 33.7315 45.3426 33.1922C51.7503 31.13 57.7442 27.9495 63.0479 23.7973C64.3158 24.8381 65.8585 25.4866 67.4878 25.6638C69.1171 25.841 70.7627 25.5391 72.2237 24.795L78.5499 21.616C78.7385 21.5213 78.9066 21.3904 79.0447 21.2305C79.1827 21.0707 79.288 20.8852 79.3545 20.6846C79.421 20.4839 79.4473 20.2721 79.4321 20.0613C79.4169 19.8504 79.3604 19.6447 79.2658 19.4557ZM25.0785 32.6638C25.102 32.5789 25.1263 32.494 25.1506 32.4091C26.5231 27.5872 27.8196 23.0325 33.4203 20.5186C33.5901 20.4417 33.7743 20.402 33.9607 20.4022C34.4009 20.4262 34.8231 20.5854 35.17 20.8582C36.1151 21.5201 36.7783 22.513 37.0288 23.6409C36.7441 24.3799 34.0352 26.1376 32.243 27.2995C29.6779 28.837 27.2771 30.6346 25.0785 32.6638ZM27.367 63.8045C27.1623 64.0815 27.0518 64.4172 27.0518 64.7619L27.0486 80.506L26.7051 80.8503H25.9036L24.9718 79.8221L25.2455 79.6051C25.4341 79.4541 25.5864 79.2625 25.6911 79.0445C25.7957 78.8265 25.8501 78.5877 25.8502 78.3458V77.1713C25.85 76.9221 25.7922 76.6762 25.6813 76.4531C25.5704 76.2299 25.4094 76.0356 25.211 75.8853L24.924 75.6683L25.0377 75.6039C25.2844 75.4635 25.4896 75.26 25.6324 75.0142C25.7751 74.7684 25.8503 74.4891 25.8502 74.2047V72.9453C25.8502 72.6276 25.7563 72.317 25.5804 72.0526C25.4046 71.7882 25.1546 71.5819 24.862 71.4596L24.5099 71.3118V70.9486L25.4244 70.4314C25.6721 70.2909 25.8781 70.0871 26.0216 69.8407C26.165 69.5943 26.2406 69.3142 26.2408 69.029V67.7413C26.2408 67.4842 26.1793 67.2309 26.0616 67.0025C25.9438 66.7741 25.7732 66.5773 25.564 66.4285L24.5177 65.6849L24.5271 64.7777C24.5298 64.4687 24.444 64.1653 24.2801 63.9035L23.3946 62.4948V61.7795H28.382V62.4288L27.367 63.8045ZM33.4948 49.1342C33.758 49.3725 34.0009 49.6323 34.221 49.9109C34.4977 50.4201 34.5847 51.0114 34.4665 51.579L34.421 51.9956C34.352 52.6318 34.1914 53.2546 33.9442 53.8446C33.4295 55.3368 32.613 56.7065 31.5458 57.8678C31.3468 58.0855 31.1048 58.2595 30.8352 58.3786C30.5655 58.4977 30.2742 58.5593 29.9795 58.5596H21.5836C21.2888 58.5594 20.9973 58.4978 20.7276 58.3787C20.4578 58.2596 20.2157 58.0856 20.0166 57.8678C18.948 56.7067 18.1311 55.3363 17.6174 53.8429C17.3701 53.2535 17.2095 52.6313 17.1405 51.9956L17.0951 51.579C16.9766 51.0115 17.0633 50.4202 17.3398 49.9109C17.5604 49.6324 17.8036 49.3727 18.0668 49.1342C18.2559 48.9534 18.437 48.7773 18.6111 48.5871C18.8213 48.3591 19.0849 48.128 19.3947 47.8514L19.8203 47.467C20.0229 48.0337 20.2738 48.5817 20.5703 49.1052C20.3194 49.2404 20.1093 49.4406 19.962 49.6849C19.8147 49.9293 19.7355 50.2087 19.7327 50.4942C19.7337 51.3644 20.0792 52.1986 20.6932 52.8137C21.3073 53.4289 22.1397 53.7748 23.0079 53.7754H28.3545C29.2235 53.7742 30.0565 53.4273 30.6705 52.8109C31.2845 52.1945 31.6292 51.359 31.6289 50.4879C31.6249 50.2766 31.5793 50.0682 31.4948 49.8746C31.4104 49.6809 31.2886 49.5059 31.1366 49.3595C30.9846 49.213 30.8053 49.098 30.6089 49.0211C30.4126 48.9441 30.203 48.9067 29.9922 48.911C29.5593 48.9174 29.1459 49.0928 28.8401 49.3999C28.5343 49.707 28.3601 50.1216 28.3545 50.5555L27.3007 50.5435C27.212 50.2065 27.0151 49.908 26.7403 49.6942C26.4656 49.4804 26.1283 49.3632 25.7805 49.3607C24.7573 49.3607 23.6648 48.3578 22.976 46.7099H30.0314C30.5832 46.702 31.1176 46.9036 31.5271 47.2743L32.1671 47.8513C32.4769 48.1281 32.7404 48.3592 32.9498 48.5871C33.1246 48.7773 33.3058 48.9534 33.4948 49.1342ZM29.287 42.979C29.287 43.1528 29.2501 43.3178 29.2419 43.49H22.3058C22.2977 43.3178 22.2746 43.1564 22.2746 42.979C22.2733 42.0605 22.3965 41.1461 22.6409 40.2609C22.7614 40.5551 22.942 40.8208 23.1713 41.0406C23.4005 41.2605 23.6732 41.4297 23.9718 41.5373C24.3286 41.659 24.704 41.7165 25.0808 41.7071C26.4412 41.6254 27.7805 41.3302 29.0497 40.8325C29.2028 41.5378 29.2824 42.2572 29.287 42.979ZM44.2373 30.1688C42.4159 30.7647 40.6455 31.5071 38.9433 32.3887C32.3246 36.2925 27.2517 38.3065 25.5043 38.5062C25.3068 35.6322 30.287 32.4029 33.9881 30.0021C37.5112 27.7176 40.057 26.0669 40.2147 23.9774C40.1629 22.8355 39.847 21.7212 39.2919 20.7226C38.7368 19.724 37.9578 18.8683 37.0163 18.2232C36.3308 17.6846 35.5135 17.3406 34.6499 17.2272C33.7863 17.1138 32.9081 17.2352 32.1074 17.5786C25.1404 20.7057 23.5043 26.4536 22.0613 31.5256C21.7114 32.755 21.3805 33.9169 20.9844 35.0206C20.9232 35.2057 20.8028 35.3655 20.6419 35.4752C20.481 35.5849 20.2885 35.6385 20.0942 35.6275C19.959 35.623 19.8261 35.5905 19.7039 35.532C19.5818 35.4736 19.473 35.3905 19.3844 35.2879C19.3024 35.1963 19.2401 35.0887 19.2017 34.9718C19.1632 34.8549 19.1493 34.7313 19.1609 34.6087C19.3837 32.5161 19.6393 30.0273 19.8942 27.5385L20.3209 23.3973C20.9083 17.7343 27.109 10.2946 32.6211 5.78236C33.2028 5.40578 33.899 5.24813 34.5857 5.33742C40.1309 5.60386 45.651 6.25523 51.1063 7.28685C52.2676 7.4995 53.465 7.38553 54.5657 6.95757C54.6552 7.29217 54.7647 7.62106 54.8936 7.94246L60.5586 20.6254C60.6731 20.8819 60.834 21.1042 60.9703 21.3451C55.959 25.2578 50.293 28.2457 44.2373 30.1688Z" fill="#42434B"/>
</g>
<defs>
<clipPath id="clip0_757_305">
<rect width="80" height="84" fill="white"/>
</clipPath>
</defs>
</svg>
