<svg width="78" height="79" viewBox="0 0 78 79" fill="none" xmlns="http://www.w3.org/2000/svg">
<path d="M58.672 31.1193C58.672 16.4198 46.5352 4.46973 31.606 4.46973C16.6768 4.46973 4.54004 16.4198 4.54004 31.1193C4.54004 45.8188 16.6768 57.7689 31.606 57.7689C38.5012 57.7689 44.788 55.1884 49.5772 50.9952L53.0248 54.3897L52.4632 54.9427C51.574 55.8182 51.0904 56.9856 51.0904 58.2297C51.0904 59.4739 51.6052 60.6412 52.51 61.5014L62.494 71.04C63.3988 71.9001 64.5688 72.3302 65.7544 72.3302C66.94 72.3302 68.1568 71.8848 69.0616 70.9939L72.088 68.014C73.882 66.2476 73.9132 63.3446 72.1348 61.5475L62.4472 51.7171C61.5736 50.8262 60.388 50.3347 59.1244 50.3193C57.8452 50.2886 56.6752 50.7955 55.786 51.671L55.2244 52.224L51.7768 48.8294C56.0512 44.1139 58.6564 37.9238 58.6564 31.1347L58.672 31.1193ZM59.1244 53.3913C59.5456 53.3913 59.9356 53.5603 60.232 53.8521L69.9196 63.6825C70.5124 64.2816 70.4968 65.2492 69.9196 65.8329L66.8932 68.8128C66.3004 69.3964 65.3176 69.4118 64.7092 68.8281L54.7252 59.2896C54.4288 58.9977 54.2572 58.6137 54.2572 58.199C54.2572 57.7843 54.4132 57.4003 54.7096 57.1084L58.0324 53.8368C58.3288 53.5449 58.7032 53.3299 59.1556 53.3913H59.1244ZM7.66004 31.1193C7.66004 18.1248 18.4084 7.54173 31.606 7.54173C44.8036 7.54173 55.552 18.1248 55.552 31.1193C55.552 44.1139 44.8036 54.6969 31.606 54.6969C18.4084 54.6969 7.66004 44.1139 7.66004 31.1193ZM46.036 29.8598C48.9532 29.8598 51.34 27.5097 51.34 24.6374C51.34 21.7651 48.9532 19.415 46.036 19.415C43.1188 19.415 40.732 21.7651 40.732 24.6374C40.732 25.39 40.9036 26.112 41.2 26.7571L33.8368 33.1008C33.0256 32.6092 32.0896 32.302 31.06 32.302C29.4532 32.302 28.0492 33.024 27.0664 34.1299L21.3256 31.6723C21.3412 31.4726 21.388 31.2883 21.388 31.0886C21.388 28.2163 19.0012 25.8662 16.084 25.8662C13.1668 25.8662 10.78 28.2163 10.78 31.0886C10.78 33.9609 13.1668 36.311 16.084 36.311C17.6908 36.311 19.0948 35.5891 20.0776 34.4832L25.8184 36.9408C25.8028 37.1404 25.756 37.3248 25.756 37.5244C25.756 40.4121 28.1428 42.7468 31.06 42.7468C33.9772 42.7468 36.364 40.3968 36.364 37.5244C36.364 36.7718 36.1924 36.0499 35.896 35.4048L43.2592 29.0611C44.0704 29.5526 45.0064 29.8598 46.036 29.8598ZM16.084 33.239C14.8828 33.239 13.9 32.2713 13.9 31.0886C13.9 29.9059 14.8828 28.9382 16.084 28.9382C17.2852 28.9382 18.268 29.9059 18.268 31.0886C18.268 32.2713 17.2852 33.239 16.084 33.239ZM46.036 22.487C47.2372 22.487 48.22 23.4547 48.22 24.6374C48.22 25.8201 47.2372 26.7878 46.036 26.7878C44.8348 26.7878 43.852 25.8201 43.852 24.6374C43.852 23.4547 44.8348 22.487 46.036 22.487ZM31.06 39.6902C29.8588 39.6902 28.876 38.7225 28.876 37.5398C28.876 36.3571 29.8588 35.3894 31.06 35.3894C32.2612 35.3894 33.244 36.3571 33.244 37.5398C33.244 38.7225 32.2612 39.6902 31.06 39.6902Z" fill="#42434B"/>
</svg>
