<svg width="77" height="77" viewBox="0 0 77 77" fill="none" xmlns="http://www.w3.org/2000/svg">
  <path d="M74.667 62.6051H67.667V25.7128C67.667 25.4163 67.5441 25.1319 67.3253 24.9223C67.1065 24.7126 66.8097 24.5948 66.5003 24.5948H59.5003C59.1909 24.5948 58.8942 24.7126 58.6754 24.9223C58.4566 25.1319 58.3337 25.4163 58.3337 25.7128V62.6051H51.3337V39.1282C51.3337 38.8317 51.2107 38.5473 50.992 38.3377C50.7732 38.128 50.4764 38.0102 50.167 38.0102H43.167C42.8576 38.0102 42.5608 38.128 42.342 38.3377C42.1232 38.5473 42.0003 38.8317 42.0003 39.1282V62.6051H35.0003V25.7128C35.0003 25.4163 34.8774 25.1319 34.6586 24.9223C34.4398 24.7126 34.1431 24.5948 33.8337 24.5948H26.8337C26.5242 24.5948 26.2275 24.7126 26.0087 24.9223C25.7899 25.1319 25.667 25.4163 25.667 25.7128V62.6051H18.667V39.1282C18.667 38.8317 18.5441 38.5473 18.3253 38.3377C18.1065 38.128 17.8097 38.0102 17.5003 38.0102H10.5003C10.1909 38.0102 9.89416 38.128 9.67537 38.3377C9.45658 38.5473 9.33366 38.8317 9.33366 39.1282V62.6051H2.33366C2.02424 62.6051 1.72749 62.7229 1.5087 62.9325C1.28991 63.1422 1.16699 63.4266 1.16699 63.7231V70.4307C1.16699 70.7272 1.28991 71.0116 1.5087 71.2213C1.72749 71.4309 2.02424 71.5487 2.33366 71.5487H74.667C74.9764 71.5487 75.2732 71.4309 75.492 71.2213C75.7107 71.0116 75.8337 70.7272 75.8337 70.4307V63.7231C75.8337 63.4266 75.7107 63.1422 75.492 62.9325C75.2732 62.7229 74.9764 62.6051 74.667 62.6051ZM60.667 26.8307H65.3337V62.6051H60.667V26.8307ZM44.3337 40.2461H49.0003V62.6051H44.3337V40.2461ZM28.0003 26.8307H32.667V62.6051H28.0003V26.8307ZM11.667 40.2461H16.3337V62.6051H11.667V40.2461ZM73.5003 69.3128H3.50033V64.841H73.5003V69.3128Z" fill="#D20A2E"/>
  <path d="M14.0007 32.4205C14.8351 32.4186 15.6537 32.2024 16.3713 31.7943C17.0889 31.3863 17.6792 30.8013 18.0807 30.1003C18.4821 29.3994 18.6802 28.6081 18.6541 27.8089C18.628 27.0097 18.3787 26.2318 17.9323 25.5563L28.1173 15.0923C28.7935 15.4587 29.5572 15.6513 30.334 15.6513C31.1108 15.6513 31.8744 15.4587 32.5507 15.0923L42.7357 25.5563C42.3449 26.142 42.1019 26.8069 42.0262 27.4983C41.9504 28.1896 42.0439 28.8884 42.2993 29.5391C42.5546 30.1898 42.9647 30.7745 43.4971 31.2467C44.0294 31.719 44.6694 32.0658 45.3661 32.2596C46.0627 32.4535 46.797 32.489 47.5105 32.3634C48.224 32.2378 48.8972 31.9545 49.4765 31.5361C50.0558 31.1176 50.5253 30.5755 50.8477 29.9528C51.1702 29.3301 51.3367 28.6439 51.334 27.9487C51.3338 26.9617 50.9842 26.004 50.3423 25.2321L61.1457 11.9285C62.2025 12.381 63.3954 12.4479 64.5001 12.1168C65.6048 11.7857 66.5453 11.0793 67.1447 10.1305C67.7441 9.18162 67.9611 8.05564 67.7551 6.9642C67.549 5.87276 66.934 4.89103 66.0256 4.20356C65.1173 3.5161 63.9782 3.17025 62.8224 3.23102C61.6667 3.2918 60.5739 3.75502 59.7495 4.5336C58.9251 5.31218 58.4259 6.3525 58.3457 7.459C58.2655 8.56549 58.6098 9.66195 59.314 10.5423L48.5107 23.8458C47.8649 23.5738 47.1619 23.4493 46.4573 23.4823C45.7527 23.5153 45.0657 23.7048 44.4507 24.0359L34.2657 13.5719C34.7166 12.8961 34.9695 12.1165 34.998 11.3148C35.0264 10.5131 34.8293 9.7189 34.4272 9.01533C34.0252 8.31175 33.4331 7.72475 32.7129 7.31584C31.9928 6.90693 31.1711 6.69117 30.334 6.69117C29.4969 6.69117 28.6752 6.90693 27.955 7.31584C27.2349 7.72475 26.6428 8.31175 26.2407 9.01533C25.8387 9.7189 25.6416 10.5131 25.67 11.3148C25.6984 12.1165 25.9514 12.8961 26.4023 13.5719L16.2173 24.0359C15.5384 23.6759 14.7765 23.4838 14.0007 23.4769C12.763 23.4769 11.576 23.9481 10.7008 24.7867C9.82565 25.6253 9.33398 26.7627 9.33398 27.9487C9.33398 29.1347 9.82565 30.2721 10.7008 31.1108C11.576 31.9494 12.763 32.4205 14.0007 32.4205ZM63.0007 5.58975C63.4621 5.58975 63.9133 5.72088 64.297 5.96656C64.6807 6.21225 64.9798 6.56145 65.1564 6.97C65.333 7.37856 65.3792 7.82812 65.2892 8.26184C65.1991 8.69557 64.9769 9.09397 64.6506 9.40666C64.3242 9.71936 63.9085 9.93231 63.4559 10.0186C63.0032 10.1049 62.5341 10.0606 62.1077 9.89134C61.6814 9.72211 61.3169 9.43553 61.0606 9.06784C60.8042 8.70015 60.6673 8.26786 60.6673 7.82564C60.6673 7.23265 60.9132 6.66394 61.3507 6.24463C61.7883 5.82531 62.3818 5.58975 63.0007 5.58975ZM49.0007 27.9487C49.0007 28.3909 48.8638 28.8232 48.6074 29.1909C48.351 29.5586 47.9866 29.8452 47.5602 30.0144C47.1339 30.1836 46.6647 30.2279 46.2121 30.1417C45.7595 30.0554 45.3437 29.8424 45.0174 29.5297C44.6911 29.217 44.4689 28.8186 44.3788 28.3849C44.2888 27.9512 44.335 27.5016 44.5116 27.0931C44.6882 26.6845 44.9873 26.3353 45.371 26.0896C45.7547 25.844 46.2058 25.7128 46.6673 25.7128C47.2862 25.7128 47.8797 25.9484 48.3172 26.3677C48.7548 26.787 49.0007 27.3557 49.0007 27.9487ZM30.334 8.94359C30.7955 8.94359 31.2466 9.07472 31.6303 9.32041C32.014 9.56609 32.3131 9.91529 32.4897 10.3238C32.6663 10.7324 32.7125 11.182 32.6225 11.6157C32.5325 12.0494 32.3102 12.4478 31.9839 12.7605C31.6576 13.0732 31.2418 13.2862 30.7892 13.3724C30.3366 13.4587 29.8674 13.4144 29.4411 13.2452C29.0147 13.076 28.6503 12.7894 28.3939 12.4217C28.1375 12.054 28.0007 11.6217 28.0007 11.1795C28.0007 10.5865 28.2465 10.0178 28.6841 9.59847C29.1217 9.17916 29.7151 8.94359 30.334 8.94359ZM14.0007 25.7128C14.4621 25.7128 14.9133 25.844 15.297 26.0896C15.6807 26.3353 15.9798 26.6845 16.1564 27.0931C16.333 27.5016 16.3792 27.9512 16.2892 28.3849C16.1991 28.8186 15.9769 29.217 15.6506 29.5297C15.3242 29.8424 14.9085 30.0554 14.4559 30.1417C14.0032 30.2279 13.5341 30.1836 13.1077 30.0144C12.6814 29.8452 12.3169 29.5586 12.0606 29.1909C11.8042 28.8232 11.6673 28.3909 11.6673 27.9487C11.6673 27.3557 11.9132 26.787 12.3507 26.3677C12.7883 25.9484 13.3818 25.7128 14.0007 25.7128Z" fill="#D20A2E"/>
</svg>
