<svg width="73" height="73" viewBox="0 0 73 73" fill="none" xmlns="http://www.w3.org/2000/svg">
  <path d="M43.3438 39.9219C43.3438 38.5683 42.9424 37.2451 42.1904 36.1197C41.4384 34.9942 40.3695 34.1171 39.119 33.5991C37.8685 33.0811 36.4924 32.9456 35.1649 33.2096C33.8373 33.4737 32.6179 34.1255 31.6607 35.0826C30.7036 36.0397 30.0518 37.2592 29.7878 38.5867C29.5237 39.9143 29.6592 41.2903 30.1772 42.5409C30.6952 43.7914 31.5724 44.8602 32.6978 45.6122C33.8233 46.3642 35.1464 46.7656 36.5 46.7656C38.3145 46.7638 40.0542 46.0422 41.3373 44.7591C42.6203 43.4761 43.3419 41.7364 43.3438 39.9219ZM31.9375 39.9219C31.9375 39.0195 32.2051 38.1374 32.7064 37.3871C33.2078 36.6368 33.9203 36.052 34.754 35.7067C35.5877 35.3614 36.5051 35.271 37.3901 35.447C38.2751 35.6231 39.0881 36.0576 39.7262 36.6957C40.3643 37.3338 40.7988 38.1467 40.9748 39.0318C41.1509 39.9168 41.0605 40.8342 40.7152 41.6679C40.3699 42.5016 39.7851 43.2141 39.0348 43.7155C38.2845 44.2168 37.4024 44.4844 36.5 44.4844C35.29 44.4844 34.1295 44.0037 33.2738 43.148C32.4182 42.2924 31.9375 41.1319 31.9375 39.9219Z" fill="#D20A2E"/>
  <path d="M36.5 2.28125C29.7322 2.28125 23.1163 4.28814 17.4891 8.04815C11.8619 11.8082 7.47595 17.1524 4.88601 23.4051C2.29608 29.6577 1.61843 36.538 2.93877 43.1757C4.25911 49.8135 7.51813 55.9107 12.3037 60.6963C17.0893 65.4819 23.1865 68.7409 29.8243 70.0612C36.4621 71.3816 43.3423 70.7039 49.595 68.114C55.8476 65.5241 61.1919 61.1382 64.9519 55.5109C68.7119 49.8837 70.7188 43.2678 70.7188 36.5C70.7085 27.4278 67.1 18.7301 60.685 12.315C54.27 5.89999 45.5722 2.29151 36.5 2.28125ZM36.5 68.4375C30.1834 68.4375 24.0086 66.5644 18.7565 63.0551C13.5044 59.5457 9.41089 54.5578 6.99361 48.722C4.57634 42.8861 3.94387 36.4646 5.17619 30.2693C6.4085 24.074 9.45025 18.3833 13.9168 13.9168C18.3833 9.45024 24.0741 6.40849 30.2693 5.17617C36.4646 3.94385 42.8862 4.57632 48.722 6.9936C54.5578 9.41087 59.5457 13.5044 63.0551 18.7565C66.5644 24.0086 68.4375 30.1834 68.4375 36.5C68.4279 44.9674 65.0599 53.0852 59.0726 59.0726C53.0852 65.0599 44.9674 68.4278 36.5 68.4375Z" fill="#D20A2E"/>
  <path d="M36.5 9.125C31.0857 9.125 25.7931 10.7305 21.2913 13.7385C16.7895 16.7465 13.2808 21.0219 11.2088 26.024C9.13686 31.0262 8.59474 36.5304 9.65102 41.8406C10.7073 47.1508 13.3145 52.0286 17.143 55.857C20.9714 59.6855 25.8492 62.2927 31.1594 63.349C36.4696 64.4052 41.9738 63.8631 46.976 61.7912C51.9781 59.7192 56.2535 56.2105 59.2615 51.7087C62.2695 47.2069 63.875 41.9142 63.875 36.5C63.8666 29.2423 60.9797 22.2843 55.8477 17.1523C50.7158 12.0203 43.7577 9.13345 36.5 9.125ZM36.5 11.4062C41.5697 11.4122 46.519 12.9515 50.6979 15.8218C54.8767 18.6921 58.0897 22.7593 59.9148 27.4891L51.3692 30.3406C48.4447 31.3177 45.2602 31.1634 42.4438 29.9083C40.5726 29.0775 38.548 28.6482 36.5006 28.6482C34.4532 28.6482 32.4286 29.0775 30.5574 29.9083L30.1251 30.0999C27.5454 31.2439 24.6524 31.4724 21.9251 30.7478L12.7853 28.3103C14.4939 23.3793 17.6951 19.1024 21.9447 16.0733C26.1942 13.0442 31.2814 11.413 36.5 11.4062ZM11.4063 36.5C11.4063 36.2719 11.4177 36.038 11.4234 35.8076L12.2218 36.0711C17.699 37.8905 22.5454 41.2311 26.1945 45.7025C29.8437 50.1739 32.145 55.5915 32.8295 61.3223C26.8784 60.4347 21.4432 57.4414 17.512 52.8863C13.5807 48.3313 11.4142 42.5169 11.4063 36.5ZM35.1507 61.5561C34.5016 55.2988 32.0605 49.3617 28.1204 44.4576C24.1803 39.5534 18.9086 35.8905 12.9381 33.9085L11.5967 33.4614C11.7167 32.4628 11.8973 31.4724 12.1374 30.4957L21.3365 32.9492C24.5676 33.807 27.9947 33.5366 31.0512 32.1827L31.4835 31.9911C33.0636 31.2893 34.7733 30.9266 36.5023 30.9266C38.2312 30.9266 39.941 31.2893 41.521 31.9911C44.8572 33.4768 48.629 33.6584 52.0924 32.4998L60.6368 29.6562C60.9907 30.9028 61.247 32.175 61.4033 33.4614L60.0619 33.9085C54.0914 35.8905 48.8197 39.5534 44.8797 44.4576C40.9396 49.3617 38.4985 55.2988 37.8494 61.5561C37.4034 61.58 36.9563 61.5937 36.5 61.5937C36.0438 61.5937 35.5966 61.58 35.1507 61.5561ZM40.1694 61.328C40.8534 55.5954 43.1553 50.176 46.8058 45.7034C50.4563 41.2308 55.3046 37.8898 60.7839 36.0711L61.5824 35.8076C61.5881 36.0358 61.5995 36.2639 61.5995 36.5C61.5914 42.5178 59.4241 48.3328 55.4916 52.888C51.5592 57.4431 46.1227 60.4359 40.1705 61.3223L40.1694 61.328Z" fill="#D20A2E"/>
</svg>
