<?xml version="1.0" encoding="UTF-8"?>
<svg xmlns="http://www.w3.org/2000/svg" width="570" height="89" viewBox="0 0 570 89" fill="none"><g clip-path="url(#clip0_1332_35)"><path d="M511.804 64.4565C511.804 77.7106 501.084 88.4032 487.881 88.4032C474.677 88.4032 463.958 77.7013 463.958 64.4565C463.958 51.2122 474.665 40.5103 487.881 40.5103C501.092 40.5103 511.804 51.2122 511.804 64.4565Z" fill="#5ABCED"/><path d="M569.223 64.4565C569.223 77.7106 558.504 88.4032 545.3 88.4032C532.1 88.4032 521.381 77.7013 521.381 64.4565C521.381 51.2122 532.1 40.5103 545.3 40.5103C558.504 40.5103 569.223 51.2122 569.223 64.4565Z" fill="#ADDEF6"/><path fill-rule="evenodd" clip-rule="evenodd" d="M144.888 36.2884C151.066 29.7126 160.166 28.9114 165.098 28.9114L165.088 28.9022C182.116 28.9022 191.542 42.8638 191.542 56.276C191.542 71.9609 183.679 88.4097 161.162 88.3908C137.118 88.3816 129.637 68.7943 129.637 51.3026C129.637 31.2865 131.684 23.3043 138.83 16.1513C146.253 8.72065 156.998 5.7056 166.236 3.11347C167.963 2.62861 169.638 2.15856 171.229 1.67719C176.161 0.186934 180.925 0.671263 182.609 6.13861C183.67 9.56619 182.33 13.8229 176.328 15.4433C170.308 17.0734 162.418 19.2714 159.868 20.026C149.503 23.0902 144.888 26.8717 144.888 36.2884ZM161.124 73.9356C169.415 73.9356 175.575 67.8722 175.575 58.2692V58.1575C175.575 48.5641 169.508 42.6124 161.217 42.6124C152.927 42.6124 146.767 48.6665 146.767 58.2692V58.3812C146.767 67.9839 152.834 73.9356 161.124 73.9356ZM93.3612 28.1402C75.8777 28.1402 62.8881 40.6955 62.8881 58.2619V58.4763C62.8881 76.0516 75.7754 88.4024 93.1658 88.4024C110.557 88.4024 123.639 75.8375 123.639 58.2619V58.0571C123.639 40.4907 110.752 28.1402 93.3612 28.1402ZM107.672 58.2711C107.672 67.8742 101.512 73.9375 93.2219 73.9375C84.9312 73.9375 78.8646 67.9858 78.8646 58.3831V58.2711C78.8646 48.6684 85.0242 42.6143 93.3146 42.6143C101.605 42.6143 107.672 48.566 107.672 58.1595V58.2711ZM454.408 64.4558C454.408 77.7098 443.688 88.4024 430.477 88.4024C417.265 88.4024 406.554 77.7005 406.554 64.4558C406.554 51.2114 417.265 40.5095 430.477 40.5095C443.688 40.5095 454.408 51.2114 454.408 64.4558ZM227.652 28.1406C218.319 28.1406 210.949 31.1675 205.757 36.253C200.593 41.4224 197.337 48.8552 197.337 57.6008C197.337 66.3469 200.463 74.3568 206.018 79.9455C211.47 85.3663 219.491 88.3931 229.466 88.3931C235.17 88.3931 240.994 87.7598 246.317 85.6177C251.23 83.7269 253.686 81.333 253.686 77.8776C253.686 74.2267 250.969 71.1994 247.35 71.1994C245.602 71.1994 244.008 71.8474 242.12 72.6151C239.374 73.7319 236.005 75.1022 230.629 75.1022C222.236 75.1022 215.89 70.948 214.336 63.2638H247.74C253.035 63.2638 256.161 59.855 256.161 53.8848C256.161 48.2218 254.468 41.4131 248.773 35.7409C244.102 31.149 237.245 28.1221 227.661 28.1221L227.652 28.1406ZM214.197 52.2547C215.36 45.5765 220.896 41.2922 228.033 41.2922C235.775 41.2922 240.008 45.5207 240.585 52.2547H214.197ZM47.7146 28.9126H47.8077C52.3485 28.9126 56.0423 32.6474 56.0423 37.1831V79.4226C56.0423 83.9679 52.3485 87.647 47.8077 87.647C43.2669 87.647 39.5731 83.9679 39.5731 79.4226V43.6099H16.4694V79.4226C16.4694 83.9679 12.7847 87.647 8.23469 87.647C3.68468 87.647 0 83.9679 0 79.4226V37.1831C0 32.6382 3.68468 28.9126 8.23469 28.9126H8.32773H47.7146ZM316.522 28.9126H289.984C284.197 28.9126 281.015 31.986 279.265 37.2671L268.155 73.7131H265.057C261.223 73.7131 258.097 76.8239 258.097 80.6985C258.097 84.5732 261.223 87.6374 265.057 87.6374H316.522C320.178 87.6374 324.849 84.7876 324.849 79.3295V37.2671C324.849 31.8093 320.178 28.9126 316.522 28.9126ZM309.292 73.7131H284.476L292.906 42.8461H309.292V73.7131ZM342.691 30.2527C347.78 28.2969 353.819 28.1387 358.323 28.1387V28.1295C372.177 28.1295 385.688 35.031 385.688 53.3516V79.962C385.688 84.2093 382.329 87.6274 378.225 87.6274C375.471 87.6274 372.28 86.4724 370.893 83.0355C367.441 85.7181 362.845 88.4004 355.55 88.4004C342.877 88.4004 332.465 80.3998 332.465 68.2076C332.465 51.6098 348.702 48.6296 355.466 48.6296C357.988 48.6296 365.58 48.8994 370.158 53.0351C370.158 45.6119 366.576 41.5044 357.82 41.5044C352.935 41.5044 349.57 42.5115 346.827 43.3323C344.94 43.8968 343.349 44.373 341.76 44.373C338.476 44.373 336 41.4112 336 37.8345C336 34.4535 338.178 31.9852 342.691 30.2527ZM347.101 68.3658C347.101 73.6565 351.893 77.1119 358.388 77.1119C364.901 77.1119 369.684 73.6565 369.684 68.3658C369.684 63.0755 364.901 59.6294 358.388 59.6294C352.572 59.6294 347.101 62.3956 347.101 68.3658Z" fill="#14A0E6"/></g><defs><clipPath id="clip0_1332_35"><rect width="570" height="89" fill="white"/></clipPath></defs></svg>