<svg width="46" height="49" viewBox="0 0 46 49" fill="none" xmlns="http://www.w3.org/2000/svg">
<path d="M38.8796 18.7807V18.5015C38.8796 18.1316 38.5846 17.8306 38.2221 17.8306H37.8169L37.8151 5.10842C37.8151 4.28338 37.1629 3.6106 36.3578 3.6106H17.1787C16.3755 3.6106 15.7215 4.28333 15.7215 5.10842V17.8287H15.3163C14.952 17.8287 14.6587 18.1297 14.6587 18.4996V20.2314C14.6587 21.5515 15.7108 22.6249 17.0046 22.6249H36.5358C37.8296 22.6249 38.8817 21.5514 38.8817 20.2314V20.2114C39.3259 20.4526 39.6316 20.9259 39.6316 21.4753V33.8242C39.6316 34.6112 38.9989 35.2513 38.2223 35.2513L16.9781 35.2495V32.6274C16.9781 31.8803 16.7027 31.2022 16.1837 30.6727C15.1014 29.5611 13.8699 28.6073 12.5228 27.8258L13.4451 27.28H14.6127C14.977 27.28 15.2702 26.979 15.2702 26.6091C15.2702 26.2391 14.9752 25.9381 14.6127 25.9381H13.2674C13.1519 25.9381 13.0364 25.969 12.9368 26.0288L11.8385 26.6779C11.1312 25.1783 10.4719 23.9326 9.83923 22.9044C9.4056 22.1863 8.74092 21.7457 7.92168 21.6279C5.52252 21.267 3.07868 21.0838 0.658314 21.0838C0.295773 21.082 0.000766231 21.383 0.000766231 21.7548C0.000766231 22.1265 0.295778 22.4257 0.658314 22.4257C3.01485 22.4257 5.39258 22.6034 7.73515 22.957C8.16877 23.0186 8.49046 23.2326 8.72326 23.6134C9.3577 24.6434 10.0437 25.9526 10.7723 27.5102H0.658677C0.296137 27.5102 0.00113004 27.8112 0.00113004 28.1811C0.00113004 28.5529 0.296141 28.8521 0.658677 28.8521H11.6272C12.9654 29.5992 14.1845 30.5258 15.2491 31.621C15.5263 31.9039 15.6596 32.2339 15.6596 32.6292V39.2261C15.6596 40.0131 15.0269 40.6532 14.2503 40.6532H6.78444C6.29396 40.2216 5.67372 39.9859 5.00907 39.9859H0.660333C0.296014 39.9859 0.00101181 40.2869 0.00101181 40.6586C0.00101181 41.0285 0.296023 41.3295 0.658559 41.3295H5.0073C5.41072 41.3295 5.76794 41.4855 6.03804 41.7828C6.16245 41.9188 6.33661 41.9968 6.51966 41.9968H8.17242V43.7231C8.17242 44.6425 8.90463 45.3895 9.80562 45.3895H13.7456C14.652 45.3895 15.3877 44.6424 15.3877 43.7231V41.7412C16.3243 41.3024 16.9765 40.3413 16.9765 39.2261V36.595H38.2189C39.7224 36.595 40.9451 35.3528 40.9451 33.8242V21.4753C40.9468 20.1733 40.065 19.0818 38.8796 18.7807ZM17.0363 5.10835C17.0363 5.02313 17.1003 4.95422 17.1785 4.95422H36.3576C36.4358 4.95422 36.4998 5.02313 36.4998 5.10835V17.8286H31.2286C30.8643 17.8286 30.5711 18.1296 30.5711 18.4996V18.9075C30.5711 18.9837 30.5053 19.0526 30.4289 19.0526H23.1051C23.0304 19.0526 22.9629 18.9855 22.9629 18.9075V18.4996C22.9629 18.1296 22.6679 17.8286 22.3053 17.8286H17.036L17.0363 5.10835ZM37.5625 20.2314C37.5625 20.8098 37.1005 21.2813 36.5336 21.2813H17.0023C16.4354 21.2813 15.9734 20.8098 15.9734 20.2314V19.1724H21.6708C21.7934 19.8669 22.3905 20.3964 23.1049 20.3964H30.4288C31.145 20.3964 31.7421 19.8669 31.8629 19.1724H37.5604V20.2314H37.5625ZM14.0718 43.7227C14.0718 43.895 13.919 44.0455 13.7448 44.0455H9.80482C9.63243 44.0455 9.48848 43.8986 9.48848 43.7227V41.9964H14.0717L14.0718 43.7227ZM12.7016 37.4197C13.066 37.4197 13.3592 37.7207 13.3592 38.0906C13.3592 38.4623 13.0642 38.7615 12.7016 38.7615H10.6934C10.3291 38.7615 10.0359 38.4605 10.0359 38.0906C10.0359 37.7189 10.3309 37.4197 10.6934 37.4197H12.7016ZM14.4681 33.3306C14.4841 32.3623 13.9794 31.6443 13.1797 31.4992C13.002 31.4666 12.8118 31.4502 12.611 31.4502C11.0933 31.4502 8.94115 32.4113 7.80576 33.599C7.45744 33.9744 7.36325 34.5057 7.56407 34.9935C7.76666 35.4703 8.21097 35.7659 8.72457 35.7659H8.7299C10.0788 35.7569 11.5254 35.6499 13.0396 35.4504C13.9441 35.3235 14.4504 34.2627 14.4681 33.3306ZM12.8616 34.1212C11.463 34.3062 10.1177 34.4077 8.86294 34.4222C9.77818 33.5428 11.486 32.7939 12.611 32.7939C12.7336 32.7939 12.8474 32.803 12.9487 32.8211C12.9931 32.8302 13.1104 32.8501 13.1459 33.1511C13.1975 33.6153 12.9593 34.0741 12.8616 34.1212ZM0 34.8574C0 34.4857 0.295011 34.1865 0.657547 34.1865C1.93888 34.1865 3.23801 34.1575 4.51935 34.0976C4.889 34.0886 5.19113 34.3678 5.2071 34.7377C5.2231 35.1095 4.94231 35.4232 4.57976 35.4395C3.27886 35.4993 1.96022 35.5302 0.659322 35.5302C0.295002 35.5283 0 35.2273 0 34.8574ZM22.6786 12.755H20.1906C19.8262 12.755 19.533 12.4558 19.533 12.0841C19.533 11.7142 19.828 11.4132 20.1906 11.4132H23.1833C23.4819 11.4132 23.7431 11.6181 23.8195 11.9118L24.159 13.2138L25.3834 8.53919C25.4616 8.24543 25.7211 8.04234 26.0179 8.04053C26.3146 8.04053 26.5759 8.24362 26.6541 8.53738L27.5462 11.921H33.3414C33.7057 11.921 33.999 12.2221 33.999 12.592C33.999 12.9637 33.7039 13.2629 33.3414 13.2629L27.0448 13.2611C26.748 13.2611 26.4868 13.058 26.4086 12.7642L26.023 11.3009L24.795 15.9885C24.7168 16.2823 24.4573 16.4872 24.1587 16.4872C23.8602 16.4872 23.5989 16.2822 23.5225 15.9885L22.6786 12.755Z" fill="#42434B"/>
</svg>
