<svg width="61" height="41" viewBox="0 0 61 41" fill="none"
  xmlns="http://www.w3.org/2000/svg">
  <path d="M8.05831 2.90723C7.5543 2.90723 7.13109 3.33749 7.13109 3.84998V7.40161H0.554496C0.511716 7.39459 0.467895 7.39459 0.425121 7.40161C0.210607 7.43606 0.0462494 7.66583 0.0801215 7.88393C0.114001 8.10204 0.339982 8.26915 0.554496 8.23471H7.13109V13.2114H2.19332C2.18614 13.2112 2.17896 13.2112 2.17179 13.2114C1.95162 13.217 1.75646 13.426 1.7621 13.6499C1.76762 13.8737 1.97318 14.0722 2.19335 14.0664H7.13113V19.0431H4.11238H4.02613C3.82748 19.0852 3.68145 19.2984 3.70269 19.5035C3.72394 19.7087 3.90946 19.8771 4.11238 19.8762H7.13113V26.4313C7.13113 26.9438 7.5543 27.3741 8.05835 27.3741H13.5136C13.3167 27.7088 13.1347 28.0574 12.9961 28.4264H9.20113H9.11488C8.93118 28.4685 8.78886 28.6516 8.79144 28.8429V32.4823C8.79351 32.6997 8.98723 32.8965 9.20113 32.8989H12.8883C13.7463 35.6396 16.2562 37.6343 19.2277 37.6343C22.1992 37.6343 24.7092 35.6396 25.5671 32.8989H40.8982C41.7616 35.6396 44.2877 37.6343 47.2592 37.6343C50.2307 37.6343 52.7406 35.6396 53.5986 32.8989H58.5148C58.7287 32.8989 58.9223 32.6997 58.9245 32.4823V21.3451C58.9259 21.2509 58.8948 21.1566 58.8382 21.082C56.5427 17.9024 51.8789 11.277 48.876 7.22626C48.798 7.1158 48.6647 7.04803 48.531 7.05087H48.4664H38.569C38.5404 7.04807 38.5114 7.04807 38.4828 7.05087C38.4684 7.05017 38.454 7.05017 38.4396 7.05087C38.2638 7.10111 38.1329 7.28176 38.1378 7.46742L38.1809 28.4264H25.4587C25.3201 28.0574 25.1381 27.7088 24.9412 27.3741H36.4559C36.9599 27.3741 37.3615 26.9438 37.3615 26.4313V3.85033C37.3615 3.33787 36.9599 2.90757 36.4559 2.90757L8.05831 2.90723ZM8.05831 3.76229H36.456C36.5156 3.76229 36.5422 3.78937 36.5422 3.84998V26.431C36.5422 26.492 36.5156 26.5187 36.456 26.5187H24.3596C23.1372 25.0135 21.2964 24.0632 19.2277 24.0632C17.159 24.0632 15.3182 25.0135 14.0958 26.5187H8.05831C7.9987 26.5187 7.9505 26.492 7.9505 26.431V3.84998C7.9505 3.78937 7.99866 3.76229 8.05831 3.76229ZM21.5133 6.96314C18.7762 6.96314 16.5539 9.22264 16.5539 12.0056C16.5539 14.7885 18.7762 17.07 21.5133 17.07C24.2504 17.07 26.4943 14.7885 26.4943 12.0056C26.4943 9.22264 24.2504 6.96314 21.5133 6.96314ZM21.5133 7.8182C23.8029 7.8182 25.6533 9.67768 25.6533 12.0057C25.6533 14.3336 23.8029 16.215 21.5133 16.215C19.2237 16.215 17.3948 14.3336 17.3948 12.0057C17.3948 9.67768 19.2237 7.8182 21.5133 7.8182ZM38.9786 7.88393H48.315C51.2886 11.9032 55.8118 18.321 58.1047 21.4983V32.0652H53.8137C53.886 31.6649 53.9215 31.2587 53.9215 30.8374C53.9215 27.0913 50.9363 24.0631 47.2588 24.0631C43.5811 24.0631 40.5744 27.0913 40.5744 30.8374C40.5744 31.2587 40.6095 31.6649 40.6822 32.0652H25.7823C25.8546 31.6649 25.8902 31.2587 25.8902 30.8374C25.8902 30.2905 25.8162 29.7681 25.6961 29.2589H38.5908C38.8047 29.2589 38.9983 29.0599 39.0005 28.8424L38.9786 7.88393ZM21.3187 8.58548C21.304 8.5918 21.2895 8.59923 21.2756 8.60737C21.1076 8.66545 20.9877 8.84367 20.9953 9.02391V12.5536C20.9974 12.771 21.1911 12.9678 21.405 12.9701H23.2378C23.4721 13.0049 23.7121 12.7944 23.7121 12.5536C23.7121 12.3128 23.4721 12.1022 23.2378 12.137H21.8146V9.02387C21.8302 8.76707 21.5667 8.5341 21.3187 8.58548ZM19.2272 24.8967C22.4578 24.8967 25.0707 27.5472 25.0707 30.8379C25.0707 34.1286 22.4578 36.8011 19.2272 36.8011C15.9966 36.8011 13.3837 34.1286 13.3837 30.8379C13.3837 27.5472 15.9966 24.8967 19.2272 24.8967ZM47.2585 24.8967C50.489 24.8967 53.0803 27.5472 53.0803 30.8379C53.0803 34.1286 50.489 36.8011 47.2585 36.8011C44.0279 36.8011 41.415 34.1286 41.415 30.8379C41.415 27.5472 44.0279 24.8967 47.2585 24.8967ZM19.2272 26.7821C17.0575 26.7821 15.3028 28.6014 15.3028 30.8379C15.3028 33.0743 17.0575 34.8938 19.2272 34.8938C21.3969 34.8938 23.1732 33.0743 23.1732 30.8379C23.1732 28.6014 21.3969 26.7821 19.2272 26.7821ZM47.2585 26.7821C45.0888 26.7821 43.3125 28.6014 43.3125 30.8379C43.3125 33.0743 45.0888 34.8938 47.2585 34.8938C49.4282 34.8938 51.1828 33.0743 51.1828 30.8379C51.1828 28.6014 49.4282 26.7821 47.2585 26.7821ZM19.2272 27.6371C20.9525 27.6371 22.3537 29.0595 22.3537 30.8379C22.3537 32.6162 20.9524 34.0607 19.2272 34.0607C17.5019 34.0607 16.1222 32.6162 16.1222 30.8379C16.1222 29.0595 17.5019 27.6371 19.2272 27.6371ZM47.2585 27.6371C48.9837 27.6371 50.3635 29.0595 50.3635 30.8379C50.3635 32.6162 48.9837 34.0607 47.2585 34.0607C45.5332 34.0607 44.1319 32.6162 44.1319 30.8379C44.1319 29.0595 45.5332 27.6371 47.2585 27.6371ZM9.63207 29.2594H12.7586C12.6385 29.7686 12.5645 30.291 12.5645 30.8379C12.5645 31.2592 12.6001 31.6654 12.6723 32.0656H9.63207V29.2594Z" fill="#D20A2E"/>
</svg>
