<svg width="49" height="50" viewBox="0 0 49 50" fill="none"
  xmlns="http://www.w3.org/2000/svg">
  <path d="M16.35 13.1356L16.0294 15.6168C15.9728 16.048 16.1824 16.4668 16.5616 16.6855C16.7292 16.7814 16.9178 16.8293 17.1021 16.8293C17.3347 16.8293 17.5652 16.7543 17.7579 16.6084L19.9118 14.9751C20.0919 15.0168 20.2742 15.0543 20.4565 15.0855C21.8728 17.0355 24.364 18.2376 27.0355 18.2376C27.7332 18.2376 28.4225 18.1585 29.0888 18.0001L31.2426 19.6335C31.4354 19.7793 31.6658 19.8543 31.8984 19.8543C32.0849 19.8543 32.2714 19.8064 32.439 19.7106C32.8182 19.4939 33.0256 19.0731 32.9711 18.6418L32.6506 16.1606C34.0439 14.9022 34.8065 13.2585 34.8065 11.5022C34.8065 8.25434 32.1834 5.5129 28.5359 4.89797C27.1593 3.00421 24.731 1.7417 21.9633 1.7417C17.6786 1.7417 14.1924 4.76463 14.1924 8.4793C14.1924 10.2376 14.9551 11.8793 16.3483 13.1376L16.35 13.1356ZM33.6413 11.5022C33.6413 13.0105 32.9373 14.4231 31.6592 15.4814C31.5063 15.6085 31.4288 15.8043 31.4539 16.0001L31.787 18.5876L29.5704 16.9085C29.4258 16.7981 29.2372 16.7627 29.0633 16.8106C28.4096 16.9897 27.7266 17.0793 27.0352 17.0793C25.137 17.0793 23.3603 16.3772 22.1199 15.2085C26.3333 15.1356 29.7379 12.1481 29.7379 8.47944C29.7379 7.70029 29.5766 6.9565 29.2958 6.26066C31.8729 7.0461 33.6412 9.11277 33.6412 11.5044L33.6413 11.5022ZM21.9646 2.90009C25.6061 2.90009 28.5705 5.40217 28.5705 8.47716C28.5705 11.5521 25.6079 14.0542 21.9646 14.0542C21.2732 14.0542 20.5902 13.9646 19.9365 13.7855C19.7605 13.7376 19.5741 13.773 19.4295 13.8834L17.2128 15.5625L17.5459 12.975C17.5711 12.7792 17.4936 12.5833 17.3406 12.4563C16.0626 11.3979 15.3586 9.98335 15.3586 8.47711C15.3586 5.40213 18.3213 2.90009 21.9646 2.90009ZM17.2547 8.47716C17.2547 7.93758 17.6947 7.50217 18.2352 7.50217C18.7779 7.50217 19.2158 7.93967 19.2158 8.47716C19.2158 9.01673 18.7758 9.45214 18.2352 9.45214C17.6926 9.45214 17.2547 9.01464 17.2547 8.47716ZM20.982 8.47716C20.982 7.93758 21.422 7.50217 21.9625 7.50217C22.5052 7.50217 22.9431 7.93967 22.9431 8.47716C22.9431 9.01673 22.5031 9.45214 21.9625 9.45214C21.4199 9.45214 20.982 9.01464 20.982 8.47716ZM24.7093 8.47716C24.7093 7.93758 25.1493 7.50217 25.6898 7.50217C26.2325 7.50217 26.6704 7.93967 26.6704 8.47716C26.6704 9.01673 26.2304 9.45214 25.6898 9.45214C25.1472 9.45214 24.7093 9.01464 24.7093 8.47716ZM5.59706 27.2356C7.87661 27.2356 9.72872 25.3918 9.72872 23.1272C9.72872 20.8606 7.87451 19.0189 5.59706 19.0189C3.31751 19.0189 1.4654 20.8626 1.4654 23.1272C1.4654 25.3918 3.31961 27.2356 5.59706 27.2356ZM5.59706 20.1774C7.2334 20.1774 8.56379 21.5004 8.56379 23.1274C8.56379 24.7544 7.23334 26.0774 5.59706 26.0774C3.96072 26.0774 2.63032 24.7544 2.63032 23.1274C2.63032 21.5004 3.96077 20.1774 5.59706 20.1774ZM43.4021 27.2356C45.6817 27.2356 47.5338 25.3918 47.5338 23.1272C47.5338 20.8606 45.6796 19.0189 43.4021 19.0189C41.1226 19.0189 39.2705 20.8626 39.2705 23.1272C39.2705 25.3918 41.1247 27.2356 43.4021 27.2356ZM43.4021 20.1774C45.0385 20.1774 46.3689 21.5004 46.3689 23.1274C46.3689 24.7544 45.0384 26.0774 43.4021 26.0774C41.7658 26.0774 40.4354 24.7544 40.4354 23.1274C40.4354 21.5004 41.7658 20.1774 43.4021 20.1774ZM43.9112 27.8068C43.0564 27.8068 42.2246 28.0297 41.5018 28.4526C40.8649 28.8276 40.0666 29.4296 39.2348 30.0901L38.2773 25.6671C38.0028 24.4005 36.9029 23.5172 35.5996 23.5172L13.4076 23.5192C12.1065 23.5192 11.0044 24.4025 10.73 25.6692L9.77036 30.0984C8.93647 29.4359 8.13611 28.8296 7.49499 28.4546C6.77423 28.0317 5.9404 27.8088 5.08554 27.8088C2.60486 27.8088 0.587219 29.6651 0.587219 31.9463V40.1319C0.587219 42.2111 2.28851 43.9007 4.37738 43.9007H6.78056L6.55009 44.9653C6.3699 45.7965 6.55847 46.5861 7.09691 47.2486C7.63536 47.9111 8.37077 48.261 9.22772 48.261H39.7752C40.6301 48.261 41.3676 47.911 41.9061 47.2486C42.4445 46.5861 42.6331 45.7965 42.4529 44.9653L42.2224 43.9007H44.6172C46.7081 43.9007 48.4073 42.209 48.4073 40.1319V31.9463C48.4073 29.6651 46.3897 27.8088 43.909 27.8088L43.9112 27.8068ZM4.37963 42.7401C2.93188 42.7401 1.7544 41.5693 1.7544 40.1297V31.9441C1.7544 30.3024 3.24828 28.967 5.0857 28.967C5.731 28.967 6.35956 29.1358 6.9022 29.4524C7.74236 29.9462 9.00786 30.9712 10.1246 31.8733C10.7741 32.3983 11.3859 32.8941 11.8971 33.2754C11.9977 33.3504 12.1213 33.39 12.247 33.39H15.7271C16.5316 33.39 17.1874 34.0421 17.1874 34.8421C17.1874 35.6421 16.5316 36.2942 15.7271 36.2942H11.4005C11.0108 36.2942 10.6442 36.1421 10.3676 35.8692C10.3509 35.8525 10.332 35.8358 10.3131 35.8212L6.54605 32.9067C6.29253 32.7109 5.9259 32.7546 5.72686 33.0088C5.52991 33.2609 5.57391 33.6254 5.82952 33.8233L8.51343 35.9004L7.03216 42.7399H4.37759L4.37963 42.7401ZM41.0009 46.5192C40.6888 46.9047 40.276 47.1005 39.7774 47.1005H9.22986C8.73121 47.1005 8.32056 46.9046 8.00631 46.5192C7.69413 46.1338 7.58727 45.6921 7.69203 45.2088L9.53578 36.692L9.5693 36.7191C10.0617 37.1962 10.7112 37.4566 11.4005 37.4566H15.727C17.1748 37.4566 18.3544 36.2837 18.3544 34.8441C18.3544 33.4046 17.1748 32.2317 15.727 32.2317H12.4439C11.983 31.8817 11.4382 31.44 10.8641 30.9754C10.839 30.9546 10.8139 30.9358 10.7887 30.915L11.8719 25.9129C12.029 25.1858 12.6618 24.6796 13.4077 24.6796H35.6019C36.3498 24.6796 36.9805 25.1879 37.1376 25.9129L38.2187 30.9087C38.1915 30.9316 38.1643 30.9525 38.1349 30.9754C37.5609 31.44 37.0161 31.8816 36.5552 32.2317H33.272C31.8243 32.2317 30.6447 33.4046 30.6447 34.8441C30.6447 36.2837 31.8243 37.4566 33.272 37.4566H37.5986C38.2879 37.4566 38.9353 37.1941 39.4277 36.7191L39.4696 36.6858L41.3154 45.2085C41.4202 45.6939 41.3152 46.1338 41.0009 46.5192ZM47.2426 40.1299C47.2426 41.5695 46.0651 42.7403 44.6174 42.7403H41.9712L40.4899 35.8944L43.1654 33.8236C43.4189 33.6278 43.465 33.2632 43.2681 33.009C43.0712 32.757 42.7045 32.7111 42.4489 32.907L38.6818 35.8215C38.663 35.8361 38.6441 35.8528 38.6273 35.8694C38.3508 36.1444 37.9841 36.2944 37.5944 36.2944H33.2679C32.4633 36.2944 31.8075 35.6423 31.8075 34.8423C31.8075 34.0423 32.4633 33.3902 33.2679 33.3902H36.748C36.8737 33.3902 36.9973 33.3506 37.0979 33.2756C37.6091 32.8965 38.2209 32.3986 38.8704 31.8736C39.9871 30.9694 41.2505 29.9444 42.0928 29.4527C42.6354 29.134 43.2619 28.9673 43.9093 28.9673C45.7467 28.9673 47.2406 30.3027 47.2406 31.9444V40.13L47.2426 40.1299Z" fill="#42434B"/>
</svg>
