<svg width="50" height="50" viewBox="0 0 50 50" fill="none"
  xmlns="http://www.w3.org/2000/svg">
  <path d="M21.1671 36.0551C21.0598 35.7362 21.2292 35.3886 21.5435 35.2817C21.8578 35.1728 22.2004 35.3447 22.3057 35.6636C22.4958 36.2231 22.6407 36.8114 22.7386 37.4186C22.8346 38.0145 22.8854 38.6179 22.8854 39.2252C22.8854 40.3481 22.7198 41.4328 22.4111 42.4546H32.4296C32.7194 42.4546 32.9848 42.3323 33.1768 42.1395C33.3688 41.9447 33.4873 41.6754 33.4873 41.3813V12.3633C33.4873 12.0692 33.3669 11.798 33.1768 11.6051C32.9848 11.4103 32.7194 11.29 32.4296 11.29H11.5004C11.2105 11.29 10.9452 11.4122 10.7531 11.6051C10.5612 11.798 10.4426 12.0692 10.4426 12.3633V19.1564C10.4426 19.4944 10.1716 19.7675 9.84033 19.7675C9.5072 19.7675 9.23806 19.4925 9.23806 19.1564V12.3633C9.23806 11.7331 9.49214 11.1583 9.90244 10.7419C10.3109 10.3237 10.8773 10.0659 11.5003 10.0659H16.3898V6.71814C16.3898 6.08601 16.6439 5.51117 17.0542 5.09679L17.0919 5.06241C17.4984 4.6671 18.0499 4.42456 18.6521 4.42456H39.5794C40.2005 4.42456 40.767 4.68237 41.1773 5.09869C41.5876 5.5131 41.8417 6.08791 41.8417 6.72004V7.91743C41.8417 8.25545 41.5707 8.52854 41.2394 8.52854C40.9063 8.52854 40.6371 8.25354 40.6371 7.91743V6.72004C40.6371 6.42594 40.5167 6.15479 40.3266 5.96187C40.1365 5.76708 39.8711 5.64677 39.5794 5.64677H18.6521C18.3717 5.64677 18.1176 5.75753 17.9294 5.93705L17.9049 5.96378C17.7129 6.15857 17.5944 6.42785 17.5944 6.72195V10.0697H32.4291C33.0521 10.0697 33.6186 10.3275 34.027 10.7438C34.4354 11.1583 34.6913 11.735 34.6913 12.3652V36.8155H39.5808C39.8707 36.8155 40.136 36.6933 40.328 36.5004C40.52 36.3056 40.6386 36.0363 40.6386 35.7422V12.0614C40.6386 11.7234 40.9096 11.4503 41.2409 11.4503C41.574 11.4503 41.8431 11.7253 41.8431 12.0614V35.7422C41.8431 36.3744 41.5891 36.9492 41.1788 37.3636C40.7703 37.778 40.2038 38.0377 39.5809 38.0377H34.6914V41.3855C34.6914 42.0176 34.4373 42.5925 34.027 43.0068C33.6186 43.4212 33.0521 43.681 32.4291 43.681H21.9625C21.4167 44.9356 20.6451 46.0662 19.704 47.023C17.7335 49.0205 15.0176 50.2561 12.0214 50.2561C9.02322 50.2561 6.30755 49.0206 4.34221 47.0268C2.37543 45.0292 1.15768 42.2734 1.15768 39.2314C1.15768 36.1892 2.3735 33.4337 4.34033 31.4395C5.67849 30.0836 7.35921 29.0791 9.24139 28.573V23.3023C9.24139 22.9643 9.51241 22.6912 9.84366 22.6912C10.1768 22.6912 10.4459 22.9662 10.4459 23.3023V28.3232C10.9597 28.2468 11.4886 28.2067 12.0231 28.2067C13.5965 28.2067 15.0985 28.5485 16.4555 29.1654C17.8614 29.8032 19.1092 30.7351 20.1218 31.8848C20.3439 32.135 20.3213 32.5208 20.0748 32.7442C19.8282 32.9695 19.448 32.9466 19.2278 32.6964C18.3282 31.6748 17.2158 30.844 15.9661 30.2768C14.7654 29.7325 13.431 29.4289 12.0231 29.4289C11.323 29.4289 10.6398 29.5053 9.98105 29.6466L9.9754 29.6485C8.1272 30.0515 6.47846 30.9911 5.19297 32.2973C3.4445 34.0714 2.36417 36.5235 2.36417 39.2317C2.36417 41.9397 3.4445 44.3919 5.19297 46.1642C6.94144 47.9383 9.35805 49.0345 12.0252 49.0345C14.694 49.0345 17.1107 47.9383 18.8573 46.1661C19.7758 45.2341 20.5098 44.1169 20.9992 42.8737L21.018 42.824C21.449 41.7126 21.688 40.4999 21.688 39.2337C21.688 38.6761 21.6428 38.1376 21.56 37.6219C21.4734 37.091 21.3436 36.5697 21.1723 36.0636L21.1671 36.0551ZM40.6412 9.91664C40.6412 9.57861 40.9122 9.30553 41.2435 9.30553C41.5766 9.30553 41.8457 9.58053 41.8457 9.91664V10.0484C41.8457 10.3864 41.5747 10.6595 41.2435 10.6595C40.9103 10.6595 40.6412 10.3845 40.6412 10.0484V9.91664ZM10.4447 21.2892C10.4447 21.6272 10.1737 21.9003 9.84242 21.9003C9.50928 21.9003 9.24014 21.6253 9.24014 21.2892V21.1574C9.24014 20.8194 9.51117 20.5463 9.84242 20.5463C10.1756 20.5463 10.4447 20.8213 10.4447 21.1574V21.2892ZM6.70308 40.3006C6.51299 40.0256 6.58074 39.6456 6.85177 39.4527C7.12279 39.2598 7.49731 39.3285 7.68743 39.6035L9.41706 42.1167L16.428 34.9535C16.6614 34.7148 17.0415 34.7148 17.2768 34.9497C17.5121 35.1865 17.5121 35.5722 17.2806 35.811L9.76326 43.4899L9.68044 43.5587C9.40942 43.7516 9.0349 43.6828 8.84478 43.4078L6.70483 40.295L6.70308 40.3006ZM20.3332 34.2183C20.1657 33.928 20.2617 33.5518 20.5497 33.3838C20.8358 33.2138 21.2065 33.3112 21.3721 33.6034L21.438 33.718C21.6055 34.0083 21.5095 34.3845 21.2216 34.5525C20.9355 34.7225 20.5647 34.6251 20.3991 34.3329L20.3332 34.2183Z" fill="#D20A2E"/>
</svg>
