<svg width="47" height="50" viewBox="0 0 47 50" fill="none"
  xmlns="http://www.w3.org/2000/svg">
  <path d="M8.90086 14.1332H15.9509C16.4697 14.1332 16.8909 13.7111 16.8909 13.191V6.12435C16.8909 5.60424 16.4697 5.18213 15.9509 5.18213C15.432 5.18213 15.0109 5.60424 15.0109 6.12435V12.2488H8.90086C8.38198 12.2488 7.96086 12.6709 7.96086 13.191C7.96086 13.7111 8.38198 14.1332 8.90086 14.1332Z" fill="#42434B"/>
  <path d="M44.5212 32.8016C44.5212 28.2817 41.094 24.5515 36.707 24.0794V0.942222C36.707 0.422116 36.2868 0 35.767 0H13.7588C13.5097 0 13.27 0.0989334 13.0942 0.276071L2.7542 10.6405C2.57748 10.8167 2.47878 11.057 2.47878 11.3067V46.1689C2.47878 46.6899 2.8999 47.1111 3.41878 47.1111H35.7679C36.2878 47.1111 36.7079 46.6899 36.7079 46.1689V41.5228C41.094 41.0507 44.5212 37.3205 44.5212 32.8016ZM4.35878 45.2267V11.6967L14.1479 1.88444H34.8279V24.0794C30.4419 24.5515 27.0137 28.2817 27.0137 32.8016C27.0137 37.3214 30.441 41.0517 34.8279 41.5237V45.2267H4.35878ZM35.7679 39.6911C31.9779 39.6911 28.8937 36.6006 28.8937 32.8006C28.8937 29.0007 31.9769 25.9102 35.7679 25.9102C39.559 25.9102 42.6422 29.0007 42.6422 32.8006C42.6422 36.6006 39.558 39.6911 35.7679 39.6911Z" fill="#42434B"/>
  <path d="M24.7634 22.6133H8.90086C8.38198 22.6133 7.96086 23.0354 7.96086 23.5555C7.96086 24.0756 8.38198 24.4977 8.90086 24.4977H24.7634C25.2832 24.4977 25.7034 24.0756 25.7034 23.5555C25.7034 23.0354 25.2822 22.6133 24.7634 22.6133Z" fill="#42434B"/>
  <path d="M8.90086 30.1906H18.5359C19.0547 30.1906 19.4759 29.7694 19.4759 29.2484C19.4759 28.7273 19.0547 28.3062 18.5359 28.3062H8.90086C8.38198 28.3062 7.96086 28.7273 7.96086 29.2484C7.96086 29.7694 8.38198 30.1906 8.90086 30.1906Z" fill="#42434B"/>
  <path d="M22.1784 33.9983H8.90086C8.38198 33.9983 7.96086 34.4195 7.96086 34.9405C7.96086 35.4616 8.38198 35.8827 8.90086 35.8827H22.1784C22.6972 35.8827 23.1184 35.4616 23.1184 34.9405C23.1184 34.4195 22.6972 33.9983 22.1784 33.9983Z" fill="#42434B"/>
  <path d="M19.5934 39.6912H8.90086C8.38198 39.6912 7.96086 40.1123 7.96086 40.6334C7.96086 41.1544 8.38198 41.5756 8.90086 41.5756H19.5934C20.1122 41.5756 20.5334 41.1544 20.5334 40.6334C20.5334 40.1123 20.1122 39.6912 19.5934 39.6912Z" fill="#42434B"/>
</svg>
