<svg width="41" height="55" viewBox="0 0 41 55" fill="none" xmlns="http://www.w3.org/2000/svg">
<path d="M39.1133 15.6826C39.061 15.5775 38.9885 15.4838 38.9001 15.4069C38.8117 15.33 38.709 15.2714 38.5981 15.2344C38.4871 15.1974 38.3699 15.1828 38.2533 15.1913C38.1366 15.1999 38.0228 15.2315 37.9184 15.2843L34.4123 17.0504C34.0538 17.231 33.6627 17.3367 33.2624 17.3613C32.8622 17.3859 32.4611 17.3289 32.0834 17.1935C31.7057 17.0582 31.3592 16.8474 31.0648 16.574C30.7703 16.3005 30.5341 15.9699 30.3702 15.6022L27.2305 8.55605C27.0686 8.19231 26.9807 7.79967 26.9722 7.40128C26.9637 7.00289 27.0346 6.60682 27.1809 6.23642C27.3271 5.86603 27.5457 5.5288 27.8237 5.24463C28.1018 4.96046 28.4336 4.73509 28.7997 4.58183L32.3145 3.11093C32.4225 3.06586 32.5206 2.99986 32.6032 2.91668C32.6857 2.83351 32.7512 2.7348 32.7958 2.6262C32.8404 2.5176 32.8632 2.40123 32.863 2.28375C32.8628 2.16627 32.8396 2.04998 32.7947 1.94152C32.7497 1.83307 32.6839 1.73458 32.6011 1.65168C32.5182 1.56878 32.4199 1.5031 32.3118 1.45839C32.2037 1.41368 32.0878 1.39082 31.9709 1.39112C31.854 1.39141 31.7382 1.41485 31.6303 1.4601L28.1155 2.93097C27.3165 3.25459 26.6233 3.79594 26.1141 4.49404C25.6048 5.19214 25.2996 6.01925 25.233 6.8822C24.804 7.14489 24.2948 7.24271 23.7996 7.15762C20.6936 6.56945 17.5505 6.19939 14.3932 6.0501C13.5875 5.98674 12.786 6.21747 12.1359 6.69996C8.94716 9.3177 5.07938 13.7653 4.67382 17.6871L4.43736 19.9904C4.29609 21.3705 4.15482 22.7506 4.0318 23.9105C3.99963 24.224 4.03212 24.5407 4.12725 24.841C4.22239 25.1412 4.37812 25.4186 4.58472 25.6557C4.97905 26.1032 5.5288 26.3824 6.12135 26.4359C5.8735 27.1824 5.74711 27.9642 5.74704 28.7512C5.74704 28.9574 5.75649 29.1597 5.77165 29.3593C5.51967 29.4793 5.28622 29.6351 5.0785 29.822L4.74772 30.1217C4.52472 30.3217 4.33821 30.4903 4.18655 30.6562C4.1157 30.734 4.04136 30.8038 3.9653 30.8772C3.75345 31.0733 3.55764 31.2863 3.37979 31.514C3.15594 31.8362 2.99749 32.1997 2.91351 32.5835C2.82953 32.9673 2.82166 33.364 2.89034 33.7509L2.90993 33.9352C2.95977 34.4272 3.07844 34.9097 3.26246 35.3685C3.62663 36.4298 4.20527 37.404 4.96204 38.2299C5.34148 38.6404 5.82888 38.9344 6.3678 39.0779V39.8519C6.36784 40.0207 6.4153 40.186 6.50471 40.3288L6.99286 41.1071L6.9859 41.8155C6.98451 41.9598 7.0179 42.1023 7.08322 42.2308C7.14855 42.3593 7.24387 42.4701 7.36103 42.5535L7.73529 42.8208L7.4384 42.9885C7.30113 43.0666 7.18692 43.1798 7.10743 43.3167C7.02793 43.4536 6.986 43.6092 6.9859 43.7676V45.0883C6.98593 45.2332 7.02094 45.3758 7.08795 45.5041C7.15496 45.6323 7.25195 45.7423 7.37059 45.8246C7.21006 45.9915 7.1203 46.2145 7.12022 46.4465V47.2859C7.12033 47.4244 7.15237 47.561 7.21383 47.685C7.2753 47.8089 7.36451 47.9169 7.47448 48.0004L7.58487 48.0843L7.45534 48.1873C7.35082 48.2712 7.26643 48.3777 7.20841 48.4988C7.1504 48.6199 7.12025 48.7526 7.1202 48.887V49.4311C7.12029 49.6536 7.20271 49.8681 7.35146 50.0329L8.48596 51.2872C8.56954 51.3793 8.6713 51.4529 8.78476 51.5033C8.89822 51.5536 9.02088 51.5797 9.14493 51.5798H10.3516C10.5877 51.5798 10.8141 51.4855 10.981 51.3178L11.693 50.6024C11.7757 50.5194 11.8413 50.4208 11.8861 50.3123C11.9308 50.2038 11.9538 50.0875 11.9538 49.97L11.9556 41.1481L12.518 40.3839C12.6315 40.2299 12.6928 40.0435 12.6928 39.8519V39.0395C13.1848 38.8872 13.6285 38.6081 13.9799 38.23C14.7364 37.4039 15.3149 36.4298 15.679 35.3685C15.863 34.9098 15.9817 34.4272 16.0315 33.9352L16.0511 33.7509C16.1896 32.9696 16.0136 32.1649 15.5617 31.514C15.3838 31.2863 15.188 31.0734 14.9762 30.8773C14.9001 30.8039 14.8258 30.734 14.7545 30.6563C14.6032 30.4903 14.4168 30.3218 14.1938 30.1217L13.8634 29.823C13.655 29.6352 13.4207 29.4788 13.1677 29.3585C13.1833 29.1571 13.1944 28.9547 13.1944 28.7512C13.1935 28.1212 13.1139 27.4938 12.9576 26.8836C14.5699 26.1425 16.1424 25.3169 17.6686 24.4102C18.5218 23.98 19.4055 23.6136 20.3123 23.314C23.8636 22.1683 27.1855 20.4013 30.125 18.0946C30.8277 18.6728 31.6827 19.0331 32.5857 19.1315C33.4887 19.23 34.4007 19.0623 35.2104 18.6489L38.7166 16.8827C38.8211 16.8301 38.9142 16.7574 38.9908 16.6686C39.0673 16.5798 39.1256 16.4767 39.1625 16.3653C39.1993 16.2538 39.2139 16.1361 39.2055 16.019C39.1971 15.9019 39.1657 15.7875 39.1133 15.6826ZM9.08144 23.0205C9.09448 22.9733 9.10795 22.9261 9.12143 22.879C9.88212 20.2001 10.6006 17.6697 13.7047 16.273C13.7988 16.2303 13.9009 16.2083 14.0042 16.2084C14.2482 16.2217 14.4822 16.3102 14.6744 16.4617C15.1982 16.8295 15.5658 17.3811 15.7046 18.0077C15.5468 18.4183 14.0455 19.3948 13.0522 20.0403C11.6306 20.8944 10.3 21.8931 9.08144 23.0205ZM10.3498 40.321C10.2364 40.4749 10.1751 40.6614 10.1751 40.8529L10.1734 49.5997L9.98296 49.791H9.53874L9.02234 49.2197L9.17405 49.0992C9.27856 49.0153 9.36296 48.9089 9.42097 48.7877C9.47898 48.6666 9.50913 48.534 9.50918 48.3996V47.7471C9.50907 47.6086 9.47703 47.472 9.41556 47.348C9.3541 47.2241 9.26488 47.1161 9.15491 47.0326L8.99582 46.9121L9.05885 46.8763C9.1956 46.7983 9.30932 46.6852 9.38842 46.5486C9.46753 46.4121 9.5092 46.2569 9.50918 46.0989V45.3993C9.50914 45.2227 9.45711 45.0502 9.35965 44.9033C9.26219 44.7564 9.12366 44.6418 8.96149 44.5739L8.76632 44.4918V44.29L9.27315 44.0026C9.41043 43.9246 9.52463 43.8113 9.60413 43.6745C9.68362 43.5376 9.72555 43.382 9.72565 43.2235V42.5081C9.72563 42.3653 9.69157 42.2246 9.6263 42.0977C9.56104 41.9708 9.46647 41.8614 9.35052 41.7788L8.77066 41.3657L8.77588 40.8617C8.77734 40.69 8.72983 40.5214 8.63896 40.376L8.14821 39.5934V39.196H10.9123V39.5567L10.3498 40.321ZM13.746 32.1708C13.8918 32.3031 14.0265 32.4475 14.1485 32.6023C14.3018 32.8852 14.35 33.2136 14.2845 33.529L14.2593 33.7605C14.2211 34.1139 14.132 34.4599 13.995 34.7876C13.7098 35.6167 13.2573 36.3776 12.6658 37.0228C12.5555 37.1438 12.4214 37.2404 12.2719 37.3066C12.1225 37.3727 11.961 37.407 11.7977 37.4071H7.14452C6.98115 37.407 6.81959 37.3728 6.67009 37.3066C6.52058 37.2405 6.38639 37.1438 6.27603 37.0228C5.68382 36.3777 5.23108 35.6164 4.94636 34.7867C4.8093 34.4593 4.72028 34.1136 4.68207 33.7604L4.65688 33.529C4.59119 33.2137 4.63926 32.8852 4.79249 32.6023C4.91478 32.4475 5.04955 32.3032 5.19544 32.1708C5.3002 32.0703 5.40061 31.9725 5.49711 31.8668C5.6136 31.7402 5.75965 31.6118 5.93135 31.4581L6.16726 31.2445C6.27954 31.5593 6.41861 31.8638 6.58291 32.1546C6.44387 32.2297 6.32744 32.341 6.24578 32.4767C6.16412 32.6124 6.12023 32.7677 6.11868 32.9263C6.11928 33.4098 6.31074 33.8732 6.65106 34.215C6.99137 34.5567 7.45273 34.7489 7.93389 34.7492H10.8971C11.3787 34.7486 11.8404 34.5558 12.1807 34.2134C12.521 33.8709 12.712 33.4067 12.7119 32.9228C12.7096 32.8054 12.6844 32.6897 12.6375 32.5821C12.5907 32.4745 12.5233 32.3773 12.439 32.2959C12.3548 32.2145 12.2554 32.1506 12.1466 32.1079C12.0377 32.0651 11.9216 32.0444 11.8047 32.0467C11.5648 32.0503 11.3357 32.1477 11.1662 32.3184C10.9967 32.489 10.9002 32.7193 10.8971 32.9604L10.3131 32.9537C10.2639 32.7665 10.1548 32.6006 10.0025 32.4819C9.85022 32.3631 9.66328 32.298 9.47052 32.2966C8.90345 32.2966 8.29797 31.7394 7.91619 30.8239H11.8265C12.1323 30.8195 12.4285 30.9315 12.6554 31.1375L13.0101 31.458C13.1818 31.6118 13.3279 31.7402 13.4439 31.8668C13.5408 31.9725 13.6412 32.0703 13.746 32.1708ZM11.4139 28.7512C11.4139 28.8477 11.3935 28.9394 11.3889 29.0351H7.54475C7.5403 28.9394 7.52747 28.8497 7.52747 28.7512C7.52674 28.2409 7.59505 27.7329 7.73052 27.2411C7.79725 27.4046 7.89738 27.5521 8.02443 27.6743C8.15149 27.7964 8.30264 27.8904 8.46811 27.9502C8.66585 28.0178 8.87393 28.0498 9.08274 28.0446C9.83673 27.9991 10.579 27.8352 11.2824 27.5587C11.3673 27.9505 11.4114 28.3502 11.4139 28.7512ZM19.6997 21.6343C18.6903 21.9654 17.709 22.3778 16.7657 22.8676C13.0974 25.0364 10.2859 26.1553 9.31747 26.2662C9.20797 24.6696 11.9681 22.8755 14.0194 21.5417C15.9719 20.2725 17.3829 19.3555 17.4703 18.1946C17.4416 17.5602 17.2665 16.9412 16.9589 16.3864C16.6512 15.8316 16.2195 15.3562 15.6977 14.9978C15.3177 14.6986 14.8648 14.5075 14.3861 14.4445C13.9075 14.3815 13.4208 14.4489 12.977 14.6397C9.11578 16.377 8.209 19.5703 7.40924 22.3881C7.21537 23.0711 7.03194 23.7166 6.81243 24.3298C6.77849 24.4326 6.71178 24.5214 6.62261 24.5824C6.53343 24.6433 6.42675 24.673 6.31907 24.667C6.2441 24.6645 6.17046 24.6464 6.10276 24.6139C6.03507 24.5815 5.97478 24.5353 5.92568 24.4783C5.8802 24.4274 5.84571 24.3676 5.82439 24.3027C5.80307 24.2377 5.79538 24.1691 5.8018 24.101C5.92525 22.9384 6.06695 21.5557 6.20823 20.1731L6.44469 17.8724C6.77026 14.7262 10.2068 10.593 13.2617 8.08619C13.5842 7.87698 13.97 7.78939 14.3506 7.839C17.4239 7.98702 20.4832 8.3489 23.5066 8.92202C24.1503 9.04017 24.8139 8.97685 25.4239 8.73909C25.4735 8.92498 25.5342 9.1077 25.6057 9.28626L28.7454 16.3324C28.8088 16.4749 28.898 16.5984 28.9735 16.7322C26.1961 18.906 23.0559 20.5659 19.6997 21.6343Z" fill="#42434B"/>
</svg>
