<svg width="51" height="50" viewBox="0 0 51 50" fill="none"
  xmlns="http://www.w3.org/2000/svg">
  <path d="M25.5 34.4857C27.128 34.4857 28.7057 33.9272 29.9642 32.9054C31.2227 31.8835 32.0842 30.4615 32.4018 28.8817C32.7194 27.3019 32.4736 25.662 31.7062 24.2414C30.9387 22.8208 29.6972 21.7074 28.1931 21.091C26.689 20.4746 25.0153 20.3932 23.4574 20.8607C21.8994 21.3283 20.5535 22.3158 19.649 23.6551C18.7444 24.9944 18.3372 26.6025 18.4968 28.2055C18.6563 29.8086 19.3726 31.3073 20.5238 32.4463C21.1758 33.0949 21.9513 33.6091 22.8054 33.9592C23.6596 34.3092 24.5755 34.4882 25.5 34.4857ZM21.3435 23.4105C22.3051 22.4593 23.5703 21.8674 24.9235 21.7357C26.2768 21.604 27.6343 21.9405 28.7648 22.6881C29.8954 23.4356 30.729 24.5478 31.1236 25.8352C31.5183 27.1227 31.4495 28.5056 30.9291 29.7485C30.4086 30.9914 29.4687 32.0174 28.2695 32.6515C27.0703 33.2856 25.6859 33.4888 24.3523 33.2263C23.0186 32.9638 21.8183 32.2519 20.9556 31.2119C20.093 30.172 19.6216 28.8682 19.6216 27.5229C19.6194 26.7588 19.7705 26.0019 20.0661 25.296C20.3617 24.5901 20.7959 23.9493 21.3435 23.4105ZM34.4273 34.1192C34.1795 33.9466 33.8935 33.8353 33.5933 33.7945C33.2931 33.7537 32.9873 33.7847 32.7017 33.8848L25.2682 36.5779C24.8084 36.1649 24.255 35.8671 23.6547 35.7096L18.6011 34.1743C14.8146 32.9316 12.1329 33.8394 9.45308 37.3078L9.38678 37.2431C9.25983 37.12 9.10953 37.0229 8.94453 36.9575C8.77952 36.892 8.60307 36.8595 8.42532 36.8619C8.24757 36.8642 8.07204 36.9012 7.90882 36.9709C7.7456 37.0406 7.59792 37.1415 7.47428 37.2679L5.59562 39.1894C5.34755 39.4452 5.21113 39.7873 5.21582 40.1417C5.2205 40.4962 5.36592 40.8346 5.62066 41.0839L12.5112 47.7835C12.7625 48.0289 13.1016 48.1661 13.4547 48.1651H13.4728C13.6507 48.1634 13.8264 48.1265 13.9897 48.0567C14.153 47.9869 14.3005 47.8856 14.4237 47.7587L16.3024 45.8348C16.5505 45.5791 16.687 45.2371 16.6824 44.8826C16.6778 44.5281 16.5325 44.1897 16.2778 43.9403L16.1925 43.8578L17.0572 42.9816L22.8257 43.116C22.9072 43.1172 22.9881 43.1016 23.0631 43.0701L33.5107 38.7477C35.3115 38.0023 35.6351 36.8949 35.5892 36.0968C35.5584 35.7017 35.4377 35.3187 35.2361 34.9764C35.0345 34.6341 34.7572 34.3414 34.425 34.1202L34.4273 34.1192ZM15.4711 45.0367L13.5924 46.9605C13.5753 46.9782 13.5547 46.9923 13.5319 47.002C13.5091 47.0117 13.4846 47.0168 13.4598 47.0169C13.4099 47.0174 13.3618 46.9985 13.3258 46.9642L6.43295 40.266C6.3959 40.2289 6.37482 40.179 6.37412 40.1269C6.37343 40.0747 6.39319 40.0243 6.42924 39.9862L8.3079 38.0623C8.32506 38.0447 8.34564 38.0305 8.36842 38.0209C8.3912 38.0112 8.4157 38.0061 8.4405 38.0059C8.49031 38.0065 8.53811 38.0255 8.57449 38.0591L15.4651 44.7564C15.5027 44.7936 15.5241 44.8439 15.5248 44.8965C15.5255 44.9491 15.5054 44.9999 15.4688 45.038L15.4711 45.0367ZM33.0633 37.6899L22.7298 41.966L16.8319 41.8284C16.7523 41.8268 16.6733 41.8413 16.5997 41.8709C16.526 41.9006 16.4592 41.9448 16.4035 42.0009L15.3658 43.0559L10.2862 38.1156C12.7004 34.9312 14.8846 34.1587 18.2418 35.2624L18.2538 35.266L23.313 36.8055C24.5695 37.1876 24.7202 37.6825 24.7243 38.022C24.7267 38.332 24.6089 38.6311 24.3952 38.8578C24.1815 39.0845 23.8882 39.2216 23.5754 39.2408L20.3875 38.6114C20.3122 38.595 20.2344 38.5936 20.1585 38.6072C20.0827 38.6209 20.0104 38.6494 19.9458 38.6911C19.8813 38.7328 19.8258 38.7868 19.7826 38.8499C19.7394 38.9131 19.7093 38.9841 19.6942 39.0589C19.6791 39.1337 19.6792 39.2107 19.6946 39.2855C19.7099 39.3602 19.7402 39.4312 19.7836 39.4942C19.827 39.5572 19.8827 39.611 19.9473 39.6525C20.012 39.694 20.0844 39.7223 20.1603 39.7357L23.4141 40.3779C23.4515 40.3853 23.4896 40.389 23.5277 40.389H23.5346C24.1649 40.3799 24.7658 40.1242 25.206 39.6779C25.6462 39.2315 25.8897 38.6309 25.8834 38.0073C25.8814 37.8676 25.8659 37.7285 25.8371 37.5917L33.0976 34.9619C33.2138 34.926 33.3369 34.9178 33.4568 34.938C33.5768 34.9582 33.6903 35.0061 33.788 35.0779C33.9699 35.1999 34.122 35.3604 34.2334 35.5478C34.3447 35.7352 34.4124 35.9449 34.4315 36.1614C34.4454 36.394 34.4857 37.1009 33.0633 37.6899ZM45.3798 13.9619L38.4888 7.26235C38.3619 7.13912 38.2116 7.04196 38.0466 6.97646C37.8816 6.91096 37.7051 6.87843 37.5273 6.88073C37.3495 6.88303 37.174 6.92013 37.0107 6.98987C36.8475 7.05962 36.6998 7.16065 36.5763 7.28712L34.6976 9.21097C34.4494 9.46665 34.3128 9.8087 34.3174 10.1632C34.322 10.5177 34.4674 10.8562 34.7222 11.1055L34.8075 11.188L33.9428 12.0642L28.1743 11.9298C28.0927 11.928 28.0117 11.9436 27.9369 11.9757L17.4893 16.2981C15.6885 17.0435 15.3649 18.1509 15.4108 18.949C15.4416 19.3441 15.5623 19.7271 15.7639 20.0694C15.9655 20.4117 16.2428 20.7044 16.575 20.9257C16.9007 21.1454 17.2847 21.2652 17.6789 21.2701C17.8911 21.27 18.1015 21.2329 18.3007 21.1605L25.7318 18.4679C26.1917 18.8809 26.745 19.1788 27.3453 19.3367L32.3989 20.8738C33.3502 21.206 34.3492 21.3848 35.3578 21.4032C37.6941 21.4032 39.621 20.2325 41.5465 17.7403L41.6128 17.805C41.864 18.0504 42.2032 18.1876 42.5563 18.1867H42.5743C42.7522 18.185 42.9279 18.1482 43.0912 18.0785C43.2544 18.0088 43.402 17.9076 43.5253 17.7807L45.4039 15.8568C45.6522 15.6012 45.7889 15.2591 45.7844 14.9045C45.7799 14.5499 45.6346 14.2113 45.3798 13.9619ZM32.7582 19.7834L32.7462 19.7798L27.687 18.2403C26.4305 17.8582 26.2798 17.3633 26.2757 17.0238C26.2733 16.7138 26.391 16.4147 26.6047 16.188C26.8184 15.9613 27.1118 15.8242 27.4246 15.805L30.6125 16.4344C30.6878 16.4508 30.7656 16.4522 30.8414 16.4385C30.9173 16.4249 30.9896 16.3964 31.0541 16.3547C31.1187 16.313 31.1742 16.259 31.2174 16.1959C31.2606 16.1327 31.2907 16.0617 31.3058 15.9869C31.3209 15.9121 31.3208 15.8351 31.3054 15.7603C31.2901 15.6856 31.2598 15.6146 31.2164 15.5516C31.173 15.4886 31.1173 15.4348 31.0527 15.3933C30.988 15.3518 30.9156 15.3235 30.8397 15.3101L27.5859 14.6679C27.5462 14.6598 27.5058 14.6561 27.4654 14.6568C26.8351 14.6659 26.2342 14.9216 25.794 15.3679C25.3538 15.8143 25.1103 16.4149 25.1166 17.0385C25.1185 17.1773 25.134 17.3155 25.1629 17.4513L17.9024 20.0816C17.7862 20.1175 17.6631 20.1257 17.5431 20.1055C17.4232 20.0853 17.3097 20.0374 17.212 19.9656C17.0301 19.8436 16.878 19.6831 16.7666 19.4957C16.6553 19.3083 16.5876 19.0986 16.5685 18.8821C16.5551 18.65 16.5147 17.9431 17.9372 17.3541L28.2707 13.0779L34.1681 13.2156C34.2477 13.2175 34.3268 13.2032 34.4005 13.1736C34.4743 13.1439 34.541 13.0995 34.5965 13.0431L35.6346 11.988L40.7138 16.9302C38.2996 20.1146 36.1173 20.8871 32.7582 19.7834ZM44.5708 15.0587L42.6921 16.9825C42.6748 17.0001 42.6542 17.0141 42.6315 17.0238C42.6087 17.0335 42.5842 17.0386 42.5595 17.0389C42.5347 17.0392 42.5101 17.0346 42.4871 17.0255C42.4641 17.0164 42.4432 17.0029 42.4255 16.9857L35.5349 10.2885C35.4979 10.2514 35.4768 10.2015 35.4761 10.1493C35.4754 10.0972 35.4952 10.0468 35.5312 10.0087L37.4099 8.08483C37.4271 8.06713 37.4476 8.05302 37.4704 8.04333C37.4932 8.03364 37.5177 8.02856 37.5425 8.0284C37.5669 8.0282 37.591 8.03276 37.6136 8.04181C37.6362 8.05086 37.6568 8.06423 37.6742 8.08116L44.5647 14.7784C44.6025 14.8153 44.6243 14.8653 44.6254 14.9178C44.6265 14.9703 44.6069 15.0212 44.5708 15.0596V15.0587Z" fill="#42434B"/>
</svg>
