<svg width="42" height="44" viewBox="0 0 42 44" fill="none"
  xmlns="http://www.w3.org/2000/svg">
  <path d="M31.5924 16.8563C31.5924 8.8941 25.0572 2.42114 17.0184 2.42114C8.9796 2.42114 2.4444 8.8941 2.4444 16.8563C2.4444 24.8186 8.9796 31.2915 17.0184 31.2915C20.7312 31.2915 24.1164 29.8938 26.6952 27.6224L28.5516 29.4611L28.2492 29.7607C27.7704 30.2349 27.51 30.8672 27.51 31.5411C27.51 32.2151 27.7872 32.8474 28.2744 33.3133L33.6504 38.48C34.1376 38.9459 34.7676 39.1789 35.406 39.1789C36.0444 39.1789 36.6996 38.9376 37.1868 38.4551L38.8164 36.841C39.7824 35.8842 39.7992 34.3117 38.8416 33.3383L33.6252 28.0135C33.1548 27.5309 32.5164 27.2647 31.836 27.2563C31.1472 27.2397 30.5172 27.5143 30.0384 27.9885L29.736 28.288L27.8796 26.4493C30.1812 23.8951 31.584 20.5421 31.584 16.8647L31.5924 16.8563ZM31.836 28.9203C32.0628 28.9203 32.2728 29.0119 32.4324 29.1699L37.6488 34.4947C37.968 34.8192 37.9596 35.3434 37.6488 35.6595L36.0192 37.2736C35.7 37.5898 35.1708 37.5981 34.8432 37.2819L29.4672 32.1152C29.3076 31.9571 29.2152 31.7491 29.2152 31.5245C29.2152 31.2999 29.2992 31.0919 29.4588 30.9338L31.248 29.1616C31.4076 29.0035 31.6092 28.8871 31.8528 28.9203H31.836ZM4.1244 16.8563C4.1244 9.81762 9.912 4.08514 17.0184 4.08514C24.1248 4.08514 29.9124 9.81762 29.9124 16.8563C29.9124 23.8951 24.1248 29.6275 17.0184 29.6275C9.912 29.6275 4.1244 23.8951 4.1244 16.8563ZM24.7884 16.1741C26.3592 16.1741 27.6444 14.9011 27.6444 13.3453C27.6444 11.7895 26.3592 10.5165 24.7884 10.5165C23.2176 10.5165 21.9324 11.7895 21.9324 13.3453C21.9324 13.753 22.0248 14.144 22.1844 14.4935L18.2196 17.9296C17.7828 17.6634 17.2788 17.497 16.7244 17.497C15.8592 17.497 15.1032 17.888 14.574 18.4871L11.4828 17.1559C11.4912 17.0477 11.5164 16.9479 11.5164 16.8397C11.5164 15.2839 10.2312 14.0109 8.6604 14.0109C7.0896 14.0109 5.8044 15.2839 5.8044 16.8397C5.8044 18.3955 7.0896 19.6685 8.6604 19.6685C9.5256 19.6685 10.2816 19.2775 10.8108 18.6784L13.902 20.0096C13.8936 20.1178 13.8684 20.2176 13.8684 20.3258C13.8684 21.8899 15.1536 23.1546 16.7244 23.1546C18.2952 23.1546 19.5804 21.8816 19.5804 20.3258C19.5804 19.9181 19.488 19.5271 19.3284 19.1776L23.2932 15.7415C23.73 16.0077 24.234 16.1741 24.7884 16.1741ZM8.6604 18.0045C8.0136 18.0045 7.4844 17.4803 7.4844 16.8397C7.4844 16.1991 8.0136 15.6749 8.6604 15.6749C9.3072 15.6749 9.8364 16.1991 9.8364 16.8397C9.8364 17.4803 9.3072 18.0045 8.6604 18.0045ZM24.7884 12.1805C25.4352 12.1805 25.9644 12.7047 25.9644 13.3453C25.9644 13.9859 25.4352 14.5101 24.7884 14.5101C24.1416 14.5101 23.6124 13.9859 23.6124 13.3453C23.6124 12.7047 24.1416 12.1805 24.7884 12.1805ZM16.7244 21.4989C16.0776 21.4989 15.5484 20.9747 15.5484 20.3341C15.5484 19.6935 16.0776 19.1693 16.7244 19.1693C17.3712 19.1693 17.9004 19.6935 17.9004 20.3341C17.9004 20.9747 17.3712 21.4989 16.7244 21.4989Z" fill="#D20A2E"/>
</svg>
