<svg width="42" height="44" viewBox="0 0 42 44" fill="none" xmlns="http://www.w3.org/2000/svg">
<path d="M40.7273 35.7743H36.9091V14.693C36.9091 14.5236 36.842 14.3611 36.7227 14.2413C36.6034 14.1215 36.4415 14.0542 36.2727 14.0542H32.4545C32.2858 14.0542 32.1239 14.1215 32.0046 14.2413C31.8852 14.3611 31.8182 14.5236 31.8182 14.693V35.7743H28V22.359C28 22.1895 27.9329 22.027 27.8136 21.9072C27.6943 21.7874 27.5324 21.7201 27.3636 21.7201H23.5454C23.3767 21.7201 23.2148 21.7874 23.0955 21.9072C22.9761 22.027 22.9091 22.1895 22.9091 22.359V35.7743H19.0909V14.693C19.0909 14.5236 19.0239 14.3611 18.9045 14.2413C18.7852 14.1215 18.6233 14.0542 18.4545 14.0542H14.6364C14.4676 14.0542 14.3057 14.1215 14.1864 14.2413C14.067 14.3611 14 14.5236 14 14.693V35.7743H10.1818V22.359C10.1818 22.1895 10.1148 22.027 9.99542 21.9072C9.87608 21.7874 9.71422 21.7201 9.54544 21.7201H5.72726C5.55849 21.7201 5.39663 21.7874 5.27729 21.9072C5.15794 22.027 5.0909 22.1895 5.0909 22.359V35.7743H1.27272C1.10394 35.7743 0.94208 35.8417 0.822739 35.9615C0.703398 36.0813 0.636353 36.2437 0.636353 36.4132V40.2461C0.636353 40.4156 0.703398 40.5781 0.822739 40.6979C0.94208 40.8177 1.10394 40.885 1.27272 40.885H40.7273C40.896 40.885 41.0579 40.8177 41.1772 40.6979C41.2966 40.5781 41.3636 40.4156 41.3636 40.2461V36.4132C41.3636 36.2437 41.2966 36.0813 41.1772 35.9615C41.0579 35.8417 40.896 35.7743 40.7273 35.7743ZM33.0909 15.3319H35.6364V35.7743H33.0909V15.3319ZM24.1818 22.9978H26.7273V35.7743H24.1818V22.9978ZM15.2727 15.3319H17.8182V35.7743H15.2727V15.3319ZM6.36363 22.9978H8.90908V35.7743H6.36363V22.9978ZM40.0909 39.6073H1.90908V37.052H40.0909V39.6073Z" fill="#42434B"/>
<path d="M7.63637 18.5259C8.09151 18.5248 8.53804 18.4013 8.92945 18.1681C9.32086 17.9349 9.64283 17.6006 9.86182 17.2001C10.0808 16.7995 10.1888 16.3474 10.1746 15.8907C10.1604 15.434 10.0244 14.9895 9.78091 14.6035L15.3364 8.62407C15.7052 8.83345 16.1217 8.94349 16.5455 8.94349C16.9692 8.94349 17.3857 8.83345 17.7545 8.62407L23.31 14.6035C23.0968 14.9382 22.9643 15.3181 22.923 15.7132C22.8817 16.1083 22.9327 16.5076 23.072 16.8794C23.2113 17.2512 23.435 17.5853 23.7253 17.8552C24.0157 18.125 24.3648 18.3232 24.7448 18.434C25.1248 18.5447 25.5253 18.565 25.9145 18.4933C26.3037 18.4215 26.6708 18.2596 26.9868 18.0205C27.3028 17.7814 27.5589 17.4716 27.7348 17.1158C27.9106 16.7599 28.0015 16.3678 28 15.9706C27.9999 15.4066 27.8092 14.8593 27.4591 14.4182L33.3518 6.81619C33.9283 7.07473 34.5789 7.113 35.1815 6.92379C35.7841 6.73459 36.2971 6.33094 36.624 5.78874C36.951 5.24654 37.0694 4.60312 36.957 3.97944C36.8446 3.35576 36.5091 2.79477 36.0136 2.40193C35.5182 2.00909 34.8968 1.81146 34.2664 1.84619C33.636 1.88092 33.0399 2.14562 32.5903 2.59052C32.1406 3.03543 31.8683 3.6299 31.8246 4.26218C31.7808 4.89446 31.9686 5.52101 32.3527 6.02404L26.46 13.6261C26.1078 13.4706 25.7243 13.3995 25.34 13.4183C24.9556 13.4372 24.5809 13.5455 24.2455 13.7347L18.69 7.75527C18.936 7.36909 19.0739 6.92361 19.0894 6.46551C19.1049 6.00741 18.9974 5.55355 18.7781 5.15151C18.5589 4.74947 18.2359 4.41404 17.8431 4.18037C17.4502 3.94671 17.0021 3.82342 16.5455 3.82342C16.0889 3.82342 15.6407 3.94671 15.2479 4.18037C14.855 4.41404 14.5321 4.74947 14.3128 5.15151C14.0935 5.55355 13.986 6.00741 14.0015 6.46551C14.017 6.92361 14.1549 7.36909 14.4009 7.75527L8.84546 13.7347C8.47515 13.529 8.05958 13.4192 7.63637 13.4153C6.96127 13.4153 6.31382 13.6845 5.83646 14.1637C5.35909 14.6429 5.09091 15.2929 5.09091 15.9706C5.09091 16.6483 5.35909 17.2983 5.83646 17.7775C6.31382 18.2567 6.96127 18.5259 7.63637 18.5259ZM34.3636 3.19404C34.6154 3.19404 34.8614 3.26897 35.0707 3.40936C35.28 3.54975 35.4432 3.74929 35.5395 3.98275C35.6358 4.21621 35.661 4.47311 35.6119 4.72095C35.5628 4.96879 35.4416 5.19645 35.2636 5.37513C35.0856 5.55381 34.8588 5.6755 34.6119 5.7248C34.3651 5.7741 34.1091 5.74879 33.8766 5.65209C33.644 5.55539 33.4453 5.39163 33.3054 5.18152C33.1656 4.97141 33.0909 4.72439 33.0909 4.47169C33.0909 4.13284 33.225 3.80786 33.4637 3.56825C33.7024 3.32865 34.0261 3.19404 34.3636 3.19404ZM26.7273 15.9706C26.7273 16.2233 26.6526 16.4703 26.5128 16.6804C26.3729 16.8905 26.1742 17.0543 25.9416 17.151C25.709 17.2477 25.4531 17.273 25.2062 17.2237C24.9594 17.1744 24.7326 17.0527 24.5546 16.874C24.3766 16.6953 24.2554 16.4677 24.2063 16.2198C24.1572 15.972 24.1824 15.7151 24.2787 15.4817C24.375 15.2482 24.5382 15.0487 24.7475 14.9083C24.9568 14.7679 25.2028 14.6929 25.4545 14.6929C25.7921 14.6929 26.1158 14.8275 26.3545 15.0672C26.5932 15.3068 26.7273 15.6317 26.7273 15.9706ZM16.5455 5.11052C16.7972 5.11052 17.0432 5.18545 17.2525 5.32584C17.4618 5.46623 17.625 5.66578 17.7213 5.89924C17.8176 6.1327 17.8428 6.38959 17.7937 6.63743C17.7446 6.88527 17.6234 7.11293 17.4454 7.29161C17.2674 7.4703 17.0406 7.59198 16.7938 7.64128C16.5469 7.69058 16.291 7.66528 16.0584 7.56857C15.8258 7.47187 15.6271 7.30811 15.4872 7.098C15.3474 6.88789 15.2727 6.64087 15.2727 6.38817C15.2727 6.04932 15.4068 5.72434 15.6455 5.48474C15.8842 5.24513 16.2079 5.11052 16.5455 5.11052ZM7.63637 14.6929C7.88809 14.6929 8.13416 14.7679 8.34346 14.9083C8.55275 15.0487 8.71588 15.2482 8.81221 15.4817C8.90854 15.7151 8.93375 15.972 8.88464 16.2198C8.83553 16.4677 8.71431 16.6953 8.53632 16.874C8.35833 17.0527 8.13155 17.1744 7.88466 17.2237C7.63778 17.273 7.38188 17.2477 7.14931 17.151C6.91675 17.0543 6.71798 16.8905 6.57813 16.6804C6.43828 16.4703 6.36364 16.2233 6.36364 15.9706C6.36364 15.6317 6.49773 15.3068 6.73641 15.0672C6.9751 14.8275 7.29882 14.6929 7.63637 14.6929Z" fill="#42434B"/>
</svg>
