<svg width="52" height="48" viewBox="0 0 52 48" fill="none" xmlns="http://www.w3.org/2000/svg">
<path d="M48.3732 21.0721C48.3677 21.0421 48.3585 21.0159 48.3492 20.9859C48.34 20.9503 48.3252 20.9147 48.3086 20.8847C48.2938 20.8604 48.2846 20.8342 48.268 20.8098C48.2624 20.8004 48.2624 20.7892 48.2532 20.7798C48.244 20.7649 48.2237 20.7555 48.2126 20.7442C48.1886 20.7143 48.1627 20.6881 48.1332 20.6637C48.1184 20.6543 48.1129 20.6337 48.0981 20.6225L45.7289 18.8655L48.183 16.3761C48.3178 16.2394 48.3917 16.0539 48.3917 15.8554C48.3917 15.6643 48.3178 15.477 48.183 15.3347L34.5642 1.52209C34.4294 1.38535 34.2466 1.31042 34.0509 1.31042C33.8626 1.31042 33.6779 1.38535 33.5376 1.52209L28.8158 6.3173L26.4282 4.54532C26.1752 4.35801 25.8317 4.35801 25.5769 4.54532L3.90141 20.6222C3.88664 20.6316 3.87741 20.6522 3.86633 20.6634C3.83678 20.6878 3.81093 20.714 3.78692 20.744C3.77769 20.7589 3.75738 20.7646 3.7463 20.7796C3.74076 20.7889 3.73706 20.8002 3.73152 20.8095C3.71675 20.8339 3.70198 20.8601 3.6909 20.8844C3.67613 20.92 3.66135 20.95 3.65027 20.9856C3.64104 21.0156 3.62996 21.0418 3.62627 21.0718C3.62073 21.1017 3.62073 21.128 3.62073 21.1579C3.62073 21.1785 3.6115 21.1935 3.6115 21.2141V46.0087C3.6115 46.0387 3.62627 46.0593 3.62627 46.0892C3.63181 46.1398 3.64104 46.1848 3.65581 46.2353C3.67059 46.2859 3.6909 46.3271 3.71491 46.3721C3.72968 46.3964 3.72968 46.4227 3.74999 46.447C3.76476 46.4676 3.78508 46.4882 3.80539 46.5069C3.81462 46.5219 3.82939 46.5313 3.84047 46.5482C3.89957 46.6043 3.9642 46.6493 4.03991 46.6849C4.05468 46.6905 4.06391 46.6943 4.08053 46.6999C4.15994 46.7298 4.25042 46.7505 4.33352 46.7505H47.675C47.76 46.7505 47.8486 46.7298 47.928 46.6999C47.9428 46.6943 47.952 46.6905 47.9687 46.6849C48.0425 46.6549 48.1071 46.6043 48.1681 46.5482C48.1829 46.5388 48.1921 46.5238 48.2032 46.5069C48.2235 46.4863 48.2438 46.4714 48.2586 46.447C48.2733 46.4264 48.2789 46.3964 48.2937 46.3721C48.3177 46.3271 48.338 46.2859 48.3527 46.2353C48.3675 46.1848 48.3768 46.1398 48.3823 46.0892C48.3878 46.0649 48.3971 46.0387 48.3971 46.0087V21.2122C48.3971 21.1916 48.3878 21.1766 48.3878 21.156C48.3768 21.1317 48.3769 21.102 48.3732 21.0721ZM46.4473 21.2125L35.1406 29.6022L44.6949 19.9106L46.4473 21.2125ZM34.0509 3.07707L46.6501 15.8572L27.5415 35.2404L26.0033 36.3812L22.7237 33.948C23.0081 33.8225 23.3165 33.7513 23.6341 33.7513C24.2952 33.7513 24.9323 34.0285 25.4308 34.5286C25.5693 34.6691 25.754 34.7403 25.9442 34.7403C26.1288 34.7403 26.3116 34.6691 26.4575 34.5286L42.0925 18.6747C42.2273 18.538 42.3012 18.3526 42.3012 18.154C42.3012 17.963 42.2273 17.7757 42.0925 17.6333C41.6253 17.1594 41.3668 16.5226 41.3668 15.8463C41.3668 15.1701 41.6253 14.5389 42.0925 14.065C42.2273 13.9283 42.3067 13.7428 42.3067 13.5443C42.3067 13.3532 42.2328 13.1659 42.098 13.0236L36.8314 7.71146C36.6966 7.57472 36.5138 7.4998 36.318 7.4998C36.1297 7.4998 35.945 7.57472 35.8047 7.71708C35.3375 8.19098 34.7152 8.45324 34.0486 8.45324C33.382 8.45324 32.7541 8.191 32.287 7.71708C32.1521 7.58034 31.9693 7.50542 31.7736 7.50542C31.5853 7.50542 31.4006 7.58034 31.2603 7.71708L15.64 23.5695C15.3556 23.858 15.3556 24.3169 15.64 24.6035C16.1773 25.1486 16.4303 26.2181 16.2272 27.0966C16.1275 27.5349 15.8689 28.0856 15.2577 28.4134L11.6846 25.763L34.0509 3.07707ZM17.1122 24.1462L31.8258 9.21541C32.4721 9.67058 33.244 9.9122 34.0509 9.9122C34.8579 9.9122 35.6242 9.67057 36.2705 9.21541L40.5897 13.5966C40.141 14.2522 39.9028 15.0296 39.9028 15.8481C39.9028 16.6667 40.141 17.4478 40.5897 18.1052L25.8945 33.0246C25.2279 32.5507 24.4468 32.2922 23.6361 32.2922C22.8458 32.2922 22.0887 32.5451 21.4571 33.0096L16.5011 29.3345C17.0643 28.8644 17.4557 28.2181 17.6404 27.437C17.8934 26.3207 17.6791 25.0641 17.1122 24.1462ZM25.9999 6.0405L27.7855 7.36293L10.5088 24.8918L5.55271 21.213L25.9999 6.0405ZM5.05053 22.6569L19.8138 33.611L5.05053 44.5633V22.6569ZM6.53887 45.2749L21.0384 34.5192L25.5773 37.8852C25.7066 37.9808 25.8561 38.0257 26.0057 38.0257C26.1553 38.0257 26.3048 37.9808 26.4341 37.8852L30.973 34.5192L45.4612 45.2749H6.53887ZM46.9495 44.5631L32.1862 33.6089L46.9495 22.6547V44.5631Z" fill="#D20A2E"/>
<path d="M21.2524 29.2689C21.437 29.2689 21.6199 29.1978 21.7657 29.0573L23.8062 26.9875C24.0906 26.699 24.0906 26.2401 23.8062 25.9535C23.5218 25.6651 23.0694 25.6651 22.7869 25.9535L20.7464 28.0233C20.462 28.3118 20.462 28.7707 20.7464 29.0573C20.8849 29.1978 21.0696 29.2689 21.2524 29.2689Z" fill="#D20A2E"/>
<path d="M34.1266 16.2112C34.3113 16.2112 34.4941 16.14 34.64 15.9995L36.6805 13.9297C36.9648 13.6413 36.9648 13.1824 36.6805 12.8958C36.3961 12.6073 35.9437 12.6073 35.6612 12.8958L33.6207 14.9656C33.3363 15.2541 33.3363 15.713 33.6207 15.9995C33.7573 16.14 33.942 16.2112 34.1266 16.2112Z" fill="#D20A2E"/>
<path d="M28.8605 26.8506C30.3082 26.8506 31.7522 26.2906 32.8565 25.1742C35.0613 22.9377 35.0613 19.3039 32.8565 17.0674C30.6516 14.8309 27.0693 14.8309 24.8645 17.0674C22.6597 19.3039 22.6597 22.9377 24.8645 25.1742C25.9651 26.2906 27.4127 26.8506 28.8605 26.8506ZM25.8856 18.1032C27.5272 16.438 30.1955 16.438 31.8315 18.1032C33.4732 19.7685 33.4732 22.4751 31.8315 24.1346C30.1899 25.7999 27.5216 25.7999 25.8856 24.1346C24.2439 22.4751 24.2439 19.7684 25.8856 18.1032Z" fill="#D20A2E"/>
</svg>
