<svg width="48" height="50" viewBox="0 0 48 50" fill="none" xmlns="http://www.w3.org/2000/svg">
<path fill-rule="evenodd" clip-rule="evenodd" d="M22.8495 41.3236C22.8492 41.4632 22.793 41.597 22.6932 41.6957C22.5934 41.7944 22.4581 41.8499 22.317 41.8501H5.59275C5.45138 41.8501 5.3158 41.7945 5.21583 41.6956C5.11586 41.5966 5.0597 41.4625 5.0597 41.3226C5.0597 41.1827 5.11586 41.0485 5.21583 40.9496C5.3158 40.8506 5.45138 40.7951 5.59275 40.7951H22.317C22.3869 40.7951 22.4562 40.8087 22.5209 40.8352C22.5855 40.8617 22.6443 40.9006 22.6937 40.9496C22.7432 40.9986 22.7824 41.0567 22.8091 41.1207C22.8359 41.1847 22.8496 41.2533 22.8495 41.3226V41.3236ZM22.8495 37.7496C22.8496 37.8188 22.8359 37.8874 22.8091 37.9514C22.7824 38.0154 22.7432 38.0735 22.6937 38.1225C22.6443 38.1715 22.5855 38.2104 22.5209 38.2369C22.4562 38.2634 22.3869 38.2771 22.317 38.2771H5.59275C5.5214 38.2792 5.45034 38.2672 5.38378 38.2417C5.31722 38.2162 5.25651 38.1777 5.20527 38.1285C5.15402 38.0793 5.11328 38.0205 5.08545 37.9554C5.05763 37.8904 5.04329 37.8204 5.04329 37.7498C5.04329 37.6792 5.05763 37.6092 5.08545 37.5442C5.11328 37.4791 5.15402 37.4203 5.20527 37.3711C5.25651 37.3219 5.31722 37.2834 5.38378 37.2579C5.45034 37.2324 5.5214 37.2204 5.59275 37.2226H22.317C22.3869 37.2226 22.4562 37.2362 22.5209 37.2627C22.5855 37.2892 22.6443 37.3281 22.6937 37.3771C22.7432 37.4261 22.7824 37.4842 22.8091 37.5482C22.8359 37.6122 22.8496 37.6803 22.8495 37.7496ZM22.8495 34.1761C22.8496 34.2453 22.8359 34.3139 22.8091 34.3779C22.7824 34.4419 22.7432 34.5 22.6937 34.549C22.6443 34.598 22.5855 34.6369 22.5209 34.6634C22.4562 34.6899 22.3869 34.7036 22.317 34.7036H5.59275C5.5214 34.7057 5.45034 34.6937 5.38378 34.6682C5.31722 34.6427 5.25651 34.6042 5.20527 34.555C5.15402 34.5058 5.11328 34.447 5.08545 34.3819C5.05763 34.3169 5.04329 34.2469 5.04329 34.1763C5.04329 34.1057 5.05763 34.0357 5.08545 33.9707C5.11328 33.9056 5.15402 33.8468 5.20527 33.7976C5.25651 33.7484 5.31722 33.7099 5.38378 33.6844C5.45034 33.6589 5.5214 33.6469 5.59275 33.6491H22.317C22.3869 33.6491 22.4562 33.6627 22.5208 33.6892C22.5854 33.7157 22.6441 33.7545 22.6935 33.8034C22.743 33.8523 22.7822 33.9104 22.809 33.9744C22.8357 34.0383 22.8495 34.1068 22.8495 34.1761ZM22.8495 30.6031C22.8495 30.6722 22.8357 30.7407 22.809 30.8047C22.7822 30.8686 22.743 30.9266 22.6935 30.9755C22.644 31.0244 22.5853 31.0632 22.5207 31.0896C22.4561 31.1161 22.3869 31.1296 22.317 31.1296H5.59275C5.45151 31.1296 5.31606 31.074 5.21619 30.9752C5.11631 30.8764 5.06021 30.7423 5.06021 30.6026C5.06021 30.4628 5.11631 30.3287 5.21619 30.2299C5.31606 30.1311 5.45151 30.0756 5.59275 30.0756H22.317C22.3869 30.0756 22.4562 30.0892 22.5209 30.1157C22.5855 30.1422 22.6443 30.1811 22.6937 30.2301C22.7432 30.2791 22.7824 30.3372 22.8091 30.4012C22.8359 30.4652 22.8496 30.5338 22.8495 30.6031ZM22.8495 27.0291C22.8496 27.0983 22.8358 27.1668 22.8091 27.2308C22.7824 27.2948 22.7431 27.3529 22.6937 27.4018C22.6442 27.4508 22.5855 27.4896 22.5208 27.5161C22.4562 27.5425 22.3869 27.5561 22.317 27.5561H5.59275C5.5214 27.5582 5.45034 27.5462 5.38378 27.5207C5.31722 27.4952 5.25651 27.4567 5.20527 27.4075C5.15402 27.3583 5.11328 27.2995 5.08545 27.2344C5.05763 27.1694 5.04329 27.0994 5.04329 27.0288C5.04329 26.9582 5.05763 26.8882 5.08545 26.8232C5.11328 26.7581 5.15402 26.6993 5.20527 26.6501C5.25651 26.6009 5.31722 26.5624 5.38378 26.5369C5.45034 26.5114 5.5214 26.4994 5.59275 26.5016H22.317C22.4583 26.5017 22.5937 26.5573 22.6936 26.6562C22.7934 26.7551 22.8495 26.8892 22.8495 27.0291ZM22.8495 23.4556C22.8496 23.5248 22.8359 23.5934 22.8091 23.6574C22.7824 23.7214 22.7432 23.7795 22.6937 23.8285C22.6443 23.8775 22.5855 23.9164 22.5209 23.9429C22.4562 23.9694 22.3869 23.9831 22.317 23.9831H5.59275C5.45138 23.9831 5.3158 23.9275 5.21583 23.8286C5.11586 23.7296 5.0597 23.5955 5.0597 23.4556C5.0597 23.3157 5.11586 23.1815 5.21583 23.0826C5.3158 22.9836 5.45138 22.9281 5.59275 22.9281H22.317C22.4583 22.9282 22.5937 22.9838 22.6936 23.0827C22.7934 23.1816 22.8495 23.3157 22.8495 23.4556ZM22.8495 19.8816C22.8496 19.9508 22.8359 20.0194 22.8091 20.0834C22.7824 20.1474 22.7432 20.2055 22.6937 20.2545C22.6443 20.3035 22.5855 20.3424 22.5209 20.3689C22.4562 20.3954 22.3869 20.4091 22.317 20.4091H5.59275C5.5214 20.4112 5.45034 20.3992 5.38378 20.3737C5.31722 20.3482 5.25651 20.3097 5.20527 20.2605C5.15402 20.2113 5.11328 20.1525 5.08545 20.0874C5.05763 20.0224 5.04329 19.9524 5.04329 19.8818C5.04329 19.8112 5.05763 19.7412 5.08545 19.6762C5.11328 19.6111 5.15402 19.5523 5.20527 19.5031C5.25651 19.4539 5.31722 19.4154 5.38378 19.3899C5.45034 19.3644 5.5214 19.3524 5.59275 19.3546H22.317C22.3869 19.3546 22.4562 19.3682 22.5208 19.3947C22.5854 19.4212 22.6441 19.46 22.6935 19.5089C22.743 19.5578 22.7822 19.6159 22.809 19.6799C22.8357 19.7438 22.8495 19.8123 22.8495 19.8816ZM19.0484 7.05505H29.9571V13.3361H19.0484V7.05505ZM18.5154 14.3901H30.4901C30.6314 14.3901 30.7669 14.3345 30.8668 14.2357C30.9668 14.1369 31.023 14.0029 31.0232 13.8631V6.52805C31.0232 6.38811 30.967 6.25388 30.8671 6.15488C30.7671 6.05587 30.6315 6.00019 30.4901 6.00005H18.5154C18.4454 6.00005 18.3761 6.0137 18.3115 6.04022C18.2468 6.06673 18.1881 6.1056 18.1386 6.15459C18.0892 6.20358 18.0499 6.26173 18.0232 6.32573C17.9965 6.38972 17.9828 6.45831 17.9828 6.52755V13.8626C17.9828 13.9318 17.9965 14.0003 18.0232 14.0643C18.05 14.1283 18.0892 14.1864 18.1387 14.2353C18.1881 14.2843 18.2468 14.3231 18.3115 14.3496C18.3761 14.376 18.4454 14.3896 18.5154 14.3896V14.3901ZM8.24488 8.49005L12.5214 2.90555V14.2421C12.521 14.506 12.4148 14.7591 12.2262 14.9457C12.0375 15.1323 11.7817 15.2373 11.5149 15.2376H2.9856L8.24488 8.48756V8.49005ZM35.5043 3.38105C35.5042 3.11707 35.3982 2.86394 35.2095 2.67728C35.0209 2.49061 34.7651 2.38569 34.4984 2.38555H13.5875V14.2421C13.5867 14.7855 13.3682 15.3065 12.9799 15.6907C12.5916 16.075 12.0651 16.2913 11.516 16.2921H2.32875V44.1191C2.32889 44.383 2.43492 44.6362 2.62355 44.8228C2.81217 45.0095 3.06797 45.1144 3.33473 45.1146H34.4984C34.7651 45.1144 35.0209 45.0095 35.2095 44.8228C35.3982 44.6362 35.5042 44.383 35.5043 44.1191V29.0691L34.0042 31.1731C33.9793 31.209 33.9495 31.2415 33.9158 31.2696L26.2939 37.7196C26.279 37.7324 26.2633 37.7442 26.2469 37.7551C26.1491 37.8204 26.0336 37.8548 25.9156 37.8536C25.7976 37.8524 25.6828 37.8158 25.5864 37.7485C25.4899 37.6812 25.4165 37.5865 25.3757 37.4769C25.3349 37.3674 25.3288 37.2481 25.3581 37.1351C25.3632 37.1161 25.3693 37.0974 25.3763 37.0791L28.9571 27.8106C28.9733 27.7693 28.9945 27.7302 29.0203 27.6941L35.5043 18.6081V3.38105ZM42.4224 10.7471C42.4306 10.7355 42.4411 10.7256 42.4531 10.718C42.4652 10.7105 42.4787 10.7054 42.4928 10.703C42.5069 10.7006 42.5213 10.701 42.5353 10.7042C42.5492 10.7074 42.5624 10.7133 42.574 10.7216L45.6253 12.8501C45.6481 12.8666 45.6635 12.8914 45.6682 12.9191C45.6709 12.9329 45.6707 12.9471 45.6677 12.9608C45.6646 12.9746 45.6588 12.9876 45.6505 12.9991L43.2318 16.3916L39.9981 14.1356L42.4194 10.7451L42.4224 10.7471ZM33.5131 23.2251L39.3868 15.0001L42.6205 17.2571L36.7533 25.4861L33.5131 23.2251ZM33.4403 30.1336L30.1971 27.8706L32.8987 24.0866L36.1384 26.3501L33.4403 30.1356V30.1336ZM29.7095 28.8191L32.7037 30.9086L27.0538 35.6866L29.7095 28.8191ZM3.33473 46.1696H34.4984C35.0478 46.1696 35.5747 45.9536 35.9632 45.5691C36.3517 45.1847 36.5699 44.6632 36.5699 44.1196V27.5716L46.5236 13.6096C46.7028 13.3576 46.7737 13.0456 46.7208 12.742C46.6678 12.4384 46.4953 12.168 46.2412 11.9901L43.1884 9.85955C42.934 9.68244 42.619 9.61231 42.3125 9.66451C42.0059 9.71671 41.7328 9.88698 41.5528 10.1381L36.5699 17.1151V3.38105C36.5699 2.83736 36.3517 2.31594 35.9632 1.93149C35.5747 1.54704 35.0478 1.33105 34.4984 1.33105H12.6548C12.5725 1.33109 12.4913 1.34998 12.4176 1.38624C12.3439 1.42249 12.2796 1.47514 12.2299 1.54005L7.39755 7.85005L1.37381 15.5791C1.30208 15.671 1.26317 15.7839 1.26315 15.9001V44.1191C1.26369 44.6626 1.4821 45.1838 1.87046 45.5682C2.25883 45.9526 2.78543 46.1689 3.33473 46.1696Z" fill="#42434B"/>
</svg>
