<svg width="50" height="50" viewBox="0 0 50 50" fill="none"
  xmlns="http://www.w3.org/2000/svg">
  <path d="M29.6875 27.3438C29.6875 26.4167 29.4126 25.5104 28.8975 24.7395C28.3824 23.9687 27.6504 23.3679 26.7938 23.0131C25.9373 22.6583 24.9948 22.5655 24.0855 22.7463C23.1762 22.9272 22.341 23.3736 21.6854 24.0292C21.0299 24.6847 20.5834 25.52 20.4026 26.4293C20.2217 27.3385 20.3145 28.281 20.6693 29.1376C21.0241 29.9941 21.6249 30.7262 22.3958 31.2413C23.1666 31.7563 24.0729 32.0312 25 32.0312C26.2428 32.03 27.4344 31.5357 28.3132 30.6569C29.192 29.7781 29.6863 28.5866 29.6875 27.3438ZM21.875 27.3438C21.875 26.7257 22.0583 26.1215 22.4017 25.6076C22.745 25.0937 23.2331 24.6932 23.8041 24.4566C24.3751 24.2201 25.0035 24.1582 25.6097 24.2788C26.2159 24.3994 26.7727 24.697 27.2097 25.134C27.6467 25.5711 27.9444 26.1279 28.065 26.7341C28.1855 27.3403 28.1237 27.9686 27.8871 28.5396C27.6506 29.1107 27.2501 29.5987 26.7362 29.9421C26.2223 30.2855 25.6181 30.4687 25 30.4687C24.1712 30.4687 23.3763 30.1395 22.7903 29.5535C22.2042 28.9674 21.875 28.1726 21.875 27.3438Z" fill="#42434B"/>
  <path d="M25 1.5625C20.3645 1.5625 15.8331 2.93709 11.9788 5.51243C8.12456 8.08778 5.12051 11.7482 3.34658 16.0309C1.57266 20.3135 1.10851 25.026 2.01286 29.5724C2.9172 34.1189 5.1494 38.295 8.4272 41.5728C11.705 44.8506 15.8812 47.0828 20.4276 47.9872C24.974 48.8915 29.6865 48.4274 33.9692 46.6534C38.2518 44.8795 41.9122 41.8755 44.4876 38.0212C47.0629 34.1669 48.4375 29.6355 48.4375 25C48.4305 18.7861 45.9589 12.8288 41.5651 8.43495C37.1712 4.04109 31.2139 1.56953 25 1.5625ZM25 46.875C20.6735 46.875 16.4442 45.5921 12.8469 43.1884C9.24959 40.7847 6.44581 37.3683 4.79015 33.3712C3.13448 29.3741 2.70128 24.9757 3.54533 20.7324C4.38938 16.4891 6.47278 12.5913 9.53205 9.53204C12.5913 6.47277 16.4891 4.38937 20.7324 3.54532C24.9757 2.70127 29.3741 3.13447 33.3712 4.79014C37.3683 6.4458 40.7848 9.24958 43.1884 12.8469C45.5921 16.4442 46.875 20.6735 46.875 25C46.8684 30.7996 44.5616 36.3597 40.4607 40.4607C36.3597 44.5616 30.7996 46.8684 25 46.875Z" fill="#42434B"/>
  <path d="M25 6.25C21.2916 6.25 17.6665 7.34967 14.5831 9.40994C11.4996 11.4702 9.09641 14.3986 7.67727 17.8247C6.25812 21.2508 5.88681 25.0208 6.61028 28.6579C7.33376 32.2951 9.11952 35.636 11.7418 38.2582C14.364 40.8805 17.7049 42.6662 21.3421 43.3897C24.9792 44.1132 28.7492 43.7419 32.1753 42.3227C35.6014 40.9036 38.5298 38.5004 40.5901 35.4169C42.6503 32.3335 43.75 28.7084 43.75 25C43.7442 20.029 41.7669 15.2632 38.2519 11.7481C34.7368 8.23309 29.971 6.25579 25 6.25ZM25 7.8125C28.4724 7.81659 31.8623 8.87086 34.7246 10.8368C37.5868 12.8028 39.7875 15.5885 41.0375 18.8281L35.1844 20.7812C33.1813 21.4505 31.0001 21.3448 29.0711 20.4852C27.7894 19.9161 26.4027 19.6221 25.0004 19.6221C23.5981 19.6221 22.2114 19.9161 20.9297 20.4852L20.6336 20.6164C18.8667 21.3999 16.8852 21.5565 15.0172 21.0602L8.75704 19.3906C9.92731 16.0132 12.1199 13.0838 15.0306 11.0091C17.9413 8.93436 21.4256 7.81714 25 7.8125ZM7.81251 25C7.81251 24.8437 7.82032 24.6836 7.82423 24.5258L8.3711 24.7062C12.1226 25.9524 15.442 28.2404 17.9415 31.3031C20.4409 34.3657 22.0171 38.0764 22.4859 42.0015C18.4098 41.3936 14.6872 39.3434 11.9945 36.2235C9.30182 33.1036 7.81793 29.1212 7.81251 25ZM24.0758 42.1617C23.6312 37.8759 21.9592 33.8094 19.2605 30.4504C16.5618 27.0914 12.9511 24.5825 8.86173 23.225L7.94298 22.9187C8.02516 22.2348 8.14883 21.5565 8.31329 20.8875L14.6141 22.568C16.8271 23.1555 19.1744 22.9703 21.268 22.043L21.5641 21.9117C22.6463 21.431 23.8174 21.1826 25.0016 21.1826C26.1858 21.1826 27.3568 21.431 28.4391 21.9117C30.7241 22.9293 33.3075 23.0537 35.6797 22.2601L41.532 20.3125C41.7745 21.1663 41.95 22.0377 42.057 22.9187L41.1383 23.225C37.0489 24.5825 33.4382 27.0914 30.7395 30.4504C28.0408 33.8094 26.3688 37.8759 25.9242 42.1617C25.6188 42.1781 25.3125 42.1875 25 42.1875C24.6875 42.1875 24.3813 42.1781 24.0758 42.1617ZM27.5133 42.0055C27.9818 38.079 29.5584 34.3671 32.0588 31.3037C34.5591 28.2403 37.8799 25.9519 41.6328 24.7062L42.1797 24.5258C42.1836 24.682 42.1914 24.8383 42.1914 25C42.1859 29.1217 40.7014 33.1047 38.008 36.2246C35.3145 39.3446 31.5909 41.3945 27.5141 42.0015L27.5133 42.0055Z" fill="#42434B"/>
</svg>
