<svg width="21" height="21" viewBox="0 0 21 21" fill="none"
  xmlns="http://www.w3.org/2000/svg">
  <path fill-rule="evenodd" clip-rule="evenodd" d="M10.7256 20.9401C8.66473 20.9401 7.707 20.6379 6.04224 19.4292C4.98924 20.789 1.65472 21.8516 1.50931 20.0336C1.50931 18.6688 1.20845 17.5155 0.867475 16.2565C0.461317 14.7054 0 12.978 0 10.4751C0 4.49723 4.88394 0 10.6705 0C16.462 0 20.9999 4.71882 20.9999 10.5305C21.0194 16.2522 16.4226 20.9096 10.7256 20.9401ZM10.8109 5.16703C7.99281 5.02099 5.79654 6.98003 5.31016 10.052C4.90901 12.5953 5.62104 15.6925 6.22777 15.8536C6.5186 15.9241 7.25069 15.3299 7.707 14.8716C8.46152 15.3951 9.34015 15.7095 10.2543 15.7831C13.1742 15.9242 15.6692 13.6916 15.8653 10.7621C15.9794 7.82651 13.7312 5.34006 10.8109 5.17207L10.8109 5.16703Z" fill="white"/>
</svg>