<svg width="263" height="263" viewBox="0 0 263 263" fill="none"
  xmlns="http://www.w3.org/2000/svg">
  <g clip-path="url(#clip0_8_4003)">
    <path d="M190.186 169.844C181.75 180.853 166.914 186.773 153.262 185.178C168.148 182.107 178.47 167.958 179.513 153.196C179.874 147.295 178.329 141.114 171.789 138.786C175.962 137.21 180.105 138.565 184.087 142.699C179.162 132.664 165.931 136.156 161.999 144.696C157.214 154.179 153.443 164.937 143.442 170.206C154.977 174.591 169.251 171.199 176.193 160.632C176.263 160.672 176.333 160.702 176.403 160.742C172.742 172.383 163.303 182.197 150.865 183.833C141.957 185.088 135.036 178.033 127.693 174.169C121.865 170.466 116.73 165.921 111.814 161.074C114.663 158.284 117.412 155.594 120.25 152.825C124.804 156.357 129.108 160.07 133.692 163.512C138.396 167.275 145.488 166.784 149.26 161.977C155.188 155.153 155.78 145.72 158.92 137.571C162.972 124.636 179.172 120.813 189.614 128.791C200.086 139.669 199.374 158.294 190.196 169.834L190.186 169.844Z" fill="black"/>
    <path d="M121.212 119.578C121.212 119.578 121.282 119.668 121.312 119.718L121.212 119.578Z" fill="black"/>
    <path d="M146.231 114.37C143.693 110.687 140.152 107.888 140.824 102.87C141.506 104.797 141.998 106.814 143.713 108.309C148.287 84.1947 129.76 69.3528 106.81 71.43C106.81 71.5003 106.83 71.5705 106.84 71.6408C118.425 73.2163 128.847 82.9604 127.433 95.2233C127.343 110.868 110.26 114.139 119.96 129.333C122.558 132.945 123.702 137.24 125.798 141.094C126.881 142.729 128.436 143.733 130.422 144.174C131.255 144.074 134.465 144.435 135.197 143.964C137.875 143.211 139.32 141.204 140.233 138.796C141.627 135.103 143.422 131.641 145.509 128.279C148.087 124.144 148.789 118.786 146.221 114.37H146.231ZM125.738 129.423C123.421 127.767 120.371 126.111 121.415 122.609C121.746 121.596 121.736 120.702 121.324 119.729C123.421 122.569 126.43 125.66 125.738 129.423ZM143.673 124.365C143.633 124.987 143.452 125.559 143.131 126.081C142.76 126.693 142.219 127.185 141.617 127.586C140.694 128.118 139.952 128.841 139.089 129.553C138.577 123.984 141.717 123.643 143.553 119.338L143.513 122.74C143.653 123.322 143.713 123.843 143.673 124.365Z" fill="black"/>
    <path d="M125.234 144.957C115.093 155.323 104.751 165.479 94.4997 175.745C94.4796 175.745 94.4696 175.725 94.4496 175.715C93.9781 176.738 93.1255 177.631 93.1857 178.806C92.8747 183.181 86.0637 185.017 84.1077 180.863C83.0645 178.806 82.7234 176.588 84.7096 174.872C86.2744 173.437 88.9426 173.035 90.1965 171.269C100.799 160.762 111.382 150.276 121.974 139.779C121.904 141.194 123.82 144.114 125.244 144.957H125.234Z" fill="black"/>
    <path d="M90.1976 171.259C90.0371 171.671 89.6359 171.952 89.2246 172.223C89.5456 171.902 89.8666 171.58 90.1976 171.259Z" fill="black"/>
    <path d="M94.501 175.735C94.501 175.735 94.4111 175.825 94.3711 175.865C94.4011 175.815 94.431 175.755 94.461 175.705C94.481 175.705 94.491 175.725 94.511 175.735H94.501Z" fill="black"/>
    <path d="M185.491 124.576C168.529 117.953 157.174 130.276 154.405 146.232C150.503 162.91 142.529 171.229 128.185 156.899C135.196 156.638 141.295 153.096 144.786 146.994C148.507 140.642 148.908 132.775 153.924 127.135C161.417 118.063 176.704 116.598 185.501 124.576H185.491Z" fill="black"/>
    <path d="M135.667 192.132C134.895 195.334 132.437 197.29 129.618 198.766C137.352 191.44 130.601 179.508 121.293 178.234C118.113 178.304 115.274 181.626 114.271 184.265C112.245 189.604 116.047 194.952 121.012 197.05C105.986 194.31 108.554 174.912 123.57 173.748C130.852 176.347 137.503 184.014 135.667 192.132Z" fill="black"/>
    <path d="M108.203 148.64C106.698 150.206 105.254 151.721 103.739 153.306C97.6002 147.446 87.6396 136.879 79.2236 144.726C82.253 137.652 91.1203 138.093 97.0084 141.013C101.101 142.94 104.732 145.8 108.203 148.64Z" fill="black"/>
    <path d="M118.845 172.263C118.714 172.554 118.564 172.835 118.423 173.116C116.578 174.169 114.953 175.875 112.976 176.538C107.8 176.076 102.665 176.207 97.5088 175.113C99.5451 173.256 101.411 171.319 103.417 169.453C103.638 169.242 104.059 169.072 104.34 169.132C109.165 170.135 114.09 171.018 118.845 172.283V172.263Z" fill="black"/>
    <path d="M119.448 172.413C119.107 172.644 118.766 172.875 118.425 173.106C118.575 172.835 118.716 172.554 118.846 172.263C119.047 172.313 119.247 172.363 119.448 172.413Z" fill="black"/>
    <path d="M119.468 95.0625C111.874 87.0545 98.2826 89.774 96.9786 102.82C94.8521 88.2587 113.028 81.3044 119.468 95.0625Z" fill="black"/>
    <path d="M193.847 89.2421C191.841 93.6475 190.156 98.2034 188.149 102.609C183.796 112.624 173.133 108.329 171.568 99.2872C174.758 99.789 176.152 97.5512 177.657 95.3434C183.756 86.6129 188.47 79.8191 194.449 70.7073C185.04 77.1097 179.834 80.08 170.625 86.633C168.188 88.4293 165.098 89.6736 165.52 93.5773C154.747 90.5166 153.432 80.0399 163.403 76.5979C168.258 74.4202 173.243 72.4835 177.988 70.0851C180.215 68.921 182.071 67.195 182.301 64.2346C175.701 69.8844 166.904 69.4629 159.351 72.8748C150.363 76.2466 145.418 89.5231 153.292 96.3871C154.696 97.7117 156.361 98.7353 157.826 99.9997C162.31 103.843 149.089 103.03 152.249 110.527C151.396 111.38 149.5 112.794 148.638 113.647C149.681 115.454 150.142 117.431 150.002 119.357C151.908 117.581 154.295 115.223 156.321 113.607C159.09 114.079 161.578 112.102 161.919 109.312L163.132 106.573C163.293 106.211 163.744 106.081 164.075 106.302C164.557 106.643 164.998 107.024 165.379 107.436C170.254 115.614 180.024 119.197 187.648 112.202C196.626 104.365 193.466 91.0685 200.778 82.1172C196.886 83.0404 195.261 86.1212 193.837 89.2521L193.847 89.2421Z" fill="black"/>
    <path d="M125.736 94.7113C125.525 98.354 124.512 101.766 122.757 105.027C122.566 71.0987 81.3091 87.1047 99.6155 114.842C103.969 121.445 110.459 126.011 116.357 131.109C116.327 131.159 116.297 131.209 116.267 131.259C106.998 126.071 96.6764 121.505 90.4272 112.504C83.0244 102.759 83.9873 86.7133 96.1448 81.3847C80.2458 85.7901 81.6401 106.894 91.5506 116.748C99.2343 125.941 111.602 128.831 120.129 136.859C116.668 140.461 113.237 144.024 109.767 147.636C103.778 142.749 97.6895 137.912 89.6548 137.27C77.6177 136.497 72.7929 148.77 80.8276 157.009C83.8168 160.441 88.1903 162.288 92.0422 164.576C90.2567 166.402 88.5012 168.198 86.7258 170.005C85.833 170.617 85.181 172.343 83.9272 171.831C80.5768 170.366 77.2666 168.8 74.2975 166.653C55.299 155.233 58.8901 123.482 83.6764 124.656C84.0174 124.666 84.4187 124.877 84.6795 125.118C87.9696 128.038 91.5707 131.089 95.6131 132.724C89.705 127.938 83.7968 123.03 80.0251 116.297C67.4464 96.6079 83.0545 68.901 107.078 73.5172C117.46 74.892 126.699 83.8031 125.726 94.7213L125.736 94.7113Z" fill="black"/>
    <path d="M119.447 172.413C119.106 172.644 118.765 172.875 118.424 173.106C118.574 172.835 118.715 172.554 118.845 172.263C119.046 172.313 119.246 172.363 119.447 172.413Z" fill="black"/>
    <path d="M128.342 156.889C128.342 156.889 128.313 156.969 128.293 157.009C128.253 156.979 128.213 156.939 128.183 156.909C128.233 156.909 128.293 156.899 128.342 156.889Z" fill="black"/>
    <path d="M132.63 8.63727e-05L136.251 0.34128L135.127 12.1325L151.719 13.7181L151.398 17.0297L131.195 15.1029L132.64 -0.00994873L132.63 8.63727e-05Z" fill="black"/>
    <path d="M172.522 6.97449C172.602 7.0648 174.669 13.0558 178.721 24.9574L175.01 23.7431C174.92 23.6027 174.689 22.9203 174.328 21.696C173.977 20.6323 173.786 20.0904 173.736 20.0803L160.636 15.8054C160.485 15.8656 159.442 16.6082 157.496 18.0231L153.734 16.7989L169.292 5.91077L172.532 6.97449H172.522ZM170.085 8.85105C169.413 9.35281 167.065 10.9986 163.023 13.7984L172.964 17.0397C171.509 12.845 170.576 10.1255 170.175 8.88116L170.075 8.85105H170.085Z" fill="black"/>
    <path d="M198.412 17.9529L216.428 31.0387L214.502 33.6879L206.959 28.2088L199.967 37.8425L197.038 35.715L204.03 26.0813L196.486 20.6021L198.412 17.9529Z" fill="black"/>
    <path d="M230.732 45.5595C230.752 45.6799 229.458 51.8816 226.83 64.1847L224.262 61.2344C224.262 61.0738 224.412 60.3713 224.723 59.127C224.964 58.0331 225.074 57.4712 225.044 57.431L215.986 47.0347C215.826 47.0046 214.552 47.1049 212.155 47.3257L209.557 44.3352L228.495 42.9705L230.732 45.5394V45.5595ZM227.682 45.9208C226.85 46.0111 223.981 46.2218 219.086 46.543L225.957 54.4306C226.85 50.0854 227.452 47.2755 227.753 45.991L227.682 45.9107V45.9208Z" fill="black"/>
    <path d="M241.674 58.7457L243.279 61.7964C242.537 69.7241 242.166 73.7783 242.156 73.9589C242.156 73.989 241.905 76.548 241.434 81.6258L251.043 76.5781L252.738 79.7994L239.277 86.8741L237.682 83.8335C237.662 83.7733 237.692 83.422 237.762 82.7798C237.772 82.4386 238.023 79.7091 238.505 74.6012L239.508 63.984L229.898 69.0317L228.213 65.8305L241.674 58.7558V58.7457Z" fill="black"/>
    <path d="M255.026 84.8268L260.874 106.322L257.715 107.185L255.267 98.1835L243.792 101.314L242.839 97.8222L254.314 94.6913L251.867 85.6898L255.026 84.8268Z" fill="black"/>
    <path d="M262.28 112.524L262.992 128.59C263.132 131.721 262.32 133.818 260.554 134.892C259.792 135.323 258.969 135.564 258.067 135.604H257.806C256.261 135.685 255.017 135.203 254.054 134.169C253.763 133.838 253.543 133.537 253.392 133.256C253.272 133.005 253.121 132.694 252.951 132.293H252.931C252.931 132.293 251.326 133.728 248.176 136.518C248.156 136.498 248.136 136.478 248.136 136.447H248.156L248.136 136.427L247.955 132.413C248.036 132.373 248.387 132.072 249.029 131.51C251.045 129.764 252.158 128.781 252.379 128.56L251.847 116.468L251.827 116.447L251.797 116.468C251.797 116.468 251.777 116.468 251.777 116.447L251.757 116.468L247.323 116.668C247.323 116.668 247.303 116.668 247.303 116.648L247.283 116.668C247.283 116.668 247.253 116.668 247.243 116.638L247.093 113.176L262.249 112.504L262.28 112.524ZM254.847 116.357L255.388 128.69C255.438 129.854 255.609 130.667 255.89 131.139C256.271 131.821 256.893 132.142 257.756 132.102H257.806C258.779 132.062 259.411 131.59 259.702 130.697C259.852 130.175 259.912 129.563 259.882 128.871L259.32 116.156L254.847 116.357Z" fill="black"/>
    <path d="M262.701 141.395L262.34 144.997L247.243 143.492L247.604 139.889L262.701 141.395Z" fill="black"/>
    <path d="M259.079 163.793H259.058C259.058 163.793 259.058 163.833 259.058 163.843C258.216 167.014 256.721 169.824 254.585 172.273C254.153 172.744 253.501 173.276 252.629 173.858C251.806 174.31 251.204 174.581 250.823 174.651C250.101 174.852 249.489 174.902 248.987 174.822C248.987 174.842 248.777 174.822 248.386 174.751V174.731H248.356L248.125 174.671C248.125 174.671 248.115 174.661 248.115 174.651C248.105 174.651 248.095 174.651 248.095 174.661C247.383 174.47 246.64 173.999 245.848 173.246C245.507 172.875 245.196 172.453 244.905 171.982C244.674 171.52 244.433 171.088 244.183 170.687L240.451 172.694L241.504 168.77L243.24 167.456C243.2 166.944 243.21 166.071 243.29 164.827C243.35 164.245 243.45 163.592 243.581 162.88H243.601V162.83L243.661 162.619V162.529H243.681V162.488L243.751 162.207C243.771 162.137 243.781 162.047 243.791 161.916H243.822L243.801 161.886L244.112 160.722C244.112 160.722 244.132 160.692 244.153 160.702H244.122C244.213 160.431 244.283 160.241 244.313 160.12L244.423 159.709C244.423 159.709 244.433 159.689 244.443 159.699C244.443 159.689 244.443 159.679 244.433 159.679C244.494 159.478 244.544 159.337 244.574 159.237L244.764 158.504C244.764 158.504 244.774 158.474 244.795 158.474V158.434C244.795 158.434 244.795 158.424 244.805 158.424C244.805 158.414 244.805 158.404 244.795 158.404C244.835 158.284 244.865 158.193 244.885 158.123L244.945 157.912L244.975 157.882H244.955L244.985 157.852L245.045 157.621H245.065V157.591L245.106 157.511L245.146 157.36L245.186 157.34H245.156L245.206 157.29C245.346 156.778 245.727 155.935 246.349 154.741C246.781 153.979 247.232 153.316 247.714 152.744C248.135 152.263 248.646 151.761 249.248 151.239C249.7 150.878 250.271 150.486 250.943 150.065C251.806 149.633 252.538 149.393 253.14 149.352C253.812 149.282 254.384 149.312 254.876 149.443H254.966C254.966 149.443 254.966 149.463 254.996 149.473H255.046C255.277 149.543 255.427 149.583 255.487 149.603C255.487 149.613 255.487 149.623 255.518 149.633V149.613C256.29 149.904 257.002 150.386 257.684 151.078C257.905 151.349 258.166 151.731 258.467 152.212C258.467 152.232 258.547 152.413 258.707 152.754C259.249 154.129 259.57 155.253 259.65 156.116C259.741 157.09 259.761 158.314 259.69 159.799C259.67 160.19 259.61 160.792 259.53 161.585H259.51L259.41 162.278H259.389L259.379 162.518H259.349L259.369 162.549C259.209 163.291 259.119 163.703 259.089 163.783L259.079 163.793ZM256.661 162.81C257.012 161.485 257.143 159.779 257.032 157.712C256.952 156.778 256.681 155.865 256.22 154.972C255.628 154.049 254.886 153.457 253.993 153.226C252.609 152.855 251.194 153.397 249.73 154.852C249.349 155.233 248.997 155.665 248.697 156.136C247.764 157.732 247.172 158.996 246.921 159.939H246.901C246.901 159.939 246.901 159.949 246.911 159.96L246.871 160.05L246.57 161.174V161.264H246.55C246.55 161.284 246.55 161.314 246.55 161.334C246.279 162.348 246.159 163.733 246.179 165.499C246.299 168.499 247.282 170.246 249.128 170.747L249.228 170.777C251.244 171.319 253.05 170.286 254.635 167.677C255.056 167.024 255.427 166.352 255.738 165.659C255.768 165.559 255.818 165.439 255.889 165.308H255.869L256.009 165.037H255.979C256.15 164.636 256.3 164.234 256.41 163.813H256.43C256.43 163.813 256.43 163.803 256.42 163.793L256.46 163.703L256.611 163.161C256.631 163.09 256.651 163 256.671 162.87H256.691C256.691 162.87 256.691 162.83 256.691 162.82L256.661 162.81Z" fill="black"/>
    <path d="M253.752 182.187L252.027 185.369L245.266 181.696C243.641 180.813 242.247 180.793 241.083 181.625C240.401 182.077 239.779 182.81 239.217 183.833L235.676 190.356C234.713 192.122 234.553 193.617 235.175 194.832C235.325 195.123 235.546 195.414 235.837 195.695C236.168 196.026 236.679 196.387 237.392 196.778L243.902 200.311L242.176 203.492L235.516 199.869C233.871 198.976 232.727 197.953 232.095 196.798C231.443 195.654 231.223 194.3 231.443 192.754C231.614 191.58 232.105 190.236 232.938 188.71L236.338 182.458C237.412 180.481 238.565 179.107 239.799 178.344C241.885 176.979 244.243 177.009 246.881 178.444L253.752 182.177V182.187Z" fill="black"/>
    <path d="M238.635 209.092L223.579 226.061L221.292 224.034L233.48 210.296L231.102 208.188C227.892 211.841 225.435 214.631 223.72 216.558L218.945 221.946L216.638 219.899C220.56 215.444 223.649 211.941 225.906 209.393L228.765 206.171L228.153 205.629L228.123 205.579C228.123 205.579 228.103 205.579 228.073 205.559V205.539H228.063L228.023 205.489L226.689 204.305L214.521 218.023L212.204 215.966L227.26 198.996L238.635 209.092ZM237.713 229.071C236.86 229.031 235.596 228.941 233.921 228.8C233.901 228.7 234.071 225.118 234.443 218.033C234.633 218.043 235.887 218.113 238.204 218.234L237.713 229.071Z" fill="black"/>
    <path d="M211.192 237.099L197.209 245.619C194.43 247.315 192.053 247.405 190.087 245.88C189.555 245.388 189.144 244.887 188.833 244.375L188.632 244.054C187.228 241.746 187.489 239.568 189.405 237.511C190.077 236.889 190.829 236.327 191.651 235.825L202.324 229.322L200.278 225.97L203.297 224.134L211.192 237.099ZM206.517 236.216L204.01 232.102L193.086 238.755C191.361 239.809 190.879 240.963 191.641 242.227L191.822 242.518C192.604 243.803 193.918 243.893 195.754 242.769L206.517 236.216Z" fill="black"/>
    <path d="M172.644 256.538C172.523 256.518 167.327 252.895 157.025 245.68L160.737 244.465C160.887 244.526 161.479 244.937 162.492 245.71C163.405 246.362 163.876 246.683 163.927 246.663L177.027 242.378C177.117 242.238 177.519 241.023 178.251 238.725L182.012 237.491L175.873 255.464L172.633 256.528L172.644 256.538ZM173.496 253.587C173.737 252.784 174.67 250.065 176.275 245.429L166.334 248.68C169.985 251.199 172.343 252.855 173.396 253.627L173.496 253.597V253.587Z" fill="black"/>
    <path d="M156.202 261.445L140.182 262.789C137.063 263.05 134.926 262.328 133.793 260.602C133.331 259.859 133.06 259.036 132.98 258.143L132.96 257.882C132.83 256.347 133.261 255.072 134.254 254.079C134.575 253.778 134.866 253.547 135.137 253.386C135.377 253.256 135.688 253.095 136.08 252.915V252.895C136.08 252.895 134.585 251.349 131.666 248.309C131.686 248.289 131.706 248.269 131.736 248.269V248.289L131.756 248.269L135.749 247.937C135.789 248.018 136.11 248.359 136.692 248.981C138.517 250.928 139.54 252.002 139.771 252.212L151.828 251.209L151.848 251.189L151.828 251.159C151.828 251.159 151.828 251.139 151.848 251.139L151.828 251.119L151.457 246.693C151.457 246.693 151.457 246.673 151.477 246.673L151.457 246.653C151.457 246.653 151.457 246.613 151.487 246.613L154.938 246.322L156.202 261.445ZM152.089 254.169L139.791 255.203C138.627 255.303 137.825 255.504 137.364 255.805C136.702 256.216 136.401 256.849 136.471 257.702V257.752C136.551 258.715 137.053 259.337 137.955 259.588C138.487 259.719 139.089 259.749 139.791 259.689L152.47 258.625L152.099 254.159L152.089 254.169Z" fill="black"/>
    <path d="M127.402 263L123.791 262.789L124.694 247.636L128.305 247.847L127.402 263Z" fill="black"/>
    <path d="M112.668 261.796C108.184 260.913 103.128 259.919 97.5108 258.825L97.4707 258.785L98.0324 255.945C98.0324 255.945 98.0425 255.935 98.0726 255.945C103.58 257.039 108.264 257.962 112.136 258.725L113.721 259.036C114.804 259.247 115.526 259.247 115.877 259.026C116.228 258.866 116.439 258.575 116.519 258.173C116.63 257.591 116.379 257.119 115.747 256.768C115.516 256.628 115.155 256.477 114.644 256.327C107.14 254.5 103.279 253.567 103.078 253.497C102.556 253.326 102.095 253.146 101.714 252.955C100.961 252.584 100.33 252.072 99.828 251.409C99.2361 250.546 99.0656 249.493 99.3164 248.228C99.517 247.205 99.9684 246.392 100.671 245.78C101.072 245.459 101.363 245.278 101.553 245.218C101.975 245.007 102.496 244.877 103.118 244.806C103.81 244.726 104.703 244.786 105.786 244.997L115.296 246.864C115.707 246.944 116.128 247.034 116.539 247.124C116.7 247.145 117.051 247.205 117.583 247.315L121.886 248.158L121.946 248.188L121.515 250.396C121.485 250.536 121.445 250.767 121.384 251.068H121.364C115.727 249.964 110.982 249.031 107.12 248.268L105.084 247.867C103.941 247.646 103.158 247.747 102.757 248.178C102.596 248.349 102.486 248.57 102.426 248.861C102.316 249.413 102.486 249.844 102.928 250.145C103.379 250.416 103.69 250.577 103.88 250.607C103.88 250.637 105.134 250.968 107.652 251.57C108.705 251.831 111.093 252.423 114.814 253.346C115.476 253.497 116.008 253.647 116.439 253.808C117.031 254.039 117.502 254.269 117.843 254.48C118.235 254.741 118.596 255.072 118.947 255.464C119.238 255.855 119.438 256.186 119.539 256.457C119.759 257.17 119.799 257.872 119.659 258.575L119.609 258.815C119.448 259.618 119.087 260.331 118.536 260.933C117.954 261.515 117.131 261.896 116.058 262.057C115.255 262.177 114.403 262.147 113.51 261.976L113.34 261.946H113.289L112.688 261.816L112.668 261.796Z" fill="black"/>
    <path d="M61.4397 243.602L58.8116 241.485C58.7314 240.782 58.3402 235.895 57.628 226.844C55.1704 227.195 50.3957 227.857 43.3139 228.831H43.0832L40.4551 226.703L49.9644 214.882L52.783 217.15L46.6642 224.756L59.8649 222.93L60.9883 223.833C61.1187 225.027 61.4397 229.302 61.9613 236.658C62.0315 236.879 62.0416 237.019 61.9814 237.099L62.0215 237.13L68.1403 229.523L70.959 231.791L61.4497 243.612L61.4397 243.602Z" fill="black"/>
    <path d="M27.1448 210.918C27.1247 210.797 28.8601 204.696 32.3207 192.614L34.678 195.735C34.678 195.895 34.4674 196.588 34.0761 197.802C33.7552 198.876 33.6147 199.428 33.6348 199.468L41.9504 210.466C42.1109 210.506 43.3948 210.496 45.7922 210.436L48.1796 213.597L29.1911 213.647L27.1348 210.928L27.1448 210.918ZM30.2143 210.777C31.0468 210.747 33.9257 210.737 38.8308 210.747L32.5214 202.408C31.3277 206.683 30.5352 209.443 30.1541 210.697L30.2143 210.777Z" fill="black"/>
    <path d="M17.083 196.989L10.7937 182.599C9.20878 178.966 9.35924 176.026 11.2651 173.788C11.5761 173.467 11.887 173.176 12.198 172.935C12.8199 172.453 13.4719 172.062 14.144 171.771L14.475 171.63C16.3307 170.818 18.0861 170.677 19.7312 171.199C20.3631 171.45 20.7744 171.651 20.965 171.801C22.4796 172.724 23.7034 174.25 24.6263 176.377L30.9858 190.928L17.083 197.009V196.989ZM18.5475 192.403L26.6224 188.871L21.7273 177.662C21.0954 176.217 20.2929 175.243 19.3099 174.751C18.2767 174.24 17.073 174.29 15.6988 174.882C14.3145 175.484 13.4619 176.347 13.1509 177.481C12.85 178.494 13.0406 179.789 13.7227 181.354L18.5475 192.403Z" fill="black"/>
    <path d="M5.56758 169.553L1.53516 149.583L4.47421 148.991L7.84459 165.7L10.904 165.077L7.53363 148.369L10.4426 147.777L13.813 164.485L16.8323 163.873L13.4619 147.165L16.4009 146.573L20.4334 166.543L5.55754 169.543L5.56758 169.553Z" fill="black"/>
    <path d="M0.000265267 133.196L1.90613 110.998L5.16617 111.279L4.3637 120.572L16.2202 121.595L15.9093 125.198L4.05275 124.174L3.25027 133.467L-0.00976562 133.186L0.000265267 133.196Z" fill="black"/>
    <path d="M6.28104 93.4572C7.33429 90.1656 8.93923 87.5866 11.1159 85.7C13.2926 83.8235 15.359 83.1912 17.3251 83.8235C19.3513 84.4657 20.6954 86.1817 21.3474 88.9715C22.0095 91.7612 21.8089 94.7918 20.7657 98.0833C19.7124 101.385 18.1075 103.974 15.9609 105.861C13.8142 107.747 11.7278 108.359 9.70158 107.717C7.73552 107.085 6.40141 105.379 5.71931 102.589C5.03721 99.7993 5.21777 96.7587 6.27101 93.4572H6.28104ZM8.6684 94.2198C7.93614 96.5279 7.78568 98.6553 8.21701 100.592C8.65836 102.529 9.53105 103.713 10.8451 104.135C12.2093 104.566 13.6136 104.124 15.0781 102.79C16.5426 101.455 17.636 99.6388 18.3783 97.3307C19.1106 95.0327 19.2711 92.9153 18.8498 90.9785C18.4285 89.0417 17.5357 87.8576 16.1815 87.4261C14.8675 87.0046 13.4632 87.4562 11.9886 88.7908C10.5141 90.1255 9.40065 91.9318 8.6684 94.2299V94.2198Z" fill="black"/>
    <path d="M17.2939 66.5027L29.5316 49.0718L31.9892 50.7978L21.7577 65.3587L24.3356 67.1751L34.5671 52.6142L36.9645 54.3001L26.733 68.861C29.4113 70.7376 31.0664 71.9117 31.7083 72.3633L29.7022 75.2233L17.2939 66.4927V66.5027Z" fill="black"/>
    <path d="M32.7705 44.867L47.526 30.8279L49.5923 33.0055L37.2443 44.7566L39.3909 47.0145L51.7389 35.2634L53.7852 37.4109L41.4372 49.162L43.5638 51.3998L55.9118 39.6487L57.9781 41.8264L43.2227 55.8655L32.7705 44.867Z" fill="black"/>
    <path d="M51.5198 27.2855L68.7128 16.3673L70.3177 18.9062L55.9334 28.0482L57.6086 30.6874L71.9928 21.5454L73.5777 24.0542L59.1934 33.1962L60.8485 35.8053L75.2328 26.6633L76.8378 29.1922L59.6448 40.1104L51.5098 27.2955L51.5198 27.2855Z" fill="black"/>
    <path d="M73.2969 13.6779L76.6873 12.3633L80.9705 23.4119L96.5084 17.3808L97.7121 20.4817L78.7938 27.8274L73.3069 13.6779H73.2969Z" fill="black"/>
    <path d="M111.624 4.12437L114.002 0.240784L113.911 4.79672L118.004 2.81981L115.466 6.59301L119.98 7.14494L115.807 8.95125L119.308 11.8614L114.814 11.1188L116.188 15.454L112.818 12.4033L111.624 16.7987L110.441 12.4033L107.06 15.454L108.434 11.1188L103.941 11.8614L107.451 8.95125L103.269 7.14494L107.782 6.59301L105.245 2.81981L109.347 4.79672L109.247 0.240784L111.624 4.12437Z" fill="black"/>
    <path d="M82.3751 252.754C85.9262 252.754 88.8049 249.874 88.8049 246.322C88.8049 242.769 85.9262 239.889 82.3751 239.889C78.824 239.889 75.9453 242.769 75.9453 246.322C75.9453 249.874 78.824 252.754 82.3751 252.754Z" fill="black"/>
  </g>
  <defs>
    <clipPath id="clip0_8_4003">
      <rect width="263" height="263" fill="white"/>
    </clipPath>
  </defs>
</svg>