<svg width="136" height="136" viewBox="0 0 136 136" fill="none"
  xmlns="http://www.w3.org/2000/svg">
  <g clip-path="url(#clip0_2_315)">
    <path d="M98.347 87.8277C93.9846 93.5203 86.3129 96.582 79.2533 95.7569C86.9509 94.169 92.2884 86.8521 92.8279 79.2187C93.0146 76.1674 92.2158 72.9709 88.8338 71.767C90.9917 70.9522 93.1339 71.6528 95.1932 73.7908C92.6464 68.6015 85.8046 70.4074 83.7713 74.8234C81.297 79.7273 79.3467 85.2902 74.1752 88.0145C80.1403 90.2822 87.5215 88.5282 91.111 83.064C91.1473 83.0847 91.1836 83.1003 91.2199 83.121C89.3266 89.1406 84.4456 94.2157 78.0136 95.0615C73.4075 95.7102 69.8284 92.0621 66.0315 90.0643C63.0178 88.1494 60.362 85.7987 57.8203 83.2923C59.2934 81.8497 60.7147 80.459 62.1826 79.0267C64.5376 80.8533 66.7628 82.7734 69.1333 84.5533C71.5661 86.4992 75.2333 86.245 77.1837 83.7593C80.2492 80.2306 80.5553 75.3527 82.1788 71.139C84.2744 64.4501 92.6515 62.473 98.0513 66.5984C103.467 72.2236 103.098 81.8549 98.3521 87.8225L98.347 87.8277Z" fill="white"/>
    <path d="M62.6807 61.835C62.6807 61.835 62.717 61.8817 62.7325 61.9076L62.6807 61.835Z" fill="white"/>
    <path d="M75.6176 59.1416C74.3053 57.2371 72.4743 55.7893 72.8218 53.1947C73.1745 54.191 73.4287 55.2341 74.3157 56.0073C76.681 43.5375 67.1005 35.8626 55.2324 36.9368C55.2324 36.9731 55.2428 37.0094 55.248 37.0457C61.2391 37.8604 66.6284 42.8992 65.8971 49.2405C65.8504 57.3305 57.0168 59.0222 62.0327 66.8788C63.3761 68.7469 63.9675 70.9679 65.0516 72.9606C65.6118 73.8064 66.4158 74.3253 67.4428 74.5537C67.8733 74.5018 69.5332 74.6886 69.9119 74.4447C71.2968 74.0555 72.0437 73.0177 72.5158 71.7722C73.2368 69.8626 74.1653 68.0723 75.2442 66.3339C76.5772 64.1959 76.9403 61.4249 75.6125 59.1416H75.6176ZM65.0204 66.9255C63.8222 66.0692 62.2454 65.213 62.7848 63.402C62.956 62.8778 62.9508 62.416 62.7381 61.9126C63.8222 63.3812 65.3783 64.9795 65.0204 66.9255ZM74.2949 64.3101C74.2742 64.6318 74.1808 64.9276 74.0148 65.1974C73.8229 65.514 73.5428 65.7683 73.2316 65.9758C72.7544 66.2509 72.3705 66.6245 71.9244 66.9929C71.6599 64.1129 73.2835 63.9365 74.2327 61.7103L74.2119 63.4694C74.2846 63.7704 74.3157 64.0402 74.2949 64.3101Z" fill="white"/>
    <path d="M64.7605 74.9584C59.5163 80.3189 54.1685 85.5705 48.8673 90.8791C48.8569 90.8791 48.8517 90.8687 48.8413 90.8635C48.5976 91.3928 48.1567 91.8546 48.1878 92.4618C48.027 94.7243 44.5049 95.6739 43.4935 93.5256C42.954 92.4618 42.7777 91.315 43.8047 90.4276C44.6139 89.6855 45.9936 89.478 46.642 88.5646C52.1248 83.1315 57.5971 77.7087 63.0747 72.2808C63.0384 73.0124 64.0291 74.5225 64.7657 74.9584H64.7605Z" fill="white"/>
    <path d="M46.6428 88.5596C46.5598 88.7723 46.3523 88.9176 46.1396 89.0577C46.3056 88.8917 46.4716 88.7256 46.6428 88.5596Z" fill="white"/>
    <path d="M48.8672 90.874C48.8672 90.874 48.8206 90.9207 48.7998 90.9414C48.8154 90.9155 48.8309 90.8843 48.8465 90.8584C48.8569 90.8584 48.862 90.8688 48.8724 90.874H48.8672Z" fill="white"/>
    <path d="M95.9199 64.4189C87.1486 60.994 81.2768 67.3664 79.8451 75.6174C77.8274 84.2419 73.7037 88.5438 66.2861 81.1335C69.9119 80.9986 73.0656 79.1668 74.8707 76.0117C76.7951 72.7269 77.0026 68.6586 79.5962 65.7422C83.4709 61.0511 91.376 60.2935 95.9251 64.4189H95.9199Z" fill="white"/>
    <path d="M70.155 99.3529C69.7556 101.008 68.4848 102.02 67.0272 102.783C71.0264 98.9949 67.5355 92.8248 62.7219 92.1658C61.0776 92.2021 59.6097 93.9198 59.091 95.2845C58.0432 98.0452 60.0091 100.811 62.5767 101.896C54.8065 100.479 56.1343 90.4481 63.8994 89.8462C67.6652 91.1902 71.1043 95.1548 70.155 99.3529Z" fill="white"/>
    <path d="M55.9532 76.8626C55.1752 77.6722 54.4282 78.4558 53.645 79.2757C50.4705 76.2451 45.3197 70.7808 40.9678 74.8388C42.5343 71.1804 47.1196 71.4087 50.1645 72.9188C52.2808 73.9152 54.1585 75.3941 55.9532 76.8626Z" fill="white"/>
    <path d="M61.4567 89.0785C61.3893 89.229 61.3115 89.3743 61.2389 89.5196C60.2845 90.0645 59.4442 90.9466 58.4223 91.2891C55.7458 91.0504 53.09 91.1179 50.4238 90.5523C51.4768 89.5922 52.4416 88.5907 53.479 87.6255C53.5931 87.5165 53.811 87.4283 53.9562 87.4595C56.4512 87.9784 58.9981 88.435 61.4567 89.0889V89.0785Z" fill="white"/>
    <path d="M61.7683 89.1564C61.592 89.2758 61.4156 89.3952 61.2393 89.5145C61.3171 89.3744 61.3897 89.2291 61.4571 89.0786C61.5609 89.1046 61.6646 89.1305 61.7683 89.1564Z" fill="white"/>
    <path d="M61.7779 49.1577C57.8513 45.0166 50.8228 46.4229 50.1485 53.169C49.0488 45.6394 58.4478 42.0432 61.7779 49.1577Z" fill="white"/>
    <path d="M100.24 46.1479C99.2031 48.426 98.3316 50.7819 97.2942 53.06C95.043 58.2389 89.5292 56.0179 88.72 51.3424C90.3695 51.6018 91.0905 50.4446 91.8685 49.303C95.0223 44.7883 97.4602 41.2752 100.552 36.5634C95.6862 39.8741 92.9941 41.4101 88.2324 44.7987C86.9719 45.7276 85.3743 46.3711 85.5922 48.3897C80.0212 46.807 79.3417 41.3894 84.4977 39.6095C87.0082 38.4834 89.5862 37.4819 92.0397 36.2416C93.1912 35.6397 94.1508 34.7471 94.2701 33.2163C90.857 36.1379 86.308 35.9199 82.4021 37.6843C77.7545 39.4278 75.1973 46.2932 79.2691 49.8427C79.9953 50.5277 80.8564 51.057 81.6137 51.7108C83.9323 53.6983 77.0957 53.278 78.7297 57.1543C78.2888 57.5954 77.3084 58.3271 76.8623 58.7682C77.4018 59.7023 77.6404 60.7246 77.5677 61.7209C78.5533 60.8024 79.7878 59.5829 80.8356 58.7474C82.2672 58.9913 83.5536 57.9691 83.73 56.5264L84.3576 55.1098C84.4406 54.923 84.6741 54.8555 84.8452 54.9697C85.0942 55.1461 85.3224 55.3433 85.5195 55.5561C88.0405 59.7853 93.0927 61.6379 97.0349 58.0209C101.677 53.9681 100.043 47.0924 103.825 42.4636C101.812 42.941 100.972 44.5341 100.235 46.1531L100.24 46.1479Z" fill="white"/>
    <path d="M65.0199 48.976C64.9109 50.8597 64.3871 52.624 63.4793 54.3105C63.3808 36.7657 42.0463 45.0425 51.5127 59.3856C53.7639 62.8002 57.12 65.1613 60.17 67.7974C60.1544 67.8234 60.1388 67.8493 60.1233 67.8752C55.3304 65.1924 49.9929 62.8313 46.7614 58.1765C42.9333 53.1378 43.4313 44.8401 49.718 42.0846C41.4965 44.3627 42.2175 55.2757 47.3423 60.3716C51.3156 65.1249 57.7113 66.6194 62.1203 70.7709C60.3308 72.6338 58.5568 74.476 56.7621 76.3441C53.6654 73.8169 50.5168 71.3157 46.362 70.9836C40.1375 70.584 37.6425 76.9305 41.7973 81.1909C43.3431 82.9656 45.6047 83.9204 47.5965 85.1036C46.6732 86.048 45.7654 86.9769 44.8473 87.911C44.3857 88.2275 44.0485 89.1201 43.4001 88.8554C41.6677 88.0978 39.9559 87.2883 38.4205 86.1778C28.5962 80.2724 30.4532 63.8536 43.2705 64.4607C43.4468 64.4659 43.6543 64.5749 43.7892 64.6994C45.4905 66.2095 47.3527 67.787 49.4431 68.6329C46.3879 66.1576 43.3327 63.6201 41.3824 60.1381C34.8778 49.9567 42.9489 35.6292 55.3719 38.0163C60.7405 38.7272 65.5178 43.3353 65.0147 48.9812L65.0199 48.976Z" fill="white"/>
    <path d="M61.7674 89.1564C61.591 89.2758 61.4146 89.3952 61.2383 89.5145C61.3161 89.3744 61.3887 89.2291 61.4561 89.0786C61.5599 89.1046 61.6636 89.1305 61.7674 89.1564Z" fill="white"/>
    <path d="M66.3681 81.1289C66.3681 81.1289 66.3526 81.1704 66.3422 81.1912C66.3215 81.1756 66.3007 81.1549 66.2852 81.1393C66.3111 81.1393 66.3422 81.1341 66.3681 81.1289Z" fill="white"/>
    <path d="M68.5836 -0.000181838L70.4561 0.176253L69.8751 6.27363L78.4546 7.09353L78.2886 8.80598L67.8418 7.80965L68.5887 -0.00537109L68.5836 -0.000181838Z" fill="white"/>
    <path d="M89.2125 3.60621C89.254 3.65292 90.3225 6.7509 92.4181 12.9054L90.4989 12.2775C90.4522 12.2048 90.3329 11.8519 90.1461 11.2189C89.9646 10.6688 89.866 10.3886 89.8401 10.3834L83.0658 8.17276C82.988 8.20389 82.4485 8.5879 81.4422 9.31958L79.4971 8.68649L87.5422 3.05615L89.2177 3.60621H89.2125ZM87.952 4.5766C87.6045 4.83607 86.3907 5.6871 84.3003 7.13491L89.4407 8.81104C88.6886 6.64193 88.2062 5.23564 87.9987 4.59217L87.9468 4.5766H87.952Z" fill="white"/>
    <path d="M102.6 9.2832L111.916 16.05L110.92 17.42L107.02 14.5866L103.404 19.5683L101.89 18.4682L105.505 13.4865L101.604 10.6532L102.6 9.2832Z" fill="white"/>
    <path d="M119.313 23.559C119.324 23.6213 118.654 26.8283 117.295 33.1903L115.968 31.6647C115.968 31.5816 116.045 31.2184 116.206 30.5749C116.331 30.0093 116.388 29.7187 116.372 29.6979L111.688 24.3219C111.605 24.3063 110.946 24.3582 109.707 24.4724L108.363 22.926L118.156 22.2202L119.313 23.5487V23.559ZM117.736 23.7459C117.306 23.7926 115.822 23.9015 113.291 24.0676L116.844 28.1463C117.306 25.8994 117.617 24.4464 117.773 23.7822L117.736 23.7407V23.7459Z" fill="white"/>
    <path d="M124.973 30.3779L125.803 31.9555C125.419 36.055 125.227 38.1514 125.222 38.2448C125.222 38.2604 125.092 39.5837 124.848 42.2094L129.818 39.5992L130.694 41.265L123.733 44.9234L122.908 43.3511C122.898 43.3199 122.914 43.1383 122.95 42.8062C122.955 42.6298 123.085 41.2183 123.334 38.577L123.852 33.0867L118.883 35.6969L118.012 34.0415L124.973 30.3831V30.3779Z" fill="white"/>
    <path d="M131.877 43.8647L134.901 54.9801L133.267 55.4264L132.001 50.7716L126.067 52.3907L125.574 50.5848L131.508 48.9658L130.243 44.311L131.877 43.8647Z" fill="white"/>
    <path d="M135.627 58.1871L135.995 66.4951C136.068 68.1142 135.647 69.1987 134.734 69.754C134.34 69.9771 133.915 70.1017 133.448 70.1224H133.313C132.514 70.1639 131.871 69.9149 131.373 69.3804C131.223 69.2091 131.109 69.0534 131.031 68.9081C130.969 68.7784 130.891 68.6175 130.803 68.41H130.792C130.792 68.41 129.962 69.152 128.334 70.5946C128.323 70.5843 128.313 70.5739 128.313 70.5583H128.323L128.313 70.5479L128.22 68.4722C128.261 68.4515 128.443 68.2958 128.775 68.0052C129.817 67.1023 130.393 66.5937 130.507 66.4796L130.232 60.2265L130.222 60.2161L130.206 60.2265C130.206 60.2265 130.196 60.2265 130.196 60.2161L130.185 60.2265L127.893 60.3303C127.893 60.3303 127.882 60.3303 127.882 60.3199L127.872 60.3303C127.872 60.3303 127.856 60.3303 127.851 60.3147L127.773 58.5244L135.611 58.1768L135.627 58.1871ZM131.783 60.1694L132.063 66.547C132.089 67.149 132.177 67.5693 132.323 67.8132C132.52 68.1661 132.841 68.3321 133.287 68.3114H133.313C133.816 68.2906 134.143 68.0467 134.294 67.5849C134.371 67.315 134.403 66.9985 134.387 66.6404L134.096 60.0656L131.783 60.1694Z" fill="white"/>
    <path d="M135.845 73.1163L135.658 74.9792L127.852 74.2008L128.038 72.3379L135.845 73.1163Z" fill="white"/>
    <path d="M133.972 84.6988H133.962C133.962 84.6988 133.962 84.7196 133.962 84.7248C133.526 86.3646 132.753 87.8176 131.648 89.0837C131.425 89.3276 131.088 89.6027 130.637 89.9036C130.212 90.1372 129.9 90.2773 129.703 90.3136C129.33 90.4174 129.013 90.4433 128.754 90.4018C128.754 90.4122 128.645 90.4018 128.443 90.3655V90.3551H128.427L128.308 90.324C128.308 90.324 128.303 90.3188 128.303 90.3136C128.298 90.3136 128.292 90.3136 128.292 90.3188C127.924 90.2202 127.54 89.9763 127.13 89.5871C126.954 89.3951 126.793 89.1771 126.643 88.9332C126.524 88.6945 126.399 88.4714 126.269 88.2638L124.34 89.3017L124.884 87.2727L125.782 86.5929C125.761 86.3282 125.766 85.8768 125.808 85.2333C125.839 84.9323 125.891 84.595 125.958 84.2266H125.969V84.2006L126 84.0917V84.045H126.01V84.0242L126.046 83.8789C126.057 83.8426 126.062 83.7959 126.067 83.7284H126.083L126.072 83.7129L126.233 83.1109C126.233 83.1109 126.243 83.0953 126.254 83.1005H126.238C126.285 82.9604 126.321 82.8618 126.337 82.7995L126.394 82.5868C126.394 82.5868 126.399 82.5764 126.404 82.5816C126.404 82.5764 126.404 82.5712 126.399 82.5712C126.43 82.4674 126.456 82.3948 126.472 82.3429L126.57 81.9641C126.57 81.9641 126.575 81.9485 126.586 81.9485V81.9278C126.586 81.9278 126.586 81.9226 126.591 81.9226C126.591 81.9174 126.591 81.9122 126.586 81.9122C126.607 81.8499 126.622 81.8032 126.633 81.7669L126.664 81.6579L126.679 81.6423H126.669L126.684 81.6268L126.716 81.5074H126.726V81.4918L126.747 81.4503L126.767 81.3725L126.788 81.3621H126.773L126.799 81.3362C126.871 81.0715 127.068 80.6356 127.39 80.0181C127.613 79.6237 127.846 79.2812 128.095 78.9854C128.313 78.7364 128.578 78.4769 128.889 78.2071C129.122 78.0202 129.418 77.8179 129.766 77.5999C130.212 77.3768 130.59 77.2522 130.901 77.2315C131.249 77.1951 131.545 77.2107 131.799 77.2782H131.846C131.846 77.2782 131.846 77.2886 131.861 77.2937H131.887C132.006 77.3301 132.084 77.3508 132.115 77.3612C132.115 77.3664 132.115 77.3716 132.131 77.3768V77.3664C132.53 77.5169 132.899 77.766 133.251 78.124C133.365 78.2641 133.5 78.4613 133.656 78.7104C133.656 78.7208 133.697 78.8142 133.78 78.9906C134.06 79.7016 134.226 80.2828 134.268 80.729C134.315 81.2324 134.325 81.8655 134.289 82.6335C134.278 82.8359 134.247 83.1472 134.206 83.5572H134.195L134.143 83.9152H134.133L134.128 84.0398H134.112L134.123 84.0553C134.04 84.4393 133.993 84.6521 133.977 84.6936L133.972 84.6988ZM132.722 84.1903C132.904 83.5053 132.971 82.6231 132.914 81.5541C132.873 81.0715 132.733 80.5993 132.494 80.1375C132.188 79.66 131.804 79.3539 131.342 79.2345C130.627 79.0425 129.895 79.3227 129.138 80.0752C128.941 80.2724 128.759 80.4955 128.604 80.7394C128.121 81.5645 127.815 82.2183 127.686 82.7061H127.675C127.675 82.7061 127.675 82.7113 127.68 82.7165L127.66 82.7632L127.504 83.3444V83.3911H127.494C127.494 83.4015 127.494 83.4171 127.494 83.4274C127.354 83.9516 127.291 84.6677 127.302 85.581C127.364 87.1326 127.872 88.0355 128.827 88.295L128.879 88.3105C129.921 88.5907 130.855 88.0563 131.674 86.7071C131.892 86.3697 132.084 86.0221 132.245 85.664C132.261 85.6121 132.286 85.5498 132.323 85.4824H132.312L132.385 85.3423H132.369C132.458 85.1347 132.535 84.9271 132.592 84.7092H132.603C132.603 84.7092 132.603 84.704 132.598 84.6988L132.618 84.6521L132.696 84.3719C132.707 84.3356 132.717 84.2889 132.727 84.2214H132.738C132.738 84.2214 132.738 84.2006 132.738 84.1955L132.722 84.1903Z" fill="white"/>
    <path d="M131.218 94.2108L130.325 95.8558L126.829 93.9565C125.989 93.4999 125.268 93.4895 124.666 93.9202C124.314 94.1537 123.992 94.5325 123.702 95.0619L121.87 98.4349C121.373 99.3482 121.29 100.121 121.611 100.749C121.689 100.9 121.803 101.05 121.953 101.196C122.125 101.367 122.389 101.554 122.757 101.756L126.124 103.583L125.232 105.228L121.787 103.354C120.937 102.892 120.345 102.363 120.019 101.766C119.682 101.175 119.567 100.474 119.682 99.6751C119.77 99.068 120.024 98.3726 120.454 97.5838L122.213 94.3509C122.768 93.3286 123.364 92.6177 124.002 92.2233C125.081 91.5176 126.3 91.5332 127.664 92.2752L131.218 94.2056V94.2108Z" fill="white"/>
    <path d="M123.401 108.123L115.616 116.898L114.433 115.85L120.735 108.746L119.506 107.656C117.846 109.545 116.575 110.988 115.688 111.984L113.219 114.771L112.026 113.712C114.054 111.408 115.652 109.597 116.819 108.279L118.297 106.613L117.981 106.333L117.965 106.307C117.965 106.307 117.955 106.307 117.939 106.297V106.286H117.934L117.913 106.26L117.224 105.648L110.932 112.742L109.733 111.678L117.519 102.903L123.401 108.123ZM122.924 118.455C122.483 118.434 121.83 118.388 120.963 118.315C120.953 118.263 121.041 116.41 121.233 112.747C121.332 112.752 121.98 112.788 123.178 112.851L122.924 118.455Z" fill="white"/>
    <path d="M109.209 122.606L101.979 127.012C100.542 127.889 99.3125 127.936 98.2958 127.147C98.0209 126.893 97.8083 126.633 97.6475 126.369L97.5437 126.203C96.8175 125.009 96.9524 123.883 97.9431 122.819C98.2907 122.497 98.6797 122.207 99.105 121.947L104.624 118.585L103.566 116.851L105.127 115.902L109.209 122.606ZM106.792 122.15L105.496 120.022L99.8468 123.463C98.9546 124.007 98.7056 124.604 99.0998 125.258L99.1932 125.409C99.5978 126.073 100.277 126.119 101.227 125.538L106.792 122.15Z" fill="white"/>
    <path d="M89.2755 132.658C89.2133 132.647 86.5263 130.774 81.1992 127.043L83.1184 126.415C83.1963 126.446 83.5023 126.659 84.0262 127.059C84.4982 127.396 84.742 127.562 84.7679 127.552L91.5423 125.336C91.5889 125.263 91.7964 124.635 92.1751 123.447L94.1202 122.809L90.9457 132.103L89.2703 132.653L89.2755 132.658ZM89.7164 131.132C89.8409 130.717 90.3233 129.311 91.1532 126.913L86.0128 128.595C87.9009 129.897 89.1199 130.753 89.6645 131.153L89.7164 131.137V131.132Z" fill="white"/>
    <path d="M80.7735 135.196L72.4898 135.891C70.8766 136.026 69.7717 135.652 69.1856 134.76C68.947 134.376 68.8069 133.95 68.7655 133.488L68.7551 133.354C68.6876 132.56 68.9107 131.901 69.4242 131.387C69.5902 131.231 69.7406 131.112 69.8807 131.029C70.0052 130.961 70.166 130.878 70.3683 130.785V130.774C70.3683 130.774 69.5954 129.975 68.0859 128.403C68.0963 128.393 68.1067 128.382 68.1223 128.382V128.393L68.1326 128.382L70.1971 128.211C70.2178 128.252 70.3838 128.429 70.6847 128.751C71.6287 129.757 72.1578 130.313 72.2771 130.422L78.512 129.903L78.5223 129.892L78.512 129.877C78.512 129.877 78.512 129.866 78.5223 129.866L78.512 129.856L78.32 127.567C78.32 127.567 78.32 127.557 78.3304 127.557L78.32 127.547C78.32 127.547 78.32 127.526 78.3356 127.526L80.12 127.375L80.7735 135.196ZM78.6468 131.433L72.2875 131.968C71.6858 132.02 71.2708 132.124 71.0322 132.279C70.6899 132.492 70.5342 132.819 70.5706 133.26V133.286C70.612 133.784 70.8714 134.106 71.3382 134.236C71.6132 134.303 71.9244 134.319 72.2875 134.288L78.8439 133.738L78.652 131.428L78.6468 131.433Z" fill="white"/>
    <path d="M65.881 136L64.0137 135.891L64.4805 128.055L66.3479 128.164L65.881 136Z" fill="white"/>
    <path d="M58.2617 135.377C55.9431 134.921 53.3288 134.407 50.4241 133.841L50.4033 133.821L50.6938 132.352C50.6938 132.352 50.699 132.347 50.7145 132.352C53.5622 132.918 55.9846 133.395 57.9868 133.789L58.8064 133.95C59.3666 134.059 59.7401 134.059 59.9216 133.945C60.1032 133.862 60.2121 133.712 60.2536 133.504C60.3106 133.203 60.181 132.959 59.8542 132.777C59.7349 132.705 59.5481 132.627 59.2836 132.549C55.4037 131.605 53.4066 131.122 53.3029 131.086C53.0332 130.998 52.7946 130.904 52.5975 130.806C52.2084 130.614 51.8816 130.349 51.6223 130.006C51.3162 129.56 51.2281 129.015 51.3577 128.361C51.4615 127.832 51.6949 127.412 52.058 127.095C52.2655 126.929 52.4159 126.836 52.5145 126.805C52.7323 126.696 53.002 126.628 53.3236 126.592C53.6816 126.55 54.1432 126.582 54.7034 126.69L59.6208 127.656C59.8334 127.697 60.0513 127.744 60.264 127.791C60.3469 127.801 60.5285 127.832 60.8034 127.889L63.0287 128.325L63.0598 128.341L62.8367 129.482C62.8212 129.555 62.8004 129.674 62.7693 129.83H62.7589C59.8438 129.259 57.3903 128.777 55.3933 128.382L54.3403 128.175C53.749 128.06 53.3444 128.112 53.1369 128.335C53.0539 128.424 52.9969 128.538 52.9657 128.688C52.9087 128.974 52.9969 129.197 53.2251 129.353C53.4585 129.493 53.6193 129.576 53.7179 129.591C53.7179 129.607 54.3662 129.778 55.6682 130.089C56.2128 130.224 57.4474 130.531 59.3718 131.008C59.7141 131.086 59.989 131.164 60.2121 131.247C60.5181 131.366 60.7619 131.485 60.9383 131.594C61.1406 131.729 61.3273 131.901 61.5089 132.103C61.6593 132.305 61.763 132.477 61.8149 132.617C61.929 132.985 61.9498 133.348 61.8771 133.712L61.8512 133.836C61.7682 134.251 61.5815 134.62 61.2962 134.931C60.9953 135.232 60.57 135.429 60.015 135.512C59.6 135.575 59.1591 135.559 58.6975 135.471L58.6093 135.455H58.5833L58.2721 135.388L58.2617 135.377Z" fill="white"/>
    <path d="M31.7713 125.969L30.4123 124.874C30.3708 124.511 30.1685 121.983 29.8002 117.303C28.5294 117.484 26.0603 117.827 22.3982 118.33H22.2789L20.9199 117.23L25.8373 111.117L27.2948 112.29L24.1307 116.223L30.9569 115.279L31.5379 115.746C31.6053 116.364 31.7713 118.574 32.041 122.378C32.0773 122.492 32.0825 122.565 32.0514 122.606L32.0721 122.622L35.2363 118.688L36.6938 119.861L31.7765 125.974L31.7713 125.969Z" fill="white"/>
    <path d="M14.0364 109.068C14.0261 109.005 14.9234 105.85 16.713 99.6025L17.9319 101.216C17.9319 101.299 17.823 101.657 17.6207 102.285C17.4547 102.841 17.3821 103.126 17.3925 103.147L21.6926 108.834C21.7756 108.855 22.4395 108.85 23.6792 108.819L24.9137 110.453L15.0946 110.479L14.0312 109.073L14.0364 109.068ZM15.6237 108.995C16.0542 108.98 17.5429 108.974 20.0794 108.98L16.8167 104.667C16.1994 106.878 15.7897 108.305 15.5926 108.954L15.6237 108.995Z" fill="white"/>
    <path d="M8.83417 101.865L5.58187 94.4233C4.76232 92.5448 4.84012 91.0243 5.82567 89.8671C5.98647 89.701 6.14727 89.5506 6.30807 89.426C6.62966 89.1769 6.96682 88.9745 7.31436 88.8241L7.48553 88.7514C8.44514 88.3311 9.35288 88.2584 10.2036 88.5283C10.5303 88.658 10.743 88.7618 10.8416 88.8396C11.6248 89.317 12.2576 90.1058 12.7349 91.2059L16.0235 98.7303L8.83417 101.875V101.865ZM9.59149 99.4932L13.7671 97.6666L11.2358 91.8702C10.909 91.1229 10.494 90.6195 9.9857 90.3653C9.45143 90.1006 8.82898 90.1266 8.11836 90.4327C7.40254 90.7441 6.96164 91.1904 6.80084 91.7767C6.64523 92.3009 6.74378 92.9703 7.0965 93.7798L9.59149 99.4932Z" fill="white"/>
    <path d="M2.87915 87.6773L0.793945 77.3507L2.31376 77.0446L4.05662 85.6847L5.63868 85.3629L3.89582 76.7228L5.40007 76.4167L7.14293 85.0568L8.70424 84.7402L6.96138 76.1001L8.4812 75.7939L10.5664 86.1206L2.87396 87.6722L2.87915 87.6773Z" fill="white"/>
    <path d="M0.000304265 68.8766L0.985849 57.3979L2.67165 57.5432L2.25668 62.3485L8.38781 62.8778L8.22701 64.7407L2.09588 64.2114L1.68092 69.0167L-0.00488281 68.8714L0.000304265 68.8766Z" fill="white"/>
    <path d="M3.24738 48.3276C3.79202 46.6255 4.62195 45.2919 5.74755 44.3163C6.87314 43.3459 7.94168 43.019 8.95835 43.3459C10.0061 43.678 10.7012 44.5654 11.0384 46.008C11.3807 47.4506 11.277 49.0178 10.7375 50.7198C10.1929 52.4271 9.36294 53.7659 8.25291 54.7415C7.14287 55.7171 6.06396 56.0336 5.01617 55.7015C3.9995 55.3746 3.30962 54.4924 2.9569 53.0498C2.60418 51.6072 2.69755 50.0349 3.24219 48.3276H3.24738ZM4.4819 48.722C4.10324 49.9155 4.02544 51.0156 4.24848 52.0171C4.47671 53.0187 4.92799 53.631 5.6075 53.849C6.31294 54.0721 7.03913 53.8438 7.79644 53.1536C8.55376 52.4634 9.11915 51.5242 9.50299 50.3306C9.88165 49.1423 9.96464 48.0474 9.74679 47.0458C9.52893 46.0443 9.06728 45.432 8.36702 45.2088C7.68751 44.9909 6.96132 45.2244 6.19882 45.9146C5.43632 46.6048 4.86056 47.5388 4.4819 48.7272V48.722Z" fill="white"/>
    <path d="M8.94238 34.3892L15.2706 25.3755L16.5415 26.268L11.2506 33.7976L12.5837 34.7369L17.8745 27.2073L19.1142 28.0791L13.8234 35.6087C15.2084 36.5791 16.0642 37.1862 16.3962 37.4198L15.3588 38.8987L8.94238 34.384V34.3892Z" fill="white"/>
    <path d="M16.9463 23.2012L24.5765 15.9414L25.645 17.0675L19.2597 23.1441L20.3698 24.3117L26.7551 18.2351L27.8132 19.3456L21.4279 25.4222L22.5276 26.5794L28.9129 20.5028L29.9814 21.6288L22.3512 28.8886L16.9463 23.2012Z" fill="white"/>
    <path d="M26.6409 14.1093L35.5316 8.46338L36.3615 9.77626L28.9232 14.5037L29.7895 15.8684L37.2278 11.141L38.0473 12.4383L30.609 17.1658L31.4649 18.515L38.9032 13.7876L39.7331 15.0952L30.8425 20.7412L26.6357 14.1145L26.6409 14.1093Z" fill="white"/>
    <path d="M37.9023 7.07286L39.6556 6.39307L41.8705 12.1064L49.9052 8.98769L50.5277 10.5912L40.7449 14.3897L37.9075 7.07286H37.9023Z" fill="white"/>
    <path d="M57.7222 2.13275L58.9515 0.124512L58.9049 2.48043L61.0212 1.45815L59.7089 3.40931L62.043 3.69472L59.8852 4.62879L61.6955 6.13367L59.3717 5.74967L60.0823 7.99142L58.3395 6.41389L57.7222 8.68678L57.1101 6.41389L55.3621 7.99142L56.0727 5.74967L53.7489 6.13367L55.5644 4.62879L53.4014 3.69472L55.7356 3.40931L54.4232 1.45815L56.5447 2.48043L56.4929 0.124512L57.7222 2.13275Z" fill="white"/>
    <path d="M42.5964 130.701C44.4327 130.701 45.9213 129.212 45.9213 127.375C45.9213 125.538 44.4327 124.049 42.5964 124.049C40.7601 124.049 39.2715 125.538 39.2715 127.375C39.2715 129.212 40.7601 130.701 42.5964 130.701Z" fill="white"/>
  </g>
  <defs>
    <clipPath id="clip0_2_315">
      <rect width="136" height="136" fill="white"/>
    </clipPath>
  </defs>
</svg>