<svg width="244" height="47" viewBox="0 0 244 47" fill="none" xmlns="http://www.w3.org/2000/svg">
<g clip-path="url(#clip0_443_4567)">
<path d="M-0.00195312 10.6031H3.08795V20.6H17.2434V23.4094H-0.00195312V10.6031Z" fill="black"/>
<path d="M32.767 10.6031C32.8525 10.654 36.1021 14.919 42.5099 23.4094H39.1863C39.078 23.3244 38.7131 22.8373 38.0917 21.9481C37.5273 21.1834 37.2252 20.8039 37.191 20.8039H25.4812C25.3729 20.8889 24.723 21.7612 23.5315 23.4094H20.168L29.8653 10.6031H32.7613H32.767ZM31.2962 12.7441C30.8857 13.3218 29.4206 15.2589 26.9008 18.561H35.7828C33.5025 15.5817 32.0373 13.6446 31.3874 12.7441H31.3019H31.2962Z" fill="black"/>
<path d="M54.1737 10.6031H73.0894V13.3671H65.1651V23.4094H62.0923V13.3671H54.168V10.6031H54.1737Z" fill="black"/>
<path d="M86.2358 10.6031C86.3213 10.654 89.5708 14.919 95.9787 23.4094H92.655C92.5467 23.3244 92.1819 22.8373 91.5605 21.9481C90.9961 21.1834 90.6939 20.8039 90.6597 20.8039H78.95C78.8417 20.8889 78.1918 21.7612 77.0003 23.4094H73.6367L83.334 10.6031H86.2301H86.2358ZM84.7706 12.7441C84.3602 13.3218 82.895 15.2589 80.3752 18.561H89.2573C86.9769 15.5817 85.5118 13.6446 84.8619 12.7441H84.7764H84.7706Z" fill="black"/>
<path d="M98.9092 10.6031H101.822C107.495 14.2677 110.385 16.1368 110.499 16.2048C110.516 16.2218 112.341 17.3999 115.961 19.7334V10.6031H119.033V23.4094H116.137C116.086 23.3981 115.835 23.2395 115.379 22.9336C115.134 22.7807 113.196 21.5233 109.553 19.1727L101.982 14.2847V23.4151H98.9092V10.6087V10.6031Z" fill="black"/>
<path d="M121.964 10.6031H140.879V13.3671H132.955V23.4094H129.882V13.3671H121.958V10.6031H121.964Z" fill="black"/>
<path d="M144.46 10.6031H158.119C160.782 10.6031 162.537 11.3677 163.393 12.8913C163.723 13.5483 163.889 14.2563 163.889 15.021V15.2362C163.889 16.5503 163.433 17.5868 162.52 18.3458C162.23 18.578 161.962 18.7536 161.717 18.8669C161.506 18.9631 161.226 19.0764 160.884 19.201V19.218C160.913 19.235 162.047 20.6284 164.293 23.3981C164.276 23.4094 164.259 23.4151 164.248 23.4151V23.3981L164.219 23.4151H160.81C160.782 23.3471 160.536 23.0356 160.08 22.4748C158.672 20.7077 157.886 19.7334 157.72 19.5352H147.441L147.413 19.5635L147.43 19.5805V19.5975H147.413L147.43 19.6258V23.3754H147.413L147.43 23.4037C147.43 23.4037 147.43 23.4207 147.413 23.4207H144.454V10.6144L144.46 10.6031ZM147.419 13.2538L147.436 13.2708V17.0317H157.92C158.917 17.0317 159.619 16.9184 160.018 16.6975C160.611 16.3973 160.907 15.8819 160.907 15.1513V15.1059C160.907 14.2847 160.531 13.7353 159.784 13.4577C159.356 13.3105 158.843 13.2425 158.239 13.2425H147.447L147.419 13.2595V13.2538Z" fill="black"/>
<path d="M167.879 10.6031H170.952V23.4094H167.879V10.6031Z" fill="black"/>
<path d="M185.98 10.603V10.62C185.98 10.62 186.014 10.603 186.026 10.603C188.831 10.603 191.476 11.2091 193.961 12.4269C194.457 12.6761 195.039 13.0895 195.712 13.6729C196.276 14.2507 196.629 14.6925 196.772 14.987C197.091 15.5364 197.274 16.0292 197.308 16.4653C197.325 16.4653 197.353 16.6352 197.382 16.9694H197.365L197.382 16.9977V17.2016C197.382 17.2016 197.382 17.2186 197.365 17.2186C197.365 17.2299 197.365 17.2356 197.382 17.2356C197.382 17.853 197.16 18.5723 196.709 19.3936C196.476 19.7504 196.196 20.0959 195.866 20.4358C195.535 20.736 195.233 21.0305 194.965 21.3194L197.439 23.9361H193.956L192.502 22.792C192.092 22.9449 191.368 23.1318 190.319 23.3414C189.811 23.4207 189.258 23.483 188.642 23.5283V23.5113L188.597 23.5283H188.409L188.335 23.5453V23.5283L188.306 23.5453H188.061C188.004 23.5453 187.918 23.5566 187.816 23.5736V23.5453L187.787 23.5736H186.755C186.755 23.5736 186.727 23.5623 186.727 23.5453V23.5736C186.493 23.5566 186.322 23.5453 186.22 23.5453H185.855C185.855 23.5453 185.838 23.5453 185.838 23.5283C185.826 23.5283 185.821 23.5283 185.821 23.5453C185.644 23.534 185.513 23.5283 185.427 23.5283H184.772C184.772 23.5283 184.743 23.5283 184.743 23.5113L184.715 23.5283C184.715 23.5283 184.697 23.5283 184.697 23.5113C184.686 23.5113 184.68 23.5113 184.68 23.5283C184.572 23.517 184.492 23.5113 184.435 23.5113H184.247L184.219 23.4943V23.5113L184.19 23.4943H183.985V23.4773C183.985 23.4773 183.956 23.4773 183.956 23.4943L183.882 23.4773H183.751L183.723 23.449V23.4773L183.677 23.449C183.232 23.449 182.446 23.3244 181.317 23.0752C180.587 22.8826 179.937 22.6504 179.367 22.3785C178.882 22.135 178.352 21.8291 177.782 21.4553C177.383 21.1664 176.938 20.7869 176.442 20.3112C175.889 19.7051 175.53 19.1614 175.365 18.6743C175.16 18.1362 175.057 17.6491 175.057 17.2243L175.04 17.1506C175.04 17.1506 175.057 17.1393 175.057 17.1223L175.04 17.077C175.051 16.8731 175.057 16.7428 175.057 16.6862C175.069 16.6862 175.074 16.6749 175.074 16.6579H175.057C175.126 15.9612 175.365 15.2645 175.787 14.5622C175.964 14.3186 176.22 14.0241 176.556 13.6673C176.574 13.6673 176.705 13.5597 176.95 13.3501C177.97 12.6194 178.825 12.1153 179.515 11.8435C180.302 11.5433 181.311 11.2601 182.542 10.9882C182.885 10.9089 183.386 10.8239 184.059 10.7276V10.7446L184.658 10.671V10.688L184.863 10.6427V10.671L184.891 10.6427C185.541 10.6144 185.906 10.5974 185.986 10.5974L185.98 10.603ZM185.701 12.8063C184.526 12.8063 183.095 13.0782 181.402 13.6163C180.644 13.8938 179.949 14.3186 179.321 14.8907C178.683 15.576 178.358 16.3124 178.358 17.1053C178.358 18.3231 179.128 19.3653 180.661 20.2432C181.06 20.4754 181.488 20.668 181.944 20.8209C183.466 21.2344 184.646 21.444 185.484 21.444V21.461C185.484 21.461 185.501 21.461 185.501 21.444L185.587 21.461H186.579L186.653 21.444V21.461C186.653 21.461 186.693 21.444 186.71 21.444C187.611 21.444 188.785 21.2401 190.233 20.8379C192.679 20.0789 193.904 18.8838 193.904 17.2639V17.179C193.904 15.4061 192.656 14.1487 190.165 13.4181C189.526 13.2142 188.888 13.0612 188.255 12.9536C188.169 12.9536 188.061 12.9366 187.936 12.9083V12.9253L187.69 12.8686V12.897C187.32 12.8403 186.955 12.812 186.584 12.812V12.795C186.584 12.795 186.567 12.795 186.567 12.812L186.482 12.795H186.003C185.946 12.795 185.86 12.795 185.758 12.812V12.795C185.758 12.795 185.724 12.812 185.712 12.812L185.701 12.8063Z" fill="black"/>
<path d="M200.368 10.603H203.441V17.111C203.441 18.6629 203.994 19.7051 205.1 20.2375C205.704 20.5547 206.502 20.7133 207.506 20.7133H213.811C215.51 20.7133 216.684 20.2375 217.334 19.2803C217.499 19.0481 217.631 18.7706 217.728 18.442C217.836 18.0682 217.887 17.5358 217.887 16.8504V10.5974H220.96V16.992C220.96 18.5836 220.663 19.841 220.071 20.7699C219.466 21.7272 218.548 22.4295 217.306 22.8826C216.376 23.2281 215.168 23.4037 213.691 23.4037H207.631C205.727 23.4037 204.239 23.1035 203.162 22.5088C201.297 21.5063 200.368 19.7334 200.368 17.196V10.5974V10.603Z" fill="black"/>
<path d="M224.729 10.6031H243.998V13.1802H228.4V15.8536C232.527 15.8366 235.686 15.8253 237.881 15.8253H243.998V18.4307C238.958 18.4477 234.99 18.4591 232.1 18.4591H228.446V19.1557L228.428 19.201C228.428 19.201 228.446 19.218 228.446 19.2464C228.434 19.2464 228.428 19.2464 228.428 19.2633H228.446L228.428 19.32V20.8266H243.998V23.4434H224.729V10.6087V10.6031ZM237.938 3.43323e-05C238.394 0.560772 239.049 1.41037 239.904 2.54884C239.853 2.61681 237.476 4.51425 232.767 8.2525C232.67 8.1279 232.003 7.29529 230.771 5.766L237.938 0.00569835V3.43323e-05Z" fill="black"/>
<path d="M75.7193 38.4586C75.7193 38.5323 75.6337 38.6059 75.4684 38.6682C75.3031 38.7305 75.1207 38.7645 74.9154 38.7645C74.6589 38.7645 74.408 38.6682 74.1515 38.4813C73.895 38.2944 73.7695 38.0451 73.7695 37.7393C73.7695 36.5272 75.2689 34.9866 78.2562 33.1288C81.2492 31.271 84.7666 29.6454 88.82 28.2521C92.8677 26.8587 96.3452 26.1677 99.247 26.1677C101.334 26.1677 103.004 26.4452 104.252 27.0003C105.501 27.5554 106.122 28.2917 106.122 29.2036C106.122 31.0274 104.908 32.8966 102.474 34.8223C100.039 36.7481 97.3486 38.4076 94.3955 39.8123C91.4424 41.217 89.6466 41.9193 89.0081 41.9193H88.82C89.0765 44.1963 89.2533 45.5783 89.3559 46.0541C89.43 46.3316 89.3958 46.4732 89.2419 46.4732C89.1164 46.4732 88.9625 46.3769 88.7858 46.19C88.6091 46.0031 88.495 45.7935 88.4437 45.5613C87.9364 43.8168 87.5886 42.4348 87.4119 41.4266C87.0014 41.0697 86.8019 40.5147 86.8019 39.7557C86.8019 39.0477 86.9672 38.1131 87.2979 36.9463C87.4233 34.9753 87.7311 33.2534 88.2157 31.7864C88.3183 31.5089 88.495 31.288 88.7516 31.1237C89.0081 30.9595 89.2761 30.8745 89.5554 30.8745C89.7321 30.8745 89.869 30.9255 89.9545 31.0274C90.0457 31.1294 90.0514 31.2653 89.9716 31.4466C89.5896 32.5114 89.1963 33.7008 88.7858 35.0149L88.7117 36.1137C88.6832 36.4932 88.6604 36.901 88.6376 37.3315C88.6148 37.762 88.5977 38.1641 88.5977 38.5436C88.5977 38.8494 88.649 39.6821 88.7516 41.0471C88.9055 41.0981 89.0309 41.1207 89.1336 41.1207C90.1768 41.1207 91.9555 40.4014 94.4639 38.9571C96.9723 37.5127 99.2413 35.8645 101.265 34.001C103.289 32.1432 104.304 30.58 104.304 29.3112C104.304 28.8808 104.23 28.49 104.076 28.1331C103.922 27.782 103.471 27.4478 102.719 27.1476C101.966 26.8417 100.792 26.6945 99.1843 26.6945C96.6645 26.6945 93.4606 27.3911 89.5782 28.7845C85.6959 30.1778 82.2696 31.7694 79.3051 33.5649C76.3407 35.3604 74.8527 36.7934 74.8527 37.8526C74.8527 38.2321 75.1093 38.419 75.6166 38.419L75.7307 38.4586H75.7193Z" fill="black"/>
<path d="M104.446 43.8111C104.549 43.4826 104.885 43.0748 105.461 42.599C106.036 42.1232 106.675 41.6984 107.388 41.3472C108.1 40.9904 108.739 40.8148 109.297 40.8148C110.113 40.8148 110.506 41.03 110.483 41.4605H110.523C110.626 41.4888 110.711 41.5455 110.791 41.6304C110.865 41.7211 110.905 41.8003 110.905 41.8796L110.865 41.9533C110.791 42.1062 110.7 42.3668 110.597 42.7292C110.495 43.0974 110.443 43.4826 110.443 43.8847C110.443 44.1113 110.563 44.3152 110.808 44.4908C111.048 44.6663 111.401 44.757 111.857 44.757C114.126 44.757 116.338 44.3435 118.504 43.5222C120.671 42.7009 122.324 41.857 123.47 40.9961C123.573 40.8941 123.749 40.8431 124.006 40.8431C124.262 40.8431 124.388 40.8941 124.388 40.9961C124.388 41.0697 124.336 41.149 124.234 41.2226C122.632 42.3384 120.733 43.3013 118.544 44.1283C116.355 44.9495 114.189 45.363 112.051 45.363C111.059 45.363 110.329 45.2554 109.873 45.0402C109.417 44.8249 109.183 44.3888 109.183 43.7318C109.183 43.4033 109.258 43.0124 109.411 42.5537L108.226 43.3523C107.815 43.6581 107.399 43.947 106.966 44.2245C106.532 44.5021 106.173 44.6663 105.894 44.7173C105.82 44.7456 105.706 44.757 105.552 44.757C105.221 44.757 104.93 44.6663 104.674 44.4908C104.417 44.3152 104.343 44.0886 104.446 43.8054V43.8111ZM105.974 43.964C106.789 43.358 107.57 42.8425 108.323 42.4291C109.075 42.0099 109.679 41.7154 110.135 41.5398C110.033 41.4152 109.879 41.3529 109.679 41.3529C109.297 41.3529 108.796 41.5341 108.169 41.9023C107.547 42.2705 107.006 42.6669 106.544 43.0974C106.088 43.5279 105.894 43.8167 105.968 43.9697L105.974 43.964ZM110.443 41.5738L110.135 41.5341L110.477 41.4605L110.438 41.5738H110.443Z" fill="black"/>
<path d="M123.658 41.1774C123.915 41.0358 124.143 40.9678 124.348 40.9678C124.604 40.9678 124.707 41.0414 124.656 41.1943C124.502 42.0043 124.416 42.6896 124.388 43.2447C125.79 42.2309 127.176 41.4152 128.549 40.7979C129.923 40.1805 131.109 39.869 132.101 39.869C132.534 39.869 132.871 39.9086 133.116 39.9822C133.361 40.0559 133.595 40.1975 133.823 40.4014C133.948 40.526 134.028 40.6336 134.051 40.7242C134.074 40.8149 134.039 40.8432 133.937 40.8205C133.863 40.7979 133.675 40.7242 133.384 40.6109C133.093 40.4977 132.78 40.441 132.449 40.441C131.354 40.441 130.208 40.7695 129.011 41.4266C127.814 42.0836 126.452 42.9842 124.924 44.1226C124.821 44.2246 124.65 44.3039 124.411 44.3719C124.165 44.4342 123.943 44.4681 123.744 44.4681C123.339 44.4681 123.122 44.3662 123.094 44.1623C123.042 43.9584 123.02 43.6072 123.02 43.0975C123.02 42.4404 123.071 41.9703 123.173 41.6928C123.248 41.4889 123.413 41.319 123.669 41.1774H123.658Z" fill="black"/>
<path d="M143.446 45.1025C142.734 45.1025 142.192 44.9496 141.822 44.6494C141.451 44.3492 141.269 43.9301 141.269 43.3977C141.269 43.0692 141.308 42.7237 141.383 42.3555C141.457 41.9873 141.548 41.7041 141.651 41.5002C141.776 41.2454 141.958 41.0528 142.186 40.9112C142.414 40.7696 142.62 40.7016 142.796 40.7016C143.053 40.7016 143.138 40.8036 143.064 41.0075C142.654 41.8684 142.454 42.701 142.454 43.511C142.454 44.1963 142.825 44.5361 143.56 44.5361C144.604 44.5361 146.023 44.3322 147.819 43.9301C149.615 43.5279 151.331 43.0465 152.978 42.4858C154.62 41.9307 155.732 41.4379 156.319 41.0075C156.422 40.9055 156.598 40.8545 156.855 40.8545C157.111 40.8545 157.237 40.9055 157.237 41.0075C157.237 41.0811 157.186 41.1604 157.083 41.234C156.165 41.8684 154.814 42.4801 153.035 43.0748C151.251 43.6696 149.444 44.1567 147.608 44.5361C145.772 44.9156 144.387 45.1025 143.446 45.1025ZM143.292 37.0596C143.292 36.1477 143.686 35.6946 144.478 35.6946C144.655 35.6946 144.826 35.7343 144.997 35.8079C145.162 35.8815 145.248 35.9495 145.248 35.9948L145.208 36.0684C145.134 36.1421 144.94 36.397 144.638 36.8274C144.33 37.2579 144.091 37.4731 143.914 37.4731C143.737 37.4731 143.589 37.4335 143.475 37.3598C143.361 37.2862 143.304 37.1843 143.304 37.054L143.292 37.0596Z" fill="black"/>
<path d="M160.253 39.2232C159.563 39.4781 158.89 39.818 158.229 40.2484C157.567 40.6789 157.237 40.9678 157.237 41.1207C157.237 41.1943 157.528 41.2623 158.115 41.3076C158.879 41.3812 159.483 41.4888 159.928 41.6304C160.372 41.772 160.595 42.0156 160.595 42.3724C160.595 42.9558 160.332 43.5619 159.814 44.1962C159.289 44.8306 158.696 45.3857 158.035 45.8671C157.374 46.3486 156.861 46.6658 156.507 46.8187C156.251 46.9433 155.971 47.0056 155.663 47.0056C155.509 47.0056 155.407 46.9773 155.356 46.932C155.304 46.8866 155.327 46.8187 155.43 46.745C156.216 46.2636 157.026 45.6179 157.853 44.808C158.679 43.998 159.095 43.1994 159.095 42.4177C159.095 42.2422 158.976 42.1119 158.73 42.0383C158.491 41.9646 158.126 41.8853 157.642 41.8117C157.157 41.7381 156.792 41.6588 156.553 41.5851C156.313 41.5115 156.188 41.3812 156.188 41.2056C156.188 41.0301 156.41 40.7582 156.855 40.39C157.3 40.0219 157.801 39.6933 158.366 39.4045C158.924 39.1156 159.397 38.9684 159.779 38.9684C160.184 38.9684 160.389 39.0193 160.389 39.1213C160.389 39.1496 160.338 39.1836 160.236 39.2346L160.253 39.2232Z" fill="black"/>
</g>
<defs>
<clipPath id="clip0_443_4567">
<rect width="244" height="47" fill="white"/>
</clipPath>
</defs>
</svg>
