<svg width="358" height="146" viewBox="0 0 358 146" fill="none" xmlns="http://www.w3.org/2000/svg">
<path d="M261.23 46.379C277.92 45.1989 294.593 54.541 305.155 64.4771C314.192 72.9784 321.541 83.2213 328.648 93.1267C333.128 99.371 337.759 105.827 342.767 111.778C377.114 152.616 435.352 173.049 487.684 162.622L487.946 163.946C461.874 169.141 434.22 167.024 407.99 157.822C381.762 148.62 358.851 132.999 341.735 112.648C336.695 106.657 332.047 100.178 327.553 93.9144C320.483 84.0618 313.173 73.8717 304.232 65.4596C291.443 53.4308 269.541 42.2634 249.876 50.4037C237.767 55.4153 229.414 66.571 221.337 77.3594C212.504 89.1563 203.371 101.355 189.307 105.448C174.247 109.834 159.208 103.355 144.667 97.0877C131.493 91.4087 117.868 85.5369 104.146 87.6128C83.6784 90.7049 69.9599 110.069 58.708 127.978L12.5749 201.398L11.4324 200.681L57.5655 127.261C68.9767 109.098 82.9123 89.4561 103.944 86.2795C118.076 84.1543 131.855 90.0964 145.2 95.8486C160.181 102.305 174.331 108.402 188.931 104.154C202.559 100.185 211.156 88.705 220.257 76.5508C228.443 65.618 236.91 54.311 249.359 49.1562C253.262 47.5411 257.248 46.6602 261.23 46.379Z" fill="#DFE2E7"/>
<path d="M261.23 46.379C277.92 45.1989 294.593 54.541 305.155 64.4771C314.192 72.9784 321.541 83.2213 328.648 93.1267C333.128 99.371 337.759 105.827 342.767 111.778C377.114 152.616 435.352 173.049 487.684 162.622L487.946 163.946C461.874 169.141 434.22 167.024 407.99 157.822C381.762 148.62 358.851 132.999 341.735 112.648C336.695 106.657 332.047 100.178 327.553 93.9144C320.483 84.0618 313.173 73.8717 304.232 65.4596C291.443 53.4308 269.541 42.2634 249.876 50.4037C237.767 55.4153 229.414 66.571 221.337 77.3594C212.504 89.1563 203.371 101.355 189.307 105.448C174.247 109.834 159.208 103.355 144.667 97.0877C131.493 91.4087 117.868 85.5369 104.146 87.6128C83.6784 90.7049 69.9599 110.069 58.708 127.978L12.5749 201.398L11.4324 200.681L57.5655 127.261C68.9767 109.098 82.9123 89.4561 103.944 86.2795C118.076 84.1543 131.855 90.0964 145.2 95.8486C160.181 102.305 174.331 108.402 188.931 104.154C202.559 100.185 211.156 88.705 220.257 76.5508C228.443 65.618 236.91 54.311 249.359 49.1562C253.262 47.5411 257.248 46.6602 261.23 46.379Z" fill="#D6DADF"/>
<path d="M261.23 46.379C277.92 45.1989 294.593 54.541 305.155 64.4771C314.192 72.9784 321.541 83.2213 328.648 93.1267C333.128 99.371 337.759 105.827 342.767 111.778C377.114 152.616 435.352 173.049 487.684 162.622L487.946 163.946C461.874 169.141 434.22 167.024 407.99 157.822C381.762 148.62 358.851 132.999 341.735 112.648C336.695 106.657 332.047 100.178 327.553 93.9144C320.483 84.0618 313.173 73.8717 304.232 65.4596C291.443 53.4308 269.541 42.2634 249.876 50.4037C237.767 55.4153 229.414 66.571 221.337 77.3594C212.504 89.1563 203.371 101.355 189.307 105.448C174.247 109.834 159.208 103.355 144.667 97.0877C131.493 91.4087 117.868 85.5369 104.146 87.6128C83.6784 90.7049 69.9599 110.069 58.708 127.978L12.5749 201.398L11.4324 200.681L57.5655 127.261C68.9767 109.098 82.9123 89.4561 103.944 86.2795C118.076 84.1543 131.855 90.0964 145.2 95.8486C160.181 102.305 174.331 108.402 188.931 104.154C202.559 100.185 211.156 88.705 220.257 76.5508C228.443 65.618 236.91 54.311 249.359 49.1562C253.262 47.5411 257.248 46.6602 261.23 46.379Z" fill="#CDE5F0"/>
<path d="M330.957 15.4379C351.13 14.0118 370.653 23.292 389.623 32.3082C399.339 36.9272 409.385 41.7027 419.356 44.9561C464.883 59.8183 519.529 41.1692 546.473 1.57673L549.82 3.85288C521.9 44.8781 465.272 64.203 418.1 48.8048C407.882 45.4702 397.715 40.6368 387.884 35.9651C365.473 25.3139 344.31 15.2498 322.006 20.9666C303.649 25.6686 290.744 39.711 277.083 54.5767C266.173 66.4486 254.894 78.7228 240.487 85.9642C222.877 94.8131 202.482 95.2347 184.485 95.6101C166.85 95.9775 146.864 96.3904 130.155 104.64C115.057 112.095 101.06 129.71 104.861 147.67L100.9 148.507C96.6314 128.334 111.484 109.341 128.363 101.008C145.876 92.3579 166.344 91.9352 184.399 91.5612C201.97 91.197 221.878 90.7854 238.668 82.3447C252.412 75.4371 263.437 63.4393 274.099 51.8365C287.559 37.1893 301.478 22.0429 321 17.0436C324.338 16.1908 327.657 15.6709 330.957 15.4379Z" fill="#CAECFD"/>
<path d="M330.957 15.4379C351.13 14.0118 370.653 23.292 389.623 32.3082C399.339 36.9272 409.385 41.7027 419.356 44.9561C464.883 59.8183 519.529 41.1692 546.473 1.57673L549.82 3.85288C521.9 44.8781 465.272 64.203 418.1 48.8048C407.882 45.4702 397.715 40.6368 387.884 35.9651C365.473 25.3139 344.31 15.2498 322.006 20.9666C303.649 25.6686 290.744 39.711 277.083 54.5767C266.173 66.4486 254.894 78.7228 240.487 85.9642C222.877 94.8131 202.482 95.2347 184.485 95.6101C166.85 95.9775 146.864 96.3904 130.155 104.64C115.057 112.095 101.06 129.71 104.861 147.67L100.9 148.507C96.6314 128.334 111.484 109.341 128.363 101.008C145.876 92.3579 166.344 91.9352 184.399 91.5612C201.97 91.197 221.878 90.7854 238.668 82.3447C252.412 75.4371 263.437 63.4393 274.099 51.8365C287.559 37.1893 301.478 22.0429 321 17.0436C324.338 16.1908 327.657 15.6709 330.957 15.4379Z" fill="#99D6F4"/>
</svg>
