<svg width="315" height="167" viewBox="0 0 315 167" fill="none" xmlns="http://www.w3.org/2000/svg">
<path d="M53.7462 120.096C37.0563 121.276 20.3836 111.934 9.82111 101.998C0.784662 93.4962 -6.56443 83.2533 -13.6719 73.3479C-18.1516 67.1036 -22.7829 60.648 -27.79 54.6966C-62.1371 13.8585 -120.376 -6.57474 -172.707 3.85242L-172.97 2.52878C-146.897 -2.6667 -119.244 -0.549883 -93.0138 8.65307C-66.7852 17.8548 -43.8742 33.4754 -26.7582 53.8268C-21.7186 59.8179 -17.0707 66.2966 -12.5761 72.5602C-5.50621 82.4128 1.80398 92.6029 10.7448 101.015C23.5333 113.044 45.4358 124.211 65.1006 116.071C77.2092 111.059 85.5623 99.9037 93.6396 89.1153C102.472 77.3183 111.606 65.1199 125.669 61.0269C140.73 56.6402 155.769 63.1198 170.31 69.3869C183.483 75.066 197.109 80.9377 210.83 78.8618C231.298 75.7697 245.017 56.4053 256.269 38.4963L302.402 -34.9236L303.544 -34.206L257.411 39.2139C246 57.3763 232.064 77.0185 211.033 80.1951C196.901 82.3203 183.121 76.3782 169.776 70.626C154.796 64.1694 140.645 58.0722 126.046 62.3208C112.417 66.2897 103.821 77.7696 94.7196 89.9238C86.5334 100.857 78.0666 112.164 65.6176 117.318C61.7146 118.934 57.7286 119.814 53.7462 120.096Z" fill="#DFE2E7"/>
<path d="M53.7462 120.096C37.0563 121.276 20.3836 111.934 9.82111 101.998C0.784662 93.4962 -6.56443 83.2533 -13.6719 73.3479C-18.1516 67.1036 -22.7829 60.648 -27.79 54.6966C-62.1371 13.8585 -120.376 -6.57474 -172.707 3.85242L-172.97 2.52878C-146.897 -2.6667 -119.244 -0.549883 -93.0138 8.65307C-66.7852 17.8548 -43.8742 33.4754 -26.7582 53.8268C-21.7186 59.8179 -17.0707 66.2966 -12.5761 72.5602C-5.50621 82.4128 1.80398 92.6029 10.7448 101.015C23.5333 113.044 45.4358 124.211 65.1006 116.071C77.2092 111.059 85.5623 99.9037 93.6396 89.1153C102.472 77.3183 111.606 65.1199 125.669 61.0269C140.73 56.6402 155.769 63.1198 170.31 69.3869C183.483 75.066 197.109 80.9377 210.83 78.8618C231.298 75.7697 245.017 56.4053 256.269 38.4963L302.402 -34.9236L303.544 -34.206L257.411 39.2139C246 57.3763 232.064 77.0185 211.033 80.1951C196.901 82.3203 183.121 76.3782 169.776 70.626C154.796 64.1694 140.645 58.0722 126.046 62.3208C112.417 66.2897 103.821 77.7696 94.7196 89.9238C86.5334 100.857 78.0666 112.164 65.6176 117.318C61.7146 118.934 57.7286 119.814 53.7462 120.096Z" fill="#D6DADF"/>
<path d="M53.7462 120.096C37.0563 121.276 20.3836 111.934 9.82111 101.998C0.784662 93.4962 -6.56443 83.2533 -13.6719 73.3479C-18.1516 67.1036 -22.7829 60.648 -27.79 54.6966C-62.1371 13.8585 -120.376 -6.57474 -172.707 3.85242L-172.97 2.52878C-146.897 -2.6667 -119.244 -0.549883 -93.0138 8.65307C-66.7852 17.8548 -43.8742 33.4754 -26.7582 53.8268C-21.7186 59.8179 -17.0707 66.2966 -12.5761 72.5602C-5.50621 82.4128 1.80398 92.6029 10.7448 101.015C23.5333 113.044 45.4358 124.211 65.1006 116.071C77.2092 111.059 85.5623 99.9037 93.6396 89.1153C102.472 77.3183 111.606 65.1199 125.669 61.0269C140.73 56.6402 155.769 63.1198 170.31 69.3869C183.483 75.066 197.109 80.9377 210.83 78.8618C231.298 75.7697 245.017 56.4053 256.269 38.4963L302.402 -34.9236L303.544 -34.206L257.411 39.2139C246 57.3763 232.064 77.0185 211.033 80.1951C196.901 82.3203 183.121 76.3782 169.776 70.626C154.796 64.1694 140.645 58.0722 126.046 62.3208C112.417 66.2897 103.821 77.7696 94.7196 89.9238C86.5334 100.857 78.0666 112.164 65.6176 117.318C61.7146 118.934 57.7286 119.814 53.7462 120.096Z" fill="#CDE5F0"/>
<path d="M-15.9841 151.037C-36.1569 152.463 -55.6801 143.183 -74.6502 134.166C-84.3663 129.547 -94.4128 124.772 -104.383 121.518C-149.91 106.656 -204.556 125.305 -231.501 164.898L-234.848 162.622C-206.928 121.597 -150.3 102.272 -103.127 117.67C-92.9091 121.004 -82.7422 125.838 -72.9114 130.51C-50.5001 141.161 -29.3372 151.225 -7.03339 145.508C11.3237 140.806 24.2287 126.764 37.8901 111.898C48.7998 100.026 60.079 87.7518 74.4859 80.5104C92.0954 71.6615 112.491 71.2399 130.488 70.8645C148.123 70.4972 168.109 70.0842 184.817 61.8346C199.915 54.3794 213.913 36.765 210.112 18.8043L214.072 17.9672C218.341 38.1408 203.488 57.1334 186.61 65.4667C169.097 74.1167 148.629 74.5394 130.573 74.9134C113.003 75.2776 93.0943 75.6892 76.3042 84.1299C62.5611 91.0375 51.5358 103.035 40.8735 114.638C27.4132 129.285 13.4942 144.432 -6.02705 149.431C-9.36559 150.284 -12.6844 150.804 -15.9841 151.037Z" fill="#CAECFD"/>
<path d="M-15.9841 151.037C-36.1569 152.463 -55.6801 143.183 -74.6502 134.166C-84.3663 129.547 -94.4128 124.772 -104.383 121.518C-149.91 106.656 -204.556 125.305 -231.501 164.898L-234.848 162.622C-206.928 121.597 -150.3 102.272 -103.127 117.67C-92.9091 121.004 -82.7422 125.838 -72.9114 130.51C-50.5001 141.161 -29.3372 151.225 -7.03339 145.508C11.3237 140.806 24.2287 126.764 37.8901 111.898C48.7998 100.026 60.079 87.7518 74.4859 80.5104C92.0954 71.6615 112.491 71.2399 130.488 70.8645C148.123 70.4972 168.109 70.0842 184.817 61.8346C199.915 54.3794 213.913 36.765 210.112 18.8043L214.072 17.9672C218.341 38.1408 203.488 57.1334 186.61 65.4667C169.097 74.1167 148.629 74.5394 130.573 74.9134C113.003 75.2776 93.0943 75.6892 76.3042 84.1299C62.5611 91.0375 51.5358 103.035 40.8735 114.638C27.4132 129.285 13.4942 144.432 -6.02705 149.431C-9.36559 150.284 -12.6844 150.804 -15.9841 151.037Z" fill="#99D6F4"/>
</svg>
