<svg width="461" height="194" viewBox="0 0 461 194" fill="none" xmlns="http://www.w3.org/2000/svg">
<path d="M48.6196 -78.1512C44.6092 -79.0973 40.4366 -79.5089 36.1328 -79.2581L36.21 -77.9101C58.297 -79.2019 76.9209 -62.4516 86.9962 -46.3492C94.3555 -34.5873 99.3339 -21.3153 104.15 -8.47824C106.656 -1.79664 109.247 5.11294 112.151 11.7483C122.774 36.0351 136.671 51.7674 153.456 58.5074C175.36 67.3035 199.277 60.2561 222.415 53.4476C245.54 46.6419 269.454 39.606 290.984 48.6635C304.652 54.4144 314.918 65.8581 324.847 76.9242C333.915 87.0311 343.29 97.4825 355.346 103.836C375.733 114.572 403.659 112.528 428.238 98.4925C450.454 85.8062 467.436 66.3424 483.858 47.5189L482.84 46.6313C466.492 65.3697 449.588 84.7476 427.57 97.3212C408.617 108.143 379.854 115.226 355.975 102.641C344.132 96.4012 334.84 86.0416 325.85 76.0236C315.824 64.8472 305.455 53.2877 291.508 47.4197C269.537 38.171 245.389 45.2804 222.034 52.1527C199.116 58.8964 175.415 65.8702 153.959 57.256C137.514 50.6516 123.863 35.159 113.386 11.2075C110.499 4.60396 107.913 -2.28774 105.413 -8.95272C100.574 -21.8521 95.5705 -35.1882 88.1399 -47.0653C79.813 -60.3743 65.7212 -74.1168 48.6196 -78.1512Z" fill="#E4E4EC"/>
<path d="M48.6196 -78.1512C44.6092 -79.0973 40.4366 -79.5089 36.1328 -79.2581L36.21 -77.9101C58.297 -79.2019 76.9209 -62.4516 86.9962 -46.3492C94.3555 -34.5873 99.3339 -21.3153 104.15 -8.47824C106.656 -1.79664 109.247 5.11294 112.151 11.7483C122.774 36.0351 136.671 51.7674 153.456 58.5074C175.36 67.3035 199.277 60.2561 222.415 53.4476C245.54 46.6419 269.454 39.606 290.984 48.6635C304.652 54.4144 314.918 65.8581 324.847 76.9242C333.915 87.0311 343.29 97.4825 355.346 103.836C375.733 114.572 403.659 112.528 428.238 98.4925C450.454 85.8062 467.436 66.3424 483.858 47.5189L482.84 46.6313C466.492 65.3697 449.588 84.7476 427.57 97.3212C408.617 108.143 379.854 115.226 355.975 102.641C344.132 96.4012 334.84 86.0416 325.85 76.0236C315.824 64.8472 305.455 53.2877 291.508 47.4197C269.537 38.171 245.389 45.2804 222.034 52.1527C199.116 58.8964 175.415 65.8702 153.959 57.256C137.514 50.6516 123.863 35.159 113.386 11.2075C110.499 4.60396 107.913 -2.28774 105.413 -8.95272C100.574 -21.8521 95.5705 -35.1882 88.1399 -47.0653C79.813 -60.3743 65.7212 -74.1168 48.6196 -78.1512Z" fill="#DFE2E7"/>
<path d="M48.6196 -78.1512C44.6092 -79.0973 40.4366 -79.5089 36.1328 -79.2581L36.21 -77.9101C58.297 -79.2019 76.9209 -62.4516 86.9962 -46.3492C94.3555 -34.5873 99.3339 -21.3153 104.15 -8.47824C106.656 -1.79664 109.247 5.11294 112.151 11.7483C122.774 36.0351 136.671 51.7674 153.456 58.5074C175.36 67.3035 199.277 60.2561 222.415 53.4476C245.54 46.6419 269.454 39.606 290.984 48.6635C304.652 54.4144 314.918 65.8581 324.847 76.9242C333.915 87.0311 343.29 97.4825 355.346 103.836C375.733 114.572 403.659 112.528 428.238 98.4925C450.454 85.8062 467.436 66.3424 483.858 47.5189L482.84 46.6313C466.492 65.3697 449.588 84.7476 427.57 97.3212C408.617 108.143 379.854 115.226 355.975 102.641C344.132 96.4012 334.84 86.0416 325.85 76.0236C315.824 64.8472 305.455 53.2877 291.508 47.4197C269.537 38.171 245.389 45.2804 222.034 52.1527C199.116 58.8964 175.415 65.8702 153.959 57.256C137.514 50.6516 123.863 35.159 113.386 11.2075C110.499 4.60396 107.913 -2.28774 105.413 -8.95272C100.574 -21.8521 95.5705 -35.1882 88.1399 -47.0653C79.813 -60.3743 65.7212 -74.1168 48.6196 -78.1512Z" fill="#D6DADF"/>
<path d="M48.6196 -78.1512C44.6092 -79.0973 40.4366 -79.5089 36.1328 -79.2581L36.21 -77.9101C58.297 -79.2019 76.9209 -62.4516 86.9962 -46.3492C94.3555 -34.5873 99.3339 -21.3153 104.15 -8.47824C106.656 -1.79664 109.247 5.11294 112.151 11.7483C122.774 36.0351 136.671 51.7674 153.456 58.5074C175.36 67.3035 199.277 60.2561 222.415 53.4476C245.54 46.6419 269.454 39.606 290.984 48.6635C304.652 54.4144 314.918 65.8581 324.847 76.9242C333.915 87.0311 343.29 97.4825 355.346 103.836C375.733 114.572 403.659 112.528 428.238 98.4925C450.454 85.8062 467.436 66.3424 483.858 47.5189L482.84 46.6313C466.492 65.3697 449.588 84.7476 427.57 97.3212C408.617 108.143 379.854 115.226 355.975 102.641C344.132 96.4012 334.84 86.0416 325.85 76.0236C315.824 64.8472 305.455 53.2877 291.508 47.4197C269.537 38.171 245.389 45.2804 222.034 52.1527C199.116 58.8964 175.415 65.8702 153.959 57.256C137.514 50.6516 123.863 35.159 113.386 11.2075C110.499 4.60396 107.913 -2.28774 105.413 -8.95272C100.574 -21.8521 95.5705 -35.1882 88.1399 -47.0653C79.813 -60.3743 65.7212 -74.1168 48.6196 -78.1512Z" fill="#CDE5F0"/>
<path d="M180.644 -25.2049L176.648 -25.8687C173.414 -6.36105 178.982 14.7851 191.922 32.1457C204.862 49.5062 223.545 60.8817 243.154 63.3568C253.6 64.6742 264.531 63.911 275.102 63.1722C293.768 61.868 311.403 60.6354 326.097 70.052C340.695 79.4086 347.518 96.7115 354.117 113.444C355.449 116.824 356.828 120.321 358.244 123.675C367.016 144.464 384.336 165.883 406.649 163.671C419.706 162.374 429.808 153.437 439.578 144.794C449.259 136.228 458.405 128.138 470.111 126.909C478.844 125.992 487.155 129.152 495.95 132.498C500.152 134.097 504.496 135.748 508.89 136.914C518.427 139.463 529.583 137.995 536.639 133.297C541.236 130.237 544.033 125.94 544.728 120.871L540.718 120.32C540.176 124.262 538.05 127.494 534.395 129.928C528.249 134.019 518.422 135.263 509.931 133.002C505.74 131.889 501.496 130.275 497.392 128.713C488.539 125.346 479.384 121.865 469.69 122.882C456.695 124.247 446.631 133.151 436.896 141.761C427.181 150.356 418.005 158.474 406.25 159.64C386.127 161.638 370.187 141.558 361.976 122.1C360.579 118.79 359.21 115.317 357.885 111.958C351.051 94.6259 343.986 76.7043 328.284 66.6409C312.459 56.4998 293.325 57.8378 274.821 59.1316C264.445 59.8567 253.714 60.6062 243.661 59.3385C225.144 56.9975 207.454 46.2072 195.17 29.7251C182.882 13.2437 177.586 -6.77865 180.644 -25.2049Z" fill="#99D6F4"/>
</svg>
