<svg width="104" height="46" viewBox="0 0 104 46" fill="none" xmlns="http://www.w3.org/2000/svg">
<g id="Group 52">
<g id="Group 13">
<path id="Path 16" d="M12.0161 45.8367C10.2368 45.8169 8.47433 45.4906 6.80593 44.8721C5.58759 44.4218 4.4853 43.7048 3.57965 42.7737C2.64602 41.8699 1.92803 40.7673 1.479 39.5479C0.861054 37.8796 0.535192 36.1172 0.515718 34.3382C0.379072 31.3807 0.351562 30.4936 0.351562 22.9998C0.351562 15.5059 0.381778 14.622 0.514365 11.6622C0.536202 9.88394 0.862465 8.12251 1.479 6.45437C1.93022 5.23583 2.64719 4.1331 3.57784 3.22628C4.48238 2.2935 5.58519 1.57617 6.80458 1.12744C8.47297 0.508979 10.2355 0.182658 12.0147 0.162802C14.9731 0.0275095 15.8615 0 23.3513 0C30.8411 0 31.7291 0.0302154 34.6889 0.162802C36.4676 0.184485 38.2295 0.510751 39.8981 1.12744C41.1169 1.57676 42.2195 2.29384 43.1244 3.22583C44.0567 4.13105 44.774 5.23384 45.2237 6.45302C45.8423 8.12139 46.1688 9.88389 46.1888 11.6631C46.324 14.6229 46.3516 15.5091 46.3516 23.0007C46.3516 30.4923 46.324 31.3785 46.1888 34.3382C46.1673 36.1172 45.8409 37.8793 45.2237 39.5479C44.7568 40.7579 44.0418 41.8568 43.1245 42.7738C42.2073 43.6908 41.1083 44.4056 39.8981 44.8721C38.2297 45.4907 36.4672 45.8172 34.688 45.8372C31.7309 45.9725 30.842 46 23.3504 46C15.8588 46 14.9727 45.9738 12.0156 45.8372" fill="url(#paint0_radial_245_5892)"/>
<path id="Path 17" d="M12.0161 45.8368C10.2368 45.8169 8.47433 45.4906 6.80593 44.8721C5.58759 44.4218 4.4853 43.7048 3.57965 42.7737C2.64602 41.8699 1.92803 40.7673 1.479 39.5479C0.861054 37.8796 0.535192 36.1172 0.515718 34.3382C0.379072 31.3807 0.351562 30.4936 0.351562 22.9998C0.351562 15.5059 0.381778 14.622 0.514365 11.6622C0.536202 9.88394 0.862465 8.12251 1.479 6.45437C1.93022 5.23583 2.64719 4.1331 3.57784 3.22628C4.48238 2.2935 5.58519 1.57617 6.80458 1.12744C8.47298 0.508979 10.2355 0.182658 12.0147 0.162802C14.9731 0.0275095 15.8615 0 23.3513 0C30.8411 0 31.7291 0.0302154 34.6889 0.162802C36.4676 0.184485 38.2295 0.510751 39.8981 1.12744C41.117 1.57676 42.2195 2.29384 43.1244 3.22583C44.0567 4.13105 44.774 5.23384 45.2237 6.45302C45.8423 8.12139 46.1688 9.88389 46.1888 11.6631C46.3241 14.6229 46.3516 15.5091 46.3516 23.0007C46.3516 30.4923 46.3241 31.3785 46.1888 34.3382C46.1673 36.1172 45.8409 37.8793 45.2237 39.5479C44.7568 40.7579 44.0418 41.8568 43.1245 42.7738C42.2073 43.6908 41.1083 44.4056 39.8981 44.8721C38.2297 45.4907 36.4672 45.8172 34.688 45.8372C31.7309 45.9725 30.842 46 23.3504 46C15.8588 46 14.9731 45.9734 12.0161 45.8368Z" fill="url(#paint1_radial_245_5892)"/>
<path id="Path 18" d="M17.706 23.0972C17.7061 21.9706 18.0402 20.8693 18.6662 19.9326C19.2923 18.9958 20.182 18.2658 21.2229 17.8348C22.2638 17.4037 23.4092 17.291 24.5141 17.511C25.6191 17.7309 26.634 18.2735 27.4306 19.0703C28.2271 19.867 28.7695 20.8821 28.9892 21.9871C29.2089 23.0921 29.0959 24.2374 28.6646 25.2783C28.2333 26.3191 27.5031 27.2086 26.5662 27.8344C25.6294 28.4602 24.528 28.7941 23.4013 28.7939C21.8907 28.7937 20.442 28.1934 19.3739 27.125C18.3058 26.0567 17.7058 24.6079 17.706 23.0972ZM14.6262 23.0972C14.6262 24.8328 15.1409 26.5293 16.1051 27.9724C17.0693 29.4154 18.4398 30.5402 20.0433 31.2043C21.6467 31.8685 23.4111 32.0423 25.1133 31.7037C26.8155 31.3651 28.379 30.5293 29.6063 29.3021C30.8335 28.0749 31.6692 26.5113 32.0078 24.8091C32.3464 23.1069 32.1726 21.3426 31.5085 19.7391C30.8443 18.1357 29.7196 16.7652 28.2765 15.801C26.8335 14.8368 25.1369 14.3221 23.4013 14.3221C22.249 14.3221 21.1079 14.549 20.0432 14.99C18.9785 15.4309 18.0111 16.0773 17.1963 16.8921C16.3814 17.707 15.7351 18.6744 15.2941 19.7391C14.8531 20.8037 14.6262 21.9448 14.6262 23.0972ZM30.4731 13.9744C30.4729 14.38 30.593 14.7765 30.8182 15.1138C31.0434 15.4511 31.3635 15.7141 31.7381 15.8695C32.1127 16.0248 32.525 16.0656 32.9228 15.9867C33.3207 15.9077 33.6861 15.7126 33.973 15.4259C34.2599 15.1393 34.4554 14.774 34.5347 14.3763C34.614 13.9785 34.5736 13.5662 34.4185 13.1914C34.2635 12.8167 34.0008 12.4963 33.6637 12.2708C33.3266 12.0454 32.9301 11.9249 32.5246 11.9247C31.981 11.925 31.4597 12.141 31.0752 12.5253C30.6907 12.9096 30.4745 13.4308 30.474 13.9744H30.4731ZM16.4982 37.0076C15.4146 36.9956 14.3411 36.7973 13.3247 36.4213C12.5876 36.1372 11.9182 35.7019 11.3595 35.1434C10.8008 34.585 10.3653 33.9157 10.0809 33.1788C9.70463 32.1625 9.50632 31.0889 9.49459 30.0053C9.41161 28.2041 9.39537 27.6629 9.39537 23.0995C9.39537 18.536 9.41341 17.9962 9.49459 16.1932C9.50773 15.1097 9.70601 14.0364 10.0809 13.0197C10.3649 12.2824 10.8004 11.6128 11.3591 11.0541C11.9178 10.4953 12.5874 10.0599 13.3247 9.77582C14.341 9.39962 15.4146 9.2013 16.4982 9.18956C18.2994 9.10658 18.8406 9.09035 23.4022 9.09035C27.9639 9.09035 28.5055 9.10794 30.3085 9.19002C31.392 9.20316 32.4653 9.40144 33.482 9.77628C34.2193 10.0604 34.8889 10.4958 35.4476 11.0545C36.0063 11.6133 36.4418 12.2828 36.7259 13.0201C37.1021 14.0365 37.3004 15.11 37.3121 16.1937C37.3951 17.9976 37.4114 18.536 37.4114 23.0999C37.4114 27.6638 37.3947 28.2032 37.3121 30.0062C37.2995 31.0897 37.1012 32.1631 36.7259 33.1797C36.4415 33.9166 36.0059 34.5859 35.4472 35.1444C34.8885 35.7028 34.2191 36.1381 33.482 36.4222C32.4657 36.7984 31.3921 36.9967 30.3085 37.0085C28.5073 37.0914 27.9661 37.1077 23.4022 37.1077C18.8384 37.1077 18.299 37.091 16.4982 37.0085V37.0076ZM16.3566 6.11255C14.9387 6.14043 13.5358 6.40881 12.2077 6.90626C11.0723 7.34523 10.0413 8.0166 9.18054 8.87731C8.31982 9.73803 7.64845 10.7691 7.20948 11.9044C6.7121 13.2326 6.44372 14.6355 6.41578 16.0534C6.33144 17.8754 6.3125 18.458 6.3125 23.099C6.3125 27.74 6.33189 28.3222 6.41578 30.1446C6.44372 31.5625 6.71209 32.9655 7.20948 34.2936C7.64848 35.4289 8.31985 36.46 9.18056 37.3207C10.0413 38.1814 11.0723 38.8528 12.2077 39.2918C13.5358 39.789 14.9387 40.0574 16.3566 40.0855C18.1795 40.1685 18.7612 40.1888 23.4022 40.1888C28.0432 40.1888 28.6254 40.1694 30.4478 40.0855C31.8658 40.0575 33.2687 39.7891 34.5968 39.2918C35.7321 38.8528 36.7632 38.1814 37.6239 37.3207C38.4846 36.46 39.156 35.4289 39.595 34.2936C40.093 32.9656 40.3614 31.5626 40.3887 30.1446C40.4717 28.3213 40.4906 27.74 40.4906 23.099C40.4906 18.458 40.4712 17.8758 40.3887 16.0534C40.3608 14.6355 40.0924 13.2325 39.595 11.9044C39.156 10.7693 38.4848 9.7384 37.6244 8.87771C36.7639 8.01702 35.7332 7.34553 34.5982 6.90626C33.2702 6.40849 31.8672 6.1401 30.4492 6.11255C28.6268 6.02912 28.0446 6.00928 23.4045 6.00928C18.7644 6.00928 18.1808 6.02867 16.3575 6.11255" fill="white"/>
</g>
<g id="Group 15">
<rect id="Rectangle 9" x="57.8516" width="45.9996" height="45.9996" rx="5" fill="url(#paint2_radial_245_5892)"/>
<rect id="Rectangle 10" x="57.8516" width="45.9996" height="45.9996" rx="5" fill="url(#paint3_radial_245_5892)"/>
<path id="Vector" d="M96.1054 15.3853C96.1642 15.1924 96.1923 15.0135 96.1846 14.8538C96.1655 14.3912 95.8473 14.0552 95.0985 14.0552H91.7533C90.9087 14.0552 90.519 14.5663 90.2916 15.0787C90.2916 15.0787 88.2063 19.3707 85.8028 22.2009C85.0233 23.02 84.6272 22.9995 84.2056 22.9995C83.9794 22.9995 83.4082 22.7261 83.4082 21.976V15.3508C83.4082 14.4641 83.1872 14.0552 82.4729 14.0552H76.5326C76.0125 14.0552 75.7417 14.4641 75.7417 14.8742C75.7417 15.7265 76.8891 15.9309 77.0194 18.3191V22.9484C77.0194 24.0729 76.8239 24.2773 76.4023 24.2773C75.265 24.2773 73.0264 20.444 71.5276 15.4198C71.203 14.4308 70.8785 14.0552 70.0339 14.0552H66.6567C65.6818 14.0552 65.5195 14.5331 65.5195 15.0442C65.5195 15.9654 66.2862 20.9462 70.4709 26.6731C73.5056 30.8258 77.5037 33.2217 81.0431 33.2217C83.1872 33.2217 83.407 32.676 83.407 31.8238V28.0263C83.4082 27.0028 83.6421 26.8328 84.3244 26.8328C84.8112 26.8328 85.8041 27.1523 87.7207 29.3884C89.9312 31.9669 90.3325 33.2217 91.6 33.2217H94.9452C95.7221 33.2217 96.168 32.8958 96.1859 32.2633C96.1897 32.1023 96.1667 31.9222 96.1143 31.7216C95.8665 30.9856 94.7292 29.1865 93.3109 27.4717C92.5251 26.5223 91.7495 25.5819 91.393 25.0708C91.1541 24.7373 91.0633 24.5022 91.0748 24.2773C91.0863 24.0409 91.209 23.816 91.393 23.5017C91.3598 23.5017 95.6837 17.431 96.1054 15.3853Z" fill="white"/>
</g>
</g>
<defs>
<radialGradient id="paint0_radial_245_5892" cx="0" cy="0" r="1" gradientUnits="userSpaceOnUse" gradientTransform="translate(3.32845 44.9921) scale(58.4023 58.4023)">
<stop offset="0.09" stop-color="#FA8F21"/>
<stop offset="0.78" stop-color="#D82D7E"/>
</radialGradient>
<radialGradient id="paint1_radial_245_5892" cx="0" cy="0" r="1" gradientUnits="userSpaceOnUse" gradientTransform="translate(32.2139 43.5147) scale(51.3946)">
<stop offset="0.64" stop-color="#8C3AAA" stop-opacity="0"/>
<stop offset="1" stop-color="#8C3AAA"/>
</radialGradient>
<radialGradient id="paint2_radial_245_5892" cx="0" cy="0" r="1" gradientUnits="userSpaceOnUse" gradientTransform="translate(68.5848 34.4997) rotate(-37.8065) scale(56.2803)">
<stop offset="0.09" stop-color="#1999E1"/>
<stop offset="0.78" stop-color="#2D71D8"/>
</radialGradient>
<radialGradient id="paint3_radial_245_5892" cx="0" cy="0" r="1" gradientUnits="userSpaceOnUse" gradientTransform="translate(89.7136 43.5142) scale(51.3941)">
<stop offset="0.64" stop-color="#1999E1" stop-opacity="0"/>
<stop offset="1" stop-color="#1999E1"/>
</radialGradient>
</defs>
</svg>
