<svg width="47" height="47" viewBox="0 0 47 47" fill="none" xmlns="http://www.w3.org/2000/svg">
<g id="Group 15">
<rect id="Rectangle 9" x="0.851562" y="0.69043" width="45.9996" height="45.9996" rx="5" fill="url(#paint0_radial_1074_5310)"/>
<rect id="Rectangle 10" x="0.851562" y="0.69043" width="45.9996" height="45.9996" rx="5" fill="url(#paint1_radial_1074_5310)"/>
<path id="Vector" d="M39.1054 16.0758C39.1642 15.8828 39.1923 15.7039 39.1846 15.5442C39.1655 15.0817 38.8473 14.7456 38.0985 14.7456H34.7533C33.9087 14.7456 33.519 15.2567 33.2916 15.7691C33.2916 15.7691 31.2063 20.0611 28.8028 22.8914C28.0233 23.7104 27.6272 23.69 27.2056 23.69C26.9794 23.69 26.4082 23.4165 26.4082 22.6665V16.0413C26.4082 15.1545 26.1872 14.7456 25.4729 14.7456H19.5326C19.0125 14.7456 18.7417 15.1545 18.7417 15.5647C18.7417 16.4169 19.8891 16.6214 20.0194 19.0095V23.6389C20.0194 24.7633 19.8239 24.9677 19.4023 24.9677C18.265 24.9677 16.0264 21.1344 14.5276 16.1103C14.203 15.1213 13.8785 14.7456 13.0339 14.7456H9.65674C8.68181 14.7456 8.51953 15.2235 8.51953 15.7346C8.51953 16.6559 9.28619 21.6366 13.4709 27.3635C16.5056 31.5163 20.5037 33.9121 24.0431 33.9121C26.1872 33.9121 26.407 33.3665 26.407 32.5142V28.7167C26.4082 27.6932 26.6421 27.5233 27.3244 27.5233C27.8112 27.5233 28.8041 27.8427 30.7207 30.0788C32.9312 32.6573 33.3325 33.9121 34.6 33.9121H37.9452C38.7221 33.9121 39.168 33.5863 39.1859 32.9538C39.1897 32.7928 39.1667 32.6126 39.1143 32.412C38.8665 31.676 37.7292 29.8769 36.3109 28.1621C35.5251 27.2128 34.7495 26.2723 34.393 25.7612C34.1541 25.4277 34.0633 25.1926 34.0748 24.9677C34.0863 24.7313 34.209 24.5065 34.393 24.1921C34.3598 24.1921 38.6837 18.1215 39.1054 16.0758Z" fill="white"/>
</g>
<defs>
<radialGradient id="paint0_radial_1074_5310" cx="0" cy="0" r="1" gradientUnits="userSpaceOnUse" gradientTransform="translate(11.5848 35.1901) rotate(-37.8065) scale(56.2803)">
<stop offset="0.09" stop-color="#1999E1"/>
<stop offset="0.78" stop-color="#2D71D8"/>
</radialGradient>
<radialGradient id="paint1_radial_1074_5310" cx="0" cy="0" r="1" gradientUnits="userSpaceOnUse" gradientTransform="translate(32.7136 44.2047) scale(51.3941)">
<stop offset="0.64" stop-color="#1999E1" stop-opacity="0"/>
<stop offset="1" stop-color="#1999E1"/>
</radialGradient>
</defs>
</svg>
