<svg width="16" height="16" viewBox="0 0 16 16" fill="none" xmlns="http://www.w3.org/2000/svg">
<g clip-path="url(#clip0_222_529)">
<path d="M4.45988 9.16092L1.52237 5.79836L4.45988 2.4358C4.69725 2.16377 4.66956 1.75067 4.39753 1.51308C4.1255 1.2757 3.71263 1.30361 3.47481 1.57542L0.161531 5.36827C-0.0538438 5.61458 -0.0538438 5.98233 0.161531 6.22864L3.47484 10.0215C3.60431 10.1693 3.78547 10.2452 3.96769 10.2452C4.12028 10.2452 4.2735 10.192 4.39753 10.0836C4.66959 9.84605 4.69747 9.43295 4.45988 9.16092Z" fill="white"/>
<path d="M11.2478 5.14429H0.653938C0.29275 5.14429 0 5.43701 0 5.79822C0 6.15941 0.29275 6.45216 0.653938 6.45216H11.2478C13.1471 6.45216 14.6921 7.99719 14.6921 9.89626C14.6921 11.7953 13.1471 13.3403 11.2478 13.3403H1.52587C1.16469 13.3403 0.871938 13.6331 0.871938 13.9943C0.871938 14.3555 1.16469 14.6482 1.52587 14.6482H11.2478C13.8679 14.6482 16 12.5164 16 9.89626C16 7.27613 13.8682 5.14429 11.2478 5.14429Z" fill="white"/>
</g>
<defs>
<clipPath id="clip0_222_529">
<rect width="16" height="16" fill="white"/>
</clipPath>
</defs>
</svg>
