<svg width="88" height="36" viewBox="0 0 88 36" fill="none" xmlns="http://www.w3.org/2000/svg">
<mask id="mask0_288_227" style="mask-type:luminance" maskUnits="userSpaceOnUse" x="0" y="0" width="88" height="36">
<path d="M87.1915 0.5H0.808472V35.5H87.1915V0.5Z" fill="white"/>
</mask>
<g mask="url(#mask0_288_227)">
<path d="M86.7738 18.7032V19.575C86.7738 20.611 86.6323 21.5396 86.3501 22.3609C86.0678 23.1821 85.662 23.8802 85.1318 24.455C84.6023 25.0299 83.9656 25.4689 83.2217 25.7721C82.4852 26.0753 81.6593 26.2269 80.7441 26.2269C79.8557 26.2269 79.0403 26.0753 78.2971 25.7721C77.5606 25.4689 76.9202 25.0299 76.3766 24.455C75.8396 23.8802 75.4234 23.1821 75.1272 22.3609C74.8313 21.5396 74.6832 20.611 74.6832 19.575V18.7032C74.6832 17.6672 74.8278 16.7418 75.1169 15.9268C75.4129 15.1057 75.8292 14.4076 76.3661 13.8327C76.903 13.2515 77.5397 12.8094 78.2762 12.5061C79.0194 12.2029 79.8356 12.0513 80.7233 12.0513C81.6385 12.0513 82.4651 12.2029 83.2016 12.5061C83.9447 12.8094 84.5815 13.2515 85.1109 13.8327C85.6478 14.4076 86.0574 15.1057 86.3396 15.9268C86.6293 16.7418 86.7738 17.6672 86.7738 18.7032ZM84.8019 19.575V18.6843C84.8019 17.8631 84.7088 17.1365 84.5226 16.5048C84.3439 15.8731 84.0788 15.3425 83.728 14.9129C83.3766 14.4834 82.9469 14.158 82.4375 13.937C81.9349 13.7159 81.3637 13.6053 80.7233 13.6053C80.1037 13.6053 79.5429 13.7159 79.0403 13.937C78.5451 14.158 78.1176 14.4834 77.7602 14.9129C77.4087 15.3425 77.1369 15.8731 76.944 16.5048C76.7519 17.1365 76.6551 17.8631 76.6551 18.6843V19.575C76.6551 20.4026 76.7519 21.1353 76.944 21.7734C77.1369 22.4051 77.4124 22.9389 77.7706 23.3747C78.1355 23.8043 78.5652 24.1296 79.0611 24.3508C79.5638 24.5719 80.1245 24.6824 80.7441 24.6824C81.3912 24.6824 81.9654 24.5719 82.468 24.3508C82.9707 24.1296 83.3937 23.8043 83.7377 23.3747C84.0892 22.9389 84.3543 22.4051 84.533 21.7734C84.7118 21.1353 84.8019 20.4026 84.8019 19.575Z" fill="#FEFEFE"/>
<path d="M68.426 12.2404V26.037H66.4642V12.2404H68.426ZM73.258 12.2404V13.7375H61.6426V12.2404H73.258Z" fill="#FEFEFE"/>
<path d="M60.1973 24.5493V26.037H52.2368V24.5493H60.1973ZM52.6395 12.2404V26.037H50.6469V12.2404H52.6395ZM59.1441 18.1722V19.6598H52.2368V18.1722H59.1441ZM60.094 12.2404V13.7375H52.2368V12.2404H60.094Z" fill="#FEFEFE"/>
<path d="M35.7482 12.6658L35.1147 12.2201L38.3725 12.22L38.0917 12.6658H35.7482Z" fill="#FEFEFE"/>
<path d="M38.0912 12.6658H35.7479L40.4524 25.61H43.5851L48.44 12.6547L46.1527 12.6658L42.3669 23.9819C42.2731 24.2435 41.8514 24.2203 41.7811 23.9819L38.0912 12.6658Z" fill="white"/>
<path d="M45.8387 12.2202L46.1527 12.6658H48.4287L49.0567 12.2202H45.8387Z" fill="white"/>
<path fill-rule="evenodd" clip-rule="evenodd" d="M15.0512 1.16321L15.187 1.23048C19.7436 3.48679 23.5759 4.47118 28.7062 5.47342L28.959 5.5228L28.9519 5.7784C28.657 16.3887 27.4897 22.2775 25.2369 26.2685C23.1166 30.025 20.0474 32.0705 15.9824 34.7796C15.7213 34.9537 15.4561 35.1305 15.1867 35.3106L15.0253 35.4185L14.8588 35.3186C8.89087 31.7353 5.50618 28.4545 3.59741 23.983C1.69755 19.5324 1.27683 13.936 1.13864 5.77515L1.13428 5.51781L1.38953 5.47246C3.49182 5.09896 9.18182 4.06376 14.9153 1.23037L15.0512 1.16321ZM1.75224 6.0221C1.89528 14.0536 2.33063 19.4654 4.15837 23.7471C5.97935 28.0129 9.19902 31.1901 15.008 34.7011C15.2103 34.5659 15.41 34.4328 15.6069 34.3014C19.7068 31.5676 22.6585 29.5995 24.7054 25.973C26.8631 22.1505 28.0295 16.4524 28.3356 6.01709C23.3573 5.03673 19.5429 4.04511 15.0508 1.83852C9.50181 4.55412 4.02695 5.61384 1.75224 6.0221Z" fill="white"/>
<path d="M26.7726 7.55175C26.2644 25.8205 22.746 27.6199 15.0202 32.782C4.77586 26.6366 3.556 21.6221 3.3175 7.55175C5.13441 7.22924 10.0714 6.33252 15.05 3.87439C19.0091 5.83303 22.3395 6.68649 26.7726 7.55175Z" fill="white"/>
<path d="M8.32067 12.4528L6.33984 12.7236L13.8614 24.9734H16.2046L18.9549 19.661L15.033 12.4553L11.7691 17.399C11.7642 17.4064 11.7639 17.4158 11.7683 17.4234L12.762 19.1401L15.033 15.8158L17.0103 19.6504C17.0137 19.657 17.0137 19.6649 17.0103 19.6715L15.033 23.5253L8.32067 12.4528Z" fill="#FF2C46"/>
<path d="M21.9205 12.2573L22.9052 12.3695L23.6633 12.4423L19.7619 18.8805L18.8466 17.1998C18.8426 17.1925 18.8429 17.1836 18.8473 17.1765L21.9205 12.2573Z" fill="#FF2C46"/>
</g>
</svg>
