<svg width="68" height="11" viewBox="0 0 68 11" fill="none" xmlns="http://www.w3.org/2000/svg">
<path d="M6.36 0.199999H7.97V10H6.71L2.09 3.35V10H0.48V0.199999H1.74L6.36 6.85V0.199999ZM11.0193 7.144C11.1313 7.676 11.3879 8.08667 11.7893 8.376C12.1906 8.656 12.6806 8.796 13.2593 8.796C14.0619 8.796 14.6639 8.50667 15.0653 7.928L16.3113 8.656C15.6206 9.67333 14.5986 10.182 13.2453 10.182C12.1066 10.182 11.1873 9.83667 10.4873 9.146C9.78727 8.446 9.43727 7.564 9.43727 6.5C9.43727 5.45467 9.7826 4.582 10.4733 3.882C11.1639 3.17267 12.0506 2.818 13.1333 2.818C14.1599 2.818 14.9999 3.17733 15.6533 3.896C16.3159 4.61467 16.6473 5.48733 16.6473 6.514C16.6473 6.67267 16.6286 6.88267 16.5913 7.144H11.0193ZM11.0053 5.912H15.1213C15.0186 5.34267 14.7806 4.91333 14.4073 4.624C14.0433 4.33467 13.6139 4.19 13.1193 4.19C12.5593 4.19 12.0926 4.344 11.7193 4.652C11.3459 4.96 11.1079 5.38 11.0053 5.912ZM21.665 4.456H19.929V7.816C19.929 8.10533 19.9943 8.31533 20.125 8.446C20.2556 8.56733 20.447 8.63733 20.699 8.656C20.9603 8.66533 21.2823 8.66067 21.665 8.642V10C20.5076 10.14 19.677 10.042 19.173 9.706C18.669 9.36067 18.417 8.73067 18.417 7.816V4.456H17.129V3H18.417V1.488L19.929 1.04V3H21.665V4.456ZM28.7887 10L26.7167 6.43H24.8127V10H23.2027V0.199999H27.1227C28 0.199999 28.742 0.508 29.3487 1.124C29.9647 1.73067 30.2727 2.47267 30.2727 3.35C30.2727 3.97533 30.0907 4.54933 29.7267 5.072C29.372 5.58533 28.9053 5.95867 28.3267 6.192L30.5527 10H28.7887ZM24.8127 1.712V4.988H27.1227C27.552 4.988 27.916 4.82933 28.2147 4.512C28.5133 4.19467 28.6627 3.80733 28.6627 3.35C28.6627 2.89267 28.5133 2.50533 28.2147 2.188C27.916 1.87067 27.552 1.712 27.1227 1.712H24.8127ZM36.2719 3H37.7839V10H36.2719V9.104C35.8145 9.82267 35.0912 10.182 34.1019 10.182C33.2992 10.182 32.6505 9.92533 32.1559 9.412C31.6612 8.89867 31.4139 8.194 31.4139 7.298V3H32.9259V7.144C32.9259 7.66667 33.0659 8.068 33.3459 8.348C33.6259 8.628 34.0085 8.768 34.4939 8.768C35.0259 8.768 35.4552 8.60467 35.7819 8.278C36.1085 7.942 36.2719 7.43333 36.2719 6.752V3ZM43.2339 2.818C44.0366 2.818 44.6853 3.07467 45.1799 3.588C45.6746 4.10133 45.9219 4.806 45.9219 5.702V10H44.4099V5.856C44.4099 5.33333 44.2699 4.932 43.9899 4.652C43.7099 4.372 43.3273 4.232 42.8419 4.232C42.3099 4.232 41.8806 4.4 41.5539 4.736C41.2273 5.06267 41.0639 5.56667 41.0639 6.248V10H39.5519V3H41.0639V3.896C41.5213 3.17733 42.2446 2.818 43.2339 2.818ZM51.232 2.818C52.0346 2.818 52.6833 3.07467 53.178 3.588C53.6726 4.10133 53.92 4.806 53.92 5.702V10H52.408V5.856C52.408 5.33333 52.268 4.932 51.988 4.652C51.708 4.372 51.3253 4.232 50.84 4.232C50.308 4.232 49.8786 4.4 49.552 4.736C49.2253 5.06267 49.062 5.56667 49.062 6.248V10H47.55V3H49.062V3.896C49.5193 3.17733 50.2426 2.818 51.232 2.818ZM56.738 7.144C56.85 7.676 57.1067 8.08667 57.508 8.376C57.9093 8.656 58.3993 8.796 58.978 8.796C59.7807 8.796 60.3827 8.50667 60.784 7.928L62.03 8.656C61.3393 9.67333 60.3173 10.182 58.964 10.182C57.8253 10.182 56.906 9.83667 56.206 9.146C55.506 8.446 55.156 7.564 55.156 6.5C55.156 5.45467 55.5013 4.582 56.192 3.882C56.8827 3.17267 57.7693 2.818 58.852 2.818C59.8787 2.818 60.7187 3.17733 61.372 3.896C62.0347 4.61467 62.366 5.48733 62.366 6.514C62.366 6.67267 62.3473 6.88267 62.31 7.144H56.738ZM56.724 5.912H60.84C60.7373 5.34267 60.4993 4.91333 60.126 4.624C59.762 4.33467 59.3327 4.19 58.838 4.19C58.278 4.19 57.8113 4.344 57.438 4.652C57.0647 4.96 56.8267 5.38 56.724 5.912ZM65.2085 4.176C65.5911 3.308 66.3098 2.874 67.3645 2.874V4.512C66.7858 4.47467 66.2818 4.61467 65.8525 4.932C65.4231 5.24 65.2085 5.75333 65.2085 6.472V10H63.6965V3H65.2085V4.176Z" fill="white"/>
</svg>
