<svg width="31" height="38" viewBox="0 0 31 38" fill="none" xmlns="http://www.w3.org/2000/svg">
<path d="M8.78987 2.042C4.73923 2.83527 2.15696 3.475 1.87847 3.73089C1.44809 4.11473 1.42278 4.6521 1.49873 11.9706C1.62531 20.671 1.70126 21.2083 3.67594 25.1491C5.62531 29.0642 10.2076 33.7982 14.2076 35.9989L15.3215 36.6386L16.4354 36.1269C18.9924 34.9753 23.7519 30.6763 25.7266 27.7848C26.8405 26.1215 28.4354 22.6669 28.9418 20.7989C29.2962 19.5706 29.3975 17.7282 29.4734 11.7147C29.6 4.60093 29.5747 4.14032 29.119 3.75648C28.7646 3.42382 22.2582 2.01641 15.7519 0.83931C15.4734 0.788131 12.3342 1.32551 8.78987 2.042ZM21.0177 4.85682L26.5114 5.93157V12.3289V18.7518L25.6759 21.2083C25.1696 22.6413 24.3089 24.4326 23.6 25.5585C22.1063 27.8359 19.0683 30.9834 17.043 32.3141L15.6 33.312L14.7646 32.8514C13.3975 32.1093 10.2835 29.3201 8.71392 27.4521C7.90379 26.4541 6.78987 24.7396 6.25822 23.6137C4.63797 20.2104 4.48607 19.3147 4.48607 12.2009V5.90598L9.49873 4.85682C12.2329 4.29386 14.7139 3.80766 14.9924 3.80766C15.2709 3.78207 17.9797 4.24268 21.0177 4.85682Z" fill="white"/>
<path d="M11.0177 6.85284C9.09368 7.23668 7.34684 7.62052 7.11899 7.72287C6.76456 7.85082 6.73925 8.51614 6.84051 13.4549C6.91646 18.2656 7.01773 19.238 7.49874 20.6966C8.25823 23.0764 10.1063 25.8145 12.5114 28.1431C15.1696 30.6764 15.3722 30.7788 16.2835 30.0879C17.3722 29.269 19.3975 27.2986 19.9798 26.4798L20.4608 25.7889L17.8025 23.2044L15.119 20.6198V16.5256C15.119 13.1734 15.043 12.3033 14.6886 11.7148C14.3089 11.0239 14.3089 10.9471 14.7139 10.3074C15.2456 9.48853 15.676 9.30941 16.5114 9.51412C17.4481 9.77001 17.8532 10.7936 17.3468 11.6636C16.9924 12.2522 16.9671 12.9687 17.0684 16.1417L17.2203 19.9289L19.3468 21.8993C20.5114 22.9741 21.6 23.8697 21.7772 23.8697C22.2329 23.8697 23.4481 21.1316 23.8785 19.1357C24.1317 17.8306 24.2329 16.0138 24.1823 12.5336L24.1063 7.74846L20.1823 6.92961C18.0304 6.49459 15.8532 6.11075 15.3722 6.13634C14.8911 6.13634 12.9165 6.469 11.0177 6.85284ZM11.4987 12.8663C11.9798 13.2246 12.0051 13.4037 11.8785 16.065C11.7519 18.8798 11.7519 18.8798 12.4354 19.5195C12.9671 20.0057 13.0937 20.3128 12.9418 20.7478C12.6633 21.669 12.3089 21.9505 11.4481 21.9505C10.1317 21.9505 9.95444 21.4643 9.77722 17.8818C9.70127 16.1161 9.54937 14.4017 9.44811 14.0946C9.29621 13.7108 9.39747 13.4037 9.77722 13.0198C10.4101 12.3801 10.7646 12.3545 11.4987 12.8663Z" fill="white"/>
</svg>
