<svg width="14" height="14" viewBox="0 0 14 14" fill="none" xmlns="http://www.w3.org/2000/svg">
<g clip-path="url(#clip0_1125_628)">
<path fill-rule="evenodd" clip-rule="evenodd" d="M7 0C10.866 0 14 3.134 14 7C14 10.866 10.866 14 7 14C3.134 14 0 10.866 0 7C0 3.134 3.134 0 7 0ZM11.1098 10.2385C11.2098 10.1379 11.2659 10.0019 11.2659 9.86007C11.2659 9.71826 11.2098 9.5822 11.1098 9.48166L9.73954 8.11174C9.63896 8.01167 9.50285 7.9555 9.36097 7.9555C9.21909 7.9555 9.08298 8.01167 8.9824 8.11174L8.61005 8.48425C8.48641 8.60894 8.3258 8.69035 8.15215 8.71636C7.97849 8.74237 7.80107 8.71159 7.64632 8.62859C6.67736 8.11537 5.88486 7.32297 5.37152 6.35406C5.2885 6.19928 5.25768 6.02183 5.28365 5.84813C5.30961 5.67442 5.39097 5.51374 5.51562 5.39L5.88867 5.01758C5.98869 4.917 6.04483 4.78092 6.04483 4.63907C6.04483 4.49723 5.98869 4.36115 5.88867 4.26057L4.51845 2.89078C4.41787 2.7907 4.28175 2.73451 4.13986 2.73451C3.99797 2.73451 3.86185 2.7907 3.76127 2.89078C3.70464 2.94725 3.633 3.01547 3.55638 3.08766C3.36479 3.26875 3.12575 3.49415 3.02911 3.63584C2.52016 4.38066 2.76423 5.37712 3.05744 6.08199C3.44477 7.01105 4.1586 8.0234 5.06819 8.93236C5.97696 9.84121 6.98898 10.5551 7.91856 10.9424C8.62326 11.2361 9.61934 11.4795 10.3641 10.9707C10.5057 10.874 10.7315 10.6355 10.9122 10.4437C10.9847 10.3672 11.053 10.2949 11.1098 10.2385Z" fill="white" fill-opacity="0.5"/>
</g>
<defs>
<clipPath id="clip0_1125_628">
<rect width="14" height="14" fill="white"/>
</clipPath>
</defs>
</svg>
