<svg width="106" height="48" viewBox="0 0 106 48" fill="none" xmlns="http://www.w3.org/2000/svg">
<g clip-path="url(#clip0_75_272)">
<path fill-rule="evenodd" clip-rule="evenodd" d="M14.3217 32C22.1986 32 28.6434 25.5672 28.6434 17.641C28.6434 9.71486 22.1986 3.28204 14.3217 3.28204C6.41611 3.28204 0 9.71486 0 17.641C0 25.5672 6.41611 32 14.3217 32Z" fill="#2B3131"/>
<path fill-rule="evenodd" clip-rule="evenodd" d="M14.3217 7.76923C19.2448 7.76923 22.5865 11.5684 22.5865 15.6667C22.5865 17.312 22.2284 18.7479 21.393 20.5427C16.4998 20.5427 15.6047 23.8034 15.3958 25.9872L15.2466 27.5128H13.3967L13.2476 25.9872C13.0387 23.8034 12.1436 20.5427 7.25036 20.5427C6.41493 18.7479 6.05688 17.312 6.05688 15.6667C6.05688 11.5684 9.39861 7.76923 14.3217 7.76923Z" fill="white"/>
<path fill-rule="evenodd" clip-rule="evenodd" d="M41.5329 7.76923C36.8783 7.76923 33.3874 10.6111 33.4172 15.547H37.7436C37.6839 13.5726 38.9371 11.6581 41.5329 11.6581C43.5021 11.6581 44.7552 12.9744 44.7552 14.6496C44.7552 16.3846 43.3827 17.3419 41.1748 18.4188C38.2806 19.8248 36.5501 20.4829 33.4172 21.5299V27.2137H48.9324V23.3248H39.2653C40.7607 22.7002 42.2167 22.0133 43.5319 21.3803C47.0228 19.7051 49.0816 17.8205 49.0816 14.4402C49.0816 10.3718 46.0382 7.76923 41.5329 7.76923ZM55.7949 11.9573H64.7459V8.06837H51.6177V27.2137H55.7949V11.9573ZM71.0117 8.06837H66.8345V27.2137H70.9818L78.7692 14.9786V27.2137H82.9464V8.06837H78.7692L71.0117 20.3034V8.06837ZM103.922 20.0342H99.5953C98.9389 22.1581 96.9399 23.6239 94.5827 23.6239C91.1515 23.6239 88.9137 20.6624 88.9137 17.641C88.9137 14.6197 91.0918 11.6581 94.7021 11.6581C97.089 11.6581 98.9389 13.1239 99.5953 15.2479H103.922C103.295 10.9701 99.9235 7.76923 94.5827 7.76923C88.6751 7.76923 84.7366 11.9273 84.7366 17.641C84.7366 23.3547 88.6751 27.5128 94.5827 27.5128C99.9235 27.5128 103.295 24.3718 103.922 20.0342Z" fill="#2B3131"/>
</g>
<path d="M2.79882 39.036C4.20815 39.092 5.23948 39.4 5.89282 39.96C6.55548 40.52 6.88682 41.2807 6.88682 42.242C6.88682 42.6713 6.81215 43.068 6.66282 43.432C6.52282 43.796 6.30348 44.1087 6.00482 44.37C5.71548 44.6313 5.34682 44.8367 4.89882 44.986C4.45082 45.1353 3.91882 45.21 3.30282 45.21C3.06015 45.21 2.81282 45.1913 2.56082 45.154C2.30882 45.1167 2.07548 45.07 1.86082 45.014C1.64615 44.958 1.45482 44.902 1.28682 44.846C1.11882 44.79 0.997484 44.7433 0.922817 44.706L1.17482 43.572C1.33348 43.6467 1.59015 43.7447 1.94482 43.866C2.30882 43.9873 2.75215 44.048 3.27482 44.048C3.69482 44.048 4.04482 44.0013 4.32482 43.908C4.61415 43.8147 4.84748 43.6887 5.02482 43.53C5.20215 43.3713 5.32815 43.1893 5.40282 42.984C5.48682 42.7693 5.52882 42.5453 5.52882 42.312C5.52882 41.9573 5.46815 41.6447 5.34682 41.374C5.22548 41.094 5.01082 40.8607 4.70282 40.674C4.39482 40.4873 3.98415 40.3473 3.47082 40.254C2.95748 40.1513 2.30882 40.1 1.52482 40.1C1.58082 39.6427 1.62282 39.2133 1.65082 38.812C1.68815 38.4107 1.72082 38.0187 1.74882 37.636C1.77682 37.2533 1.80015 36.8753 1.81882 36.502C1.83748 36.1193 1.85615 35.718 1.87482 35.298H6.55082V36.404H3.00882C2.99948 36.544 2.98548 36.7353 2.96682 36.978C2.94815 37.2113 2.92948 37.4587 2.91082 37.72C2.89215 37.972 2.87348 38.2193 2.85482 38.462C2.83615 38.7047 2.81748 38.896 2.79882 39.036ZM10.5752 44.244C10.5752 44.496 10.4912 44.7153 10.3232 44.902C10.1552 45.0887 9.92649 45.182 9.63716 45.182C9.34783 45.182 9.11916 45.0887 8.95116 44.902C8.78316 44.7153 8.69916 44.496 8.69916 44.244C8.69916 43.992 8.78316 43.7727 8.95116 43.586C9.11916 43.3993 9.34783 43.306 9.63716 43.306C9.92649 43.306 10.1552 43.3993 10.3232 43.586C10.4912 43.7727 10.5752 43.992 10.5752 44.244ZM12.0605 40.142C12.0605 38.518 12.3451 37.2673 12.9145 36.39C13.4931 35.5127 14.2911 35.074 15.3085 35.074C16.3258 35.074 17.1191 35.5127 17.6885 36.39C18.2671 37.2673 18.5565 38.518 18.5565 40.142C18.5565 41.766 18.2671 43.0167 17.6885 43.894C17.1191 44.7713 16.3258 45.21 15.3085 45.21C14.2911 45.21 13.4931 44.7713 12.9145 43.894C12.3451 43.0167 12.0605 41.766 12.0605 40.142ZM17.1845 40.142C17.1845 39.61 17.1518 39.106 17.0865 38.63C17.0305 38.154 16.9278 37.7387 16.7785 37.384C16.6385 37.0293 16.4471 36.7493 16.2045 36.544C15.9618 36.3293 15.6631 36.222 15.3085 36.222C14.9538 36.222 14.6551 36.3293 14.4125 36.544C14.1698 36.7493 13.9738 37.0293 13.8245 37.384C13.6845 37.7387 13.5818 38.154 13.5165 38.63C13.4605 39.106 13.4325 39.61 13.4325 40.142C13.4325 40.674 13.4605 41.178 13.5165 41.654C13.5818 42.13 13.6845 42.5453 13.8245 42.9C13.9738 43.2547 14.1698 43.5393 14.4125 43.754C14.6551 43.9593 14.9538 44.062 15.3085 44.062C15.6631 44.062 15.9618 43.9593 16.2045 43.754C16.4471 43.5393 16.6385 43.2547 16.7785 42.9C16.9278 42.5453 17.0305 42.13 17.0865 41.654C17.1518 41.178 17.1845 40.674 17.1845 40.142Z" fill="#2B3131"/>
<path d="M26.0128 34L27.3599 38.1459H31.7192L28.1924 40.7082L29.5395 44.8541L26.0128 42.2918L22.4861 44.8541L23.8332 40.7082L20.3065 38.1459H24.6657L26.0128 34Z" fill="#FBBC05"/>
<path d="M38.0128 34L39.3599 38.1459H43.7192L40.1924 40.7082L41.5395 44.8541L38.0128 42.2918L34.4861 44.8541L35.8332 40.7082L32.3065 38.1459H36.6657L38.0128 34Z" fill="#FBBC05"/>
<path d="M50.0128 34L51.3599 38.1459H55.7192L52.1924 40.7082L53.5395 44.8541L50.0128 42.2918L46.4861 44.8541L47.8332 40.7082L44.3065 38.1459H48.6657L50.0128 34Z" fill="#FBBC05"/>
<path d="M62.0128 34L63.3599 38.1459H67.7192L64.1924 40.7082L65.5395 44.8541L62.0128 42.2918L58.4861 44.8541L59.8332 40.7082L56.3065 38.1459H60.6657L62.0128 34Z" fill="#FBBC05"/>
<path d="M74.0128 34L75.3599 38.1459H79.7192L76.1924 40.7082L77.5395 44.8541L74.0128 42.2918L70.4861 44.8541L71.8332 40.7082L68.3065 38.1459H72.6657L74.0128 34Z" fill="#FBBC05"/>
<path d="M82.4068 40.814C82.4068 42.0087 82.5795 43.1147 82.9248 44.132C83.2702 45.1493 83.7788 46.092 84.4508 46.96L83.5268 47.59C82.7988 46.7033 82.2108 45.686 81.7628 44.538C81.3242 43.3807 81.1048 42.1393 81.1048 40.814C81.1048 39.4887 81.3242 38.252 81.7628 37.104C82.2108 35.9467 82.7988 34.9247 83.5268 34.038L84.4508 34.668C83.7788 35.536 83.2702 36.4787 82.9248 37.496C82.5795 38.5133 82.4068 39.6193 82.4068 40.814ZM87.7159 44.048C88.5465 44.048 89.1392 43.8847 89.4939 43.558C89.8579 43.2313 90.0399 42.7927 90.0399 42.242C90.0399 41.8873 89.9652 41.5887 89.8159 41.346C89.6665 41.1033 89.4705 40.912 89.2279 40.772C88.9852 40.6227 88.7005 40.52 88.3739 40.464C88.0565 40.3987 87.7299 40.366 87.3939 40.366H87.0579V39.302H87.5199C87.7532 39.302 87.9912 39.2787 88.2339 39.232C88.4859 39.1853 88.7145 39.1013 88.9199 38.98C89.1252 38.8587 89.2932 38.6953 89.4239 38.49C89.5545 38.2753 89.6199 38.0093 89.6199 37.692C89.6199 37.4307 89.5732 37.2067 89.4799 37.02C89.3865 36.8333 89.2605 36.6793 89.1019 36.558C88.9525 36.4367 88.7752 36.3527 88.5699 36.306C88.3739 36.25 88.1639 36.222 87.9399 36.222C87.4919 36.222 87.1092 36.2873 86.7919 36.418C86.4839 36.5487 86.2225 36.684 86.0079 36.824L85.5039 35.83C85.6159 35.7553 85.7559 35.676 85.9239 35.592C86.1012 35.4987 86.2972 35.4147 86.5119 35.34C86.7265 35.2653 86.9552 35.2047 87.1979 35.158C87.4499 35.102 87.7112 35.074 87.9819 35.074C88.4952 35.074 88.9385 35.1393 89.3119 35.27C89.6852 35.3913 89.9932 35.5687 90.2359 35.802C90.4785 36.026 90.6605 36.2967 90.7819 36.614C90.9032 36.922 90.9639 37.258 90.9639 37.622C90.9639 38.126 90.8192 38.56 90.5299 38.924C90.2405 39.2787 89.8905 39.5493 89.4799 39.736C89.7319 39.8107 89.9745 39.918 90.2079 40.058C90.4412 40.198 90.6419 40.3753 90.8099 40.59C90.9872 40.8047 91.1272 41.052 91.2299 41.332C91.3419 41.612 91.3979 41.9247 91.3979 42.27C91.3979 42.69 91.3232 43.082 91.1739 43.446C91.0339 43.8007 90.8099 44.1087 90.5019 44.37C90.2032 44.6313 89.8252 44.8367 89.3679 44.986C88.9105 45.1353 88.3692 45.21 87.7439 45.21C87.5012 45.21 87.2492 45.1913 86.9879 45.154C86.7359 45.1167 86.4979 45.07 86.2739 45.014C86.0499 44.958 85.8539 44.902 85.6859 44.846C85.5179 44.79 85.3965 44.7433 85.3219 44.706L85.5739 43.572C85.7325 43.6467 85.9939 43.7447 86.3579 43.866C86.7312 43.9873 87.1839 44.048 87.7159 44.048ZM94.7362 45C94.7922 44.2533 94.9229 43.4693 95.1282 42.648C95.3429 41.8173 95.6042 41.0147 95.9122 40.24C96.2202 39.456 96.5562 38.7327 96.9202 38.07C97.2936 37.398 97.6576 36.852 98.0122 36.432H93.2942V35.298H99.4682V36.376C99.1602 36.7307 98.8196 37.2207 98.4462 37.846C98.0729 38.462 97.7182 39.1573 97.3822 39.932C97.0556 40.6973 96.7709 41.5187 96.5282 42.396C96.2949 43.264 96.1502 44.132 96.0942 45H94.7362ZM102.499 40.814C102.499 39.6193 102.326 38.5133 101.981 37.496C101.635 36.4787 101.127 35.536 100.455 34.668L101.379 34.038C102.107 34.9247 102.69 35.9467 103.129 37.104C103.577 38.252 103.801 39.4887 103.801 40.814C103.801 42.1393 103.577 43.3807 103.129 44.538C102.69 45.686 102.107 46.7033 101.379 47.59L100.455 46.96C101.127 46.092 101.635 45.1493 101.981 44.132C102.326 43.1147 102.499 42.0087 102.499 40.814Z" fill="#2B3131"/>
<defs>
<clipPath id="clip0_75_272">
<rect width="105.026" height="32" fill="white"/>
</clipPath>
</defs>
</svg>
