<svg width="31" height="40" viewBox="0 0 31 40" fill="none" xmlns="http://www.w3.org/2000/svg">
<g id="Frame" clip-path="url(#clip0_167_616)">
<path id="Vector" fill-rule="evenodd" clip-rule="evenodd" d="M14.6517 38.1631C15.4173 38.1631 29.0985 23.4512 29.0985 15.4209C29.0985 7.39066 22.6304 0.880859 14.6517 0.880859C6.67288 0.880859 0.204819 7.39066 0.204819 15.4209C0.204819 23.4512 13.886 38.1631 14.6517 38.1631ZM14.6517 22.6934C18.6969 22.6934 21.9763 19.3928 21.9763 15.3215C21.9763 11.2501 18.6969 7.94967 14.6517 7.94967C10.6065 7.94967 7.32714 11.2501 7.32714 15.3215C7.32714 19.3928 10.6065 22.6934 14.6517 22.6934Z" fill="#D8160C"/>
<path id="Vector_2" fill-rule="evenodd" clip-rule="evenodd" d="M0.204819 15.4209C0.204819 23.4512 13.886 38.1631 14.6517 38.1631V22.6934C10.6064 22.6932 7.32714 19.3928 7.32714 15.3215C7.32714 11.2502 10.6064 7.94969 14.6517 7.94967V0.880859C6.67289 0.880859 0.204819 7.39066 0.204819 15.4209Z" fill="#D8160C"/>
</g>
<defs>
<clipPath id="clip0_167_616">
<rect width="31" height="39" fill="white" transform="translate(0 0.5)"/>
</clipPath>
</defs>
</svg>
