<svg width="12" height="17" viewBox="0 0 12 17" fill="none" xmlns="http://www.w3.org/2000/svg">
<g id="Frame">
<path id="Vector" fill-rule="evenodd" clip-rule="evenodd" d="M5.92941 15.8026C6.23928 15.8026 11.7759 9.62978 11.7759 6.26045C11.7759 2.89111 9.15834 0.159729 5.92941 0.159729C2.70046 0.159729 0.0828857 2.89111 0.0828857 6.26045C0.0828857 9.62978 5.61955 15.8026 5.92941 15.8026ZM5.92942 9.31184C7.5665 9.31184 8.89363 7.92699 8.89363 6.21873C8.89363 4.51048 7.5665 3.12566 5.92942 3.12566C4.29235 3.12566 2.96523 4.51048 2.96523 6.21873C2.96523 7.92699 4.29235 9.31184 5.92942 9.31184Z" fill="#D8160C"/>
<path id="Vector_2" fill-rule="evenodd" clip-rule="evenodd" d="M0.0828857 6.26045C0.0828857 9.62978 5.61955 15.8026 5.92941 15.8026V9.31184C4.29234 9.31176 2.96523 7.92698 2.96523 6.21873C2.96523 4.51048 4.29234 3.12567 5.92941 3.12566V0.159729C2.70046 0.159729 0.0828857 2.89111 0.0828857 6.26045Z" fill="#D8160C"/>
</g>
</svg>
