<svg width="23" height="29" viewBox="0 0 23 29" fill="none" xmlns="http://www.w3.org/2000/svg">
<g id="Frame">
<path id="Vector" fill-rule="evenodd" clip-rule="evenodd" d="M10.8706 28.0057C11.4387 28.0057 21.5892 17.066 21.5892 11.0948C21.5892 5.12358 16.7903 0.282959 10.8706 0.282959C4.95085 0.282959 0.151962 5.12358 0.151962 11.0948C0.151962 17.066 10.3025 28.0057 10.8706 28.0057ZM10.8706 16.5025C13.8719 16.5025 16.305 14.0483 16.305 11.0209C16.305 7.99345 13.8719 5.53925 10.8706 5.53925C7.86931 5.53925 5.43627 7.99345 5.43627 11.0209C5.43627 14.0483 7.86931 16.5025 10.8706 16.5025Z" fill="#2B3131"/>
<path id="Vector_2" fill-rule="evenodd" clip-rule="evenodd" d="M0.151962 11.0948C0.151962 17.066 10.3025 28.0057 10.8706 28.0057V16.5025C7.86929 16.5024 5.43627 14.0483 5.43627 11.0209C5.43627 7.99346 7.86929 5.53927 10.8706 5.53925V0.282959C4.95085 0.282959 0.151962 5.12358 0.151962 11.0948Z" fill="#2B3131"/>
</g>
</svg>
