<svg width="12" height="17" viewBox="0 0 12 17" fill="none" xmlns="http://www.w3.org/2000/svg">
<g id="Frame" clip-path="url(#clip0_155_607)">
<path id="Vector" fill-rule="evenodd" clip-rule="evenodd" d="M5.92941 16.1208C6.23928 16.1208 11.7759 9.94793 11.7759 6.5786C11.7759 3.20926 9.15834 0.477875 5.92941 0.477875C2.70046 0.477875 0.0828857 3.20926 0.0828857 6.5786C0.0828857 9.94793 5.61955 16.1208 5.92941 16.1208ZM5.92942 9.62998C7.5665 9.62998 8.89363 8.24514 8.89363 6.53688C8.89363 4.82862 7.5665 3.44381 5.92942 3.44381C4.29235 3.44381 2.96523 4.82862 2.96523 6.53688C2.96523 8.24514 4.29235 9.62998 5.92942 9.62998Z" fill="#2B3131"/>
<path id="Vector_2" fill-rule="evenodd" clip-rule="evenodd" d="M0.0828857 6.5786C0.0828857 9.94793 5.61955 16.1208 5.92941 16.1208V9.62998C4.29234 9.6299 2.96523 8.24513 2.96523 6.53688C2.96523 4.82863 4.29234 3.44382 5.92941 3.44381V0.477875C2.70046 0.477875 0.0828857 3.20926 0.0828857 6.5786Z" fill="#2B3131"/>
</g>
<defs>
<clipPath id="clip0_155_607">
<rect width="12" height="16.3636" fill="white" transform="translate(0 0.318176)"/>
</clipPath>
</defs>
</svg>
