<svg width="50" height="50" viewBox="0 0 50 50" fill="none" xmlns="http://www.w3.org/2000/svg">
<rect x="2" y="2" width="46" height="46" rx="23" fill="#D8160C"/>
<path d="M33.9994 29.4765V32.1862C34.0005 32.4377 33.9488 32.6867 33.8479 32.9172C33.7469 33.1477 33.5988 33.3546 33.413 33.5247C33.2273 33.6947 33.008 33.8242 32.7693 33.9048C32.5305 33.9854 32.2775 34.0153 32.0265 33.9927C29.2415 33.6907 26.5664 32.7409 24.216 31.2197C22.0293 29.8329 20.1753 27.9827 18.7858 25.8003C17.2563 23.4439 16.3044 20.7611 16.0073 17.9692C15.9847 17.7194 16.0145 17.4676 16.0947 17.23C16.1749 16.9923 16.3038 16.7739 16.4732 16.5887C16.6426 16.4034 16.8489 16.2554 17.0787 16.1541C17.3086 16.0528 17.5571 16.0003 17.8084 16.0001H20.5235C20.9627 15.9958 21.3885 16.151 21.7215 16.4368C22.0545 16.7227 22.2721 17.1196 22.3335 17.5537C22.4481 18.4208 22.6607 19.2723 22.9671 20.0918C23.0888 20.4151 23.1152 20.7664 23.043 21.1042C22.9708 21.442 22.8031 21.752 22.5598 21.9976L21.4104 23.1447C22.6988 25.406 24.5748 27.2784 26.8406 28.5642L27.99 27.4171C28.2361 27.1742 28.5467 27.0069 28.8852 26.9348C29.2236 26.8628 29.5757 26.8891 29.8996 27.0106C30.7207 27.3164 31.5739 27.5285 32.4428 27.6429C32.8824 27.7048 33.2839 27.9258 33.5709 28.2639C33.858 28.6019 34.0105 29.0335 33.9994 29.4765Z" fill="white"/>
<rect x="2" y="2" width="46" height="46" rx="23" stroke="white" stroke-width="4"/>
</svg>
