<svg width="51" height="50" viewBox="0 0 51 50" fill="none" xmlns="http://www.w3.org/2000/svg">
<rect x="2.5" y="2" width="46" height="46" rx="23" fill="#D8160C"/>
<path d="M34.4994 29.4765V32.1862C34.5005 32.4377 34.4488 32.6867 34.3479 32.9172C34.2469 33.1477 34.0988 33.3546 33.913 33.5247C33.7273 33.6947 33.508 33.8242 33.2693 33.9048C33.0305 33.9854 32.7775 34.0153 32.5265 33.9927C29.7415 33.6907 27.0664 32.7409 24.716 31.2197C22.5293 29.8329 20.6753 27.9827 19.2858 25.8003C17.7563 23.4439 16.8044 20.7611 16.5073 17.9692C16.4847 17.7194 16.5145 17.4676 16.5947 17.23C16.6749 16.9923 16.8038 16.7739 16.9732 16.5887C17.1426 16.4034 17.3489 16.2554 17.5787 16.1541C17.8086 16.0528 18.0571 16.0003 18.3084 16.0001H21.0235C21.4627 15.9958 21.8885 16.151 22.2215 16.4368C22.5545 16.7227 22.7721 17.1196 22.8335 17.5537C22.9481 18.4208 23.1607 19.2723 23.4671 20.0918C23.5888 20.4151 23.6152 20.7664 23.543 21.1042C23.4708 21.442 23.3031 21.752 23.0598 21.9976L21.9104 23.1447C23.1988 25.406 25.0748 27.2784 27.3406 28.5642L28.49 27.4171C28.7361 27.1742 29.0467 27.0069 29.3852 26.9348C29.7236 26.8628 30.0757 26.8891 30.3996 27.0106C31.2207 27.3164 32.0739 27.5285 32.9428 27.6429C33.3824 27.7048 33.7839 27.9258 34.0709 28.2639C34.358 28.6019 34.5105 29.0335 34.4994 29.4765Z" fill="white"/>
<rect x="2.5" y="2" width="46" height="46" rx="23" stroke="white" stroke-width="4"/>
</svg>
