<svg width="28" height="28" viewBox="0 0 28 28" fill="none" xmlns="http://www.w3.org/2000/svg">
<g id="socials">
<rect id="Rectangle 1" width="28" height="28" rx="14" fill="#2B3131"/>
<path id="Vector" d="M18.3778 6.68219C15.7097 6.17267 12.939 6.17267 10.2709 6.68219C9.09084 6.93695 7.60288 8.3636 7.34634 9.48455C6.88455 11.6755 6.88455 13.9174 7.34634 16.1083C7.65419 17.2292 9.14215 18.6559 10.2709 18.9107C10.3223 18.9107 10.3736 18.9616 10.3736 19.0126V22.2225C10.3736 22.3754 10.5788 22.4773 10.6814 22.3244L12.2207 20.7449C12.2207 20.7449 13.4521 19.4711 13.6573 19.2673C13.6573 19.2673 13.7086 19.2164 13.7599 19.2164C15.2992 19.2673 16.8898 19.1145 18.4291 18.8597C19.6092 18.6049 21.0971 17.1783 21.3537 16.0573C21.8154 13.8664 21.8154 11.6245 21.3537 9.43359C21.0458 8.3636 19.5579 6.93695 18.3778 6.68219ZM18.4291 16.2612C18.1725 16.7707 17.8647 17.1783 17.3516 17.433C17.1976 17.484 17.0437 17.535 16.8898 17.5859C16.6846 17.535 16.5306 17.484 16.3767 17.433C14.7348 16.7707 13.1956 15.8535 11.9641 14.5288C11.2971 13.7645 10.7327 12.8983 10.2709 11.9812C10.0657 11.5226 9.86047 11.115 9.70654 10.6564C9.55262 10.2488 9.80916 9.84121 10.0657 9.5355C10.3222 9.22979 10.6301 9.02598 10.9893 8.87312C11.2458 8.72027 11.5024 8.82217 11.7076 9.02598C12.1181 9.5355 12.5285 10.045 12.8364 10.6055C13.0416 10.9622 12.9903 11.3698 12.6312 11.6245C12.5285 11.6755 12.4772 11.7264 12.3746 11.8283C12.3233 11.8793 12.2207 11.9302 12.1694 12.0321C12.0668 12.185 12.0668 12.3379 12.1181 12.4907C12.5285 13.6626 13.2982 14.5797 14.4783 15.0893C14.6835 15.1912 14.8374 15.2421 15.094 15.2421C15.4531 15.1912 15.6071 14.7835 15.8636 14.5797C16.1202 14.3759 16.428 14.3759 16.7359 14.5288C16.9924 14.6816 17.249 14.8854 17.5568 15.0893C17.8133 15.2931 18.0699 15.4459 18.3264 15.6497C18.4804 15.7516 18.5317 16.0064 18.4291 16.2612ZM16.2741 12.4398C16.1715 12.4398 16.2228 12.4398 16.2741 12.4398C16.0688 12.4398 16.0175 12.3379 15.9662 12.185C15.9662 12.0831 15.9662 11.9302 15.9149 11.8283C15.8636 11.6245 15.761 11.4207 15.5558 11.2679C15.4531 11.2169 15.3505 11.166 15.2479 11.115C15.094 11.0641 14.9914 11.0641 14.8374 11.0641C14.6835 11.0131 14.6322 10.9112 14.6322 10.7583C14.6322 10.6564 14.7861 10.5545 14.8887 10.5545C15.7097 10.6055 16.3254 11.0641 16.428 12.0321C16.428 12.0831 16.428 12.185 16.428 12.2359C16.428 12.3379 16.3767 12.4398 16.2741 12.4398ZM15.761 10.1979C15.5044 10.096 15.2479 9.99406 14.9401 9.94311C14.8374 9.94311 14.6835 9.89216 14.5809 9.89216C14.427 9.89216 14.3243 9.79026 14.3757 9.6374C14.3757 9.48454 14.4783 9.38264 14.6322 9.43359C15.1453 9.48454 15.6071 9.58645 16.0688 9.79026C16.9924 10.2488 17.5055 11.0131 17.6594 12.0321C17.6594 12.0831 17.6594 12.134 17.6594 12.185C17.6594 12.2869 17.6594 12.3888 17.6594 12.5417C17.6594 12.5926 17.6594 12.6436 17.6594 12.6945C17.6081 12.8983 17.249 12.9493 17.1976 12.6945C17.1976 12.6436 17.1463 12.5417 17.1463 12.4907C17.1463 12.0321 17.0437 11.5736 16.8385 11.166C16.5306 10.7074 16.1715 10.4017 15.761 10.1979ZM18.5317 13.255C18.3777 13.255 18.2751 13.1021 18.2751 12.9493C18.2751 12.6436 18.2238 12.3379 18.1725 12.0321C17.9673 10.4017 16.6332 9.07693 15.0427 8.82217C14.7861 8.77122 14.5296 8.77122 14.3243 8.72027C14.1704 8.72027 13.9652 8.72027 13.9139 8.51646C13.8626 8.3636 14.0165 8.21075 14.1704 8.21075C14.2217 8.21075 14.273 8.21075 14.273 8.21075C16.3767 8.2617 14.3757 8.21075 14.273 8.21075C16.428 8.2617 18.2238 9.68835 18.583 11.8283C18.6343 12.185 18.6856 12.5417 18.6856 12.9493C18.7882 13.1021 18.6856 13.255 18.5317 13.255Z" fill="white"/>
</g>
</svg>
