<svg width="105" height="48" viewBox="0 0 105 48" fill="none" xmlns="http://www.w3.org/2000/svg">
<g clip-path="url(#clip0_61_287)">
<path d="M97.8872 28.2883C99.8511 28.2883 101.242 27.9361 102.279 27.1776V23.7368C101.215 24.4683 99.9329 24.9289 98.1327 24.9289C95.1051 24.9289 93.8504 22.5989 93.8504 18.9144C93.8504 15.0402 95.3778 13.0624 98.16 13.0624C99.7965 13.0624 101.406 13.6314 102.251 14.1732V10.597C101.351 10.1093 99.7965 9.75714 97.669 9.75714C92.2411 9.75714 89.4317 13.6314 89.4317 19.0498C89.459 24.9831 92.2138 28.2883 97.8872 28.2883ZM71.3478 26.717V23.2763C70.0385 24.1703 67.8019 24.956 65.7562 24.956C62.6467 24.956 61.4739 23.493 61.2829 20.5128H71.5387V18.2912C71.5387 12.0871 68.7838 9.75714 64.5561 9.75714C59.3736 9.75714 56.9188 13.6855 56.9188 19.0769C56.9188 25.2811 60.001 28.2883 65.4016 28.2883C68.1019 28.2883 70.0931 27.5568 71.3478 26.717ZM32.425 10.0823V17.1263H26.7517V10.0823H22.4966V27.9361H26.7517V20.4857H32.425V27.9361H36.6801V10.0823H32.425ZM55.855 24.5767H53.973V10.0823H41.5897V11.5994C41.5897 15.9613 41.317 21.5965 39.8168 24.5767H38.453V32H42.3807V27.9361H51.9V32H55.8278V24.5767H55.855ZM84.9039 27.9361H89.7317L82.9127 18.3183L88.9134 10.0823H84.6311L78.6304 18.3183V10.0823H74.3754V27.9361H78.6304V19.1582L84.9039 27.9361ZM64.447 13.0624C66.5472 13.0624 67.2018 14.7963 67.2018 17.045V17.3972H61.2829C61.392 14.5525 62.4285 13.0624 64.447 13.0624ZM49.718 24.5767H43.7173C44.8901 21.8945 45.2174 17.0179 45.2174 13.9294V13.3875H49.718V24.5767Z" fill="#2B3131"/>
<path d="M18.9506 27.9361H14.6138V6.61441H12.6772C9.13133 6.61441 7.27656 8.37542 7.27656 11.0034C7.27656 13.9835 8.55853 15.3653 11.2043 17.1263L13.3864 18.5893L7.11291 27.9361H2.44873L8.09484 19.5917C4.84901 17.2888 3.02152 15.0401 3.02152 11.2472C3.02152 6.50604 6.34918 3.28204 12.6499 3.28204H18.9234V27.9361H18.9506Z" fill="#2B3131"/>
</g>
<path d="M2.786 39.036C4.19533 39.092 5.22667 39.4 5.88 39.96C6.54267 40.52 6.874 41.2807 6.874 42.242C6.874 42.6713 6.79933 43.068 6.65 43.432C6.51 43.796 6.29067 44.1087 5.992 44.37C5.70267 44.6313 5.334 44.8367 4.886 44.986C4.438 45.1353 3.906 45.21 3.29 45.21C3.04733 45.21 2.8 45.1913 2.548 45.154C2.296 45.1167 2.06267 45.07 1.848 45.014C1.63333 44.958 1.442 44.902 1.274 44.846C1.106 44.79 0.984667 44.7433 0.91 44.706L1.162 43.572C1.32067 43.6467 1.57733 43.7447 1.932 43.866C2.296 43.9873 2.73933 44.048 3.262 44.048C3.682 44.048 4.032 44.0013 4.312 43.908C4.60133 43.8147 4.83467 43.6887 5.012 43.53C5.18933 43.3713 5.31533 43.1893 5.39 42.984C5.474 42.7693 5.516 42.5453 5.516 42.312C5.516 41.9573 5.45533 41.6447 5.334 41.374C5.21267 41.094 4.998 40.8607 4.69 40.674C4.382 40.4873 3.97133 40.3473 3.458 40.254C2.94467 40.1513 2.296 40.1 1.512 40.1C1.568 39.6427 1.61 39.2133 1.638 38.812C1.67533 38.4107 1.708 38.0187 1.736 37.636C1.764 37.2533 1.78733 36.8753 1.806 36.502C1.82467 36.1193 1.84333 35.718 1.862 35.298H6.538V36.404H2.996C2.98667 36.544 2.97267 36.7353 2.954 36.978C2.93533 37.2113 2.91667 37.4587 2.898 37.72C2.87933 37.972 2.86067 38.2193 2.842 38.462C2.82333 38.7047 2.80467 38.896 2.786 39.036ZM10.5623 44.244C10.5623 44.496 10.4783 44.7153 10.3103 44.902C10.1423 45.0887 9.91368 45.182 9.62434 45.182C9.33501 45.182 9.10634 45.0887 8.93834 44.902C8.77034 44.7153 8.68634 44.496 8.68634 44.244C8.68634 43.992 8.77034 43.7727 8.93834 43.586C9.10634 43.3993 9.33501 43.306 9.62434 43.306C9.91368 43.306 10.1423 43.3993 10.3103 43.586C10.4783 43.7727 10.5623 43.992 10.5623 44.244ZM12.0477 40.142C12.0477 38.518 12.3323 37.2673 12.9017 36.39C13.4803 35.5127 14.2783 35.074 15.2957 35.074C16.313 35.074 17.1063 35.5127 17.6757 36.39C18.2543 37.2673 18.5437 38.518 18.5437 40.142C18.5437 41.766 18.2543 43.0167 17.6757 43.894C17.1063 44.7713 16.313 45.21 15.2957 45.21C14.2783 45.21 13.4803 44.7713 12.9017 43.894C12.3323 43.0167 12.0477 41.766 12.0477 40.142ZM17.1717 40.142C17.1717 39.61 17.139 39.106 17.0737 38.63C17.0177 38.154 16.915 37.7387 16.7657 37.384C16.6257 37.0293 16.4343 36.7493 16.1917 36.544C15.949 36.3293 15.6503 36.222 15.2957 36.222C14.941 36.222 14.6423 36.3293 14.3997 36.544C14.157 36.7493 13.961 37.0293 13.8117 37.384C13.6717 37.7387 13.569 38.154 13.5037 38.63C13.4477 39.106 13.4197 39.61 13.4197 40.142C13.4197 40.674 13.4477 41.178 13.5037 41.654C13.569 42.13 13.6717 42.5453 13.8117 42.9C13.961 43.2547 14.157 43.5393 14.3997 43.754C14.6423 43.9593 14.941 44.062 15.2957 44.062C15.6503 44.062 15.949 43.9593 16.1917 43.754C16.4343 43.5393 16.6257 43.2547 16.7657 42.9C16.915 42.5453 17.0177 42.13 17.0737 41.654C17.139 41.178 17.1717 40.674 17.1717 40.142Z" fill="#2B3131"/>
<path d="M26 34L27.3471 38.1459H31.7063L28.1796 40.7082L29.5267 44.8541L26 42.2918L22.4733 44.8541L23.8204 40.7082L20.2937 38.1459H24.6529L26 34Z" fill="#FBBC05"/>
<path d="M38 34L39.3471 38.1459H43.7063L40.1796 40.7082L41.5267 44.8541L38 42.2918L34.4733 44.8541L35.8204 40.7082L32.2937 38.1459H36.6529L38 34Z" fill="#FBBC05"/>
<path d="M50 34L51.3471 38.1459H55.7063L52.1796 40.7082L53.5267 44.8541L50 42.2918L46.4733 44.8541L47.8204 40.7082L44.2937 38.1459H48.6529L50 34Z" fill="#FBBC05"/>
<path d="M62 34L63.3471 38.1459H67.7063L64.1796 40.7082L65.5267 44.8541L62 42.2918L58.4733 44.8541L59.8204 40.7082L56.2937 38.1459H60.6529L62 34Z" fill="#FBBC05"/>
<path d="M74 34L75.3471 38.1459H79.7063L76.1796 40.7082L77.5267 44.8541L74 42.2918L70.4733 44.8541L71.8204 40.7082L68.2937 38.1459H72.6529L74 34Z" fill="#FBBC05"/>
<path d="M82.394 40.814C82.394 42.0087 82.5667 43.1147 82.912 44.132C83.2573 45.1493 83.766 46.092 84.438 46.96L83.514 47.59C82.786 46.7033 82.198 45.686 81.75 44.538C81.3113 43.3807 81.092 42.1393 81.092 40.814C81.092 39.4887 81.3113 38.252 81.75 37.104C82.198 35.9467 82.786 34.9247 83.514 34.038L84.438 34.668C83.766 35.536 83.2573 36.4787 82.912 37.496C82.5667 38.5133 82.394 39.6193 82.394 40.814ZM87.7031 44.048C88.5337 44.048 89.1264 43.8847 89.4811 43.558C89.8451 43.2313 90.0271 42.7927 90.0271 42.242C90.0271 41.8873 89.9524 41.5887 89.8031 41.346C89.6537 41.1033 89.4577 40.912 89.2151 40.772C88.9724 40.6227 88.6877 40.52 88.3611 40.464C88.0437 40.3987 87.7171 40.366 87.3811 40.366H87.0451V39.302H87.5071C87.7404 39.302 87.9784 39.2787 88.2211 39.232C88.4731 39.1853 88.7017 39.1013 88.9071 38.98C89.1124 38.8587 89.2804 38.6953 89.4111 38.49C89.5417 38.2753 89.6071 38.0093 89.6071 37.692C89.6071 37.4307 89.5604 37.2067 89.4671 37.02C89.3737 36.8333 89.2477 36.6793 89.0891 36.558C88.9397 36.4367 88.7624 36.3527 88.5571 36.306C88.3611 36.25 88.1511 36.222 87.9271 36.222C87.4791 36.222 87.0964 36.2873 86.7791 36.418C86.4711 36.5487 86.2097 36.684 85.9951 36.824L85.4911 35.83C85.6031 35.7553 85.7431 35.676 85.9111 35.592C86.0884 35.4987 86.2844 35.4147 86.4991 35.34C86.7137 35.2653 86.9424 35.2047 87.1851 35.158C87.4371 35.102 87.6984 35.074 87.9691 35.074C88.4824 35.074 88.9257 35.1393 89.2991 35.27C89.6724 35.3913 89.9804 35.5687 90.2231 35.802C90.4657 36.026 90.6477 36.2967 90.7691 36.614C90.8904 36.922 90.9511 37.258 90.9511 37.622C90.9511 38.126 90.8064 38.56 90.5171 38.924C90.2277 39.2787 89.8777 39.5493 89.4671 39.736C89.7191 39.8107 89.9617 39.918 90.1951 40.058C90.4284 40.198 90.6291 40.3753 90.7971 40.59C90.9744 40.8047 91.1144 41.052 91.2171 41.332C91.3291 41.612 91.3851 41.9247 91.3851 42.27C91.3851 42.69 91.3104 43.082 91.1611 43.446C91.0211 43.8007 90.7971 44.1087 90.4891 44.37C90.1904 44.6313 89.8124 44.8367 89.3551 44.986C88.8977 45.1353 88.3564 45.21 87.7311 45.21C87.4884 45.21 87.2364 45.1913 86.9751 45.154C86.7231 45.1167 86.4851 45.07 86.2611 45.014C86.0371 44.958 85.8411 44.902 85.6731 44.846C85.5051 44.79 85.3837 44.7433 85.3091 44.706L85.5611 43.572C85.7197 43.6467 85.9811 43.7447 86.3451 43.866C86.7184 43.9873 87.1711 44.048 87.7031 44.048ZM94.7234 45C94.7794 44.2533 94.9101 43.4693 95.1154 42.648C95.3301 41.8173 95.5914 41.0147 95.8994 40.24C96.2074 39.456 96.5434 38.7327 96.9074 38.07C97.2807 37.398 97.6447 36.852 97.9994 36.432H93.2814V35.298H99.4554V36.376C99.1474 36.7307 98.8067 37.2207 98.4334 37.846C98.0601 38.462 97.7054 39.1573 97.3694 39.932C97.0427 40.6973 96.7581 41.5187 96.5154 42.396C96.2821 43.264 96.1374 44.132 96.0814 45H94.7234ZM102.486 40.814C102.486 39.6193 102.313 38.5133 101.968 37.496C101.622 36.4787 101.114 35.536 100.442 34.668L101.366 34.038C102.094 34.9247 102.677 35.9467 103.116 37.104C103.564 38.252 103.788 39.4887 103.788 40.814C103.788 42.1393 103.564 43.3807 103.116 44.538C102.677 45.686 102.094 46.7033 101.366 47.59L100.442 46.96C101.114 46.092 101.622 45.1493 101.968 44.132C102.313 43.1147 102.486 42.0087 102.486 40.814Z" fill="#2B3131"/>
<defs>
<clipPath id="clip0_61_287">
<rect width="100.103" height="32" fill="white" transform="translate(2.44873)"/>
</clipPath>
</defs>
</svg>
