<svg version="1.0" xmlns="http://www.w3.org/2000/svg" width="346.667" height="346.667" viewBox="0 0 260 260"><path d="M31.3 94.6c-.7.3-1.3 1.2-1.3 1.9s-1.5 4.4-3.4 8.2c-1.8 3.7-4.1 9-5.1 11.8-1 2.7-2.9 6.7-4.3 8.7-2.3 3.6-2.7 3.8-7.8 3.8-3 0-5.4.4-5.4 1 0 .5.3 1 .8 1 .7 0 4.2 7.3 4.2 8.9 0 .4.9 1.6 2 2.6s2 2.4 2 3.2c0 .7.4 1.3.9 1.3s1.2 1.1 1.5 2.5c.4 1.4 1.1 2.5 1.6 2.5.6 0 1 .6 1 1.3 0 3.1 3.5 4.7 10.3 4.7 5.3 0 6.7-.3 6.7-1.5 0-2-5.1-11.5-6.2-11.5-.4 0-.8-.7-.8-1.5 0-1.3 11.6-1.5 98-1.5 77.7 0 98 .3 98 1.2 0 .7-1.4 4-3 7.3-1.6 3.2-2.6 6.3-2.4 6.7.3.4 3.2.8 6.5.8 5.8 0 6.1-.1 7.2-3 .6-1.7 1.5-3 1.9-3 .4 0 .8-.6.8-1.3 0-.7 1.5-3.9 3.4-7s3.7-7 4.1-8.7c.4-1.6 1.1-3.2 1.6-3.5.5-.4.9-1 .9-1.6 0-.5-37.1-.9-97-.9-83 0-97-.2-97-1.4 0-.8.3-1.6.8-1.8.4-.2 1.5-3 2.5-6.3 2.9-9.5 6-15.4 8.2-15.7 1.7-.2 2-1.1 2-4.8v-4.5l-16-.2c-8.8-.1-16.6.1-17.2.3zM61 98.8c0 .9-.9 2.3-2 3-2.1 1.3-4.3 5.8-5.5 11.3-.4 1.9-1.5 5.2-2.5 7.4-2 4.4-4 10.3-4 11.7 0 .4 43.1.8 96.1.8 52.9 0 96.4.1 96.6.3.2.2-2 5-4.8 10.6-5 9.8-5.3 10.1-8.5 10.1-1.9 0-3.4-.3-3.4-.6 0-1.1 3.3-7.8 5.1-10.5 1-1.4 1.6-2.9 1.2-3.3-.3-.3-46.9-.6-103.5-.6-90.7 0-102.8.2-102.8 1.5 0 .8.5 1.5 1 1.5.6 0 1 .7 1 1.5s.4 1.5.9 1.5 1.2 1.3 1.6 3c.4 1.6 1.1 3.2 1.6 3.5 2.1 1.3.7 2.5-3 2.5-3.9 0-4.2-.2-8.8-6.5-.5-.6-2.3-3.9-4.1-7.4-2.7-5.1-3.1-6.6-2-7.3.7-.4 2.1-.6 3.1-.4 2 .5 6.7-5.8 8.6-11.4 2-6.4 5.6-14.4 8.5-19.3l2.8-4.7h13.4c12.1 0 13.4.2 13.4 1.8z"/><path d="M37 104.1c-.7 1.1-2.1 4.9-3.2 8.2-1.1 3.4-3.1 8.4-4.4 11-3.6 7.4-3.5 7.7 4.4 7.7h6.7l2.9-6.3c1.5-3.4 3.2-6.9 3.6-7.7.4-.9 1.1-3.5 1.5-5.8.4-2.3 1.1-4.4 1.6-4.8.5-.3.9-1.4.9-2.5 0-1.7-.7-1.9-6.5-1.9-5.5 0-6.6.3-7.5 2.1zm10.4 1.7c.3.5-.3 2.2-1.3 3.8-.9 1.6-2.5 5.6-3.5 8.9-2.5 8.5-2.8 9-7.5 9.3-4.4.3-4.9-.2-2.7-3.4.8-1.1 1.7-3.7 2.1-5.7.4-2.1 1.1-4 1.6-4.3.5-.3.9-1.2.9-2.1 0-3.1 4-7.3 7-7.3 1.6 0 3.1.4 3.4.8zm25.1-4.7c-4.2 2.6-4.5 3.6-4.5 13.3v9.6h16.1l-.3-2.8c-.3-2.5-.7-2.7-5-3-4-.3-4.8-.6-4.8-2.3 0-1.6.7-1.9 5-1.9 4.7 0 5-.2 5-2.5s-.3-2.5-5-2.5c-4.3 0-5-.3-5-2s.7-2 4.8-2c2.6 0 5.3-.4 6.1-.9 1-.7 2.6 0 5.3 2.2 4.4 3.5 4.6 4.4 1.6 8.3-2.4 3-3.3 9.4-1.3 9.4.7 0 2.9-1.8 4.9-4 2-2.2 3.9-4 4.2-4 1.3 0 3.3 3.5 3.4 5.7 0 1.8.6 2.3 2.5 2.3 2 0 2.5-.5 2.5-2.3 0-1.3.9-3.2 1.9-4.1 1.8-1.6 2.1-1.5 6.2 2.3 2.4 2.3 4.7 4.1 5.2 4.1.4 0 .7-1.6.7-3.5 0-2.4-.8-4.5-2.5-6.3-1.4-1.5-2.5-3-2.5-3.3 0-1 6.9-6.9 8-6.9.6 0 1-.7 1-1.5 0-1-1-1.5-3.3-1.5-3.3 0-6.2 1.7-10 5.7-3.2 3.5-4.7 2.9-4.7-1.7 0-3.6-.2-4-2.5-4-2.2 0-2.5.4-2.5 4 0 2.2-.3 4-.6 4s-2.7-1.9-5.4-4.1c-4.8-4.1-5.1-4.2-13.7-4.6-5.9-.2-9.5 0-10.8.8zm68.5 2.8c-5.6 5-7 5.1-7 .6 0-4.1-.8-4.4-3.8-1.2-1.9 2-2.2 3.5-2.2 11 0 5.5.4 8.7 1.1 8.7.5 0 4.3-3.3 8.2-7.3l7.2-7.2.3 7.7.3 7.8h7l-.3-11.8-.3-11.7-3-.3c-2.3-.2-4 .7-7.5 3.7zm15-1.3l-2.5 2.4h6.5v19.1l2.8-.3c2.7-.3 2.7-.3 3-9.3.3-8.8.3-9 3.2-10.7 4.8-2.7 3.7-3.8-3.7-3.7-5.8 0-7.2.4-9.3 2.5zm30.5-.7c-1.6 1.1-5.7 4.4-8.9 7.5-5.2 4.8-6 6-6.2 9.6-.1 2.2.2 4 .7 4 .9 0 8.7-7.7 12.7-12.5 2.1-2.5 5.2-1.9 5.2 1 0 2.1-.5 2.5-2.8 2.5-1.9 0-3.8 1-5.5 3-1.5 1.6-2.7 3.2-2.7 3.5 0 .3 2.3.5 5 .5 3.6 0 5.2.4 5.6 1.5.4.8 1.7 1.5 3 1.5 2.4 0 2.4 0 2.4-12v-12h-2.7c-1.6 0-4.1.9-5.8 1.9zm26.9.3c-1.7 1.3-5.2 4.3-7.8 6.8-2.6 2.5-5.4 4.9-6.2 5.3-1.5.8-2.1 9.7-.6 9.7.8 0 3-2 10.2-9.8 2.7-2.8 5.4-5.2 5.9-5.2.7 0 1.1 2.9 1.1 7.5v7.5h7v-24h-3.3c-1.9 0-4.6 1-6.3 2.2zm15.3 1c-2.6 1.9-2.7 2.3-2.7 11.4v9.4h5.8c3.1 0 6.6-.3 7.7-.6 2.5-.6 5.5-5.7 5.5-9.3 0-3.4-5.5-9.3-8.3-8.9-2.8.4-3.2 2.3-.9 4.5 1.1 1 2.2 2.5 2.4 3.3.8 2.3-1 5-3.2 5-2.1 0-2.1 0-2.4-11.2 0-2.5-.3-4.9-.6-5.1-.3-.3-1.7.4-3.3 1.5z"/></svg>