<svg width="27" height="17" viewBox="0 0 27 17" fill="none" xmlns="http://www.w3.org/2000/svg">
<g id="Frame 54">
<g id="Vector">
<path d="M13.3929 0.734863C4.6058 0.734863 0 7.66821 0 8.7702C0 9.86932 4.6058 16.8055 13.3929 16.8055C22.1786 16.8055 26.7857 9.86932 26.7857 8.7702C26.7857 7.66821 22.1786 0.734863 13.3929 0.734863ZM13.3929 14.9502C10.1049 14.9502 7.43973 12.1838 7.43973 8.7702C7.43973 5.35662 10.1049 2.5873 13.3929 2.5873C16.6808 2.5873 19.3446 5.35662 19.3446 8.7702C19.3446 12.1838 16.6808 14.9502 13.3929 14.9502ZM13.3929 8.7702C12.8478 8.12881 14.2808 5.67947 13.3929 5.67947C11.7482 5.67947 10.4156 7.06413 10.4156 8.7702C10.4156 10.4763 11.7482 11.8609 13.3929 11.8609C15.0362 11.8609 16.3701 10.4763 16.3701 8.7702C16.3701 7.98532 13.8562 9.31402 13.3929 8.7702Z" fill="#A4D1E7"/>
<path d="M13.3929 0.734863C4.6058 0.734863 0 7.66821 0 8.7702C0 9.86932 4.6058 16.8055 13.3929 16.8055C22.1786 16.8055 26.7857 9.86932 26.7857 8.7702C26.7857 7.66821 22.1786 0.734863 13.3929 0.734863ZM13.3929 14.9502C10.1049 14.9502 7.43973 12.1838 7.43973 8.7702C7.43973 5.35662 10.1049 2.5873 13.3929 2.5873C16.6808 2.5873 19.3446 5.35662 19.3446 8.7702C19.3446 12.1838 16.6808 14.9502 13.3929 14.9502ZM13.3929 8.7702C12.8478 8.12881 14.2808 5.67947 13.3929 5.67947C11.7482 5.67947 10.4156 7.06413 10.4156 8.7702C10.4156 10.4763 11.7482 11.8609 13.3929 11.8609C15.0362 11.8609 16.3701 10.4763 16.3701 8.7702C16.3701 7.98532 13.8562 9.31402 13.3929 8.7702Z" fill="#C4E0ED"/>
</g>
</g>
</svg>
