<svg width="15" height="15" viewBox="0 0 15 15" fill="none" xmlns="http://www.w3.org/2000/svg">
<g id="Frame 55">
<g id="Vector">
<path d="M2 1H15V3H2V1Z" fill="#164F6B"/>
<path d="M2 1H15V3H2V1Z" fill="#005F8D"/>
<path d="M2 1H15V3H2V1Z" fill="#003553"/>
<path d="M2 1H15V3H2V1Z" fill="#186793"/>
<path d="M2 6H15V8H2V6Z" fill="#164F6B"/>
<path d="M2 6H15V8H2V6Z" fill="#005F8D"/>
<path d="M2 6H15V8H2V6Z" fill="#003553"/>
<path d="M2 6H15V8H2V6Z" fill="#186793"/>
<path d="M2 11H15V13H2V11Z" fill="#164F6B"/>
<path d="M2 11H15V13H2V11Z" fill="#005F8D"/>
<path d="M2 11H15V13H2V11Z" fill="#003553"/>
<path d="M2 11H15V13H2V11Z" fill="#186793"/>
</g>
</g>
</svg>
