<svg width="22" height="17" viewBox="0 0 22 17" fill="none" xmlns="http://www.w3.org/2000/svg">
<g id="Vector">
<path d="M0 1.48058C0 0.66288 0.66288 0 1.48058 0H20.5194C21.3371 0 22 0.66288 22 1.48058C22 2.29829 21.3371 2.96117 20.5194 2.96117H1.48058C0.662879 2.96117 0 2.29829 0 1.48058Z" fill="#FE8824"/>
<path d="M0 1.48058C0 0.66288 0.66288 0 1.48058 0H20.5194C21.3371 0 22 0.66288 22 1.48058C22 2.29829 21.3371 2.96117 20.5194 2.96117H1.48058C0.662879 2.96117 0 2.29829 0 1.48058Z" fill="white"/>
<path d="M0 8.46686C0 7.65674 0.656735 7 1.46686 7H20.5331C21.3433 7 22 7.65674 22 8.46686C22 9.27698 21.3433 9.93372 20.5331 9.93372H1.46686C0.656735 9.93372 0 9.27698 0 8.46686Z" fill="#FE8824"/>
<path d="M0 8.46686C0 7.65674 0.656735 7 1.46686 7H20.5331C21.3433 7 22 7.65674 22 8.46686C22 9.27698 21.3433 9.93372 20.5331 9.93372H1.46686C0.656735 9.93372 0 9.27698 0 8.46686Z" fill="white"/>
<path d="M0 15.4781C0 14.6618 0.66178 14 1.47813 14H20.5219C21.3382 14 22 14.6618 22 15.4781C22 16.2945 21.3382 16.9563 20.5219 16.9563H1.47813C0.66178 16.9563 0 16.2945 0 15.4781Z" fill="#FE8824"/>
<path d="M0 15.4781C0 14.6618 0.66178 14 1.47813 14H20.5219C21.3382 14 22 14.6618 22 15.4781C22 16.2945 21.3382 16.9563 20.5219 16.9563H1.47813C0.66178 16.9563 0 16.2945 0 15.4781Z" fill="white"/>
</g>
</svg>
