<svg width="47" height="47" viewBox="0 0 47 47" fill="none" xmlns="http://www.w3.org/2000/svg">
<g id="Group 13">
<path id="Path 16" d="M12.0161 46.4281C10.2368 46.4082 8.47433 46.0819 6.80593 45.4634C5.58759 45.0131 4.4853 44.2961 3.57965 43.365C2.64602 42.4612 1.92803 41.3586 1.479 40.1392C0.861054 38.4709 0.535192 36.7085 0.515718 34.9295C0.379072 31.972 0.351562 31.085 0.351562 23.5911C0.351562 16.0972 0.381778 15.2133 0.514365 12.2535C0.536202 10.4752 0.862465 8.71382 1.479 7.04568C1.93022 5.82714 2.64719 4.72441 3.57784 3.81759C4.48238 2.88481 5.58519 2.16748 6.80458 1.71875C8.47297 1.10029 10.2355 0.773967 12.0147 0.754111C14.9731 0.618818 15.8615 0.591309 23.3513 0.591309C30.8411 0.591309 31.7291 0.621524 34.6889 0.754111C36.4676 0.775794 38.2295 1.10206 39.8981 1.71875C41.1169 2.16807 42.2195 2.88515 43.1244 3.81714C44.0567 4.72236 44.774 5.82515 45.2237 7.04432C45.8423 8.7127 46.1688 10.4752 46.1888 12.2544C46.324 15.2142 46.3516 16.1004 46.3516 23.592C46.3516 31.0836 46.324 31.9698 46.1888 34.9295C46.1673 36.7085 45.8409 38.4706 45.2237 40.1392C44.7568 41.3492 44.0418 42.4481 43.1245 43.3651C42.2073 44.2821 41.1083 44.9969 39.8981 45.4634C38.2297 46.082 36.4672 46.4085 34.688 46.4285C31.7309 46.5638 30.842 46.5913 23.3504 46.5913C15.8588 46.5913 14.9727 46.5652 12.0156 46.4285" fill="url(#paint0_radial_1074_5305)"/>
<path id="Path 17" d="M12.0161 46.4281C10.2368 46.4082 8.47433 46.0819 6.80593 45.4634C5.58759 45.0131 4.4853 44.2961 3.57965 43.365C2.64602 42.4612 1.92803 41.3586 1.479 40.1392C0.861054 38.4709 0.535192 36.7085 0.515718 34.9295C0.379072 31.972 0.351562 31.085 0.351562 23.5911C0.351562 16.0972 0.381778 15.2133 0.514365 12.2535C0.536202 10.4752 0.862465 8.71382 1.479 7.04568C1.93022 5.82714 2.64719 4.72441 3.57784 3.81759C4.48238 2.88481 5.58519 2.16748 6.80458 1.71875C8.47298 1.10029 10.2355 0.773967 12.0147 0.754111C14.9731 0.618818 15.8615 0.591309 23.3513 0.591309C30.8411 0.591309 31.7291 0.621524 34.6889 0.754111C36.4676 0.775794 38.2295 1.10206 39.8981 1.71875C41.117 2.16807 42.2195 2.88515 43.1244 3.81714C44.0567 4.72236 44.774 5.82515 45.2237 7.04432C45.8423 8.7127 46.1688 10.4752 46.1888 12.2544C46.3241 15.2142 46.3516 16.1004 46.3516 23.592C46.3516 31.0836 46.3241 31.9698 46.1888 34.9295C46.1673 36.7085 45.8409 38.4706 45.2237 40.1392C44.7568 41.3492 44.0418 42.4481 43.1245 43.3651C42.2073 44.2821 41.1083 44.9969 39.8981 45.4634C38.2297 46.082 36.4672 46.4085 34.688 46.4285C31.7309 46.5638 30.842 46.5913 23.3504 46.5913C15.8588 46.5913 14.9731 46.5647 12.0161 46.4281Z" fill="url(#paint1_radial_1074_5305)"/>
<path id="Path 18" d="M17.706 23.6885C17.7061 22.5619 18.0402 21.4606 18.6662 20.5239C19.2923 19.5872 20.182 18.8571 21.2229 18.4261C22.2638 17.995 23.4092 17.8823 24.5141 18.1023C25.6191 18.3222 26.634 18.8648 27.4306 19.6616C28.2271 20.4583 28.7695 21.4734 28.9892 22.5784C29.2089 23.6834 29.0959 24.8288 28.6646 25.8696C28.2333 26.9104 27.5031 27.7999 26.5662 28.4257C25.6294 29.0515 24.528 29.3854 23.4013 29.3853C21.8907 29.385 20.442 28.7847 19.3739 27.7164C18.3058 26.648 17.7058 25.1992 17.706 23.6885ZM14.6262 23.6885C14.6262 25.4241 15.1409 27.1206 16.1051 28.5637C17.0693 30.0068 18.4398 31.1315 20.0433 31.7956C21.6467 32.4598 23.4111 32.6336 25.1133 32.295C26.8155 31.9564 28.379 31.1207 29.6063 29.8934C30.8335 28.6662 31.6692 27.1027 32.0078 25.4005C32.3464 23.6983 32.1726 21.9339 31.5085 20.3304C30.8443 18.727 29.7196 17.3565 28.2765 16.3923C26.8335 15.4281 25.1369 14.9134 23.4013 14.9134C22.249 14.9134 21.1079 15.1403 20.0432 15.5813C18.9785 16.0222 18.0111 16.6686 17.1963 17.4835C16.3814 18.2983 15.7351 19.2657 15.2941 20.3304C14.8531 21.395 14.6262 22.5361 14.6262 23.6885ZM30.4731 14.5657C30.4729 14.9713 30.593 15.3678 30.8182 15.7051C31.0434 16.0424 31.3635 16.3054 31.7381 16.4608C32.1127 16.6161 32.525 16.6569 32.9228 16.578C33.3207 16.499 33.6861 16.3039 33.973 16.0172C34.2599 15.7306 34.4554 15.3653 34.5347 14.9676C34.614 14.5698 34.5736 14.1575 34.4185 13.7827C34.2635 13.408 34.0008 13.0876 33.6637 12.8621C33.3266 12.6367 32.9301 12.5162 32.5246 12.516C31.981 12.5163 31.4597 12.7323 31.0752 13.1166C30.6907 13.5009 30.4745 14.0221 30.474 14.5657H30.4731ZM16.4982 37.5989C15.4146 37.587 14.3411 37.3886 13.3247 37.0126C12.5876 36.7285 11.9182 36.2932 11.3595 35.7348C10.8008 35.1763 10.3653 34.5071 10.0809 33.7701C9.70463 32.7538 9.50632 31.6802 9.49459 30.5966C9.41161 28.7954 9.39537 28.2542 9.39537 23.6908C9.39537 19.1273 9.41341 18.5875 9.49459 16.7845C9.50773 15.701 9.70601 14.6277 10.0809 13.611C10.3649 12.8737 10.8004 12.2041 11.3591 11.6454C11.9178 11.0867 12.5874 10.6512 13.3247 10.3671C14.341 9.99093 15.4146 9.79261 16.4982 9.78087C18.2994 9.69789 18.8406 9.68165 23.4022 9.68165C27.9639 9.68165 28.5055 9.69925 30.3085 9.78132C31.392 9.79447 32.4653 9.99274 33.482 10.3676C34.2193 10.6517 34.8889 11.0871 35.4476 11.6459C36.0063 12.2046 36.4418 12.8742 36.7259 13.6115C37.1021 14.6278 37.3004 15.7013 37.3121 16.785C37.3951 18.5889 37.4114 19.1273 37.4114 23.6912C37.4114 28.2551 37.3947 28.7945 37.3121 30.5975C37.2995 31.681 37.1012 32.7544 36.7259 33.771C36.4415 34.5079 36.0059 35.1772 35.4472 35.7357C34.8885 36.2941 34.2191 36.7294 33.482 37.0135C32.4657 37.3897 31.3921 37.588 30.3085 37.5998C28.5073 37.6828 27.9661 37.699 23.4022 37.699C18.8384 37.699 18.299 37.6823 16.4982 37.5998V37.5989ZM16.3566 6.70386C14.9387 6.73174 13.5358 7.00012 12.2077 7.49757C11.0723 7.93654 10.0413 8.60791 9.18054 9.46862C8.31982 10.3293 7.64845 11.3604 7.20948 12.4957C6.7121 13.8239 6.44372 15.2268 6.41578 16.6447C6.33144 18.4667 6.3125 19.0493 6.3125 23.6903C6.3125 28.3313 6.33189 28.9135 6.41578 30.7359C6.44372 32.1539 6.71209 33.5568 7.20948 34.8849C7.64848 36.0202 8.31985 37.0513 9.18056 37.912C10.0413 38.7727 11.0723 39.4441 12.2077 39.8831C13.5358 40.3803 14.9387 40.6487 16.3566 40.6768C18.1795 40.7598 18.7612 40.7801 23.4022 40.7801C28.0432 40.7801 28.6254 40.7607 30.4478 40.6768C31.8658 40.6488 33.2687 40.3804 34.5968 39.8831C35.7321 39.4441 36.7632 38.7727 37.6239 37.912C38.4846 37.0513 39.156 36.0202 39.595 34.8849C40.093 33.5569 40.3614 32.1539 40.3887 30.7359C40.4717 28.9126 40.4906 28.3313 40.4906 23.6903C40.4906 19.0493 40.4712 18.4671 40.3887 16.6447C40.3608 15.2268 40.0924 13.8239 39.595 12.4957C39.156 11.3606 38.4848 10.3297 37.6244 9.46902C36.7639 8.60833 35.7332 7.93684 34.5982 7.49757C33.2702 6.99979 31.8672 6.73141 30.4492 6.70386C28.6268 6.62043 28.0446 6.60059 23.4045 6.60059C18.7644 6.60059 18.1808 6.61998 16.3575 6.70386" fill="white"/>
</g>
<defs>
<radialGradient id="paint0_radial_1074_5305" cx="0" cy="0" r="1" gradientUnits="userSpaceOnUse" gradientTransform="translate(3.32845 45.5834) scale(58.4023 58.4023)">
<stop offset="0.09" stop-color="#FA8F21"/>
<stop offset="0.78" stop-color="#D82D7E"/>
</radialGradient>
<radialGradient id="paint1_radial_1074_5305" cx="0" cy="0" r="1" gradientUnits="userSpaceOnUse" gradientTransform="translate(32.2139 44.106) scale(51.3946)">
<stop offset="0.64" stop-color="#8C3AAA" stop-opacity="0"/>
<stop offset="1" stop-color="#8C3AAA"/>
</radialGradient>
</defs>
</svg>
