<svg width="20" height="19" viewBox="0 0 20 19" fill="none" xmlns="http://www.w3.org/2000/svg">
<path id="Vector" d="M19.1694 16.839C19.1014 16.678 19.0014 16.531 18.8844 16.418L15.6714 13.213C16.7014 11.808 17.2674 10.082 17.2654 8.34002C17.2654 6.69502 16.7814 5.10102 15.8674 3.72902C14.9504 2.35902 13.6614 1.30202 12.1414 0.673022C10.6304 0.0470219 8.95136 -0.119978 7.34536 0.199022C5.72836 0.520022 4.25936 1.30602 3.09536 2.47002C1.93036 3.63302 1.14536 5.10302 0.824359 6.72002C0.503359 8.33502 0.666359 9.99302 1.29636 11.516C1.92736 13.037 2.98436 14.326 4.35436 15.241C5.72436 16.155 7.32336 16.638 8.97836 16.638C10.7154 16.638 12.4364 16.073 13.8394 15.045L17.0424 18.259C17.1624 18.38 17.3054 18.477 17.4664 18.545C17.6264 18.61 17.7944 18.645 17.9654 18.645C18.1384 18.645 18.3054 18.611 18.4654 18.544C18.6244 18.477 18.7664 18.382 18.8884 18.261C19.0094 18.139 19.1044 17.996 19.1694 17.839C19.2374 17.68 19.2724 17.511 19.2724 17.338C19.2714 17.167 19.2364 17 19.1694 16.839ZM14.2304 10.521C13.7974 11.566 13.0724 12.451 12.1324 13.079C11.1924 13.707 10.0964 14.039 8.96436 14.039C7.44136 14.039 6.00936 13.446 4.93336 12.37C3.85736 11.293 3.26436 9.86102 3.26436 8.33902C3.26436 7.20802 3.59736 6.11302 4.22536 5.17202C4.85236 4.23202 5.73736 3.50602 6.78336 3.07202C7.48036 2.78502 8.21336 2.63902 8.96436 2.63902C9.33536 2.63902 9.70936 2.67602 10.0764 2.74802C11.1854 2.96902 12.1954 3.50902 12.9944 4.30802C13.7954 5.10902 14.3344 6.11902 14.5554 7.22702C14.7774 8.33802 14.6634 9.47702 14.2304 10.521Z" fill="#413A51"/>
</svg>
