<svg width="50" height="53" viewBox="0 0 50 53" fill="none" xmlns="http://www.w3.org/2000/svg">
<path d="M27.7707 3.37476H41.7349C45.785 3.37476 49.0673 6.65792 49.0673 10.7071V44.1763C49.0673 48.2264 45.7841 51.5086 41.7349 51.5086H11.5354" stroke="#FFFCFC" stroke-width="1.83286" stroke-miterlimit="10" stroke-linecap="round"/>
<path d="M41.7342 30.2131V39.5947C41.7342 42.1253 39.6822 44.1773 37.1516 44.1773H11.9334C9.90743 44.1773 8.26495 45.8198 8.26405 47.8457C8.26405 49.8698 6.62247 51.5105 4.59833 51.5105C2.5742 51.5105 0.932617 49.8689 0.932617 47.8448V10.7081C0.932617 6.658 4.21578 3.37573 8.26495 3.37573H22.2292" stroke="#FFFCFC" stroke-width="1.83286" stroke-miterlimit="10" stroke-linecap="round"/>
<path d="M24.9977 27.4418H20.2966C17.7004 27.4418 15.5954 25.3368 15.5954 22.7406C15.5954 20.1444 17.7004 18.0395 20.2966 18.0395H30.7334C32.7584 18.0395 34.4 19.6811 34.4 21.7061V33.1774C34.4 35.2025 32.7584 36.844 30.7334 36.844H11.9315C9.90647 36.844 8.26489 35.2025 8.26489 33.1774V14.3738C8.26489 12.3487 9.90647 10.7072 11.9315 10.7072H38.0675C40.0925 10.7072 41.7341 12.3487 41.7341 14.3738V24.6714" stroke="#3887FE" stroke-width="1.83286" stroke-miterlimit="10" stroke-linecap="round"/>
<path d="M22.5398 27.4417C22.5398 26.0839 23.6408 24.9829 24.9986 24.9829C26.3564 24.9829 27.4574 26.0839 27.4574 27.4417C27.4574 28.7995 26.3564 29.9005 24.9986 29.9005C23.6408 29.9005 22.5398 28.7995 22.5398 27.4417Z" fill="#3887FE" stroke="#3887FE" stroke-width="1.83286" stroke-miterlimit="10"/>
<path d="M39.2764 30.2131C39.2764 28.8552 40.3773 27.7543 41.7351 27.7543C43.093 27.7543 44.1939 28.8552 44.1939 30.2131C44.1939 31.5709 43.093 32.6718 41.7351 32.6718C40.3773 32.6718 39.2764 31.5709 39.2764 30.2131Z" fill="#FFFCFC" stroke="#FFFCFC" stroke-width="1.83286" stroke-miterlimit="10"/>
<path d="M19.7712 3.37467C19.7712 2.01687 20.8722 0.915894 22.23 0.915894C23.5878 0.915894 24.6888 2.01687 24.6888 3.37467C24.6888 4.73248 23.5878 5.83345 22.23 5.83345C20.8722 5.83345 19.7712 4.73248 19.7712 3.37467Z" fill="#FFFCFC" stroke="#FFFCFC" stroke-width="1.83286" stroke-miterlimit="10"/>
</svg>