<svg xmlns="http://www.w3.org/2000/svg" viewBox="0 0 309.49 309.49"><path d="M5.504 303.826h298.484a5.502 5.502 0 005.502-5.503V31.43a5.502 5.502 0 00-5.502-5.502h-60.576V11.166a5.503 5.503 0 00-11.006 0v14.762H187.97V11.166a5.503 5.503 0 00-11.006 0v14.762h-44.436V11.166a5.502 5.502 0 00-5.504-5.502 5.502 5.502 0 00-5.502 5.502v14.762H77.084V11.166a5.503 5.503 0 00-11.006 0v14.762H5.504A5.503 5.503 0 000 31.43v266.894a5.504 5.504 0 005.504 5.502zm5.502-266.892h55.072v22.76a5.504 5.504 0 0011.006 0v-22.76h44.439v22.76a5.502 5.502 0 1011.006 0v-22.76h44.436v22.76a5.502 5.502 0 1011.006 0v-22.76h44.436v22.76a5.502 5.502 0 1011.006 0v-22.76h55.072V292.82H11.006V36.934z"/><path d="M271.705 104.438H37.789a5.502 5.502 0 00-5.502 5.502v163.799a5.502 5.502 0 005.502 5.503h233.916a5.502 5.502 0 005.502-5.503v-163.8a5.5 5.5 0 00-5.502-5.501zm-5.504 163.797H43.293V115.443h222.908v152.792z"/><path d="M56.451 225.957a5.503 5.503 0 100 11.006h31.711v17.695a5.503 5.503 0 0011.006 0v-17.695h29.713v17.695a5.503 5.503 0 0011.006 0v-17.695h29.715v17.695a5.503 5.503 0 0011.006 0v-17.695h29.719v17.695a5.503 5.503 0 0011.006 0v-17.695h31.707a5.503 5.503 0 100-11.006h-31.707v-28.615h31.707a5.503 5.503 0 100-11.006h-31.707v-28.614h31.707a5.504 5.504 0 000-11.006h-31.707v-17.691a5.504 5.504 0 00-11.006 0v17.691h-29.719v-17.691a5.502 5.502 0 10-11.006 0v17.691h-29.715v-17.691a5.502 5.502 0 10-11.006 0v17.691H99.168v-17.691a5.502 5.502 0 10-11.006 0v17.691H56.451a5.504 5.504 0 000 11.006h31.711v28.614H56.451a5.503 5.503 0 100 11.006h31.711v28.615H56.451zm83.436 0v-28.615h29.715v28.615h-29.715zm70.439 0h-29.719v-28.615h29.719v28.615zm0-68.235v28.614h-29.719v-28.614h29.719zm-40.724 0v28.614h-29.715v-28.614h29.715zm-70.434 0h29.713v28.614H99.168v-28.614zm0 39.62h29.713v28.615H99.168v-28.615zM71.582 90.321h166.326a5.504 5.504 0 000-11.006H71.582a5.504 5.504 0 000 11.006z"/></svg>