<svg height="512" viewBox="0 0 509.581 509.581" width="512" xmlns="http://www.w3.org/2000/svg"><path d="M392.609 195.968l31.241-54.11-47.864-40.163-10.85-61.532h-62.481L254.791 0l-47.864 40.162h-62.481l-10.85 61.532-47.864 40.163 31.241 54.11-10.85 61.533 28.893 10.516V509.58h31.74l88.269-93.458 88.539 93.458h31.452V267.854l28.444-10.353zM165.015 467.732v-188.55l31.062 53.8 43.938-15.992v71.334zm180-.239l-75-79.167v-71.173l43.489 15.829 31.241-54.11.27-.098zm16.153-277.068l8.375 47.495-45.319 16.494-24.114 41.767-45.319-16.495-45.319 16.495-24.114-41.767-45.319-16.494 8.375-47.495-24.114-41.767 36.945-31.001 8.375-47.495h48.228l36.945-31 36.945 31h48.228l8.375 47.495 36.945 31.001z"/><path d="M232.033 176.648l-20.854-24.329-22.777 19.524 39.146 45.671 91.243-68.433-18-24z"/></svg>