<svg xmlns="http://www.w3.org/2000/svg" viewBox="0 0 512 512"><path d="M512 217.229c0-27.618-22.469-50.087-50.087-50.087H341.119l17.585-47.974c.057-.155.111-.309.163-.465 8.475-25.422 6.342-52.096-6.17-77.145-9.441-18.883-28.417-30.613-49.522-30.613h-5.868c-14.212 0-26.233 11.103-27.37 25.274-1.986 24.781-12.615 48.253-29.928 66.101l-96.738 98.214h-9.706v-16.696c0-9.22-7.475-16.696-16.696-16.696H16.696C7.475 167.142 0 174.618 0 183.838V484.36c0 9.22 7.475 16.696 16.696 16.696H116.87c9.22 0 16.696-7.475 16.696-16.696v-16.696h278.261c27.618 0 50.087-22.469 50.087-50.087a49.766 49.766 0 00-6.452-24.573c13.911-8.909 23.148-24.5 23.148-42.21a49.766 49.766 0 00-6.452-24.573c13.911-8.909 23.148-24.5 23.148-42.21a49.766 49.766 0 00-6.452-24.573C502.763 250.531 512 234.939 512 217.229zm-411.826 0v250.435H33.391v-267.13h66.783v16.695zm361.739 16.696h-50.087c-9.22 0-16.696 7.475-16.696 16.696s7.475 16.696 16.696 16.696h33.391c9.206 0 16.696 7.49 16.696 16.696s-7.49 16.696-16.696 16.696H395.13c-9.22 0-16.696 7.475-16.696 16.696s7.475 16.696 16.696 16.696h33.391c9.206 0 16.696 7.49 16.696 16.696s-7.49 16.696-16.696 16.696h-16.696c-.875 0-1.727.088-2.567.217h-31.933c-9.22 0-16.696 7.475-16.696 16.696 0 9.22 7.475 16.696 16.696 16.696h33.391c.749 0 1.48-.067 2.203-.162 8.696.568 15.602 7.804 15.602 16.64 0 9.206-7.49 16.696-16.696 16.696h-278.26V233.924h16.696c4.472 0 8.756-1.794 11.895-4.98l101.687-103.239a3.23 3.23 0 00.082-.085c21.459-22.098 35.096-50.784 38.752-81.286h.498c8.375 0 15.908 4.658 19.653 12.15 8.553 17.121 10.043 34.424 4.433 51.436l-25.72 70.171a16.694 16.694 0 0015.676 22.442h144.696c9.206 0 16.696 7.49 16.696 16.696s-7.49 16.696-16.696 16.696z"/></svg>