<svg width="647" height="125" viewBox="0 0 647 125" fill="none" xmlns="http://www.w3.org/2000/svg">
<g clip-path="url(#clip0_2_79)">
<path d="M-0.000976562 28.1996H8.19234V54.7873H45.7274V62.259H-0.000976562V28.1996Z" fill="white"/>
<path d="M86.8906 28.1996C87.1174 28.3351 95.7339 39.6782 112.725 62.259H103.912C103.625 62.033 102.657 60.7375 101.01 58.3725C99.5131 56.3389 98.712 55.3296 98.6213 55.3296H67.5713C67.2841 55.5555 65.5608 57.8754 62.4013 62.259H53.4824L79.1961 28.1996H86.8755H86.8906ZM82.9905 33.8937C81.9021 35.4302 78.017 40.5821 71.3354 49.3643H94.8874C88.8407 41.4407 84.9556 36.2889 83.2323 33.8937H83.0056H82.9905Z" fill="white"/>
<path d="M143.654 28.1996H193.811V35.5507H172.799V62.259H164.651V35.5507H143.639V28.1996H143.654Z" fill="white"/>
<path d="M228.671 28.1996C228.898 28.3351 237.514 39.6782 254.506 62.259H245.692C245.405 62.033 244.438 60.7375 242.79 58.3725C241.293 56.3389 240.492 55.3296 240.402 55.3296H209.352C209.064 55.5555 207.341 57.8754 204.182 62.259H195.263L220.976 28.1996H228.656H228.671ZM224.786 33.8937C223.697 35.4302 219.812 40.5821 213.131 49.3643H236.683C230.636 41.4407 226.751 36.2889 225.028 33.8937H224.801H224.786Z" fill="white"/>
<path d="M262.276 28.1996H270.001C285.042 37.9459 292.707 42.917 293.009 43.0977C293.054 43.1429 297.892 46.2762 307.491 52.4825V28.1996H315.639V62.259H307.959C307.823 62.2288 307.158 61.8071 305.949 60.9936C305.299 60.5869 300.159 57.2427 290.499 50.9912L270.424 37.9911V62.274H262.276V28.2146V28.1996Z" fill="white"/>
<path d="M323.408 28.1996H373.565V35.5507H352.553V62.259H344.405V35.5507H323.393V28.1996H323.408Z" fill="white"/>
<path d="M383.06 28.1996H419.28C426.339 28.1996 430.995 30.2332 433.263 34.2854C434.14 36.0328 434.578 37.9158 434.578 39.9494V40.5218C434.578 44.0166 433.369 46.7733 430.95 48.7919C430.179 49.4095 429.469 49.8765 428.819 50.1777C428.259 50.4338 427.519 50.7351 426.612 51.0665V51.1117C426.687 51.1569 429.695 54.8626 435.651 62.2288C435.606 62.259 435.561 62.274 435.531 62.274V62.2288L435.455 62.274H426.415C426.339 62.0933 425.689 61.2648 424.48 59.7734C420.746 55.0735 418.66 52.4825 418.222 51.9553H390.966L390.891 52.0306L390.936 52.0758V52.121H390.891L390.936 52.1963V62.1686H390.891L390.936 62.2439C390.936 62.2439 390.936 62.2891 390.891 62.2891H383.045V28.2297L383.06 28.1996ZM390.906 35.2494L390.951 35.2946V45.297H418.751C421.396 45.297 423.256 44.9958 424.314 44.4083C425.886 43.6099 426.672 42.2391 426.672 40.2958V40.1753C426.672 37.9911 425.674 36.5299 423.694 35.7917C422.56 35.4001 421.2 35.2193 419.597 35.2193H390.981L390.906 35.2645V35.2494Z" fill="white"/>
<path d="M445.159 28.1996H453.307V62.259H445.159V28.1996Z" fill="white"/>
<path d="M493.156 28.1995V28.2447C493.156 28.2447 493.246 28.1995 493.277 28.1995C500.714 28.1995 507.728 29.8113 514.319 33.0501C515.634 33.7129 517.176 34.8126 518.96 36.3641C520.457 37.9006 521.394 39.0756 521.772 39.8589C522.618 41.3201 523.102 42.6307 523.193 43.7906C523.238 43.7906 523.314 44.2425 523.389 45.1313H523.344L523.389 45.2066V45.7489C523.389 45.7489 523.389 45.7941 523.344 45.7941C523.344 45.8242 523.344 45.8393 523.389 45.8393C523.389 47.4813 522.8 49.3944 521.605 51.5786C520.986 52.5277 520.245 53.4466 519.368 54.3504C518.491 55.1488 517.69 55.9321 516.98 56.7004L523.54 63.6599H514.304L510.449 60.617C509.361 61.0237 507.441 61.5208 504.66 62.0782C503.314 62.2891 501.848 62.4548 500.215 62.5753V62.5301L500.094 62.5753H499.595L499.399 62.6205V62.5753L499.323 62.6205H498.673C498.522 62.6205 498.295 62.6506 498.023 62.6958V62.6205L497.948 62.6958H495.212C495.212 62.6958 495.136 62.6656 495.136 62.6205V62.6958C494.516 62.6506 494.063 62.6205 493.791 62.6205H492.823C492.823 62.6205 492.778 62.6205 492.778 62.5753C492.748 62.5753 492.732 62.5753 492.732 62.6205C492.264 62.5903 491.916 62.5753 491.689 62.5753H489.951C489.951 62.5753 489.875 62.5753 489.875 62.5301L489.8 62.5753C489.8 62.5753 489.754 62.5753 489.754 62.5301C489.724 62.5301 489.709 62.5301 489.709 62.5753C489.422 62.5451 489.21 62.5301 489.059 62.5301H488.56L488.485 62.4849V62.5301L488.409 62.4849H487.865V62.4397C487.865 62.4397 487.789 62.4397 487.789 62.4849L487.593 62.4397H487.245L487.169 62.3644V62.4397L487.048 62.3644C485.869 62.3644 483.783 62.033 480.79 61.3702C478.855 60.858 477.132 60.2404 475.62 59.5173C474.335 58.8696 472.929 58.0561 471.418 57.0619C470.359 56.2936 469.18 55.2844 467.865 54.019C466.399 52.4072 465.446 50.961 465.008 49.6655C464.464 48.2345 464.192 46.939 464.192 45.8092L464.146 45.6133C464.146 45.6133 464.192 45.5832 464.192 45.538L464.146 45.4175C464.177 44.8752 464.192 44.5287 464.192 44.3781C464.222 44.3781 464.237 44.348 464.237 44.3028H464.192C464.373 42.4499 465.008 40.5971 466.127 38.7292C466.595 38.0814 467.276 37.2981 468.168 36.3491C468.213 36.3491 468.561 36.0629 469.211 35.5055C471.917 33.5623 474.184 32.2216 476.013 31.4985C478.099 30.7001 480.775 29.9469 484.04 29.2239C484.947 29.013 486.277 28.787 488.061 28.5309V28.5761L489.649 28.3803V28.4255L490.193 28.305V28.3803L490.268 28.305C491.992 28.2296 492.959 28.1844 493.171 28.1844L493.156 28.1995ZM492.415 34.0594C489.301 34.0594 485.507 34.7824 481.017 36.2135C479.006 36.9516 477.162 38.0814 475.499 39.6029C473.806 41.4256 472.944 43.3839 472.944 45.4928C472.944 48.7316 474.985 51.5033 479.052 53.8382C480.11 54.4558 481.244 54.968 482.453 55.3747C486.489 56.4744 489.618 57.0318 491.84 57.0318V57.077C491.84 57.077 491.886 57.077 491.886 57.0318L492.113 57.077H494.743L494.939 57.0318V57.077C494.939 57.077 495.045 57.0318 495.091 57.0318C497.479 57.0318 500.593 56.4895 504.433 55.4199C510.918 53.4014 514.168 50.2229 514.168 45.9146V45.6887C514.168 40.9737 510.857 37.6295 504.251 35.6863C502.558 35.144 500.865 34.7372 499.187 34.451C498.961 34.451 498.673 34.4058 498.341 34.3305V34.3757L497.691 34.2251V34.3004C496.708 34.1497 495.741 34.0744 494.758 34.0744V34.0292C494.758 34.0292 494.713 34.0292 494.713 34.0744L494.486 34.0292H493.216C493.065 34.0292 492.838 34.0292 492.566 34.0744V34.0292C492.566 34.0292 492.475 34.0744 492.445 34.0744L492.415 34.0594Z" fill="white"/>
<path d="M531.31 28.1995H539.458V45.5079C539.458 49.6354 540.924 52.4072 543.857 53.8232C545.459 54.6667 547.575 55.0885 550.236 55.0885H566.955C571.46 55.0885 574.574 53.8232 576.297 51.2774C576.736 50.6597 577.083 49.9216 577.34 49.0479C577.628 48.0537 577.764 46.6377 577.764 44.815V28.1844H585.912V45.1916C585.912 49.4245 585.125 52.7687 583.553 55.2392C581.951 57.785 579.517 59.6529 576.222 60.858C573.758 61.7769 570.553 62.2439 566.638 62.2439H550.568C545.519 62.2439 541.574 61.4455 538.717 59.8638C533.774 57.1975 531.31 52.4825 531.31 45.7339V28.1844V28.1995Z" fill="white"/>
<path d="M595.904 28.1996H646.999V35.0537H605.64V42.1638C616.584 42.1186 624.959 42.0885 630.779 42.0885H646.999V49.0179C633.636 49.0631 623.115 49.0932 615.45 49.0932H605.76V50.946L605.715 51.0666C605.715 51.0666 605.76 51.1117 605.76 51.1871C605.73 51.1871 605.715 51.1871 605.715 51.2323H605.76L605.715 51.3829V55.3899H646.999V62.3494H595.904V28.2147V28.1996ZM630.93 3.05176e-05C632.139 1.49135 633.878 3.75093 636.145 6.77877C636.009 6.95954 629.705 12.0059 617.219 21.9481C616.962 21.6167 615.193 19.4023 611.928 15.3351L630.93 0.0150944V3.05176e-05Z" fill="white"/>
<path d="M200.781 102.284C200.781 102.479 200.555 102.675 200.116 102.841C199.678 103.007 199.194 103.097 198.65 103.097C197.97 103.097 197.304 102.841 196.624 102.344C195.944 101.847 195.611 101.184 195.611 100.37C195.611 97.1468 199.587 93.0494 207.508 88.1084C215.445 83.1675 224.772 78.8442 235.52 75.1384C246.253 71.4327 255.474 69.5949 263.168 69.5949C268.701 69.5949 273.13 70.3331 276.441 71.8093C279.752 73.2856 281.399 75.2439 281.399 77.6692C281.399 82.5197 278.179 87.4908 271.725 92.6125C265.27 97.7342 258.135 102.148 250.304 105.884C242.473 109.62 237.712 111.488 236.019 111.488H235.52C236.2 117.543 236.669 121.219 236.941 122.484C237.137 123.222 237.047 123.599 236.638 123.599C236.306 123.599 235.898 123.343 235.429 122.846C234.96 122.349 234.658 121.791 234.522 121.174C233.177 116.534 232.255 112.858 231.786 110.177C230.697 109.228 230.168 107.752 230.168 105.733C230.168 103.85 230.607 101.365 231.484 98.2615C231.816 93.0193 232.632 88.4398 233.917 84.5383C234.189 83.8002 234.658 83.2127 235.338 82.7758C236.019 82.339 236.729 82.113 237.47 82.113C237.938 82.113 238.301 82.2486 238.528 82.5197C238.77 82.7909 238.785 83.1524 238.573 83.6345C237.561 86.4665 236.517 89.6299 235.429 93.1247L235.233 96.0471C235.157 97.0564 235.096 98.141 235.036 99.2858C234.976 100.431 234.93 101.5 234.93 102.509C234.93 103.323 235.066 105.537 235.338 109.168C235.746 109.303 236.079 109.364 236.351 109.364C239.118 109.364 243.834 107.45 250.485 103.609C257.137 99.7679 263.153 95.3843 268.52 90.4283C273.886 85.4873 276.577 81.3297 276.577 77.9554C276.577 76.8105 276.381 75.7711 275.972 74.8221C275.564 73.8881 274.37 72.9994 272.375 72.201C270.379 71.3875 267.265 70.9959 263.002 70.9959C256.32 70.9959 247.825 72.8487 237.53 76.5544C227.236 80.2602 218.151 84.4931 210.29 89.2684C202.429 94.0436 198.484 97.8548 198.484 100.672C198.484 101.681 199.164 102.178 200.509 102.178L200.812 102.284H200.781Z" fill="white"/>
<path d="M276.954 116.519C277.226 115.645 278.118 114.56 279.645 113.295C281.172 112.03 282.865 110.9 284.754 109.966C286.644 109.017 288.337 108.55 289.818 108.55C291.98 108.55 293.023 109.122 292.963 110.267H293.069C293.341 110.343 293.567 110.493 293.779 110.719C293.976 110.96 294.081 111.171 294.081 111.382L293.976 111.578C293.779 111.985 293.537 112.677 293.265 113.642C292.993 114.621 292.857 115.645 292.857 116.715C292.857 117.317 293.174 117.859 293.824 118.326C294.459 118.793 295.397 119.034 296.606 119.034C302.622 119.034 308.488 117.935 314.232 115.751C319.977 113.566 324.36 111.322 327.399 109.032C327.671 108.761 328.14 108.625 328.82 108.625C329.5 108.625 329.833 108.761 329.833 109.032C329.833 109.228 329.697 109.439 329.425 109.635C325.177 112.602 320.143 115.163 314.338 117.362C308.533 119.547 302.789 120.646 297.12 120.646C294.49 120.646 292.555 120.36 291.345 119.788C290.136 119.215 289.516 118.055 289.516 116.308C289.516 115.434 289.713 114.395 290.121 113.175L286.977 115.299C285.888 116.112 284.785 116.88 283.636 117.618C282.487 118.357 281.534 118.793 280.794 118.929C280.597 119.004 280.295 119.034 279.887 119.034C279.01 119.034 278.239 118.793 277.559 118.326C276.878 117.859 276.682 117.257 276.954 116.504V116.519ZM281.005 116.926C283.167 115.314 285.238 113.943 287.233 112.843C289.229 111.728 290.831 110.945 292.041 110.478C291.769 110.147 291.36 109.981 290.831 109.981C289.818 109.981 288.488 110.463 286.825 111.442C285.178 112.421 283.742 113.476 282.517 114.621C281.308 115.766 280.794 116.534 280.99 116.941L281.005 116.926ZM292.857 110.569L292.041 110.463L292.948 110.267L292.842 110.569H292.857Z" fill="white"/>
<path d="M327.898 109.514C328.578 109.138 329.183 108.957 329.727 108.957C330.408 108.957 330.68 109.153 330.544 109.559C330.135 111.714 329.909 113.536 329.833 115.013C333.552 112.316 337.225 110.147 340.868 108.505C344.512 106.863 347.656 106.034 350.286 106.034C351.435 106.034 352.327 106.14 352.977 106.336C353.627 106.532 354.247 106.908 354.851 107.45C355.184 107.782 355.396 108.068 355.456 108.309C355.517 108.55 355.426 108.625 355.154 108.565C354.957 108.505 354.458 108.309 353.687 108.008C352.917 107.707 352.085 107.556 351.208 107.556C348.306 107.556 345.267 108.43 342.093 110.177C338.918 111.924 335.305 114.32 331.254 117.347C330.982 117.619 330.528 117.829 329.894 118.01C329.244 118.176 328.654 118.266 328.125 118.266C327.052 118.266 326.477 117.995 326.402 117.453C326.266 116.911 326.205 115.977 326.205 114.621C326.205 112.873 326.341 111.623 326.613 110.885C326.81 110.343 327.248 109.891 327.928 109.514H327.898Z" fill="white"/>
<path d="M380.369 119.954C378.48 119.954 377.044 119.547 376.061 118.748C375.078 117.95 374.595 116.835 374.595 115.419C374.595 114.546 374.701 113.627 374.897 112.648C375.094 111.668 375.335 110.915 375.608 110.373C375.94 109.695 376.424 109.183 377.029 108.806C377.633 108.43 378.177 108.249 378.646 108.249C379.326 108.249 379.553 108.52 379.357 109.062C378.268 111.352 377.739 113.566 377.739 115.721C377.739 117.543 378.722 118.447 380.672 118.447C383.438 118.447 387.202 117.905 391.964 116.835C396.726 115.766 401.276 114.485 405.645 112.994C409.998 111.518 412.946 110.207 414.503 109.062C414.775 108.791 415.244 108.656 415.924 108.656C416.604 108.656 416.937 108.791 416.937 109.062C416.937 109.258 416.801 109.469 416.529 109.665C414.095 111.352 410.512 112.979 405.796 114.561C401.064 116.142 396.272 117.438 391.405 118.447C386.537 119.456 382.864 119.954 380.369 119.954ZM379.961 98.5629C379.961 96.1376 381.004 94.9325 383.105 94.9325C383.574 94.9325 384.028 95.0379 384.481 95.2337C384.92 95.4296 385.146 95.6103 385.146 95.7308L385.04 95.9267C384.844 96.1225 384.33 96.8004 383.529 97.9452C382.712 99.0901 382.078 99.6625 381.609 99.6625C381.14 99.6625 380.747 99.5571 380.445 99.3612C380.143 99.1654 379.991 98.8943 379.991 98.5478L379.961 98.5629Z" fill="white"/>
<path d="M424.934 104.317C423.105 104.995 421.321 105.899 419.568 107.044C417.814 108.189 416.937 108.957 416.937 109.363C416.937 109.559 417.708 109.74 419.265 109.861C421.291 110.056 422.893 110.343 424.073 110.719C425.252 111.096 425.841 111.744 425.841 112.693C425.841 114.244 425.146 115.856 423.77 117.543C422.38 119.23 420.807 120.707 419.054 121.987C417.3 123.267 415.94 124.111 415.003 124.518C414.322 124.849 413.582 125.015 412.765 125.015C412.357 125.015 412.085 124.94 411.949 124.819C411.813 124.699 411.873 124.518 412.145 124.322C414.232 123.041 416.378 121.324 418.57 119.17C420.762 117.016 421.866 114.892 421.866 112.813C421.866 112.346 421.548 112 420.898 111.804C420.263 111.608 419.296 111.397 418.011 111.201C416.726 111.005 415.758 110.795 415.123 110.599C414.489 110.403 414.156 110.056 414.156 109.589C414.156 109.122 414.746 108.399 415.925 107.42C417.104 106.441 418.434 105.567 419.931 104.799C421.412 104.031 422.667 103.639 423.68 103.639C424.753 103.639 425.297 103.775 425.297 104.046C425.297 104.121 425.161 104.212 424.889 104.347L424.934 104.317Z" fill="white"/>
</g>
<defs>
<clipPath id="clip0_2_79">
<rect width="647" height="125" fill="white"/>
</clipPath>
</defs>
</svg>
