<svg width="146" height="38" viewBox="0 0 146 38" fill="none" xmlns="http://www.w3.org/2000/svg">
<g clip-path="url(#clip0_2010_2915)">
<path d="M-0.000976562 8.57269H1.8479V16.6554H10.318V18.9267H-0.000976562V8.57269Z" fill="black"/>
<path d="M19.6071 8.57269C19.6583 8.6139 21.6027 12.0622 25.4369 18.9267H23.4482C23.3834 18.8581 23.165 18.4642 22.7932 17.7453C22.4555 17.127 22.2747 16.8202 22.2542 16.8202H15.2476C15.1828 16.8889 14.7939 17.5941 14.081 18.9267H12.0684L17.8708 8.57269H19.6037H19.6071ZM18.7271 10.3037C18.4814 10.7708 17.6048 12.337 16.097 15.0068H21.4117C20.0472 12.598 19.1705 11.0318 18.7816 10.3037H18.7305H18.7271Z" fill="black"/>
<path d="M32.4155 8.57269H43.7339V10.8074H38.9923V18.9267H37.1537V10.8074H32.4121V8.57269H32.4155Z" fill="black"/>
<path d="M51.6003 8.57269C51.6515 8.6139 53.5959 12.0622 57.4301 18.9267H55.4413C55.3765 18.8581 55.1582 18.4642 54.7864 17.7453C54.4487 17.127 54.2679 16.8202 54.2474 16.8202H47.2408C47.176 16.8889 46.7871 17.5941 46.0741 18.9267H44.0615L49.864 8.57269H51.5969H51.6003ZM50.7236 10.3037C50.478 10.7708 49.6013 12.337 48.0936 15.0068H53.4083C52.0438 12.598 51.1671 11.0318 50.7782 10.3037H50.727H50.7236Z" fill="black"/>
<path d="M59.1836 8.57269H60.9267C64.3209 11.5356 66.0504 13.0468 66.1186 13.1017C66.1288 13.1155 67.2204 14.068 69.3865 15.9547V8.57269H71.2252V18.9267H69.4923C69.4616 18.9176 69.3115 18.7894 69.0386 18.5421C68.8919 18.4184 67.7321 17.4018 65.5523 15.5013L61.0222 11.5493V18.9313H59.1836V8.57726V8.57269Z" fill="black"/>
<path d="M72.978 8.57269H84.2964V10.8074H79.5548V18.9267H77.7162V10.8074H72.9746V8.57269H72.978Z" fill="black"/>
<path d="M86.439 8.57269H94.6122C96.2053 8.57269 97.2559 9.19091 97.7676 10.4228C97.9654 10.954 98.0644 11.5264 98.0644 12.1446V12.3186C98.0644 13.3811 97.7915 14.2191 97.2457 14.8327C97.0717 15.0205 96.9114 15.1625 96.7647 15.2541C96.6385 15.3319 96.4713 15.4235 96.2667 15.5242V15.538C96.2837 15.5517 96.9626 16.6783 98.3066 18.9176C98.2963 18.9267 98.2861 18.9313 98.2793 18.9313V18.9176L98.2622 18.9313H96.2223C96.2053 18.8764 96.0586 18.6245 95.7857 18.1711C94.9431 16.7424 94.4724 15.9547 94.3734 15.7944H88.223L88.206 15.8173L88.2162 15.8311V15.8448H88.206L88.2162 15.8677V18.8993H88.206L88.2162 18.9222C88.2162 18.9222 88.2162 18.9359 88.206 18.9359H86.4355V8.58184L86.439 8.57269ZM88.2094 10.7159L88.2196 10.7296V13.7703H94.4928C95.0898 13.7703 95.5094 13.6787 95.7482 13.5001C96.1029 13.2574 96.2803 12.8407 96.2803 12.25V12.2133C96.2803 11.5493 96.0552 11.1051 95.6083 10.8807C95.3525 10.7616 95.0455 10.7067 94.6839 10.7067H88.2264L88.2094 10.7204V10.7159Z" fill="black"/>
<path d="M100.452 8.57269H102.291V18.9267H100.452V8.57269Z" fill="black"/>
<path d="M111.283 8.57267V8.58641C111.283 8.58641 111.304 8.57267 111.311 8.57267C112.989 8.57267 114.572 9.06267 116.059 10.0472C116.356 10.2487 116.704 10.583 117.106 11.0547C117.444 11.5218 117.656 11.879 117.741 12.1171C117.932 12.5613 118.041 12.9598 118.062 13.3124C118.072 13.3124 118.089 13.4498 118.106 13.7199H118.096L118.106 13.7428V13.9077C118.106 13.9077 118.106 13.9214 118.096 13.9214C118.096 13.9306 118.096 13.9352 118.106 13.9352C118.106 14.4343 117.973 15.0159 117.703 15.6799C117.563 15.9684 117.396 16.2478 117.198 16.5225C117.001 16.7652 116.82 17.0034 116.659 17.2369L118.14 19.3526H116.056L115.186 18.4276C114.94 18.5512 114.507 18.7023 113.879 18.8718C113.576 18.9359 113.245 18.9863 112.876 19.0229V19.0092L112.849 19.0229H112.737L112.692 19.0366V19.0229L112.675 19.0366H112.529C112.494 19.0366 112.443 19.0458 112.382 19.0595V19.0366L112.365 19.0595H111.747C111.747 19.0595 111.73 19.0504 111.73 19.0366V19.0595C111.59 19.0458 111.488 19.0366 111.427 19.0366H111.208C111.208 19.0366 111.198 19.0366 111.198 19.0229C111.191 19.0229 111.188 19.0229 111.188 19.0366C111.082 19.0275 111.004 19.0229 110.953 19.0229H110.56C110.56 19.0229 110.543 19.0229 110.543 19.0092L110.526 19.0229C110.526 19.0229 110.516 19.0229 110.516 19.0092C110.509 19.0092 110.506 19.0092 110.506 19.0229C110.441 19.0137 110.393 19.0092 110.359 19.0092H110.246L110.229 18.9954V19.0092L110.212 18.9954H110.09V18.9817C110.09 18.9817 110.072 18.9817 110.072 18.9954L110.028 18.9817H109.95L109.933 18.9588V18.9817L109.905 18.9588C109.639 18.9588 109.168 18.858 108.493 18.6565C108.056 18.5008 107.668 18.3131 107.326 18.0933C107.036 17.8964 106.719 17.6491 106.378 17.3468C106.139 17.1133 105.873 16.8065 105.576 16.4218C105.246 15.9318 105.031 15.4922 104.932 15.0983C104.809 14.6633 104.748 14.2695 104.748 13.926L104.737 13.8665C104.737 13.8665 104.748 13.8573 104.748 13.8436L104.737 13.8069C104.744 13.6421 104.748 13.5368 104.748 13.491C104.754 13.491 104.758 13.4818 104.758 13.4681H104.748C104.788 12.9048 104.932 12.3415 105.184 11.7737C105.29 11.5768 105.443 11.3386 105.645 11.0501C105.655 11.0501 105.733 10.9631 105.88 10.7937C106.491 10.2029 107.002 9.79538 107.415 9.57556C107.886 9.33286 108.49 9.10388 109.226 8.88407C109.431 8.81996 109.731 8.75127 110.134 8.67342V8.68716L110.492 8.62763V8.64136L110.615 8.60473V8.62763L110.632 8.60473C111.021 8.58183 111.239 8.56809 111.287 8.56809L111.283 8.57267ZM111.116 10.3541C110.414 10.3541 109.557 10.5739 108.544 11.0089C108.091 11.2333 107.674 11.5768 107.299 12.0393C106.917 12.5934 106.723 13.1887 106.723 13.8298C106.723 14.8144 107.183 15.657 108.101 16.3668C108.34 16.5546 108.595 16.7103 108.868 16.8339C109.779 17.1682 110.485 17.3377 110.987 17.3377V17.3514C110.987 17.3514 110.997 17.3514 110.997 17.3377L111.048 17.3514H111.642L111.686 17.3377V17.3514C111.686 17.3514 111.71 17.3377 111.72 17.3377C112.259 17.3377 112.962 17.1728 113.828 16.8477C115.292 16.234 116.025 15.2678 116.025 13.9581V13.8894C116.025 12.456 115.278 11.4394 113.787 10.8486C113.405 10.6838 113.023 10.5601 112.644 10.4731C112.593 10.4731 112.529 10.4594 112.453 10.4365V10.4502L112.307 10.4044V10.4273C112.085 10.3815 111.867 10.3586 111.645 10.3586V10.3449C111.645 10.3449 111.635 10.3449 111.635 10.3586L111.584 10.3449H111.297C111.263 10.3449 111.212 10.3449 111.15 10.3586V10.3449C111.15 10.3449 111.13 10.3586 111.123 10.3586L111.116 10.3541Z" fill="black"/>
<path d="M119.893 8.57267H121.731V13.8344C121.731 15.0892 122.062 15.9318 122.724 16.3623C123.085 16.6187 123.563 16.7469 124.163 16.7469H127.936C128.953 16.7469 129.655 16.3623 130.044 15.5883C130.143 15.4006 130.222 15.1762 130.28 14.9106C130.345 14.6083 130.375 14.1779 130.375 13.6238V8.56809H132.214V13.7383C132.214 15.0251 132.037 16.0417 131.682 16.7927C131.32 17.5666 130.771 18.1345 130.027 18.5008C129.471 18.7802 128.748 18.9222 127.865 18.9222H124.238C123.099 18.9222 122.209 18.6794 121.564 18.1986C120.449 17.3881 119.893 15.9547 119.893 13.9031V8.56809V8.57267Z" fill="black"/>
<path d="M134.469 8.57269H145.999V10.6563H136.666V12.8178C139.135 12.8041 141.025 12.7949 142.338 12.7949H145.999V14.9014C142.983 14.9152 140.609 14.9243 138.879 14.9243H136.693V15.4876L136.683 15.5242C136.683 15.5242 136.693 15.538 136.693 15.5609C136.686 15.5609 136.683 15.5609 136.683 15.5746H136.693L136.683 15.6204V16.8385H145.999V18.9542H134.469V8.57727V8.57269ZM142.373 2.09808e-05C142.645 0.453383 143.038 1.1403 143.549 2.06076C143.519 2.11571 142.096 3.64982 139.279 6.67223C139.221 6.57148 138.821 5.89831 138.085 4.66187L142.373 0.0046004V2.09808e-05Z" fill="black"/>
<path d="M45.3073 31.0942C45.3073 31.1537 45.2561 31.2133 45.1572 31.2636C45.0582 31.314 44.9491 31.3415 44.8263 31.3415C44.6728 31.3415 44.5227 31.2636 44.3692 31.1125C44.2157 30.9614 44.1406 30.7599 44.1406 30.5126C44.1406 29.5326 45.0378 28.287 46.8253 26.785C48.6161 25.2829 50.7209 23.9686 53.1462 22.8421C55.5682 21.7156 57.649 21.1569 59.3853 21.1569C60.6338 21.1569 61.6333 21.3813 62.3804 21.83C63.1274 22.2788 63.4993 22.8741 63.4993 23.6114C63.4993 25.086 62.7727 26.5972 61.3161 28.1542C59.8595 29.7112 58.2494 31.053 56.4824 32.1887C54.7154 33.3244 53.6409 33.8922 53.2588 33.8922H53.1462C53.2997 35.7332 53.4055 36.8505 53.4669 37.2352C53.5112 37.4596 53.4908 37.5741 53.3987 37.5741C53.3236 37.5741 53.2315 37.4962 53.1258 37.3451C53.02 37.194 52.9518 37.0245 52.9211 36.8368C52.6175 35.4263 52.4094 34.309 52.3037 33.4938C52.0581 33.2053 51.9387 32.7565 51.9387 32.1429C51.9387 31.5705 52.0376 30.8149 52.2354 29.8715C52.3105 28.2779 52.4947 26.8857 52.7846 25.6996C52.846 25.4753 52.9518 25.2967 53.1053 25.1639C53.2588 25.0311 53.4191 24.9624 53.5863 24.9624C53.692 24.9624 53.7739 25.0036 53.8251 25.086C53.8796 25.1684 53.8831 25.2783 53.8353 25.4249C53.6068 26.2858 53.3714 27.2475 53.1258 28.3099L53.0814 29.1983C53.0644 29.5051 53.0507 29.8349 53.0371 30.1829C53.0234 30.5309 53.0132 30.8561 53.0132 31.1629C53.0132 31.4102 53.0439 32.0834 53.1053 33.187C53.1974 33.2282 53.2725 33.2465 53.3339 33.2465C53.9581 33.2465 55.0224 32.6649 56.5233 31.4972C58.0243 30.3294 59.3819 28.9968 60.5929 27.4902C61.8039 25.9882 62.4111 24.7242 62.4111 23.6984C62.4111 23.3504 62.3667 23.0344 62.2746 22.7459C62.1825 22.462 61.9131 22.1918 61.4628 21.9491C61.0125 21.7018 60.3098 21.5828 59.3478 21.5828C57.8401 21.5828 55.923 22.146 53.5999 23.2726C51.2769 24.3991 49.2267 25.6859 47.4529 27.1376C45.6791 28.5893 44.7888 29.7479 44.7888 30.6042C44.7888 30.911 44.9423 31.0621 45.2459 31.0621L45.3141 31.0942H45.3073Z" fill="black"/>
<path d="M62.4964 35.4217C62.5578 35.1561 62.759 34.8264 63.1036 34.4417C63.4481 34.057 63.8302 33.7136 64.2566 33.4297C64.683 33.1412 65.065 32.9992 65.3993 32.9992C65.8871 32.9992 66.1225 33.1732 66.1089 33.5213H66.1327C66.1941 33.5442 66.2453 33.5899 66.2931 33.6586C66.3374 33.7319 66.3613 33.796 66.3613 33.8601L66.3374 33.9197C66.2931 34.0433 66.2385 34.254 66.1771 34.547C66.1157 34.8447 66.085 35.1561 66.085 35.4812C66.085 35.6644 66.1566 35.8293 66.3033 35.9712C66.4466 36.1132 66.6581 36.1865 66.931 36.1865C68.2886 36.1865 69.6122 35.8522 70.9084 35.1882C72.2047 34.5241 73.194 33.8418 73.8796 33.1457C73.941 33.0633 74.0468 33.0221 74.2003 33.0221C74.3538 33.0221 74.4288 33.0633 74.4288 33.1457C74.4288 33.2053 74.3981 33.2694 74.3367 33.3289C73.3782 34.2311 72.2422 35.0096 70.9323 35.6782C69.6224 36.3422 68.3261 36.6765 67.0469 36.6765C66.4534 36.6765 66.0168 36.5895 65.7439 36.4154C65.471 36.2414 65.3311 35.8888 65.3311 35.3576C65.3311 35.092 65.3754 34.776 65.4675 34.4051L64.758 35.0508C64.5124 35.2981 64.2634 35.5316 64.0041 35.756C63.7449 35.9804 63.53 36.1132 63.3628 36.1544C63.3185 36.1773 63.2503 36.1865 63.1582 36.1865C62.9603 36.1865 62.7863 36.1132 62.6328 35.9712C62.4793 35.8293 62.435 35.6461 62.4964 35.4171V35.4217ZM63.4106 35.5454C63.8984 35.0554 64.3657 34.6386 64.816 34.3043C65.2663 33.9655 65.6279 33.7273 65.9008 33.5854C65.8394 33.4846 65.7473 33.4342 65.6279 33.4342C65.3993 33.4342 65.0991 33.5808 64.7239 33.8785C64.3521 34.1761 64.028 34.4967 63.7517 34.8447C63.4788 35.1927 63.3628 35.4263 63.4072 35.5499L63.4106 35.5454ZM66.085 33.6128L65.9008 33.5808L66.1054 33.5213L66.0816 33.6128H66.085Z" fill="black"/>
<path d="M73.9924 33.2923C74.1459 33.1778 74.2824 33.1229 74.4052 33.1229C74.5587 33.1229 74.6201 33.1824 74.5894 33.3061C74.4973 33.9609 74.4461 34.515 74.429 34.9638C75.2682 34.1441 76.0971 33.4847 76.9192 32.9855C77.7413 32.4863 78.4509 32.2345 79.0444 32.2345C79.3037 32.2345 79.5049 32.2665 79.6516 32.3261C79.7983 32.3856 79.9382 32.5001 80.0746 32.6649C80.1497 32.7657 80.1974 32.8527 80.2111 32.926C80.2247 32.9992 80.2042 33.0221 80.1428 33.0038C80.0985 32.9855 79.9859 32.926 79.8119 32.8344C79.638 32.7428 79.4504 32.697 79.2525 32.697C78.5976 32.697 77.9119 32.9626 77.1955 33.4938C76.4792 34.025 75.6639 34.7532 74.7497 35.6736C74.6883 35.7561 74.586 35.8202 74.4427 35.8751C74.296 35.9255 74.163 35.953 74.0436 35.953C73.8014 35.953 73.6718 35.8705 73.6547 35.7057C73.624 35.5408 73.6104 35.2569 73.6104 34.8447C73.6104 34.3135 73.6411 33.9334 73.7025 33.7091C73.7468 33.5442 73.8457 33.4068 73.9992 33.2923H73.9924Z" fill="black"/>
<path d="M85.8324 36.4659C85.406 36.4659 85.0819 36.3422 84.8602 36.0995C84.6385 35.8568 84.5293 35.5179 84.5293 35.0875C84.5293 34.8219 84.5532 34.5425 84.5975 34.2449C84.6419 33.9472 84.6964 33.7182 84.7578 33.5534C84.8329 33.3473 84.9421 33.1916 85.0785 33.0771C85.215 32.9626 85.3378 32.9077 85.4435 32.9077C85.597 32.9077 85.6482 32.9901 85.6038 33.155C85.3582 33.851 85.2388 34.5242 85.2388 35.1791C85.2388 35.7332 85.4606 36.0079 85.9006 36.0079C86.5249 36.0079 87.3743 35.8431 88.4488 35.5179C89.5233 35.1928 90.5501 34.8036 91.5359 34.3502C92.5184 33.9014 93.1836 33.503 93.5349 33.155C93.5963 33.0725 93.7021 33.0313 93.8556 33.0313C94.0091 33.0313 94.0841 33.0725 94.0841 33.155C94.0841 33.2145 94.0534 33.2786 93.992 33.3381C93.4428 33.851 92.6343 34.3456 91.57 34.8265C90.5023 35.3073 89.421 35.7011 88.3226 36.0079C87.2242 36.3148 86.3952 36.4659 85.8324 36.4659ZM85.7403 29.9631C85.7403 29.2258 85.9756 28.8595 86.4498 28.8595C86.5556 28.8595 86.6579 28.8915 86.7602 28.9511C86.8592 29.0106 86.9103 29.0655 86.9103 29.1022L86.8864 29.1617C86.8421 29.2212 86.7261 29.4273 86.5453 29.7754C86.3611 30.1234 86.2178 30.2974 86.1121 30.2974C86.0064 30.2974 85.9177 30.2654 85.8494 30.2058C85.7812 30.1463 85.7471 30.0639 85.7471 29.9585L85.7403 29.9631Z" fill="black"/>
<path d="M95.8894 31.7124C95.4766 31.9185 95.0741 32.1932 94.6784 32.5413C94.2827 32.8893 94.0849 33.1229 94.0849 33.2465C94.0849 33.306 94.2588 33.361 94.6102 33.3976C95.0673 33.4572 95.4289 33.5442 95.695 33.6587C95.961 33.7731 96.0941 33.9701 96.0941 34.2586C96.0941 34.7302 95.9371 35.2202 95.6267 35.7331C95.3129 36.246 94.9581 36.6948 94.5624 37.0841C94.1667 37.4733 93.8597 37.7298 93.6482 37.8534C93.4947 37.9541 93.3276 38.0045 93.1434 38.0045C93.0513 38.0045 92.9899 37.9816 92.9592 37.945C92.9285 37.9084 92.9421 37.8534 93.0035 37.7939C93.4743 37.4046 93.9586 36.8826 94.4533 36.2277C94.9479 35.5728 95.1969 34.9272 95.1969 34.2952C95.1969 34.1532 95.1253 34.0479 94.9786 33.9884C94.8353 33.9288 94.617 33.8647 94.3271 33.8052C94.0371 33.7457 93.8188 33.6815 93.6755 33.622C93.5322 33.5625 93.4572 33.4572 93.4572 33.3152C93.4572 33.1732 93.5902 32.9534 93.8563 32.6558C94.1224 32.3581 94.4226 32.0925 94.7603 31.8589C95.0946 31.6254 95.3777 31.5063 95.6063 31.5063C95.8485 31.5063 95.9713 31.5475 95.9713 31.63C95.9713 31.6529 95.9406 31.6803 95.8792 31.7216L95.8894 31.7124Z" fill="black"/>
</g>
<defs>
<clipPath id="clip0_2010_2915">
<rect width="146" height="38" fill="white"/>
</clipPath>
</defs>
</svg>
