<svg width="102" height="32" viewBox="0 0 102 32" fill="none" xmlns="http://www.w3.org/2000/svg">
<g clip-path="url(#clip0_2212_1919)">
<path fill-rule="evenodd" clip-rule="evenodd" d="M51.5875 0.201518C62.9478 -0.352214 73.4482 0.258824 81.9709 1.7442C76.8137 1.45246 71.2935 1.40801 65.5536 1.6479C37.0626 2.83875 13.9661 10.5764 13.9661 18.9303C13.9661 25.6239 28.7953 30.6813 49.3454 31.8149C21.895 32.7941 0 26.95 0 18.4757C0 9.77173 23.0965 1.59 51.5875 0.201518Z" fill="#8E0F12"/>
<path d="M93.2799 25.1326C92.7154 25.1326 92.2578 24.6714 92.2578 24.1024V13.217H85.5102C84.9458 13.217 84.4883 12.7558 84.4883 12.1868C84.4883 11.6179 84.9458 11.1567 85.5102 11.1567H93.2799H101.049C101.614 11.1567 102.072 11.6179 102.072 12.1868C102.072 12.7558 101.614 13.217 101.049 13.217H94.302V24.1024C94.302 24.6714 93.8443 25.1326 93.2799 25.1326Z" fill="#4A5565"/>
<path d="M41.7482 21.1394C41.7482 21.6718 41.6425 22.1776 41.4314 22.6567C41.2202 23.1359 40.9305 23.5587 40.5626 23.9247C40.1947 24.2905 39.762 24.5836 39.2647 24.8032C38.7675 25.0226 38.2323 25.1326 37.6602 25.1326H26.3803C25.8333 25.1326 25.3899 24.6856 25.3899 24.1343C25.3899 23.5831 25.8333 23.1361 26.3803 23.1361H37.6602C38.2325 23.1361 38.7163 22.9431 39.1114 22.557C39.5065 22.171 39.7042 21.6986 39.7042 21.1394C39.7042 20.5805 39.5065 20.1079 39.1114 19.722C38.7163 19.3361 38.2323 19.143 37.6602 19.143H29.4556C28.9106 19.143 28.3893 19.0397 27.892 18.8335C27.3946 18.6272 26.9585 18.3443 26.5839 17.985C26.2091 17.6256 25.9128 17.2029 25.6947 16.7171C25.4767 16.2313 25.3677 15.709 25.3677 15.1499C25.3677 14.6175 25.4733 14.1117 25.6844 13.6325C25.8956 13.1533 26.1853 12.7306 26.5531 12.3647C26.9211 11.9987 27.3538 11.7058 27.851 11.4862C28.3485 11.2667 28.8832 11.1567 29.4556 11.1567H40.4695C41.0166 11.1567 41.46 11.6037 41.46 12.1549C41.46 12.7063 41.0166 13.1533 40.4695 13.1533H29.4556C28.8834 13.1533 28.3996 13.3464 28.0043 13.7323C27.6093 14.1183 27.4117 14.5908 27.4117 15.1499C27.4117 15.709 27.6091 16.1815 28.0043 16.5674C28.3995 16.9533 28.8832 17.1463 29.4556 17.1463H37.6602C38.1916 17.1463 38.7061 17.2496 39.2034 17.4558C39.7007 17.6621 40.1369 17.9451 40.5115 18.3044C40.8862 18.6638 41.1861 19.0865 41.4109 19.5723C41.6356 20.058 41.7482 20.5805 41.7482 21.1394Z" fill="#4A5565"/>
<path d="M80.9261 13.7114C80.7149 13.217 80.4254 12.7809 80.0573 12.4032C79.6894 12.0255 79.2566 11.7232 78.7594 11.4967C78.2622 11.2702 77.7272 11.1567 77.1549 11.1567H73.078H71.0308H68.413C67.8407 11.1567 67.3058 11.2702 66.8086 11.4967C66.3113 11.7232 65.8785 12.0255 65.5106 12.4032C65.1426 12.7809 64.853 13.217 64.6419 13.7114C64.4308 14.2057 64.3252 14.7278 64.3252 15.2772V24.1025C64.3252 24.6714 64.7826 25.1326 65.3471 25.1326C65.9115 25.1326 66.3691 24.6714 66.3691 24.1025V18.9816H71.0308H73.078H79.1989V24.1025C79.1989 24.6714 79.6564 25.1326 80.2208 25.1326C80.7852 25.1326 81.2428 24.6714 81.2428 24.1025V15.2772C81.2428 14.7278 81.1371 14.2057 80.9261 13.7114ZM79.1989 16.9216H73.078H71.0308H66.3691V15.2772C66.3691 14.7004 66.5667 14.2125 66.9618 13.8144C67.3568 13.4162 67.8411 13.217 68.413 13.217H71.0308H73.078H77.1549C77.7269 13.217 78.2112 13.4162 78.6062 13.8144C79.0013 14.2125 79.1989 14.7004 79.1989 15.2772V16.9216Z" fill="#4A5565"/>
<path d="M60.0385 23.0724H49.3635C48.7911 23.0724 48.3074 22.8733 47.9121 22.4749C47.517 22.0766 47.3194 21.5891 47.3194 21.0123V20.3284V15.6471V15.277C47.3194 14.7002 47.517 14.2127 47.9121 13.8143C48.3074 13.416 48.7911 13.2169 49.3635 13.2169H60.0385C60.6029 13.2169 61.0605 12.7557 61.0605 12.1868C61.0605 11.6179 60.6029 11.1567 60.0385 11.1567H49.3635C48.8185 11.1567 48.2971 11.2633 47.7998 11.4761C47.3024 11.6888 46.8662 11.9808 46.4916 12.3515C46.1168 12.7223 45.8203 13.1586 45.6024 13.6599C45.3844 14.1611 45.2754 14.7002 45.2754 15.277V15.6471V20.3284V21.0123C45.2754 21.5891 45.3844 22.1282 45.6024 22.6295C45.8203 23.1307 46.1168 23.5669 46.4916 23.9378C46.8662 24.3085 47.3024 24.6004 47.7998 24.8132C48.2971 25.026 48.8185 25.1326 49.3635 25.1326H60.0385C60.6029 25.1326 61.0605 24.6714 61.0605 24.1025C61.0605 23.5336 60.6029 23.0724 60.0385 23.0724Z" fill="#4A5565"/>
</g>
<defs>
<clipPath id="clip0_2212_1919">
<rect width="102" height="32" fill="white"/>
</clipPath>
</defs>
</svg>
