<svg width="102" height="32" viewBox="0 0 102 32" fill="none" xmlns="http://www.w3.org/2000/svg">
<g clip-path="url(#clip0_2153_1850)">
<path fill-rule="evenodd" clip-rule="evenodd" d="M51.5875 0.201518C62.9478 -0.352214 73.4482 0.258824 81.9709 1.7442C76.8137 1.45246 71.2935 1.40801 65.5536 1.6479C37.0626 2.83875 13.9661 10.5764 13.9661 18.9303C13.9661 25.6239 28.7953 30.6813 49.3454 31.8149C21.895 32.7941 0 26.95 0 18.4757C0 9.77173 23.0965 1.59 51.5875 0.201518Z" fill="#8E0F12"/>
<path d="M93.2799 25.1326C92.7154 25.1326 92.2578 24.6714 92.2578 24.1024V13.217H85.5102C84.9458 13.217 84.4883 12.7558 84.4883 12.1868C84.4883 11.6179 84.9458 11.1567 85.5102 11.1567H93.2799H101.049C101.614 11.1567 102.072 11.6179 102.072 12.1868C102.072 12.7558 101.614 13.217 101.049 13.217H94.302V24.1024C94.302 24.6714 93.8443 25.1326 93.2799 25.1326Z" fill="white"/>
<path d="M41.748 21.1394C41.748 21.6718 41.6423 22.1776 41.4311 22.6567C41.2199 23.1359 40.9302 23.5587 40.5623 23.9247C40.1944 24.2905 39.7618 24.5836 39.2644 24.8032C38.7672 25.0226 38.232 25.1326 37.66 25.1326H26.38C25.833 25.1326 25.3897 24.6856 25.3897 24.1343C25.3897 23.5831 25.833 23.1361 26.38 23.1361H37.66C38.2322 23.1361 38.7161 22.9431 39.1111 22.557C39.5062 22.171 39.7039 21.6986 39.7039 21.1394C39.7039 20.5805 39.5062 20.1079 39.1111 19.722C38.7161 19.3361 38.2321 19.143 37.66 19.143H29.4554C28.9104 19.143 28.3891 19.0397 27.8918 18.8335C27.3944 18.6272 26.9583 18.3443 26.5836 17.985C26.2089 17.6256 25.9125 17.2029 25.6944 16.7171C25.4764 16.2313 25.3674 15.709 25.3674 15.1499C25.3674 14.6175 25.4731 14.1117 25.6842 13.6325C25.8954 13.1533 26.185 12.7306 26.5529 12.3647C26.9208 11.9987 27.3536 11.7058 27.8508 11.4862C28.3483 11.2667 28.883 11.1567 29.4554 11.1567H40.4693C41.0163 11.1567 41.4597 11.6037 41.4597 12.1549C41.4597 12.7063 41.0163 13.1533 40.4693 13.1533H29.4554C28.8831 13.1533 28.3993 13.3464 28.004 13.7323C27.609 14.1183 27.4114 14.5908 27.4114 15.1499C27.4114 15.709 27.6089 16.1815 28.004 16.5674C28.3993 16.9533 28.883 17.1463 29.4554 17.1463H37.66C38.1914 17.1463 38.7058 17.2496 39.2032 17.4558C39.7004 17.6621 40.1366 17.9451 40.5113 18.3044C40.8859 18.6638 41.1859 19.0865 41.4107 19.5723C41.6354 20.058 41.748 20.5805 41.748 21.1394Z" fill="white"/>
<path d="M80.9263 13.7114C80.7152 13.217 80.4256 12.7809 80.0576 12.4032C79.6897 12.0255 79.2569 11.7232 78.7597 11.4967C78.2624 11.2702 77.7275 11.1567 77.1552 11.1567H73.0782H71.031H68.4133C67.8409 11.1567 67.3061 11.2702 66.8088 11.4967C66.3116 11.7232 65.8788 12.0255 65.5109 12.4032C65.1429 12.7809 64.8533 13.217 64.6421 13.7114C64.4311 14.2057 64.3254 14.7278 64.3254 15.2772V24.1025C64.3254 24.6714 64.7829 25.1326 65.3473 25.1326C65.9117 25.1326 66.3693 24.6714 66.3693 24.1025V18.9816H71.031H73.0782H79.1992V24.1025C79.1992 24.6714 79.6566 25.1326 80.221 25.1326C80.7855 25.1326 81.243 24.6714 81.243 24.1025V15.2772C81.243 14.7278 81.1374 14.2057 80.9263 13.7114ZM79.1992 16.9216H73.0782H71.031H66.3693V15.2772C66.3693 14.7004 66.567 14.2125 66.962 13.8144C67.3571 13.4162 67.8413 13.217 68.4133 13.217H71.031H73.0782H77.1552C77.7271 13.217 78.2114 13.4162 78.6064 13.8144C79.0015 14.2125 79.1992 14.7004 79.1992 15.2772V16.9216Z" fill="white"/>
<path d="M60.0388 23.0724H49.3637C48.7913 23.0724 48.3077 22.8733 47.9124 22.4749C47.5172 22.0766 47.3196 21.5891 47.3196 21.0123V20.3284V15.6471V15.277C47.3196 14.7002 47.5172 14.2127 47.9124 13.8143C48.3077 13.416 48.7913 13.2169 49.3637 13.2169H60.0388C60.6032 13.2169 61.0607 12.7557 61.0607 12.1868C61.0607 11.6179 60.6032 11.1567 60.0388 11.1567H49.3637C48.8187 11.1567 48.2973 11.2633 47.8 11.4761C47.3026 11.6888 46.8665 11.9808 46.4919 12.3515C46.1171 12.7223 45.8206 13.1586 45.6027 13.6599C45.3847 14.1611 45.2756 14.7002 45.2756 15.277V15.6471V20.3284V21.0123C45.2756 21.5891 45.3847 22.1282 45.6027 22.6295C45.8206 23.1307 46.1171 23.5669 46.4919 23.9378C46.8665 24.3085 47.3026 24.6004 47.8 24.8132C48.2973 25.026 48.8187 25.1326 49.3637 25.1326H60.0388C60.6032 25.1326 61.0607 24.6714 61.0607 24.1025C61.0607 23.5336 60.6032 23.0724 60.0388 23.0724Z" fill="white"/>
</g>
<defs>
<clipPath id="clip0_2153_1850">
<rect width="102" height="32" fill="white"/>
</clipPath>
</defs>
</svg>
